<svg width="10" height="6" viewBox="0 0 10 6" fill="none" xmlns="http://www.w3.org/2000/svg">
<path d="M7.60384 4.7263C7.83684 4.7263 8.02484 4.53829 8.02484 4.30429C8.02484 4.07229 7.83684 3.8833 7.60384 3.8833C7.37084 3.8833 7.18284 4.07229 7.18284 4.30429C7.18284 4.53729 7.37084 4.7263 7.60384 4.7263ZM6.63184 4.3033C6.63184 3.7673 7.06684 3.3313 7.60484 3.3313C8.14084 3.3313 8.57684 3.7673 8.57684 4.3033C8.57684 4.8413 8.14084 5.2773 7.60484 5.2773C7.06584 5.2773 6.63184 4.8413 6.63184 4.3033Z" fill="black"/>
<path d="M9.05167 3.26215L9.04967 2.28215C9.04967 1.89115 8.70167 1.93214 8.70167 1.93214H6.73667L6.01967 0.723145H5.59767L6.31467 1.93214L5.77167 2.85115L4.53367 2.84915C4.10567 1.97115 3.23667 2.02614 3.23667 2.02614H0.888672V4.11415H1.22467C1.26967 3.40415 1.95167 2.84114 2.67167 2.84114C3.39167 2.84114 4.07567 3.40515 4.11867 4.11415L6.15967 4.11615C6.20267 3.40515 6.88667 2.84114 7.60667 2.84114C8.32667 2.84114 9.01267 3.40514 9.05367 4.11714L9.18067 4.11815C9.32167 4.11815 9.43467 4.00415 9.43467 3.86415V3.26215H9.05167Z" fill="black"/>
<path d="M2.66878 4.7263C2.90178 4.7263 3.09178 4.53829 3.09178 4.30429C3.09178 4.07229 2.90278 3.8833 2.66878 3.8833C2.43778 3.8833 2.24778 4.07229 2.24778 4.30429C2.24778 4.53729 2.43678 4.7263 2.66878 4.7263ZM1.69678 4.3033C1.69678 3.7673 2.13278 3.3313 2.66878 3.3313C3.20678 3.3313 3.64078 3.7673 3.64078 4.3033C3.64078 4.8413 3.20678 5.2773 2.66878 5.2773C2.13278 5.2773 1.69678 4.8413 1.69678 4.3033Z" fill="black"/>
</svg>
