<svg width="9" height="6" viewBox="0 0 9 6" fill="none" xmlns="http://www.w3.org/2000/svg">
<path d="M6.54785 1.53341V0.514404H6.45285C6.17185 0.514404 5.94385 0.742407 5.94385 1.02341C5.94385 1.30541 6.17185 1.53241 6.45285 1.53241L6.54785 1.53341Z" fill="black"/>
<path d="M5.78024 1.30145L5.33525 0.411446C5.23625 0.228446 5.04524 0.106445 4.82124 0.106445H3.78825C3.69125 0.106445 3.61426 0.184441 3.61426 0.280441C3.61426 0.376441 3.69125 0.454445 3.78825 0.454445L4.82124 0.453445C4.90524 0.453445 4.99826 0.510447 5.03426 0.589447L5.31825 1.15644L5.78024 1.30145Z" fill="black"/>
<path d="M7.83084 2.25352C7.96584 2.29252 8.06384 2.41653 8.06384 2.56353L7.31184 2.56453C6.32184 2.56453 5.51784 3.36953 5.51784 4.35953H3.06883C3.06883 3.56353 2.55083 2.88853 1.83583 2.65353L0.48584 2.20953L0.709839 1.86753C0.788839 1.74853 0.926841 1.66953 1.08084 1.66953C1.11584 1.66953 1.14784 1.67153 1.17784 1.67853L4.18484 2.61053C4.22184 2.62153 4.25984 2.62852 4.30084 2.62852C4.43684 2.62852 4.55483 2.55953 4.62483 2.45453L5.30884 1.46753L7.83084 2.25352Z" fill="black"/>
<path d="M5.81787 4.67051C5.81787 3.99351 6.36586 3.44751 7.04086 3.44751C7.71586 3.44751 8.26387 3.99351 8.26387 4.67051C8.26387 5.34551 7.71586 5.89352 7.04086 5.89352C6.36586 5.89352 5.81787 5.34451 5.81787 4.67051ZM7.03987 5.12751C7.29387 5.12751 7.49786 4.92151 7.49786 4.66951C7.49786 4.41651 7.29387 4.21151 7.03987 4.21151C6.78887 4.21151 6.58487 4.41551 6.58487 4.66951C6.58487 4.92151 6.78887 5.12751 7.03987 5.12751Z" fill="black"/>
<path d="M0.059082 4.53956C0.059082 3.79856 0.661083 3.19556 1.40408 3.19556C2.14808 3.19556 2.74808 3.79856 2.74808 4.53956C2.74808 5.28256 2.14808 5.88556 1.40408 5.88556C0.661083 5.88556 0.059082 5.28256 0.059082 4.53956ZM1.40709 5.04256C1.68309 5.04256 1.90909 4.81856 1.90909 4.54056C1.90909 4.26256 1.68309 4.03756 1.40709 4.03756C1.12809 4.03756 0.904083 4.26256 0.904083 4.54056C0.904083 4.81856 1.12709 5.04256 1.40709 5.04256Z" fill="black"/>
</svg>
