<svg width="9" height="10" viewBox="0 0 9 10" fill="none" xmlns="http://www.w3.org/2000/svg">
<path d="M4.15755 1.9445C4.42983 1.9445 4.65055 1.72377 4.65055 1.4515C4.65055 1.17922 4.42983 0.958496 4.15755 0.958496C3.88527 0.958496 3.66455 1.17922 3.66455 1.4515C3.66455 1.72377 3.88527 1.9445 4.15755 1.9445Z" fill="black"/>
<path d="M4.94693 2.10449H3.36293C3.01293 2.10449 2.73193 2.39049 2.73193 2.74549V3.92749C2.73193 4.22149 3.12093 4.22149 3.12093 3.92749V2.7865H3.52393V4.22449C3.72993 4.27349 3.94093 4.31049 4.16393 4.31049C4.38493 4.31049 4.59393 4.27349 4.79893 4.22549V2.7865H5.19893V3.92749C5.19893 4.22349 5.58693 4.22349 5.58693 3.92749V2.75249C5.58593 2.42749 5.33093 2.10449 4.94693 2.10449Z" fill="black"/>
<path d="M6.02695 4.68555C5.49595 5.04955 4.84895 5.26355 4.15595 5.26355C3.46795 5.26355 2.82795 5.05255 2.29495 4.69455L1.87695 5.31654C2.52695 5.75754 3.31295 6.01255 4.15595 6.01255C5.00595 6.01255 5.79495 5.75455 6.44695 5.30955L6.02695 4.68555Z" fill="black"/>
<path d="M6.82457 5.96655C6.06557 6.48455 5.14757 6.78455 4.15857 6.78455C3.17557 6.78455 2.26157 6.48656 1.50257 5.97456L1.08057 6.58256C1.95757 7.17856 3.01857 7.52656 4.15857 7.52656C5.30157 7.52656 6.36157 7.17655 7.24257 6.58055L6.82457 5.96655Z" fill="black"/>
<path d="M7.6176 7.23755C6.6306 7.90755 5.4396 8.29955 4.1566 8.29955C2.8756 8.29955 1.6856 7.90955 0.699598 7.24155L0.287598 7.85654C1.3906 8.60454 2.7236 9.04155 4.1566 9.04155C5.5936 9.04155 6.9286 8.60155 8.0356 7.84955L7.6176 7.23755Z" fill="black"/>
</svg>
