<svg width="6" height="10" viewBox="0 0 6 10" fill="none" xmlns="http://www.w3.org/2000/svg">
<path d="M2.5638 2.71484H0.910805C0.512805 2.71484 0.512805 3.23384 0.910805 3.23384H2.5638C2.9608 3.23384 2.9608 2.71484 2.5638 2.71484Z" fill="black"/>
<path d="M2.5638 2.71484H0.910805C0.512805 2.71484 0.512805 3.23384 0.910805 3.23384H2.5638C2.9608 3.23384 2.9608 2.71484 2.5638 2.71484Z" fill="black"/>
<path d="M2.37224 2.58067C2.75608 2.58067 3.06725 2.26951 3.06725 1.88567C3.06725 1.50184 2.75608 1.19067 2.37224 1.19067C1.9884 1.19067 1.67725 1.50184 1.67725 1.88567C1.67725 2.26951 1.9884 2.58067 2.37224 2.58067Z" fill="black"/>
<path d="M2.53411 2.75781H0.799113C0.380113 2.75781 0.380113 3.30181 0.799113 3.30181H2.53411C2.95111 3.30281 2.95111 2.75781 2.53411 2.75781Z" fill="black"/>
<path d="M5.83834 3.02778C5.83834 2.25678 5.56235 1.52078 5.05935 0.940781C5.06135 0.938781 4.93235 0.800781 4.93235 0.800781L2.97434 2.75778L2.94134 2.78978C2.94734 2.79878 2.95635 2.80478 2.96035 2.81378C2.99035 2.86778 3.00734 2.92678 3.01434 2.98678C3.01634 3.01078 3.01435 3.03678 3.01135 3.06178C3.00735 3.11378 2.99735 3.16478 2.97535 3.21178L2.97334 3.21678C2.96834 3.22578 2.96635 3.23678 2.96035 3.24578C2.95635 3.25278 2.95235 3.25678 2.94735 3.26278C2.86135 3.39478 2.71435 3.47178 2.53535 3.47178H1.58035V6.02178L1.58235 6.02778L1.04334 8.73478C1.00234 8.94578 1.14034 9.15078 1.35134 9.19178C1.56234 9.23478 1.76534 9.09778 1.80834 8.88578L2.36634 6.07878V6.07578H2.62034V6.07878L3.17935 8.88578C3.22235 9.09778 3.42535 9.23478 3.63835 9.19178C3.84735 9.15078 3.98534 8.94578 3.94434 8.73478L3.40034 6.00378V3.71678L4.93435 5.25078L5.06335 5.11078C5.56135 4.53178 5.83834 3.79478 5.83834 3.02778ZM2.61834 6.07378V6.04878C2.61834 6.05278 2.62034 6.05478 2.62034 6.05978L2.61834 6.07378ZM5.48335 3.30178C5.42535 3.87878 5.19634 4.42478 4.81934 4.86978C4.47035 4.52278 3.82835 3.87878 3.39935 3.44978V3.30178H5.48335ZM5.48335 2.75778H3.24035C3.65235 2.34778 4.42335 1.57578 4.81735 1.18278C5.19635 1.62778 5.42735 2.17678 5.48335 2.75778Z" fill="black"/>
</svg>
