<svg width="7" height="8" viewBox="0 0 7 8" fill="none" xmlns="http://www.w3.org/2000/svg">
<path d="M2.85977 7.37933V6.43439L2.33276 6.73138L2.06277 6.57733V6.24536L2.84576 5.80035V5.17938L2.27777 5.54437V4.88635L1.73477 5.19934V6.09235L1.43777 6.27637L1.18677 6.11035V5.51233L0.362762 5.97736L0.0107727 5.82935V5.45233L0.875763 4.97937L0.334763 4.70837V4.36237L0.641769 4.19434L1.41777 4.65137L1.95677 4.34033L1.94276 4.33038L1.39177 4.01434L1.92677 3.68237L1.38977 3.37134L0.61377 3.82635L0.322769 3.68134V3.33734L0.847763 3.04236L0.00976562 2.58734V2.21039L0.331772 2.04437L1.15776 2.52136V1.91437L1.40677 1.74634L1.71176 1.92236L1.70976 2.83234L2.26477 3.14838L2.26277 2.50537L2.84477 2.81836V2.19739L2.06177 1.75238V1.42236L2.33177 1.26636L2.85876 1.56335V0.620361L3.16177 0.42334L3.46677 0.620361V1.56335L4.01376 1.26038L4.28877 1.44238V1.73938L3.47777 2.19836V2.81934L4.03276 2.48138V3.15735L4.60277 2.84637V1.87335L4.87776 1.74438L5.16676 1.87335V2.49438L6.01677 2.03534L6.31377 2.21735V2.56934L5.48376 3.04236L6.00377 3.33337V3.66937L5.73376 3.81738L4.93677 3.34637L4.38577 3.69635L4.91876 4.02838L4.36977 4.34436L4.93578 4.64136L5.73277 4.19635L5.98877 4.37836V4.69836L5.48877 4.97937L6.28577 5.45233V5.82336L5.94777 5.97736L5.16676 5.53235V6.12238L4.88577 6.27838L4.61076 6.12238V5.22736L4.03276 4.89734V5.51837L3.47777 5.18036V5.80133L4.26077 6.24634V6.59839L3.99077 6.73334L3.46577 6.43634V7.38135L3.16077 7.57635L2.85977 7.37933ZM2.64377 4.01837L2.92677 4.43634H3.45377L3.69577 4.01837L3.43977 3.57336H2.91277L2.64377 4.01837Z" fill="black"/>
</svg>
