<svg width="8" height="10" viewBox="0 0 8 10" fill="none" xmlns="http://www.w3.org/2000/svg">
<path d="M3.69051 3.13696H3.87051C4.87451 3.13896 5.45049 4.09496 5.45449 4.74196C5.45049 4.86796 5.41951 4.97596 5.27651 4.97296C4.97551 4.97596 5.0835 4.49196 4.8355 4.07996C4.7185 3.87696 4.34149 3.50995 3.91149 3.51295H3.7535C3.5235 3.50995 3.08948 3.64296 2.79848 4.07996C2.43548 4.60796 2.67349 4.99497 2.36849 4.99297C2.32149 4.99497 2.1865 4.98095 2.1885 4.76295C2.2025 3.76995 3.11251 3.13896 3.69051 3.13696Z" fill="black"/>
<path d="M3.82758 8.62788C4.20458 8.63188 4.49557 8.24989 4.49957 7.98689V7.44089C4.49557 6.32289 5.66956 5.88188 5.66556 4.76288C5.66956 3.71488 4.72258 2.92288 3.82758 2.92488C3.08558 2.92288 2.57957 3.40189 2.38857 3.64989C1.81457 4.35989 2.14457 5.03688 1.73857 5.03688C1.62357 5.03688 1.50956 4.97188 1.50856 4.74188C1.49056 3.63188 2.40656 2.45488 3.85056 2.45288C5.01456 2.45488 6.15958 3.38288 6.15958 4.80588C6.15958 6.12388 5.00556 6.39988 5.00556 7.55688V8.05089C5.00556 8.55889 4.55256 9.13988 3.80856 9.14288C3.78156 9.13488 3.74957 9.12489 3.71457 9.12189C3.57757 9.08089 3.48257 8.93689 3.51557 8.79689C3.55457 8.67489 3.66756 8.64489 3.82056 8.62889H3.82758V8.62788Z" fill="black"/>
<path d="M2.05321 5.89404L1.76025 6.18799L2.56275 6.98777L2.85571 6.69382L2.05321 5.89404Z" fill="black"/>
<path d="M2.84777 5.68694C2.84377 5.55894 2.94776 5.45493 3.07076 5.45093C3.20576 5.45493 3.30878 5.55894 3.30678 5.68694C3.30878 5.81594 3.20476 5.91893 3.07076 5.92293C2.94676 5.91993 2.84377 5.81594 2.84777 5.68694Z" fill="black"/>
<path d="M3.5918 4.94305C3.5938 4.81005 3.69682 4.70604 3.82782 4.70704C3.95482 4.70604 4.05781 4.81105 4.06381 4.94305C4.05781 5.06605 3.95482 5.17104 3.82782 5.16604C3.69682 5.17104 3.5938 5.06605 3.5918 4.94305Z" fill="black"/>
<path d="M0.567626 7.96504C0.561626 7.84004 0.667632 7.73603 0.792632 7.74203C0.923632 7.73503 1.02662 7.84004 1.02862 7.96504C1.02662 8.09704 0.923632 8.20003 0.792632 8.20103C0.667632 8.20003 0.562626 8.09604 0.567626 7.96504Z" fill="black"/>
<path d="M1.31445 7.22112C1.31445 7.09012 1.41846 6.98611 1.55046 6.98511C1.67346 6.98711 1.77947 7.09012 1.77347 7.22112C1.77947 7.34712 1.67346 7.45011 1.55046 7.45711C1.41746 7.45011 1.31445 7.34712 1.31445 7.22112Z" fill="black"/>
<path fill-rule="evenodd" clip-rule="evenodd" d="M4.50977 2.00201C5.50377 2.25401 6.30076 3.00601 6.61176 3.97701L6.97876 3.86101C6.62376 2.76701 5.73675 1.91801 4.61575 1.63501L4.51074 2.013L4.50977 2.00201Z" fill="black"/>
<path fill-rule="evenodd" clip-rule="evenodd" d="M4.71045 1.23492L4.81445 0.856934C6.20345 1.20593 7.31443 2.25293 7.75543 3.60793L7.36646 3.73393C6.96846 2.51193 5.96245 1.55692 4.71045 1.23492Z" fill="black"/>
</svg>
