<svg width="8" height="8" viewBox="0 0 8 8" fill="none" xmlns="http://www.w3.org/2000/svg">
<path d="M2.19643 5.84109V6.43509C2.19643 6.76209 1.93143 7.02512 1.60743 7.02512C1.28143 7.02512 1.01843 6.76209 1.01843 6.43509V5.84109H0.419434V3.9111V3.90909C0.419434 3.48709 0.702434 3.13411 1.08943 3.02811L1.77843 1.3851C1.88043 1.1451 2.11643 0.975098 2.39243 0.975098H5.92743C6.20443 0.975098 6.44343 1.1451 6.54243 1.3851L7.23143 3.02811C7.61843 3.13311 7.90343 3.48709 7.90343 3.90909L7.90143 3.9111V5.84109H7.30143L7.30443 6.43509C7.30443 6.76209 7.03943 7.02512 6.71543 7.02512C6.38843 7.02512 6.12443 6.76209 6.12443 6.43509L6.12643 5.84109H2.19643ZM1.64243 4.7811C1.97243 4.7811 2.24143 4.51211 2.24143 4.18311C2.24143 3.85211 1.97243 3.5871 1.64243 3.5871C1.31143 3.5871 1.04343 3.85211 1.04343 4.18311C1.04343 4.51211 1.31143 4.7811 1.64243 4.7811ZM7.23943 4.18311C7.23943 3.85211 6.97143 3.5871 6.64043 3.5871C6.31043 3.5871 6.04143 3.85211 6.04143 4.18311C6.04143 4.51211 6.31043 4.7811 6.64043 4.7811C6.97143 4.7811 7.23943 4.51211 7.23943 4.18311ZM6.64143 2.99512L6.04843 1.57712C6.02443 1.50712 5.95543 1.45511 5.87343 1.45511H2.44743C2.36843 1.45511 2.30043 1.50712 2.27343 1.57712L1.68243 2.99512H6.64143Z" fill="black"/>
</svg>
