<svg width="6" height="10" viewBox="0 0 6 10" fill="none" xmlns="http://www.w3.org/2000/svg">
<path d="M3.92079 2.99612C4.2864 2.99612 4.58279 2.69973 4.58279 2.33411C4.58279 1.9685 4.2864 1.67212 3.92079 1.67212C3.55518 1.67212 3.25879 1.9685 3.25879 2.33411C3.25879 2.69973 3.55518 2.99612 3.92079 2.99612Z" fill="black"/>
<path d="M5.7188 8.7782L4.7418 5.8132V3.4402C4.7418 3.1292 4.43081 3.1432 4.43081 3.1432H3.1688C3.1688 3.1432 3.1158 3.1352 3.0068 3.2242L2.2728 3.6532L1.50581 2.8852C1.38081 2.7372 1.1598 2.7152 1.0118 2.8402C0.861803 2.9652 0.853798 3.1922 0.978798 3.3422L1.95681 4.3212C2.02281 4.3912 2.1148 4.4392 2.2188 4.4392C2.2948 4.4392 2.36481 4.4152 2.42381 4.3752L3.06881 4.0212V5.7612L2.0828 8.7732C2.0108 9.0352 2.16681 9.3042 2.43081 9.3752C2.69281 9.4452 2.9618 9.2892 3.0328 9.0272L3.89381 6.4272L4.77081 9.0322C4.84081 9.2962 5.1108 9.4512 5.3728 9.3802C5.6328 9.3092 5.7898 9.0392 5.7188 8.7782Z" fill="black"/>
<path d="M0.805683 3.67625C0.838683 3.71025 0.895683 3.71125 0.930683 3.67625L0.942676 3.66625C0.975676 3.63125 0.977676 3.57425 0.942676 3.54025L0.751682 3.34425C0.716682 3.30925 0.659683 3.30925 0.624683 3.34325L0.614673 3.35425C0.579673 3.38925 0.577674 3.44525 0.612674 3.47925L0.805683 3.67625Z" fill="black"/>
<path d="M2.63684 1.45306L1.50684 2.67506L1.64384 2.81506L2.90485 1.72806L3.74284 0.956057C3.77584 0.919057 3.79784 0.870057 3.79784 0.817057C3.79784 0.700057 3.70384 0.60406 3.58884 0.60306C3.53184 0.60206 3.48385 0.624053 3.44385 0.657053L2.63684 1.45306Z" fill="black"/>
</svg>
