<svg width="10" height="8" viewBox="0 0 10 8" fill="none" xmlns="http://www.w3.org/2000/svg">
<path d="M0.947754 4.78815C1.51075 4.12515 2.53576 3.66013 3.41476 3.80713C3.51376 2.60013 3.37577 1.47015 3.97777 0.358154C2.10977 0.480154 1.24275 3.33215 0.947754 4.78815Z" fill="black"/>
<path d="M7.5687 2.66918C7.9617 2.20218 8.88867 1.96418 9.37567 2.40118C8.10567 0.628178 6.53569 -0.510814 4.30469 0.247186C6.04869 0.779186 7.2717 2.40718 7.5687 2.66918Z" fill="black"/>
<path d="M7.21649 2.74214C6.60649 1.89014 4.6875 0.530129 4.2645 0.615129C3.8135 0.705129 3.6895 3.26015 3.7305 3.80815C3.9985 3.30615 4.40749 2.92712 4.88049 2.69213L6.82749 7.99114L7.09351 7.92516L5.12851 2.58513C5.77951 2.34313 6.52549 2.36514 7.21649 2.74214Z" fill="black"/>
</svg>
