<svg width="10" height="6" viewBox="0 0 10 6" fill="none" xmlns="http://www.w3.org/2000/svg">
<path d="M1.84918 3.2637C1.71418 3.0627 1.62818 2.82971 1.59918 2.57471C1.57018 2.58271 1.54218 2.58871 1.51118 2.58871C1.31218 2.58871 1.15018 2.42672 1.15018 2.22772C1.15018 2.10272 1.21418 1.99371 1.31018 1.92871L2.34318 1.20972C2.56018 1.07672 2.81418 0.994711 3.08718 0.984711L5.65118 0.992706L7.52618 0.693695C7.52618 0.683695 7.52618 0.673703 7.52618 0.664703C7.52618 0.476703 7.67618 0.324707 7.86418 0.324707C8.05218 0.324707 8.20418 0.476703 8.20418 0.664703C8.20418 0.693703 8.20018 0.725716 8.19218 0.752716L8.36618 0.775696C8.56718 0.814696 8.72018 0.992719 8.72018 1.20572C8.72018 1.21972 8.72018 1.23071 8.71818 1.24271L9.27518 1.5437C9.35518 1.5747 9.41418 1.6547 9.41418 1.7467C9.41418 1.7777 9.40818 1.8057 9.39618 1.8327L9.25718 2.1467C9.18918 2.2577 9.07118 2.33572 8.93518 2.35172L7.65618 2.50372L6.50418 3.85672L7.16218 4.99371L7.59618 5.1947C7.66418 5.2417 7.71118 5.32171 7.71118 5.41171C7.71118 5.55671 7.59418 5.67371 7.44718 5.67371L6.61318 5.67572C6.39818 5.67572 6.21318 5.55472 6.11918 5.37872L5.40618 4.08972L3.79718 4.09171L4.36518 4.96671L4.78518 5.15771C4.86318 5.20471 4.91418 5.2887 4.91418 5.3847C4.91418 5.5297 4.79718 5.6467 4.65218 5.6467L3.81618 5.64871C3.61318 5.64871 3.43318 5.5397 3.33618 5.3757L2.55318 4.13171L2.00618 4.66272L1.96118 5.01071L2.14518 5.13171C2.17618 5.14771 2.20418 5.16871 2.22718 5.19571C2.31718 5.30871 2.30118 5.4747 2.18818 5.5647C2.13918 5.6057 2.07918 5.62572 2.02018 5.62372L1.65318 5.6257C1.55118 5.6137 1.46018 5.5617 1.40118 5.4827L0.97318 4.74472C0.93218 4.66672 0.90918 4.57871 0.90918 4.48471C0.90918 4.34171 0.96218 4.21169 1.05218 4.11169L1.84918 3.2637Z" fill="black"/>
</svg>
