<svg width="10" height="8" viewBox="0 0 10 8" fill="none" xmlns="http://www.w3.org/2000/svg">
<path d="M2.57199 7.3451C3.36399 7.3451 4.00699 6.7031 4.00699 5.9101C4.00699 5.1181 3.36399 4.4761 2.57199 4.4761C1.78199 4.4761 1.13899 5.1181 1.13899 5.9101C1.13899 6.7031 1.78199 7.3451 2.57199 7.3451ZM0.812988 5.91109C0.812988 4.93909 1.60199 4.1521 2.57199 4.1521C3.54499 4.1521 4.33299 4.93909 4.33299 5.91109C4.33299 6.88409 3.54499 7.6701 2.57199 7.6701C1.60199 7.6701 0.812988 6.88309 0.812988 5.91109Z" fill="black"/>
<path d="M7.75172 7.36219C8.54172 7.36219 9.18472 6.72019 9.18472 5.92819C9.18472 5.13619 8.54172 4.49319 7.75172 4.49319C6.95972 4.49319 6.31672 5.13519 6.31672 5.92819C6.31672 6.72019 6.95972 7.36219 7.75172 7.36219ZM5.99072 5.92819C5.99072 4.95519 6.77972 4.16919 7.75172 4.16919C8.72172 4.16919 9.51072 4.95619 9.51072 5.92819C9.51072 6.90019 8.72172 7.68719 7.75172 7.68719C6.77972 7.68719 5.99072 6.90019 5.99072 5.92819Z" fill="black"/>
<path d="M5.99596 1.63499C6.36102 1.63499 6.65696 1.33905 6.65696 0.973991C6.65696 0.608931 6.36102 0.312988 5.99596 0.312988C5.6309 0.312988 5.33496 0.608931 5.33496 0.973991C5.33496 1.33905 5.6309 1.63499 5.99596 1.63499Z" fill="black"/>
<path d="M6.02287 3.24013C5.92687 3.24213 5.82387 3.19413 5.74787 3.07413L5.31787 2.40213L4.43087 3.28013L5.25287 3.71313C5.59087 3.87513 5.53987 4.17213 5.53987 4.17213V6.03313C5.53987 6.24413 5.36987 6.41613 5.15887 6.41613C4.94787 6.41613 4.77887 6.24413 4.77887 6.03313V4.54313L3.35287 3.75113C3.18287 3.65613 3.06787 3.47513 3.06787 3.26813C3.06787 3.12513 3.12087 2.99513 3.21087 2.89713L4.60887 1.49614C4.78287 1.30014 5.02487 1.33114 5.02487 1.33114C5.31787 1.33114 5.47187 1.58713 5.47187 1.58713L6.19887 2.72613L7.30287 2.72413C7.69887 2.72413 7.69887 3.24213 7.30287 3.24213H6.02287V3.24013Z" fill="black"/>
</svg>
