<svg width="10" height="6" viewBox="0 0 10 6" fill="none" xmlns="http://www.w3.org/2000/svg">
<path d="M9.22477 5.84757C9.04477 5.84757 8.87177 5.80757 8.71877 5.73857C8.55977 5.66557 8.38177 5.62257 8.19577 5.62257C8.00977 5.62257 7.83177 5.66557 7.67477 5.73857C7.51977 5.80757 7.34777 5.84757 7.16677 5.84757C6.98677 5.84757 6.81377 5.80757 6.65877 5.73857C6.50077 5.66557 6.32277 5.62257 6.13777 5.62257C5.95077 5.62257 5.77377 5.66557 5.61477 5.73857C5.46177 5.80757 5.28777 5.84757 5.10777 5.84757C4.92777 5.84757 4.75377 5.80757 4.60077 5.73857C4.44177 5.66557 4.26377 5.62257 4.07877 5.62257C3.89177 5.62257 3.71377 5.66557 3.55677 5.73857C3.40077 5.80757 3.22777 5.84757 3.04777 5.84757C2.86677 5.84757 2.69377 5.80757 2.53877 5.73857C2.38177 5.66557 2.20277 5.62257 2.01777 5.62257C1.83277 5.62257 1.65377 5.66557 1.49577 5.73857C1.34177 5.80757 1.16877 5.84757 0.98877 5.84757V5.08757C1.16877 5.08757 1.34177 5.04657 1.49577 4.97757C1.65377 4.90457 1.83277 4.86157 2.01777 4.86157C2.20277 4.86157 2.38177 4.90457 2.53877 4.97757C2.69377 5.04657 2.86677 5.08757 3.04777 5.08757C3.22777 5.08757 3.40077 5.04657 3.55477 4.97757C3.71177 4.90457 3.89077 4.86157 4.07677 4.86157C4.26277 4.86157 4.43977 4.90457 4.59877 4.97757C4.75177 5.04657 4.92577 5.08757 5.10577 5.08757C5.28577 5.08757 5.45977 5.04657 5.61277 4.97757C5.77177 4.90457 5.94977 4.86157 6.13577 4.86157C6.32177 4.86157 6.49877 4.90457 6.65677 4.97757C6.81177 5.04657 6.98477 5.08757 7.16477 5.08757C7.34577 5.08757 7.51777 5.04657 7.67277 4.97757C7.82977 4.90457 8.00877 4.86157 8.19377 4.86157C8.38077 4.86157 8.55777 4.90457 8.71677 4.97757C8.86977 5.04657 9.04277 5.08757 9.22277 5.08757V5.84757H9.22477Z" fill="black"/>
<path d="M0.99177 2.58154L0.98877 4.37655C1.16877 4.37655 1.34177 4.33655 1.49577 4.26755C1.65377 4.19455 1.83277 4.15155 2.01777 4.15155C2.20277 4.15155 2.38177 4.19455 2.53877 4.26755C2.69477 4.33655 2.86777 4.37655 3.04777 4.37655C3.22777 4.37655 3.40077 4.33655 3.55477 4.26755C3.71177 4.19455 3.89077 4.15155 4.07677 4.15155C4.26277 4.15155 4.43977 4.19455 4.59877 4.26755C4.75177 4.33655 4.92577 4.37655 5.10577 4.37655C5.28577 4.37655 5.45977 4.33655 5.61277 4.26755C5.77177 4.19455 5.94977 4.15155 6.13577 4.15155C6.32177 4.15155 6.49877 4.19455 6.65677 4.26755C6.81177 4.33655 6.98477 4.37655 7.16477 4.37655C7.21577 4.37655 7.26477 4.36554 7.31377 4.35954C7.40477 4.33954 7.49677 4.33155 7.58477 4.29655C7.58677 4.29555 7.58877 4.29455 7.59077 4.29355C8.24477 4.02755 8.80977 3.37055 9.16177 2.88055L9.33677 2.58154H0.99177Z" fill="black"/>
<path d="M5.65082 0.653584H6.87682C6.88982 0.653584 7.20782 0.640583 7.31482 0.877583L7.77482 1.97358C7.55282 1.97358 7.00882 1.97358 6.20482 1.97358L5.65082 0.653584ZM2.37982 1.82258C2.37982 1.90558 2.31182 1.97258 2.22982 1.97258H1.55582C1.47282 1.97258 1.40582 1.90558 1.40582 1.82258V0.802579C1.40582 0.719579 1.47282 0.652585 1.55582 0.652585H2.22982C2.31182 0.652585 2.37982 0.719579 2.37982 0.802579V1.82258ZM5.15782 1.82258C5.15782 1.90558 5.09082 1.97258 5.00782 1.97258H4.33482C4.25182 1.97258 4.18482 1.90558 4.18482 1.82258V0.802579C4.18482 0.719579 4.25182 0.652585 4.33482 0.652585H5.00782C5.09082 0.652585 5.15782 0.719579 5.15782 0.802579V1.82258ZM3.76582 1.82258C3.76582 1.90558 3.69782 1.97258 3.61582 1.97258H2.94582C2.86282 1.97258 2.79582 1.90558 2.79582 1.82258V0.802579C2.79582 0.719579 2.86282 0.652585 2.94582 0.652585H3.61482C3.69782 0.652585 3.76482 0.719579 3.76482 0.802579L3.76582 1.82258ZM7.51982 0.561582C7.31882 0.116582 6.77782 0.153584 6.77782 0.153584H0.987816L0.986816 2.28558H8.24582L7.51982 0.561582Z" fill="black"/>
</svg>
