<svg width="9" height="8" viewBox="0 0 9 8" fill="none" xmlns="http://www.w3.org/2000/svg">
<path d="M1.28711 1.01173L2.95111 1.46473L3.87511 0.82373L4.19611 0.900734L3.28111 1.54373L8.32411 2.92673L7.95511 4.28073L2.89311 2.90073C0.932106 2.31773 1.28911 1.00973 1.28911 1.00973" fill="black"/>
<path d="M5.66117 4.47461C5.65517 4.36161 5.63417 4.25361 5.59717 4.15161L7.87917 4.78761L7.80617 5.06761L5.66117 4.47461Z" fill="black"/>
<path d="M3.589 3.9016C3.651 3.8116 3.724 3.73059 3.807 3.66159L0 2.6106V2.91259L3.589 3.9016Z" fill="black"/>
<path d="M4.53102 4.90274C4.73602 4.90274 4.90202 4.73774 4.90202 4.53274C4.90202 4.32774 4.73602 4.16174 4.53102 4.16174C4.32602 4.16174 4.16002 4.32774 4.16002 4.53274C4.16002 4.73774 4.32602 4.90274 4.53102 4.90274ZM8.24602 7.17673C8.06502 7.17673 7.89302 7.13573 7.74002 7.06673C7.58102 6.99273 7.40402 6.94974 7.21702 6.94974C7.03102 6.94974 6.85302 6.99273 6.69602 7.06573C6.54102 7.13473 6.36902 7.17574 6.18802 7.17574C6.00702 7.17574 5.83502 7.13473 5.68002 7.06573C5.52202 6.99273 5.34402 6.94974 5.15902 6.94974C4.97202 6.94974 4.79502 6.99273 4.63602 7.06573C4.48302 7.13473 4.30902 7.17574 4.12902 7.17574C3.94902 7.17574 3.77602 7.13473 3.62202 7.06573C3.46302 6.99273 3.28402 6.94974 3.09902 6.94974C2.91402 6.94974 2.73402 6.99273 2.57702 7.06673C2.42302 7.13573 2.24902 7.17673 2.06902 7.17673C1.88902 7.17673 1.71602 7.13573 1.56102 7.06673C1.40402 6.99373 1.22502 6.95074 1.04002 6.95074C0.855023 6.95074 0.676023 6.99373 0.518023 7.06673C0.364023 7.13573 0.190023 7.17673 0.0110234 7.17673L-0.000976562 4.15474L4.16202 5.30173C3.87502 5.16273 3.67602 4.87174 3.67602 4.53274C3.67602 4.05974 4.05902 3.67773 4.53102 3.67773C5.00302 3.67773 5.38602 4.06074 5.38602 4.53274C5.38602 5.00474 5.00202 5.38774 4.53102 5.38774C4.50302 5.38774 4.47402 5.38174 4.44702 5.37874L8.24102 6.42474L8.24602 7.17673Z" fill="black"/>
</svg>
