<svg width="6" height="8" viewBox="0 0 6 8" fill="none" xmlns="http://www.w3.org/2000/svg">
<path d="M1.45827 6.9593C1.45827 6.9593 1.45926 6.74629 1.45926 6.71629C1.76026 6.71629 3.71625 6.71629 4.51625 6.71629C4.47225 6.80929 4.43827 6.90629 4.42027 7.00629C4.39727 7.14329 4.40826 7.27128 4.44026 7.39228L1.88225 7.38429C1.64825 7.38429 1.45827 7.1943 1.45827 6.9593ZM4.83626 1.4513C4.83626 1.8903 4.83225 5.76429 4.83125 6.20329C4.51825 6.20329 2.65128 6.20329 1.91228 6.20329L3.74025 4.67231L3.73625 1.4503C3.90225 1.4503 4.68126 1.4513 4.83626 1.4513ZM5.12026 7.3943H5.00026C4.93026 7.3153 4.90428 7.21631 4.92528 7.09431C4.96028 6.89331 5.10627 6.7263 5.17427 6.7013L5.17327 6.69929C5.27227 6.66429 5.34426 6.5703 5.34426 6.4603L5.35027 1.1963C5.35027 1.0553 5.23526 0.940285 5.09426 0.940285C5.09426 0.940285 4.03027 0.939295 3.73827 0.937295C3.73927 0.688295 3.74025 0.348305 3.74025 0.348305C3.74025 0.244305 3.67827 0.151282 3.58327 0.112282C3.48727 0.0722824 3.37828 0.0932985 3.30428 0.166298L1.52327 1.93531C1.21027 2.24631 0.96226 2.83428 0.96126 3.27628L0.947267 6.95829C0.946267 7.47429 1.36427 7.89629 1.88127 7.89729L5.12026 7.9073C5.26126 7.9073 5.37627 7.79329 5.37627 7.65229V7.65128C5.37527 7.50928 5.26126 7.3953 5.12026 7.3943Z" fill="black"/>
</svg>
