<svg width="9" height="8" viewBox="0 0 9 8" fill="none" xmlns="http://www.w3.org/2000/svg">
<path d="M6.17801 7.13605V4.60004H7.59799C7.59799 5.85004 7.59799 6.87305 7.59799 7.13605C7.41899 7.13605 6.81401 7.13605 6.17801 7.13605ZM4.453 4.60004H5.86099V7.13605C5.22899 7.13605 4.631 7.13605 4.453 7.13605C4.453 6.87205 4.453 5.85004 4.453 4.60004ZM5.86099 2.56604V4.28305H4.453C4.453 3.73805 4.453 2.68904 4.453 2.56604C4.631 2.56604 5.22999 2.56604 5.86099 2.56604ZM7.59799 4.28403H6.17801V2.56705C6.81501 2.56705 7.41899 2.56705 7.59799 2.56705C7.59799 2.68905 7.59799 3.73803 7.59799 4.28403ZM7.83398 2.09204H6.89301L7.651 1.78705C7.733 1.75405 7.77198 1.66205 7.73898 1.58105C7.70598 1.50005 7.614 1.46105 7.534 1.49405C7.534 1.49405 7.104 1.66704 6.681 1.83704C7.025 1.49604 7.37698 1.14603 7.37698 1.14603C7.40798 1.11503 7.42398 1.07403 7.42398 1.03403C7.42398 0.993027 7.40799 0.953035 7.37799 0.923035C7.31599 0.860035 7.21699 0.860028 7.15399 0.922028L6.173 1.89603L6.17801 0.512054C6.17801 0.425054 6.108 0.353027 6.021 0.353027H6.01999C5.93299 0.353027 5.863 0.42304 5.862 0.51004C5.862 0.51004 5.859 1.42504 5.858 1.89404C5.542 1.57604 4.978 1.00803 4.978 1.00803C4.916 0.946026 4.817 0.945026 4.754 1.00803C4.692 1.07003 4.69099 1.17006 4.75299 1.23206L5.36499 1.84903L4.48401 1.49704C4.40301 1.46504 4.30999 1.50405 4.27899 1.58505C4.24599 1.66605 4.286 1.75805 4.367 1.79105L5.125 2.09305H4.21701C4.08501 2.09305 3.979 2.19905 3.979 2.33005V7.37405C3.979 7.50505 4.08501 7.61105 4.21701 7.61105H7.83398C7.96498 7.61105 8.07199 7.50605 8.07199 7.37405V2.33005C8.07199 2.19805 7.96498 2.09204 7.83398 2.09204Z" fill="black"/>
<path d="M0.646973 6.91703C0.646973 6.91703 0.64798 6.75201 0.64798 6.72901C0.87998 6.72901 2.20699 6.72901 2.82399 6.72901C2.79099 6.80001 2.76398 6.87601 2.75098 6.95301C2.73198 7.05801 2.74098 7.15701 2.76598 7.25001L0.974976 7.24403C0.793976 7.24503 0.646973 7.09803 0.646973 6.91703ZM3.07198 2.66703C3.07198 3.00603 3.06798 5.99502 3.06798 6.33402C2.82598 6.33402 1.56799 6.33402 0.997986 6.33402L2.40797 5.15202L2.40498 2.66502C2.53298 2.66602 2.95198 2.66703 3.07198 2.66703ZM3.29097 7.25202H3.19798C3.14398 7.19002 3.12397 7.115 3.13997 7.021C3.16697 6.866 3.27898 6.73603 3.33098 6.71803V6.71601C3.40698 6.68901 3.46199 6.61702 3.46199 6.53202L3.467 2.47001C3.467 2.36101 3.37797 2.27301 3.26997 2.27201C3.26997 2.27201 2.62998 2.27103 2.40598 2.27003C2.40598 2.07803 2.40797 1.81501 2.40797 1.81501C2.40797 1.73501 2.35998 1.664 2.28598 1.633C2.21298 1.602 2.12798 1.61903 2.06998 1.67503L0.694977 3.04002C0.454977 3.27902 0.262978 3.73402 0.261978 4.07502L0.250977 6.91502C0.250977 7.31302 0.572985 7.63902 0.971985 7.64002L3.28899 7.64701C3.39699 7.64701 3.48598 7.55902 3.48698 7.45002C3.48798 7.34102 3.39997 7.25302 3.29097 7.25202Z" fill="black"/>
</svg>
