<svg width="8" height="8" viewBox="0 0 8 8" fill="none" xmlns="http://www.w3.org/2000/svg">
<path d="M2.68695 2.68155C3.18095 2.79655 3.55197 3.22156 3.55197 3.72656V7.60355C3.55197 7.72255 3.44795 7.81955 3.32495 7.81955H1.10196C0.978959 7.81955 0.876953 7.72255 0.876953 7.60355V3.72656C0.876953 3.22056 1.24396 2.79455 1.74196 2.68155V0.946533H2.68495V2.68155H2.68695Z" fill="black"/>
<path d="M2.68568 0.180664H1.74268V0.554657H2.68568V0.180664Z" fill="black"/>
<path d="M5.76886 1.00458C5.70086 0.994578 5.64786 0.939582 5.64786 0.871582C5.64786 0.822582 5.67688 0.779585 5.71988 0.755585C5.67688 0.733585 5.64786 0.689587 5.64786 0.639587C5.64786 0.565587 5.71088 0.506592 5.78888 0.506592H6.49185C6.56985 0.506592 6.63287 0.565587 6.63287 0.639587C6.63287 0.691587 6.60387 0.734585 6.55887 0.755585C6.60187 0.778585 6.63287 0.820582 6.63287 0.871582C6.63287 0.938582 6.58185 0.994571 6.51385 1.00357L7.36588 3.19357C7.41888 3.33657 7.44586 3.49458 7.44586 3.65158V7.53259C7.44586 7.67859 7.32087 7.79858 7.16687 7.79858H5.11786C4.96186 7.79858 4.83887 7.67959 4.83887 7.53259V3.65158C4.83887 3.49458 4.86387 3.33657 4.91687 3.19357L5.76886 1.00458Z" fill="black"/>
</svg>
