<svg width="8" height="10" viewBox="0 0 8 10" fill="none" xmlns="http://www.w3.org/2000/svg">
<path d="M2.41267 2.02312C2.72527 2.02312 2.97868 1.7697 2.97868 1.45711C2.97868 1.14451 2.72527 0.891113 2.41267 0.891113C2.10008 0.891113 1.84668 1.14451 1.84668 1.45711C1.84668 1.7697 2.10008 2.02312 2.41267 2.02312Z" fill="black"/>
<path d="M2.41267 4.33414C2.72527 4.33414 2.97868 4.08074 2.97868 3.76814C2.97868 3.45555 2.72527 3.20215 2.41267 3.20215C2.10008 3.20215 1.84668 3.45555 1.84668 3.76814C1.84668 4.08074 2.10008 4.33414 2.41267 4.33414Z" fill="black"/>
<path d="M2.41267 6.45718C2.72527 6.45718 2.97868 6.20378 2.97868 5.89119C2.97868 5.5786 2.72527 5.3252 2.41267 5.3252C2.10008 5.3252 1.84668 5.5786 1.84668 5.89119C1.84668 6.20378 2.10008 6.45718 2.41267 6.45718Z" fill="black"/>
<path d="M5.79892 2.02312C6.11151 2.02312 6.3649 1.7697 6.3649 1.45711C6.3649 1.14451 6.11151 0.891113 5.79892 0.891113C5.48633 0.891113 5.23291 1.14451 5.23291 1.45711C5.23291 1.7697 5.48633 2.02312 5.79892 2.02312Z" fill="black"/>
<path d="M5.79892 4.33414C6.11151 4.33414 6.3649 4.08074 6.3649 3.76814C6.3649 3.45555 6.11151 3.20215 5.79892 3.20215C5.48633 3.20215 5.23291 3.45555 5.23291 3.76814C5.23291 4.08074 5.48633 4.33414 5.79892 4.33414Z" fill="black"/>
<path d="M5.79892 6.45718C6.11151 6.45718 6.3649 6.20378 6.3649 5.89119C6.3649 5.5786 6.11151 5.3252 5.79892 5.3252C5.48633 5.3252 5.23291 5.5786 5.23291 5.89119C5.23291 6.20378 5.48633 6.45718 5.79892 6.45718Z" fill="black"/>
<path d="M0.644531 7.47119H1.40053C1.70553 7.47119 1.91252 7.57019 1.91252 7.86919C1.91252 8.02619 1.83453 8.13719 1.69553 8.20419C1.89053 8.26019 1.99052 8.41119 1.99052 8.61119C1.99052 8.93719 1.71353 9.07719 1.42253 9.07719H0.645523L0.644531 7.47119ZM0.99852 8.12119H1.35553C1.47853 8.12119 1.57053 8.06419 1.57053 7.93019C1.57053 7.77719 1.45352 7.74519 1.32852 7.74519H0.99852V8.12119ZM0.99852 8.80319H1.37553C1.51653 8.80319 1.63753 8.75819 1.63753 8.59119C1.63753 8.42719 1.53353 8.36218 1.38353 8.36218H0.99852V8.80319Z" fill="black"/>
<path d="M2.27344 7.91408H2.57643V8.13008H2.58243C2.64143 7.98408 2.79745 7.88208 2.95345 7.88208C2.97445 7.88208 3.00244 7.88709 3.02144 7.89409V8.19109C2.99244 8.18409 2.94543 8.18008 2.90843 8.18008C2.67443 8.18008 2.59244 8.34809 2.59244 8.55309V9.07709H2.27443L2.27344 7.91408Z" fill="black"/>
<path d="M3.21274 8.27208C3.23074 7.97308 3.49974 7.88208 3.75974 7.88208C3.99173 7.88208 4.27173 7.93409 4.27173 8.21309V8.81808C4.27173 8.92308 4.28173 9.02909 4.31073 9.07709H3.98874C3.97674 9.04109 3.96773 9.00309 3.96573 8.96509C3.86373 9.07009 3.71574 9.10909 3.57474 9.10909C3.35374 9.10909 3.17871 8.99909 3.17871 8.76009C3.17871 8.49609 3.37574 8.43608 3.57474 8.40608C3.76974 8.37908 3.95172 8.38409 3.95172 8.25409C3.95172 8.11609 3.85772 8.09608 3.74472 8.09608C3.62372 8.09608 3.54572 8.14608 3.53372 8.27208H3.21274ZM3.95172 8.50809C3.89672 8.55509 3.78573 8.55709 3.68573 8.57509C3.58573 8.59609 3.49673 8.62908 3.49673 8.74608C3.49673 8.86508 3.59073 8.89409 3.69373 8.89409C3.94373 8.89409 3.95172 8.69608 3.95172 8.62608V8.50809Z" fill="black"/>
<path d="M4.92548 7.73419H4.60547V7.47119H4.92548V7.73419ZM4.60547 7.91418H4.92548V9.07719H4.60547V7.91418Z" fill="black"/>
<path d="M5.26562 7.47119H5.58365V9.07719H5.26562V7.47119Z" fill="black"/>
<path d="M5.92334 7.47119H6.24332V9.07719H5.92334V7.47119Z" fill="black"/>
<path d="M6.83755 8.57329C6.84756 8.77529 6.94453 8.86729 7.12253 8.86729C7.25153 8.86729 7.35454 8.7893 7.37454 8.7173H7.65555C7.56555 8.9913 7.37455 9.1093 7.11255 9.1093C6.74555 9.1093 6.51855 8.8573 6.51855 8.4973C6.51855 8.1483 6.75855 7.8833 7.11255 7.8833C7.50755 7.8833 7.69854 8.2163 7.67654 8.5743H6.83755V8.57329ZM7.35754 8.3703C7.32854 8.2083 7.25955 8.12329 7.10355 8.12329C6.90055 8.12329 6.84156 8.2803 6.83755 8.3703H7.35754Z" fill="black"/>
</svg>
