<svg width="7" height="8" viewBox="0 0 7 8" fill="none" xmlns="http://www.w3.org/2000/svg">
<path d="M5.31113 3.89505H1.01413C0.889133 3.89505 0.785133 3.79105 0.785133 3.66605C0.785133 3.64505 0.789133 3.62505 0.793133 3.60505L1.02213 1.90805C1.04213 1.80305 1.13513 1.72005 1.24713 1.72005H5.07913C5.19013 1.72005 5.28413 1.80205 5.30413 1.90805L5.53313 3.60505C5.53713 3.62505 5.54113 3.64405 5.54113 3.66605C5.54013 3.79105 5.43613 3.89505 5.31113 3.89505ZM5.13913 5.74305C4.89713 5.74305 4.70113 5.54805 4.70113 5.30505C4.70113 5.06405 4.89713 4.86805 5.13913 4.86805C5.37913 4.86805 5.57613 5.06405 5.57613 5.30505C5.57613 5.54805 5.38013 5.74305 5.13913 5.74305ZM1.18013 5.74305C0.940133 5.74305 0.743133 5.54805 0.743133 5.30505C0.743133 5.06405 0.939133 4.86805 1.18013 4.86805C1.42213 4.86805 1.61813 5.06405 1.61813 5.30505C1.61913 5.54805 1.42313 5.74305 1.18013 5.74305ZM1.85913 0.953049H4.46113C4.71713 0.953049 4.71713 1.43705 4.46113 1.43705H1.85913C1.60313 1.43705 1.60313 0.953049 1.85913 0.953049ZM5.75713 1.51604C5.67913 1.12804 5.43113 0.973047 5.05813 0.818047C4.68513 0.663047 3.81213 0.477051 3.16213 0.477051C2.51013 0.477051 1.63713 0.663047 1.26413 0.818047C0.891133 0.973047 0.643133 1.12904 0.565133 1.51604L0.286133 3.66805V6.63305H0.768133V7.09805C0.768133 7.66405 1.59813 7.66405 1.59813 7.09805V6.63305H4.72713V7.09805C4.72713 7.66405 5.55513 7.66405 5.55513 7.09805V6.63305H6.03713V3.66805L5.75713 1.51604Z" fill="black"/>
</svg>
