<svg width="9" height="6" viewBox="0 0 9 6" fill="none" xmlns="http://www.w3.org/2000/svg">
<path d="M4.85832 1.57529C5.48732 1.57529 6.03233 1.9173 6.33333 2.4213L8.10634 2.42328V1.47229C8.10634 1.11829 7.81932 0.831299 7.46532 0.831299H0.854324C0.500324 0.831299 0.215332 1.11829 0.215332 1.47229L0.217331 2.41528L3.38332 2.4173C3.68632 1.9153 4.22932 1.57529 4.85832 1.57529Z" fill="black"/>
<path d="M1.87427 0.529297H1.28627L1.21826 0.741302H1.92326L1.87427 0.529297Z" fill="black"/>
<path d="M7.17737 0.41626H6.39438L6.25537 0.743256H7.30438L7.17737 0.41626Z" fill="black"/>
<path d="M5.10654 0.17334H3.20453L2.81152 0.747345H5.46552L5.10654 0.17334ZM4.48953 0.630341H3.81552V0.304352H4.48953V0.630341Z" fill="black"/>
<path d="M6.42534 2.59131C6.52334 2.80731 6.58131 3.04531 6.58131 3.29831C6.58131 4.24931 5.81032 5.02133 4.85832 5.02133C3.90632 5.02133 3.13533 4.25031 3.13533 3.29831C3.13533 3.04531 3.19234 2.80733 3.29134 2.59033H0.215332V5.18631C0.215332 5.53931 0.500324 5.82632 0.854324 5.82632H7.46532C7.81932 5.82632 8.10634 5.53931 8.10634 5.18631L8.10832 2.59131H6.42534Z" fill="black"/>
<path d="M5.7984 2.73132C5.7714 2.68332 5.73741 2.63831 5.70041 2.59531C5.49941 2.35331 5.1984 2.19531 4.8584 2.19531C4.5184 2.19531 4.21739 2.35232 4.01639 2.59332C3.97939 2.63732 3.94641 2.68232 3.91641 2.73132C3.81441 2.89732 3.75439 3.08933 3.75439 3.29733C3.75439 3.90533 4.2484 4.39932 4.8584 4.39932C5.4654 4.39932 5.96039 3.90633 5.96039 3.29733C5.96039 3.09033 5.8994 2.89732 5.7984 2.73132Z" fill="black"/>
</svg>
