<svg width="9" height="10" viewBox="0 0 9 10" fill="none" xmlns="http://www.w3.org/2000/svg">
<path d="M0.836816 7.1355H0.111816V8.56349C0.111816 9.00149 0.504816 9.3575 0.987816 9.3575H7.33482C7.81782 9.3575 8.21182 9.00049 8.21182 8.56349V7.1355H7.48582V8.4115C7.48582 8.5725 7.34182 8.70149 7.16582 8.70149H1.15682C0.978817 8.70149 0.836816 8.5725 0.836816 8.4115V7.1355Z" fill="black"/>
<path d="M6.60082 8.08949V6.96449L1.71582 5.3335V6.4585L6.60082 8.08949Z" fill="black"/>
<path d="M2.84289 5.33457C2.67489 5.14557 1.55789 3.85457 2.68489 2.73657C3.62389 1.80457 3.76089 1.02258 3.44489 0.642578C3.44489 0.642578 5.83589 1.62458 4.42889 3.90458C4.18889 4.29158 3.58689 4.74858 3.90189 5.68958L2.84289 5.33457Z" fill="black"/>
<path d="M4.3095 5.64445C4.2585 5.45345 4.0295 5.03746 4.7285 4.20846C5.1025 3.76746 5.2435 3.11246 5.2765 2.86646C5.2765 2.86646 6.5145 3.57645 5.2835 5.31245L4.3095 5.64445Z" fill="black"/>
<path d="M4.57373 5.9104L6.60073 5.2334V6.3584L6.25773 6.47141L4.57373 5.9104Z" fill="black"/>
<path d="M3.74382 7.51338L1.71582 8.18939V7.06439L2.05982 6.95239L3.74382 7.51338Z" fill="black"/>
</svg>
