<svg width="9" height="8" viewBox="0 0 9 8" fill="none" xmlns="http://www.w3.org/2000/svg">
<path d="M2.86361 1.91618C3.28556 1.91618 3.62761 1.57412 3.62761 1.15218C3.62761 0.73023 3.28556 0.388184 2.86361 0.388184C2.44166 0.388184 2.09961 0.73023 2.09961 1.15218C2.09961 1.57412 2.44166 1.91618 2.86361 1.91618Z" fill="black"/>
<path d="M0.0454571 6.09221C0.224457 6.09221 0.396457 6.05121 0.550457 5.98221C0.708457 5.90921 0.887457 5.86621 1.07246 5.86621C1.25746 5.86621 1.43646 5.90921 1.59346 5.98221C1.74846 6.05121 1.92146 6.09122 2.10246 6.09122C2.28246 6.09122 2.45546 6.05121 2.60946 5.98221C2.76646 5.90921 2.94546 5.86621 3.13146 5.86621C3.31746 5.86621 3.49446 5.90921 3.65346 5.98221C3.80646 6.05121 3.98046 6.09122 4.16046 6.09122C4.34046 6.09122 4.51446 6.05121 4.66746 5.98221C4.82646 5.90921 5.00446 5.86621 5.19046 5.86621C5.37646 5.86621 5.55346 5.90921 5.71146 5.98221C5.86646 6.05121 6.03946 6.09122 6.21946 6.09122C6.40046 6.09122 6.57246 6.05121 6.72746 5.98221C6.88446 5.90921 7.06346 5.86621 7.24846 5.86621C7.40746 5.86621 7.56146 5.89621 7.70146 5.95121C7.92846 5.70321 8.06846 5.37321 8.06846 5.01221C8.06846 4.24221 7.44546 3.61922 6.67646 3.61922L6.52046 3.63622C6.34946 4.33022 5.65546 4.36022 5.65546 4.36022L2.47746 4.35921L2.21146 4.20322L2.85246 3.12821L3.55346 3.53321C3.97346 3.80521 4.19246 3.42421 4.19246 3.42421L4.89546 2.27822C5.20146 1.78022 4.55246 1.38121 4.24946 1.88121L3.75746 2.68521L2.58746 2.03821C1.77646 1.58621 1.43346 2.33521 1.43346 2.33521L0.514457 3.90921C0.358457 4.23621 0.497457 4.37722 0.497457 4.37722L0.043457 4.37621V6.09221H0.0454571Z" fill="black"/>
<path d="M8.27941 7.61223C8.09941 7.61223 7.92641 7.57222 7.77341 7.50322C7.61441 7.43022 7.43641 7.38722 7.25041 7.38722C7.06441 7.38722 6.88641 7.43022 6.72941 7.50322C6.57441 7.57222 6.40241 7.61223 6.22141 7.61223C6.04141 7.61223 5.86841 7.57222 5.71341 7.50322C5.55541 7.43022 5.37741 7.38722 5.19241 7.38722C5.00541 7.38722 4.82841 7.43022 4.66941 7.50322C4.51641 7.57222 4.34241 7.61223 4.16241 7.61223C3.98241 7.61223 3.80841 7.57222 3.65541 7.50322C3.49641 7.43022 3.31841 7.38722 3.13341 7.38722C2.94641 7.38722 2.76841 7.43022 2.61141 7.50322C2.45741 7.57222 2.28441 7.61223 2.10441 7.61223C1.92341 7.61223 1.75041 7.57222 1.59541 7.50322C1.43841 7.43022 1.25941 7.38722 1.07441 7.38722C0.88941 7.38722 0.71041 7.43022 0.55241 7.50322C0.39841 7.57222 0.22541 7.61223 0.0454102 7.61223V6.85222C0.22541 6.85222 0.39841 6.81122 0.55241 6.74222C0.71041 6.66922 0.88941 6.62622 1.07441 6.62622C1.25941 6.62622 1.43841 6.66922 1.59541 6.74222C1.75041 6.81122 1.92341 6.85222 2.10441 6.85222C2.28441 6.85222 2.45741 6.81122 2.61141 6.74222C2.76841 6.66922 2.94741 6.62622 3.13341 6.62622C3.31941 6.62622 3.49641 6.66922 3.65541 6.74222C3.80841 6.81122 3.98241 6.85222 4.16241 6.85222C4.34241 6.85222 4.51641 6.81122 4.66941 6.74222C4.82841 6.66922 5.00641 6.62622 5.19241 6.62622C5.37841 6.62622 5.55541 6.66922 5.71341 6.74222C5.86841 6.81122 6.04141 6.85222 6.22141 6.85222C6.40241 6.85222 6.57441 6.81122 6.72941 6.74222C6.88641 6.66922 7.06541 6.62622 7.25041 6.62622C7.43741 6.62622 7.61441 6.66922 7.77341 6.74222C7.92641 6.81122 8.09941 6.85222 8.27941 6.85222V7.61223Z" fill="black"/>
</svg>
