<svg width="7" height="8" viewBox="0 0 7 8" fill="none" xmlns="http://www.w3.org/2000/svg">
<path d="M4.55252 0.62439C4.48452 0.61439 4.42952 0.554398 4.42952 0.483398C4.42952 0.428398 4.46052 0.383398 4.50352 0.358398C4.45852 0.333398 4.42952 0.286398 4.42952 0.233398C4.42952 0.153398 4.49352 0.0883789 4.57452 0.0883789H5.28952C5.36952 0.0883789 5.43452 0.152398 5.43452 0.233398C5.43452 0.288398 5.40352 0.335398 5.35652 0.358398C5.40152 0.381398 5.43452 0.428398 5.43452 0.483398C5.43452 0.553398 5.37952 0.61439 5.31152 0.62439L6.17852 2.97137C6.23352 3.12337 6.26052 3.29338 6.26052 3.46338V7.62439C6.26052 7.78039 6.13352 7.90738 5.97552 7.90738H3.88652C3.73052 7.90738 3.60352 7.78039 3.60352 7.62439V3.46338C3.60352 3.29338 3.63052 3.12337 3.68352 2.97137L4.55252 0.62439Z" fill="black"/>
<path d="M0.951793 3.0394C0.961793 3.0624 0.967793 3.08837 0.967793 3.11337C0.967793 3.22037 0.879793 3.30838 0.772793 3.30838C0.733793 3.30838 0.696793 3.29439 0.665793 3.27539L0.194793 2.8844C0.143793 2.8234 0.112793 2.74738 0.112793 2.66138C0.112793 2.47238 0.266793 2.31738 0.456793 2.31738C0.597793 2.31738 0.720793 2.40538 0.770793 2.52838L0.951793 3.0394ZM0.562793 2.98837C0.580793 3.00437 0.605793 3.0134 0.630793 3.0134C0.689793 3.0134 0.735793 2.96639 0.735793 2.90939C0.735793 2.89139 0.729793 2.8744 0.721793 2.8584L0.604793 2.58539C0.577793 2.53039 0.518793 2.49338 0.454793 2.49338C0.360793 2.49338 0.284793 2.56738 0.284793 2.66138C0.284793 2.70638 0.302793 2.7474 0.331793 2.7764L0.562793 2.98837Z" fill="black"/>
<path d="M2.4615 3.38232C2.5185 3.38232 2.5655 3.42933 2.5655 3.48633V3.64633C2.5655 3.70333 2.5185 3.74933 2.4615 3.74933L2.3655 3.74533C2.4805 3.81733 2.5645 3.94232 2.5645 4.08932V7.58731C2.5645 7.76731 2.4195 7.91132 2.2425 7.91132H0.3865C0.2065 7.91132 0.0625 7.76631 0.0625 7.58731L0.0644999 4.08932C0.0644999 3.94333 0.1465 3.81833 0.2615 3.74533L0.1655 3.74933C0.1085 3.74933 0.0634999 3.70333 0.0634999 3.64633V3.48633C0.0634999 3.42933 0.1085 3.38232 0.1655 3.38232H2.4615Z" fill="black"/>
</svg>
