<svg width="10" height="8" viewBox="0 0 10 8" fill="none" xmlns="http://www.w3.org/2000/svg">
<path d="M6.54729 1.11134C6.54729 1.47834 6.25028 1.77534 5.88528 1.77534C5.66028 1.77534 5.46129 1.66236 5.34229 1.49236H5.55128C5.69028 1.49236 5.81129 1.41035 5.86729 1.29335L5.95729 1.10034C5.96329 1.08834 5.97528 1.07935 5.99028 1.07935H6.54729V1.11134Z" fill="black"/>
<path d="M6.67429 0.908371C6.58429 0.556371 6.26428 0.297363 5.88528 0.297363C5.43428 0.297363 5.07129 0.662359 5.07129 1.11136C5.07129 1.18536 5.08128 1.25737 5.09828 1.32437H5.55128C5.62328 1.32437 5.68829 1.28137 5.71729 1.22037L5.80528 1.02736C5.83628 0.957359 5.90929 0.908371 5.99129 0.908371H6.67429Z" fill="black"/>
<path d="M4.32943 1.49824C4.41143 1.43224 4.42344 1.31223 4.35644 1.23223L3.99943 0.793235C3.93343 0.711235 3.81344 0.699227 3.73344 0.766227L2.20544 2.00823C2.12544 2.07423 2.11143 2.19424 2.17843 2.27624L2.53544 2.71523C2.60144 2.79523 2.72143 2.80724 2.80343 2.74224L4.32943 1.49824Z" fill="black"/>
<path d="M2.82022 3.25535C2.73422 3.32135 2.66022 3.40535 2.60322 3.50535C2.54822 3.60135 2.51522 3.70234 2.49922 3.80434L2.06323 5.68134L0.862223 6.83735C0.829223 6.86835 0.799223 6.90334 0.778223 6.94434C0.651223 7.16534 0.72722 7.44634 0.95022 7.57334C1.12822 7.67534 1.34622 7.64334 1.48922 7.51234L2.82522 6.22133C2.84522 6.19834 2.86221 6.17235 2.87821 6.14535C2.89821 6.11035 2.91323 6.07534 2.92323 6.03834L3.19422 4.84934L4.08822 5.74035L4.08622 7.24235C4.08622 7.40235 4.17022 7.55634 4.31822 7.64234C4.53922 7.76734 4.82021 7.69134 4.94721 7.47034C4.99021 7.39034 5.01022 7.30634 5.00622 7.22234L5.00822 5.55234C5.01222 5.43334 4.96922 5.31634 4.88722 5.22634L3.92422 4.27534L5.03121 3.36735L5.28723 4.07635C5.30823 4.12335 5.34222 4.16635 5.38322 4.19935L6.44222 5.00234C6.58522 5.09034 6.77623 5.06634 6.89523 4.93934C7.03223 4.79334 7.02422 4.56235 6.87722 4.42535C6.87322 4.42135 6.86721 4.41734 6.86321 4.41334L5.93522 3.70434L5.50523 2.44434C5.43723 2.27834 5.31622 2.13334 5.14822 2.03834C4.86322 1.87634 4.52122 1.89934 4.26722 2.07134L2.82022 3.25535Z" fill="black"/>
<path d="M6.92644 0.916367C6.89744 0.889367 6.87744 0.848359 6.87744 0.805359C6.87744 0.719359 6.94543 0.651367 7.02943 0.651367L9.32243 0.653366C9.55443 0.655366 9.69744 1.31136 9.54144 1.82736C9.39544 2.30636 8.95944 2.92337 8.75444 2.71437L6.92644 0.916367Z" fill="black"/>
</svg>
