<svg width="8" height="10" viewBox="0 0 8 10" fill="none" xmlns="http://www.w3.org/2000/svg">
<path d="M7.28319 7.17609C7.60919 7.06909 7.78519 6.71907 7.67819 6.39307L7.44218 6.46906C7.50618 6.66406 7.39919 6.87506 7.20619 6.94006L0.992188 9.05707L1.07219 9.29108L7.28319 7.17609Z" fill="black"/>
<path d="M1.37987 3.54413C1.73609 3.54413 2.02487 3.25539 2.02487 2.89917C2.02487 2.54295 1.73609 2.25415 1.37987 2.25415C1.02364 2.25415 0.734863 2.54295 0.734863 2.89917C0.734863 3.25539 1.02364 3.54413 1.37987 3.54413Z" fill="black"/>
<path d="M1.29833 4.41215C0.958326 3.76415 1.93432 3.23811 2.29332 3.86711L2.99433 5.19914L4.32833 4.82011C4.54932 4.75711 4.85332 4.99811 4.85332 5.28111L4.86133 7.17912C4.86333 7.65012 4.16432 7.65215 4.16432 7.17515C4.16232 6.73415 4.15033 5.7921 4.15033 5.7921L2.75733 6.21013C2.45233 6.29813 2.20033 6.14613 2.08133 5.92113L1.29833 4.41215Z" fill="black"/>
<path d="M3.45528 4.71295V0.708984H3.17627V4.78894L3.45528 4.71295Z" fill="black"/>
<path d="M0.6569 5.27793C0.4659 4.90093 0.959903 4.65093 1.1509 5.02793L1.7539 6.20792C1.8849 6.45192 2.14091 6.61796 2.43591 6.61796C2.52791 6.61796 2.6139 6.59494 2.6979 6.57694L3.45791 6.35392C3.85991 6.23292 4.0169 6.76391 3.6099 6.88291L2.81091 7.11491C2.69191 7.15191 2.56291 7.17191 2.42991 7.17191C1.91591 7.17191 1.47191 6.88093 1.25291 6.45493L0.6569 5.27793Z" fill="black"/>
</svg>
