<svg width="9" height="8" viewBox="0 0 9 8" fill="none" xmlns="http://www.w3.org/2000/svg">
<path d="M1.15874 3.43988C1.12374 3.51188 1.09773 3.59188 1.08473 3.67788C1.07873 3.72088 1.07474 3.76388 1.07474 3.80688L1.10573 5.77588L0.425737 7.24089C0.402737 7.28389 0.384741 7.33488 0.376741 7.38688C0.339741 7.62888 0.505728 7.85388 0.747728 7.89088C0.935728 7.91988 1.11473 7.82488 1.20073 7.66588L1.94873 6.06389C1.96473 6.02689 1.97774 5.98788 1.98374 5.94488C1.98574 5.92488 1.98773 5.90388 1.98773 5.88388L1.98174 4.66688L3.13074 5.16888L3.31673 6.35788C3.35373 6.53188 3.49673 6.67089 3.68173 6.69989C3.92373 6.73489 4.14873 6.56888 4.18573 6.32888C4.19173 6.28788 4.19173 6.24688 4.18773 6.20788L3.96074 4.77188C3.93374 4.63288 3.84174 4.51388 3.71274 4.45388L2.68573 3.99688L3.33974 2.85788L3.66373 3.26989C3.69673 3.30689 3.73973 3.33788 3.78873 3.35788L5.02474 3.71888C5.18874 3.75388 5.35673 3.66788 5.42073 3.50988C5.49273 3.32988 5.40674 3.12688 5.22974 3.05488C5.22374 3.05288 5.21773 3.05089 5.21173 3.04889L4.13774 2.73288L3.32874 1.76188C3.20774 1.63288 3.04573 1.54088 2.85773 1.51188C2.52973 1.46288 2.21774 1.61888 2.05374 1.88488L1.15874 3.43988Z" fill="black"/>
<path d="M4.70598 6.26212L4.62798 6.85212L2.50098 7.37012L2.52197 7.73512H7.70998C7.89398 7.73512 8.04198 7.58711 8.04198 7.40311L8.03598 0.411118L7.32498 0.245117L6.91698 2.08311L6.23398 2.37012L5.62898 4.06512L6.20398 5.36211L6.04198 5.86012L4.70598 6.26212Z" fill="black"/>
<path d="M3.2621 1.428C3.62771 1.428 3.9241 1.13161 3.9241 0.765999C3.9241 0.400386 3.62771 0.104004 3.2621 0.104004C2.89649 0.104004 2.6001 0.400386 2.6001 0.765999C2.6001 1.13161 2.89649 1.428 3.2621 1.428Z" fill="black"/>
<path d="M1.944 1.53203C1.995 1.44203 1.96499 1.32503 1.87399 1.27403L1.554 1.08603C1.462 1.03503 1.34699 1.06503 1.29399 1.15603L0.305999 2.86103C0.254999 2.95103 0.284991 3.06603 0.375991 3.11903L0.697997 3.30503C0.787997 3.35803 0.902993 3.32603 0.955993 3.23703L1.944 1.53203Z" fill="black"/>
</svg>
