<svg width="9" height="4" viewBox="0 0 9 4" fill="none" xmlns="http://www.w3.org/2000/svg">
<path d="M2.51465 1.59768C2.50865 1.44868 2.45764 1.33068 2.37164 1.24668C2.28764 1.15568 2.17064 1.10968 2.02164 1.10968C1.51364 1.10968 1.42964 1.63568 1.42964 2.03968C1.42964 2.55268 1.62464 2.89068 2.02164 2.89068C2.37164 2.89068 2.50765 2.65068 2.54665 2.38368H3.91165C3.79465 3.41668 2.96265 3.79968 2.02065 3.79968C0.922645 3.79968 0.0776367 3.18268 0.0776367 2.03268C0.0776367 0.869684 0.895645 0.200684 2.02065 0.200684C2.92865 0.200684 3.78864 0.59068 3.88364 1.59668L2.51465 1.59768Z" fill="black"/>
<path d="M6.8486 1.59768C6.8426 1.44868 6.7896 1.33068 6.7056 1.24668C6.6216 1.15568 6.50461 1.10968 6.35361 1.10968C5.84761 1.10968 5.76361 1.63568 5.76361 2.03968C5.76361 2.55268 5.95861 2.89068 6.35361 2.89068C6.70561 2.89068 6.84162 2.65068 6.88062 2.38368H8.24561C8.1286 3.41668 7.2966 3.79968 6.3526 3.79968C5.2546 3.79968 4.41162 3.18268 4.41162 2.03268C4.41162 0.869684 5.2296 0.200684 6.3526 0.200684C7.2626 0.200684 8.12062 0.59068 8.21762 1.59668L6.8486 1.59768Z" fill="black"/>
</svg>
