<svg width="10" height="10" viewBox="0 0 10 10" fill="none" xmlns="http://www.w3.org/2000/svg">
<path d="M9.20826 8.39087C9.20726 8.61287 9.02326 8.79087 8.80326 8.78987H2.21826V9.06187H8.80226C9.17326 9.06287 9.47626 8.76587 9.47826 8.39287L9.20826 8.39087Z" fill="black"/>
<path d="M7.23915 2.26199C7.60476 2.26199 7.90115 1.9656 7.90115 1.59999C7.90115 1.23438 7.60476 0.937988 7.23915 0.937988C6.87354 0.937988 6.57715 1.23438 6.57715 1.59999C6.57715 1.9656 6.87354 2.26199 7.23915 2.26199Z" fill="black"/>
<path d="M3.04621 7.95679L0.845215 5.74878L0.846215 6.13478L2.89521 8.19179C3.13021 8.44679 3.53421 8.15178 3.53421 8.15178L3.34121 7.94379C3.34121 7.94379 3.15121 8.06878 3.05221 7.96278L3.04621 7.95679Z" fill="black"/>
<path d="M3.11628 3.79297H0.863281V4.06197H3.11628V3.79297Z" fill="black"/>
<path d="M9.20607 3.1499L9.46307 3.2579L6.90507 8.40691H6.62207L9.20607 3.1499Z" fill="black"/>
<path d="M4.96244 2.75281L3.93344 3.94081C3.87244 4.01581 3.78044 4.06281 3.67644 4.06281C3.49144 4.06281 3.34344 3.91381 3.34344 3.72981C3.34344 3.62981 3.38644 3.54181 3.45544 3.47981L4.56444 2.20181C4.62644 2.12881 4.71744 2.08081 4.82144 2.08081H6.42744C6.54544 2.08081 6.65144 2.12781 6.72944 2.20381L7.75344 3.22781L8.60244 2.38081C8.66244 2.33081 8.73944 2.2998 8.82344 2.2998C9.01344 2.2998 9.16744 2.45381 9.16744 2.64381C9.16744 2.72681 9.13944 2.80182 9.09044 2.86182L8.06744 3.89281C7.75644 4.20281 7.50644 3.9398 7.50644 3.9398L6.87844 3.30881L5.89744 4.44382L6.79644 5.34282C6.79644 5.34282 6.98544 5.51881 6.87744 5.8688L6.37344 8.11481C6.33344 8.30981 6.16044 8.45682 5.95444 8.45682C5.71844 8.45682 5.52644 8.26481 5.52644 8.02881C5.52644 7.99181 5.53044 7.95581 5.54044 7.92181L5.95444 6.07881L4.93344 5.08582L4.05444 6.06581C4.05444 6.06581 3.91144 6.24181 3.53444 6.22781L1.75244 6.2308C1.55344 6.2338 1.37244 6.09781 1.32744 5.8968C1.27444 5.6668 1.41744 5.44082 1.64744 5.38982C1.68344 5.38182 1.71944 5.37881 1.75444 5.37981L3.28744 5.3838L5.55444 2.75581L4.96244 2.75281Z" fill="black"/>
</svg>
