<svg width="9" height="8" viewBox="0 0 9 8" fill="none" xmlns="http://www.w3.org/2000/svg">
<path d="M2.88138 6.46484H0.0883789V7.01184H2.88138V6.46484Z" fill="black"/>
<path d="M2.88138 5.63672H0.0883789V6.18372H2.88138V5.63672Z" fill="black"/>
<path d="M2.88138 4.80688H0.0883789V5.35391H2.88138V4.80688Z" fill="black"/>
<path d="M2.88138 3.97583H0.0883789V4.52283H2.88138V3.97583Z" fill="black"/>
<path d="M4.01 1.19479C3.959 1.07379 3.838 0.987793 3.699 0.987793L3.25 0.989807V7.0108H5.377L4.01 1.19479Z" fill="black"/>
<path d="M2.88138 3.14771H0.0883789V3.69272H2.88138V3.14771Z" fill="black"/>
<path d="M2.88138 2.31787H0.0883789V2.86487H2.88138V2.31787Z" fill="black"/>
<path d="M2.88138 1.48779H0.0883789V2.03482H2.88138V1.48779Z" fill="black"/>
<path d="M5.63721 6.53491C5.67821 6.54291 5.71921 6.54691 5.76021 6.54691C5.86921 6.54691 5.97321 6.5219 6.06521 6.4809C6.16121 6.4359 6.26621 6.41089 6.37921 6.41089C6.49021 6.41089 6.59621 6.4359 6.69221 6.4809C6.78421 6.5219 6.88921 6.54691 6.99721 6.54691C7.10521 6.54691 7.20821 6.5219 7.30221 6.4809C7.39621 6.4359 7.50321 6.41089 7.61521 6.41089C7.72721 6.41089 7.83421 6.4359 7.92921 6.4809C8.02121 6.5219 8.12421 6.54691 8.23421 6.54691V7.00189C8.12521 7.00189 8.02121 6.9789 7.92921 6.9379C7.83321 6.8929 7.72621 6.86789 7.61521 6.86789C7.50421 6.86789 7.39621 6.8929 7.30221 6.9379C7.20821 6.9789 7.10521 7.00189 6.99721 7.00189C6.88921 7.00189 6.78421 6.9789 6.69221 6.9379C6.59621 6.8929 6.49121 6.86789 6.37921 6.86789C6.26621 6.86789 6.16021 6.8929 6.06521 6.9379C5.97321 6.9789 5.87021 7.00189 5.76021 7.00189C5.75421 7.00189 5.74821 7.00189 5.74221 7.00189L5.63721 6.53491Z" fill="black"/>
<path d="M5.45605 5.64178C5.55005 5.68278 5.65306 5.70776 5.76105 5.70776C5.87006 5.70776 5.97405 5.68278 6.06605 5.64178C6.16205 5.59678 6.26705 5.57178 6.38005 5.57178C6.49105 5.57178 6.59706 5.59678 6.69306 5.64178C6.78506 5.68278 6.89005 5.70776 6.99805 5.70776C7.10605 5.70776 7.20905 5.68278 7.30305 5.64178C7.39705 5.59678 7.50405 5.57178 7.61605 5.57178C7.72805 5.57178 7.83505 5.59678 7.93005 5.64178C8.02205 5.68278 8.12506 5.70776 8.23505 5.70776V6.16278C8.12605 6.16278 8.02205 6.13979 7.93005 6.09879C7.83405 6.05379 7.72705 6.02878 7.61605 6.02878C7.50505 6.02878 7.39705 6.05379 7.30305 6.09879C7.20905 6.13979 7.10605 6.16278 6.99805 6.16278C6.89005 6.16278 6.78506 6.13979 6.69306 6.09879C6.59706 6.05379 6.49205 6.02878 6.38005 6.02878C6.26705 6.02878 6.16105 6.05379 6.06605 6.09879C5.97405 6.13979 5.87106 6.16278 5.76105 6.16278C5.69506 6.16278 5.63005 6.15479 5.56806 6.13779L5.45605 5.64178Z" fill="black"/>
</svg>
