<svg width="8" height="10" viewBox="0 0 8 10" fill="none" xmlns="http://www.w3.org/2000/svg">
<path d="M5.96572 2.11749H6.70572C6.80372 2.11749 6.88372 2.19747 6.88372 2.29547C6.88372 2.39547 6.80372 2.47546 6.70572 2.47546H5.97372C5.92672 2.47546 5.87972 2.49149 5.84472 2.52649C5.78972 2.58349 5.77672 2.66349 5.80772 2.72949C5.83472 2.78849 5.87172 2.84848 5.91272 2.89948L6.33472 2.89749C6.36572 2.89949 6.40072 2.90749 6.43072 2.92249L7.42272 3.45349C7.50472 3.50449 7.56172 3.59649 7.56172 3.69949C7.56172 3.86149 7.43072 3.99048 7.27072 3.99048H6.62472L5.75772 6.11749L5.20072 6.67447V8.70947C5.20072 8.91447 5.03272 9.08249 4.82572 9.08249C4.61872 9.08249 4.45272 8.91447 4.45272 8.70947V6.52048H2.94972L2.61172 7.03448L3.44172 8.47949C3.54372 8.65949 3.47872 8.88747 3.29872 8.98947C3.11872 9.09147 2.89072 9.02647 2.78872 8.84647L1.93672 7.38547V6.73749L1.51272 7.30548V8.68246C1.51272 8.88946 1.34472 9.05548 1.13772 9.05548C0.932719 9.05548 0.764719 8.88946 0.764719 8.68246L0.762719 7.22348L1.11272 6.66849V6.00848L0.841719 6.43246C0.835719 6.44846 0.820719 6.45749 0.802719 6.45749C0.781719 6.45749 0.761719 6.43947 0.761719 6.41647V4.94547C0.775719 4.65647 1.01772 4.41647 1.30872 4.41647H4.98672L5.57072 3.51849L5.08672 3.03647C5.07072 3.02247 5.06172 3.00348 5.06172 2.98148C5.06172 2.93848 5.09472 2.90549 5.13572 2.90549L5.48972 2.90747C5.40172 2.72347 5.35072 2.51849 5.35072 2.30249C5.35072 1.53849 5.97172 0.91748 6.73772 0.91748C6.83772 0.91748 6.91772 0.997473 6.91772 1.09747C6.91772 1.19547 6.83772 1.27948 6.73772 1.27948C6.21472 1.27948 5.78072 1.67449 5.72172 2.18149C5.79372 2.13949 5.87572 2.11749 5.96572 2.11749Z" fill="black"/>
</svg>
