<svg width="9" height="10" viewBox="0 0 9 10" fill="none" xmlns="http://www.w3.org/2000/svg">
<path d="M8.0822 9.11453C7.9102 9.11453 7.7462 9.07552 7.6002 9.00952C7.4502 8.93952 7.2802 8.89853 7.1022 8.89853C6.9242 8.89853 6.7562 8.93952 6.6042 9.00952C6.4582 9.07552 6.29321 9.11453 6.12221 9.11453C5.95121 9.11453 5.78621 9.07552 5.64021 9.00952C5.48821 8.93952 5.32021 8.89853 5.14221 8.89853C4.96421 8.89853 4.79421 8.93952 4.64421 9.00952C4.49821 9.07552 4.3332 9.11453 4.1622 9.11453C3.9912 9.11453 3.82621 9.07552 3.67821 9.00952C3.52821 8.93952 3.35821 8.89853 3.18221 8.89853C3.00421 8.89853 2.8342 8.93952 2.6842 9.00952C2.5382 9.07552 2.3732 9.11453 2.2032 9.11453C2.0312 9.11453 1.86721 9.07552 1.71921 9.00952C1.56921 8.93952 1.39921 8.89853 1.22321 8.89853C1.04521 8.89853 0.875204 8.93952 0.725204 9.00952C0.579204 9.07552 0.412211 9.11453 0.241211 9.11453V8.38953C0.413211 8.38953 0.579204 8.35052 0.725204 8.28452C0.875204 8.21652 1.04521 8.17554 1.22321 8.17554C1.39921 8.17554 1.56921 8.21652 1.71921 8.28452C1.86721 8.35052 2.0322 8.38953 2.2032 8.38953C2.3742 8.38953 2.5382 8.35052 2.6842 8.28452C2.8342 8.21652 3.00421 8.17554 3.18221 8.17554C3.35821 8.17554 3.52821 8.21652 3.67821 8.28452C3.82621 8.35052 3.9912 8.38953 4.1622 8.38953C4.3332 8.38953 4.49821 8.35052 4.64421 8.28452C4.79421 8.21652 4.96421 8.17554 5.14221 8.17554C5.32021 8.17554 5.48821 8.21652 5.64021 8.28452C5.78621 8.35052 5.95121 8.38953 6.12221 8.38953C6.29321 8.38953 6.4582 8.35052 6.6042 8.28452C6.7562 8.21652 6.9242 8.17554 7.1022 8.17554C7.2802 8.17554 7.4502 8.21652 7.6002 8.28452C7.7462 8.35052 7.9112 8.38953 8.0822 8.38953V9.11453Z" fill="black"/>
<path d="M2.45738 5.56149C2.82244 5.56149 3.11839 5.26554 3.11839 4.90048C3.11839 4.53542 2.82244 4.2395 2.45738 4.2395C2.09232 4.2395 1.79639 4.53542 1.79639 4.90048C1.79639 5.26554 2.09232 5.56149 2.45738 5.56149Z" fill="black"/>
<path d="M2.55127 7.85067C2.44727 8.02867 2.21927 8.08867 2.04227 7.98367C1.86427 7.87967 1.80427 7.65169 1.90727 7.47369L3.44127 4.83068C3.49827 4.73068 3.58026 4.64866 3.67726 4.59466L5.65027 3.39968L6.99026 1.11868C7.11726 0.895677 7.40026 0.81968 7.62326 0.94668C7.84426 1.07568 7.92027 1.35868 7.79327 1.57968L6.18826 4.31167C6.13326 4.41167 6.05127 4.49366 5.95227 4.54766L3.62427 5.99468L2.55127 7.85067Z" fill="black"/>
</svg>
