<svg width="9" height="8" viewBox="0 0 9 8" fill="none" xmlns="http://www.w3.org/2000/svg">
<path d="M7.47545 2.91013C7.84051 2.91013 8.13645 2.61419 8.13645 2.24913C8.13645 1.88407 7.84051 1.58813 7.47545 1.58813C7.11039 1.58813 6.81445 1.88407 6.81445 2.24913C6.81445 2.61419 7.11039 2.91013 7.47545 2.91013Z" fill="black"/>
<path d="M7.14952 7.67606C7.46852 7.86506 7.88052 7.76205 8.07152 7.44205L7.84052 7.30305C7.72752 7.49405 7.47952 7.55505 7.28952 7.44205L0.323523 3.35205L0.186523 3.58505L7.14952 7.67606Z" fill="black"/>
<path d="M4.62781 0.379176C4.22581 0.108176 3.68181 0.215166 3.40981 0.619166C3.26081 0.840166 3.21981 1.11917 3.29281 1.34617L3.75581 2.86216L2.35981 3.30717C2.18481 3.37717 2.04981 3.54117 2.02681 3.74317C1.99081 4.03817 2.21081 4.23317 2.50581 4.26817C2.57281 4.27617 2.61781 4.25618 2.68081 4.24118L4.58681 3.61016C4.72681 3.55916 4.87981 3.42117 4.89481 3.29917C4.90581 3.21117 4.93381 3.13716 4.91581 3.08416L4.62581 2.04717L5.77181 2.72917L5.91081 3.72317C5.92281 3.89717 6.00181 4.02217 6.13581 4.09617L7.63381 4.97117C7.79781 5.06117 8.00481 5.00016 8.09481 4.83416C8.18581 4.67016 8.12381 4.46116 7.95981 4.37116L6.77481 3.68017L6.63781 1.90917C6.61681 1.69717 6.50181 1.50717 6.33381 1.38917L4.62781 0.379176Z" fill="black"/>
</svg>
