<svg width="7" height="8" viewBox="0 0 7 8" fill="none" xmlns="http://www.w3.org/2000/svg">
<path d="M4.83881 1.71463C4.70981 1.83963 4.53481 1.88863 4.34281 1.88863C4.09781 1.88863 3.87481 1.78862 3.74681 1.59962C3.61981 1.79262 3.39481 1.88863 3.14681 1.88863C2.90181 1.88863 2.68081 1.78663 2.55281 1.59763C2.42581 1.79263 2.20181 1.88863 1.95081 1.88863C1.76881 1.88863 1.60281 1.84763 1.47781 1.73663L1.38281 1.05663C1.51281 1.22863 1.71881 1.33963 1.94981 1.33963C2.20081 1.33963 2.42481 1.21662 2.55181 1.02162C2.67981 1.21062 2.90081 1.33963 3.14581 1.33963C3.39381 1.33963 3.61881 1.21664 3.74581 1.02364C3.87381 1.21264 4.09681 1.33963 4.34181 1.33963C4.59181 1.33963 4.81281 1.21062 4.93881 1.01562L4.83881 1.71463Z" fill="black"/>
<path d="M5.0197 7.45647L6.1027 0.543457L5.3737 0.550461L4.3887 6.72746H1.9347L0.948703 0.550461L0.220703 0.543457L1.3037 7.45647H5.0197Z" fill="black"/>
</svg>
