<svg width="9" height="10" viewBox="0 0 9 10" fill="none" xmlns="http://www.w3.org/2000/svg">
<path d="M4.82843 0.678711L4.21143 1.29071L4.82843 1.90871H4.30544L3.69043 1.29071L4.30544 0.678711H4.82843Z" fill="black"/>
<path d="M3.49219 8.09155L4.10818 8.70455L3.49219 9.32155H4.01419L4.63118 8.70455L4.01419 8.09155H3.49219Z" fill="black"/>
<path d="M2.90114 6.17066V6.55167C2.90114 6.76067 2.73314 6.93066 2.52414 6.93066C2.31614 6.93066 2.14813 6.76067 2.14813 6.55167V6.17066H1.76514V4.93466C1.76514 4.66466 1.94715 4.43867 2.19315 4.37067L2.63513 3.31966C2.69813 3.16566 2.85014 3.05566 3.02814 3.05566H5.29214C5.47014 3.05566 5.62213 3.16466 5.68713 3.31966L6.12814 4.37067C6.37614 4.43867 6.55814 4.66566 6.55814 4.93466V6.17066H6.17314V6.55167C6.17314 6.76067 6.00514 6.93066 5.79614 6.93066C5.58714 6.93066 5.41914 6.76067 5.41914 6.55167V6.17066H2.90114ZM2.51514 5.39366C2.69014 5.39366 2.83014 5.25267 2.83014 5.07767C2.83014 4.90367 2.68914 4.76266 2.51514 4.76266C2.34114 4.76266 2.19914 4.90467 2.19914 5.07767C2.19814 5.25267 2.34114 5.39366 2.51514 5.39366ZM6.09615 5.07667C6.09615 4.90267 5.95514 4.76167 5.78014 4.76167C5.60614 4.76167 5.46414 4.90367 5.46414 5.07667C5.46414 5.25267 5.60714 5.39266 5.78014 5.39266C5.95514 5.39366 6.09615 5.25267 6.09615 5.07667ZM5.74614 4.34866L5.36914 3.44267C5.35114 3.39567 5.30813 3.36266 5.25613 3.36266H3.06314C3.01214 3.36266 2.96713 3.39567 2.95213 3.44267L2.57314 4.34866H5.74614Z" fill="black"/>
<path d="M7.83241 1.64653C8.01411 1.64653 8.16141 1.49923 8.16141 1.31753C8.16141 1.13583 8.01411 0.988525 7.83241 0.988525C7.65071 0.988525 7.50342 1.13583 7.50342 1.31753C7.50342 1.49923 7.65071 1.64653 7.83241 1.64653Z" fill="black"/>
<path d="M0.816116 8.66855C0.816116 8.48655 0.672113 8.34155 0.488113 8.34155C0.308113 8.34155 0.162109 8.48655 0.162109 8.66855C0.162109 8.84955 0.308113 8.99455 0.488113 8.99455C0.672113 8.99455 0.816116 8.84955 0.816116 8.66855Z" fill="black"/>
<path d="M1.71223 9.02365C1.89423 9.02365 2.03822 8.87865 2.03822 8.69465C2.03822 8.51465 1.89323 8.36865 1.71223 8.36865C1.53223 8.36865 1.38623 8.51465 1.38623 8.69465C1.38623 8.87865 1.53223 9.02365 1.71223 9.02365Z" fill="black"/>
<path d="M2.93637 9.02753C3.11697 9.02753 3.26337 8.88114 3.26337 8.70054C3.26337 8.51994 3.11697 8.37354 2.93637 8.37354C2.75577 8.37354 2.60938 8.51994 2.60938 8.70054C2.60938 8.88114 2.75577 9.02753 2.93637 9.02753Z" fill="black"/>
<path d="M5.3851 9.02753C5.5657 9.02753 5.71211 8.88114 5.71211 8.70054C5.71211 8.51994 5.5657 8.37354 5.3851 8.37354C5.2045 8.37354 5.05811 8.51994 5.05811 8.70054C5.05811 8.88114 5.2045 9.02753 5.3851 9.02753Z" fill="black"/>
<path d="M6.60825 9.02851C6.78825 9.02851 6.93724 8.88252 6.93724 8.70052C6.93724 8.52052 6.78825 8.37451 6.60825 8.37451C6.42325 8.37451 6.28125 8.52052 6.28125 8.70052C6.28125 8.88252 6.42325 9.02851 6.60825 9.02851Z" fill="black"/>
<path d="M7.83241 9.0256C8.01741 9.0256 8.16141 8.8806 8.16141 8.6966C8.16141 8.5176 8.01641 8.37061 7.83241 8.37061C7.65041 8.37061 7.50342 8.5176 7.50342 8.6966C7.50342 8.8806 7.65141 9.0256 7.83241 9.0256Z" fill="black"/>
<path d="M0.816116 7.43855C0.816116 7.25755 0.672113 7.11255 0.488113 7.11255C0.308113 7.11255 0.162109 7.25755 0.162109 7.43855C0.162109 7.62055 0.308113 7.76655 0.488113 7.76655C0.672113 7.76655 0.816116 7.62055 0.816116 7.43855Z" fill="black"/>
<path d="M0.489105 6.53461C0.669702 6.53461 0.816116 6.38821 0.816116 6.20761C0.816116 6.02701 0.669702 5.88062 0.489105 5.88062C0.308508 5.88062 0.162109 6.02701 0.162109 6.20761C0.162109 6.38821 0.308508 6.53461 0.489105 6.53461Z" fill="black"/>
<path d="M0.489105 5.30366C0.669702 5.30366 0.816116 5.15725 0.816116 4.97665C0.816116 4.79606 0.669702 4.64966 0.489105 4.64966C0.308508 4.64966 0.162109 4.79606 0.162109 4.97665C0.162109 5.15725 0.308508 5.30366 0.489105 5.30366Z" fill="black"/>
<path d="M0.489105 4.07148C0.669702 4.07148 0.816116 3.92508 0.816116 3.74448C0.816116 3.56389 0.669702 3.41748 0.489105 3.41748C0.308508 3.41748 0.162109 3.56389 0.162109 3.74448C0.162109 3.92508 0.308508 4.07148 0.489105 4.07148Z" fill="black"/>
<path d="M0.816116 2.51672C0.816116 2.33472 0.672112 2.18872 0.490112 2.18872C0.308112 2.18872 0.162109 2.33472 0.162109 2.51672C0.162109 2.69372 0.308112 2.84272 0.490112 2.84272C0.672112 2.84272 0.816116 2.69372 0.816116 2.51672Z" fill="black"/>
<path d="M0.816116 1.28552C0.816116 1.10152 0.672112 0.95752 0.490112 0.95752C0.310112 0.95752 0.162109 1.10152 0.162109 1.28552C0.162109 1.46552 0.310112 1.61152 0.490112 1.61152C0.672112 1.61252 0.816116 1.46652 0.816116 1.28552Z" fill="black"/>
<path d="M6.60825 1.61152C6.78884 1.61152 6.93524 1.46512 6.93524 1.28452C6.93524 1.10393 6.78884 0.95752 6.60825 0.95752C6.42765 0.95752 6.28125 1.10393 6.28125 1.28452C6.28125 1.46512 6.42765 1.61152 6.60825 1.61152Z" fill="black"/>
<path d="M5.38315 0.95752C5.20315 0.95752 5.05615 1.10352 5.05615 1.28552C5.05615 1.46552 5.20315 1.61152 5.38315 1.61152C5.56715 1.61152 5.71216 1.46552 5.71216 1.28552C5.71216 1.10352 5.56715 0.95752 5.38315 0.95752Z" fill="black"/>
<path d="M2.93643 0.95752C2.75643 0.95752 2.60742 1.10352 2.60742 1.28552C2.60742 1.46552 2.75643 1.61152 2.93643 1.61152C3.12143 1.61152 3.26543 1.46552 3.26543 1.28552C3.26543 1.10352 3.12043 0.95752 2.93643 0.95752Z" fill="black"/>
<path d="M1.7142 1.61152C1.8948 1.61152 2.0412 1.46512 2.0412 1.28452C2.0412 1.10393 1.8948 0.95752 1.7142 0.95752C1.53361 0.95752 1.38721 1.10393 1.38721 1.28452C1.38721 1.46512 1.53361 1.61152 1.7142 1.61152Z" fill="black"/>
<path d="M7.83241 2.87455C8.01411 2.87455 8.16141 2.72725 8.16141 2.54555C8.16141 2.36385 8.01411 2.21655 7.83241 2.21655C7.65071 2.21655 7.50342 2.36385 7.50342 2.54555C7.50342 2.72725 7.65071 2.87455 7.83241 2.87455Z" fill="black"/>
<path d="M7.83241 4.10551C8.01411 4.10551 8.16141 3.95821 8.16141 3.77651C8.16141 3.59481 8.01411 3.44751 7.83241 3.44751C7.65071 3.44751 7.50342 3.59481 7.50342 3.77651C7.50342 3.95821 7.65071 4.10551 7.83241 4.10551Z" fill="black"/>
<path d="M7.50342 5.00449C7.50342 5.18549 7.65041 5.33549 7.83241 5.33549C8.01241 5.33549 8.16141 5.18649 8.16141 5.00449C8.16141 4.82749 8.01241 4.67749 7.83241 4.67749C7.65141 4.67849 7.50342 4.82749 7.50342 5.00449Z" fill="black"/>
<path d="M7.83241 6.56669C8.01411 6.56669 8.16141 6.41939 8.16141 6.23769C8.16141 6.05598 8.01411 5.90869 7.83241 5.90869C7.65071 5.90869 7.50342 6.05598 7.50342 6.23769C7.50342 6.41939 7.65071 6.56669 7.83241 6.56669Z" fill="black"/>
<path d="M7.50342 7.46667C7.50342 7.64667 7.65041 7.79667 7.83241 7.79667C8.01241 7.79667 8.16141 7.64767 8.16141 7.46667C8.16141 7.28867 8.01241 7.13867 7.83241 7.13867C7.65141 7.13867 7.50342 7.28867 7.50342 7.46667Z" fill="black"/>
</svg>
