<svg width="8" height="4" viewBox="0 0 8 4" fill="none" xmlns="http://www.w3.org/2000/svg">
<path d="M0.67424 3.11227C0.85824 3.19227 1.04923 3.25128 1.28323 3.25128C1.88723 3.25128 2.09224 2.69228 2.11124 2.17328L2.10123 2.16327C1.93723 2.40727 1.72223 2.51328 1.42723 2.51328C0.767231 2.51328 0.407227 2.09328 0.407227 1.44928C0.407227 0.69528 0.778231 0.197266 1.56523 0.197266C2.53423 0.197266 2.74924 1.00028 2.74924 1.82028C2.74924 2.76328 2.44423 3.80228 1.31723 3.80228C1.06123 3.80228 0.823237 3.76128 0.583237 3.67728L0.67424 3.11227ZM2.05124 1.33527C2.05124 1.00527 1.91223 0.716278 1.56723 0.716278C1.24323 0.716278 1.10823 1.03029 1.10823 1.33929C1.10823 1.67929 1.24924 1.99329 1.58324 1.99329C1.92224 1.99329 2.05124 1.68527 2.05124 1.33527Z" fill="black"/>
<path d="M4.44916 0.255371H5.06815V3.74136H4.36917V1.05038L3.78116 1.52936L3.43115 1.07639L4.44916 0.255371Z" fill="black"/>
<path d="M7.29684 0.255371H7.91586V3.74136H7.21686V1.05038L6.62686 1.52936L6.27686 1.07639L7.29684 0.255371Z" fill="black"/>
</svg>
