<svg width="10" height="8" viewBox="0 0 10 8" fill="none" xmlns="http://www.w3.org/2000/svg">
<path d="M6.92699 1.53024C7.25449 1.53024 7.51999 1.26474 7.51999 0.937233C7.51999 0.609728 7.25449 0.344238 6.92699 0.344238C6.59948 0.344238 6.33398 0.609728 6.33398 0.937233C6.33398 1.26474 6.59948 1.53024 6.92699 1.53024Z" fill="black"/>
<path d="M7.36897 1.66213H6.50398L5.02897 0.187121C4.91397 0.0661214 4.72198 0.0601268 4.60098 0.177127C4.47998 0.292127 4.47397 0.484121 4.58897 0.605121L6.12997 2.14813V7.26112C6.12997 7.44712 6.27797 7.59512 6.46197 7.59512C6.64797 7.59512 6.79597 7.44712 6.79597 7.26112V4.48812H7.06598L7.06798 7.26112C7.06798 7.44712 7.21798 7.59512 7.40198 7.59512C7.58598 7.59512 7.73398 7.44712 7.73398 7.26112L7.73198 2.14813L9.27298 0.605121C9.38798 0.484121 9.38197 0.292127 9.26097 0.177127C9.13997 0.0601268 8.94798 0.0661214 8.83298 0.187121L7.36897 1.66213Z" fill="black"/>
<path d="M4.23386 3.91821C4.14386 3.82621 4.02086 3.77222 3.88386 3.77222H2.64286C2.50586 3.77222 2.38287 3.82721 2.29487 3.91821L1.05087 5.16222C0.935866 5.28322 0.93986 5.47523 1.06086 5.59023C1.18186 5.70522 1.37487 5.70122 1.48887 5.58022L2.45387 4.61522V5.90422H1.37186C1.17286 5.90422 1.01286 6.06421 1.01286 6.26321C1.01286 6.36721 1.05186 6.45822 1.12186 6.52522L2.34086 7.74422C2.44786 7.90222 2.65887 7.95322 2.82687 7.85522C3.00487 7.75322 3.06286 7.52923 2.96186 7.35323L2.26687 6.66022L2.28086 6.66222H4.27786L3.58086 7.35522C3.48086 7.53122 3.53986 7.75522 3.71586 7.85722C3.88386 7.95522 4.09687 7.90422 4.20387 7.74622L5.42286 6.52722C5.49286 6.46122 5.53187 6.36921 5.53187 6.26521C5.53187 6.06621 5.37186 5.90622 5.17286 5.90622H4.09286V4.63123L5.03986 5.58221C5.15486 5.70321 5.34686 5.70722 5.46786 5.59222C5.58886 5.47722 5.59287 5.28522 5.47787 5.16422L4.23386 3.91821Z" fill="black"/>
<path d="M3.27608 3.64518C3.60303 3.64518 3.86809 3.38014 3.86809 3.05318C3.86809 2.72623 3.60303 2.46118 3.27608 2.46118C2.94912 2.46118 2.68408 2.72623 2.68408 3.05318C2.68408 3.38014 2.94912 3.64518 3.27608 3.64518Z" fill="black"/>
</svg>
