<svg width="8" height="8" viewBox="0 0 8 8" fill="none" xmlns="http://www.w3.org/2000/svg">
<path d="M3.61648 1.21983L4.09521 0.99707L3.8733 0.520145L3.39456 0.742908L3.61648 1.21983Z" fill="black"/>
<path d="M3.43348 1.62461L2.64404 1.35889L2.37832 2.1483L3.16776 2.41403L3.43348 1.62461Z" fill="black"/>
<path d="M3.42285 1.97168L4.86685 1.83667L4.98785 3.21167L3.94885 3.33469L3.52685 2.77469L3.42285 1.97168Z" fill="black"/>
<path d="M5.20508 4.27267L5.70708 4.57767L5.99808 4.52469L6.34108 3.95569V3.94269L5.83908 3.6377L5.54808 3.69067L5.20508 4.25867V4.27267Z" fill="black"/>
<path d="M5.41673 4.98169L6.34873 5.10669L6.22973 6.05969L5.56973 5.96567L5.32373 5.48969L5.41673 4.98169Z" fill="black"/>
<path d="M1.96472 2.01868L1.41772 0.674683L0.886719 0.512695L0.888719 7.14368C0.888719 7.32768 1.03672 7.47568 1.22072 7.47568L5.75372 7.47168L5.38272 6.14969L1.96472 2.01868Z" fill="black"/>
<path d="M4.11501 4.0047L4.33301 3.8407L4.02301 3.42871L3.81201 3.5867V4.0047H4.11501Z" fill="black"/>
<path d="M7.43675 7.48767H6.61475V6.90369L6.95075 6.56567L7.43675 6.93668V7.48767Z" fill="black"/>
</svg>
