<svg width="6" height="10" viewBox="0 0 6 10" fill="none" xmlns="http://www.w3.org/2000/svg">
<path d="M1.89277 2.33267C1.27177 2.48667 1.06277 2.81168 0.876771 3.07468C0.690771 3.34068 0.327771 3.11767 0.460771 2.85367C0.554771 2.57667 1.03677 2.12366 1.39477 1.99066C1.30477 1.93566 1.20377 1.77566 1.20377 1.59766C1.20377 1.22066 1.49077 0.972656 1.81077 0.972656C2.13877 0.972656 2.36977 1.24367 2.36977 1.45667H2.64077V1.79666H3.57977V1.57965L5.89077 1.24365V2.82965L3.57977 2.47968V2.27866H2.63677L2.63477 2.75467C2.89477 2.80367 3.57377 3.21967 3.57377 4.02567V8.71667C3.57377 8.83167 3.51877 9.02768 3.28677 9.02768H1.22077C0.988771 9.02768 0.933771 8.83267 0.933771 8.71667V4.02567C0.933771 3.21867 1.63877 2.80267 1.89477 2.75467L1.89277 2.33267ZM1.80077 1.83267C1.94877 1.83267 2.06877 1.71167 2.06877 1.56467C2.06877 1.41667 1.94977 1.29468 1.80077 1.29468C1.65477 1.29468 1.53277 1.41567 1.53277 1.56467C1.53277 1.71167 1.65377 1.83267 1.80077 1.83267Z" fill="black"/>
</svg>
