<svg width="9" height="8" viewBox="0 0 9 8" fill="none" xmlns="http://www.w3.org/2000/svg">
<path d="M1.47659 2.14212C1.70159 2.14212 1.8826 2.32413 1.8826 2.54813L1.8846 3.13214C1.8846 3.76114 2.3936 4.27112 3.0226 4.27112H3.9776C4.2026 4.27112 4.3856 4.45514 4.3856 4.67914V5.26312C4.3856 5.89212 4.8956 6.40213 5.5246 6.40213H6.48759C6.71259 6.40213 6.8956 6.58412 6.8956 6.81012V7.93512H7.6256V6.81012C7.6256 6.18112 7.1156 5.67114 6.4866 5.67114L5.5296 5.66913C5.3046 5.66913 5.1236 5.48712 5.1236 5.26312L5.1156 4.67914C5.1156 4.05014 4.60559 3.54013 3.97659 3.54013H3.02159C2.79459 3.54013 2.6136 3.35614 2.6136 3.13214L2.6116 2.54813C2.6116 1.92113 2.1046 1.41113 1.4756 1.41113H0.20459V2.14014L1.47659 2.14212Z" fill="black"/>
<path d="M3.34346 0.29411C3.32746 0.27811 3.31847 0.257121 3.31847 0.231121C3.31847 0.192121 3.34545 0.159106 3.38145 0.147106C3.64545 0.0811063 4.78346 -0.198897 6.20746 0.862103L6.78946 0.762097L7.37146 1.56312L6.98846 1.63112C7.56046 2.47912 7.55245 3.57611 7.50645 4.01411L8.11046 4.99611C8.11646 5.00611 8.11845 5.01611 8.11845 5.02711C8.11845 5.07011 8.08347 5.1031 8.04247 5.1031C8.02847 5.1031 8.01546 5.09911 8.00346 5.09111L7.15945 4.73011L6.31546 5.09111C6.30346 5.09911 6.29046 5.1031 6.27646 5.1031C6.23346 5.1031 6.20045 5.07011 6.20045 5.02711C6.20045 5.01511 6.20247 5.00611 6.20647 4.99611L6.81146 4.01411C6.81146 2.98311 5.64146 2.5101 5.33446 2.4091C4.72746 2.2041 3.34445 1.31112 3.05145 0.56712C3.04745 0.55712 3.04346 0.542102 3.04346 0.530102C3.04346 0.481102 3.08245 0.44212 3.13145 0.44212C3.15445 0.44212 3.17046 0.446109 3.19046 0.462109L3.58347 0.75111C3.59347 0.75911 3.60445 0.765118 3.61845 0.765118C3.64545 0.765118 3.66946 0.744107 3.66946 0.716107C3.66946 0.700107 3.66146 0.687105 3.64946 0.677105L3.34346 0.29411ZM4.14246 0.711102C4.24646 0.711102 4.33246 0.628113 4.33246 0.523113C4.33246 0.417113 4.24646 0.334118 4.14246 0.334118C4.03846 0.334118 3.95445 0.417113 3.95445 0.523113C3.95345 0.628113 4.03746 0.711102 4.14246 0.711102Z" fill="black"/>
</svg>
