<svg width="9" height="6" viewBox="0 0 9 6" fill="none" xmlns="http://www.w3.org/2000/svg">
<path d="M0.189148 1.68194C0.185148 1.67794 0.181152 1.66992 0.181152 1.66192C0.181152 1.64592 0.195159 1.63494 0.210159 1.63494H1.05815C1.09915 1.63494 1.13216 1.60194 1.13216 1.56094C1.13216 1.52994 1.11816 1.50793 1.08716 1.49093L0.319153 1.12594C0.305153 1.11794 0.296158 1.10294 0.296158 1.08294C0.296158 1.06894 0.30015 1.05794 0.31015 1.04794C0.31015 1.04794 2.32315 -0.731057 6.78215 0.992943L8.00716 0.39492C8.01916 0.38892 8.03216 0.384941 8.04616 0.384941C8.09916 0.384941 8.14215 0.427919 8.14215 0.480919C8.14215 0.498919 8.13616 0.51393 8.12816 0.52993L7.40515 1.42794L8.12816 2.32394C8.13616 2.33994 8.14215 2.35493 8.14215 2.37493C8.14215 2.42593 8.09916 2.46893 8.04616 2.46893C8.03216 2.46893 8.01916 2.46492 8.00716 2.45892L6.78215 1.86092C6.78215 1.86092 2.52015 3.55494 0.189148 1.68194ZM1.55016 1.28994C1.69516 1.28994 1.81815 1.16992 1.81815 1.02392C1.81815 0.877918 1.69516 0.757927 1.55016 0.757927C1.40516 0.757927 1.28215 0.877918 1.28215 1.02392C1.28215 1.16992 1.40616 1.28994 1.55016 1.28994Z" fill="black"/>
<path d="M0.637787 3.91411C0.635787 3.91211 0.633789 3.90612 0.633789 3.90612C0.633789 3.89812 0.639781 3.89409 0.647781 3.89409H0.985794C1.00179 3.89409 1.01479 3.8801 1.01479 3.8651C1.01479 3.8511 1.00878 3.84409 0.99678 3.83809L0.689789 3.6921C0.683789 3.6881 0.679794 3.68212 0.679794 3.67412C0.679794 3.66812 0.681791 3.66212 0.685791 3.66012C0.685791 3.66012 1.49078 2.94712 3.27278 3.63912L3.76279 3.3991C3.76679 3.3971 3.77279 3.3951 3.77879 3.3951C3.79979 3.3951 3.81578 3.41312 3.81578 3.43212C3.81578 3.44012 3.81378 3.44811 3.81178 3.45211L3.52278 3.81112L3.81178 4.17009C3.81378 4.17609 3.81578 4.18411 3.81578 4.19011C3.81578 4.21111 3.79979 4.22912 3.77879 4.22912C3.77279 4.22912 3.76679 4.22712 3.76279 4.22512L3.27278 3.9851C3.27278 3.9851 1.57179 4.66211 0.637787 3.91411ZM1.24179 3.82509C1.32679 3.82509 1.39978 3.75709 1.39978 3.67009C1.39978 3.58609 1.32679 3.5151 1.24179 3.5151C1.15879 3.5151 1.08578 3.58609 1.08578 3.67009C1.08478 3.75709 1.15879 3.82509 1.24179 3.82509Z" fill="black"/>
<path d="M4.63095 3.91411C4.62695 3.91211 4.62695 3.90612 4.62695 3.90612C4.62695 3.89812 4.63296 3.89409 4.63896 3.89409H4.97696C4.99496 3.89409 5.00795 3.8801 5.00795 3.8651C5.00795 3.8511 5.00196 3.84409 4.98796 3.83809L4.68095 3.6921C4.67495 3.6881 4.67096 3.68212 4.67096 3.67412C4.67096 3.66812 4.67296 3.66212 4.67696 3.66012C4.67696 3.66012 5.48395 2.94712 7.26695 3.63912L7.75496 3.3991C7.76096 3.3971 7.76695 3.3951 7.77295 3.3951C7.79295 3.3951 7.80995 3.41312 7.80995 3.43212C7.80995 3.44012 7.80795 3.44811 7.80396 3.45211L7.51495 3.81112L7.80396 4.17009C7.80795 4.17609 7.80995 4.18411 7.80995 4.19011C7.80995 4.21111 7.79195 4.22912 7.77295 4.22912C7.76695 4.22912 7.76096 4.22712 7.75496 4.22512L7.26695 3.9851C7.26695 3.9851 5.56295 4.66211 4.63095 3.91411ZM5.23495 3.82509C5.31796 3.82509 5.38896 3.75709 5.38896 3.67009C5.38896 3.58609 5.31796 3.5151 5.23495 3.5151C5.14596 3.5151 5.08095 3.58609 5.08095 3.67009C5.07995 3.75709 5.14596 3.82509 5.23495 3.82509Z" fill="black"/>
<path d="M2.64702 5.40606C2.64502 5.40406 2.64502 5.40206 2.64502 5.39806C2.64502 5.39206 2.64901 5.38604 2.65701 5.38604H2.99501C3.01301 5.38604 3.02602 5.37205 3.02602 5.35705C3.02602 5.34505 3.02001 5.33604 3.00601 5.33004L2.69902 5.18404C2.69302 5.18004 2.68901 5.17404 2.68901 5.16604C2.68901 5.16004 2.69102 5.15606 2.69502 5.15206C2.69502 5.15206 3.50202 4.43906 5.28502 5.13106L5.77301 4.89104C5.77901 4.88904 5.78502 4.88704 5.78902 4.88704C5.81002 4.88704 5.82802 4.90505 5.82802 4.92605C5.82802 4.93205 5.82602 4.94003 5.82202 4.94603L5.53302 5.30504L5.82202 5.66405C5.82602 5.67005 5.82802 5.67604 5.82802 5.68404C5.82802 5.70404 5.81002 5.72106 5.78902 5.72106C5.78502 5.72106 5.77901 5.71906 5.77301 5.71706L5.28502 5.47905C5.28502 5.47905 3.58002 6.15606 2.64702 5.40606ZM3.25201 5.31704C3.33701 5.31704 3.40701 5.24904 3.40701 5.16204C3.40701 5.07804 3.33701 5.00704 3.25201 5.00704C3.16501 5.00704 3.09502 5.07804 3.09502 5.16204C3.09502 5.24904 3.16501 5.31704 3.25201 5.31704Z" fill="black"/>
</svg>
