<svg width="9" height="10" viewBox="0 0 9 10" fill="none" xmlns="http://www.w3.org/2000/svg">
<path d="M4.17346 2.01172C4.47556 2.01172 4.72046 1.76682 4.72046 1.46472C4.72046 1.16262 4.47556 0.917725 4.17346 0.917725C3.87136 0.917725 3.62646 1.16262 3.62646 1.46472C3.62646 1.76682 3.87136 2.01172 4.17346 2.01172Z" fill="black"/>
<path d="M7.60332 8.28192C7.45332 8.21192 7.28332 8.1709 7.10532 8.1709C6.92932 8.1709 6.75932 8.21192 6.60732 8.28192C6.46132 8.34592 6.29632 8.38589 6.12532 8.38589C5.95432 8.38589 5.78733 8.34692 5.64133 8.28192C5.49133 8.21192 5.32133 8.1709 5.14333 8.1709C4.96533 8.1709 4.79532 8.21192 4.64532 8.28192C4.49732 8.34592 4.33232 8.38589 4.16132 8.38589C3.99032 8.38589 3.82532 8.34692 3.67732 8.28192C3.52732 8.21192 3.35732 8.1709 3.17932 8.1709C3.00332 8.1709 2.83332 8.21192 2.68132 8.28192C2.53532 8.34592 2.37032 8.38589 2.20032 8.38589C2.02832 8.38589 1.86232 8.34692 1.71632 8.28192C1.56632 8.21192 1.39632 8.1709 1.21832 8.1709C1.04032 8.1709 0.870322 8.21192 0.720322 8.28192C0.572322 8.34592 0.407328 8.38589 0.236328 8.38589V9.1109C0.408328 9.1109 0.572322 9.0739 0.720322 9.0069C0.870322 8.9369 1.04032 8.8959 1.21832 8.8959C1.39632 8.8959 1.56632 8.9369 1.71632 9.0069C1.86232 9.0729 2.02932 9.1109 2.20032 9.1109C2.37132 9.1109 2.53532 9.0739 2.68132 9.0069C2.83332 8.9369 3.00332 8.8959 3.17932 8.8959C3.35732 8.8959 3.52732 8.9369 3.67732 9.0069C3.82532 9.0729 3.99032 9.1109 4.16132 9.1109C4.33232 9.1109 4.49732 9.0739 4.64532 9.0069C4.79532 8.9369 4.96533 8.8959 5.14333 8.8959C5.32133 8.8959 5.49133 8.9369 5.64133 9.0069C5.78733 9.0729 5.95432 9.1109 6.12532 9.1109C6.29632 9.1109 6.46132 9.0739 6.60732 9.0069C6.75932 8.9369 6.92932 8.8959 7.10532 8.8959C7.28332 8.8959 7.45332 8.9369 7.60332 9.0069C7.75132 9.0729 7.91633 9.1109 8.08733 9.1109V8.38589C7.91633 8.38489 7.75232 8.34592 7.60332 8.28192Z" fill="black"/>
<path d="M7.61533 0.89676C7.57633 0.88076 7.53332 0.89077 7.50232 0.91977L5.51031 2.91376C5.47931 2.89976 5.44633 2.89276 5.40833 2.89276C5.40833 2.89276 4.82233 2.89276 4.65233 2.89276C4.52333 2.76176 3.83932 2.07877 3.83932 2.07877C3.80432 2.04377 3.75933 2.02376 3.71432 2.01276C3.55833 1.87576 3.32133 1.87775 3.17133 2.02875L1.99033 3.20877C1.94533 3.25377 1.91832 3.31575 1.91832 3.38275V4.24976H0.258316V4.52475H1.91832V6.46076C1.91832 6.70476 2.11532 6.90176 2.35832 6.90176C2.60032 6.90176 2.80132 6.70476 2.80132 6.46076V4.52475H4.13933V7.09076H0.257324V7.55975H4.41432V4.52475H4.89133V4.24976H2.80132V4.00375L3.90332 2.90176L4.35233 3.35077C4.40133 3.40177 4.46932 3.42874 4.54132 3.42874H5.40633C5.55433 3.42874 5.67432 3.30977 5.67432 3.16077C5.67432 3.12577 5.66633 3.09276 5.65433 3.06076C6.12733 2.58776 7.23432 1.48075 7.47032 1.24475C7.47032 1.71175 7.47032 7.56674 7.47032 7.56674H7.67732V0.994752C7.67932 0.951752 7.65433 0.91476 7.61533 0.89676Z" fill="black"/>
</svg>
