<svg width="10" height="6" viewBox="0 0 10 6" fill="none" xmlns="http://www.w3.org/2000/svg">
<path d="M1.23553 4.24606C1.22953 4.24006 1.22754 4.23407 1.22754 4.22607C1.22754 4.21007 1.23955 4.19705 1.25655 4.19705L2.10254 4.19906C2.14554 4.19906 2.17854 4.16606 2.17854 4.12506C2.17854 4.09406 2.16255 4.07205 2.13155 4.05505L1.36354 3.69006C1.34954 3.68006 1.34055 3.66506 1.34055 3.64706C1.34055 3.63306 1.34654 3.62006 1.35454 3.61206C1.35454 3.61206 3.36954 1.83106 7.82654 3.55706L9.05154 2.95907C9.06354 2.95307 9.07654 2.94906 9.09254 2.94906C9.14355 2.94906 9.18654 2.99206 9.18654 3.04306C9.18654 3.06306 9.18055 3.07807 9.17255 3.09207L8.44954 3.99005L9.17255 4.88806C9.18055 4.90206 9.18654 4.91907 9.18654 4.93707C9.18654 4.99007 9.14355 5.03305 9.09254 5.03305C9.07654 5.03305 9.06354 5.02907 9.05154 5.02307L7.82654 4.42306C7.82654 4.42306 3.56553 6.11906 1.23553 4.24606ZM2.59554 3.87905C2.75754 3.87905 2.88554 3.75005 2.88554 3.58905C2.88554 3.42605 2.75754 3.29705 2.59554 3.29705C2.43554 3.29705 2.30754 3.42605 2.30754 3.58905C2.30754 3.75005 2.43554 3.87905 2.59554 3.87905Z" fill="black"/>
<path d="M6.4126 0.873047V1.85703H8.8446C9.1156 1.85703 9.33659 1.63602 9.33659 1.36502C9.33659 1.09202 9.1156 0.873047 8.8446 0.873047H6.4126Z" fill="black"/>
<path d="M1.83981 1.58005L2.06482 1.48602L2.20581 1.72604L2.43282 1.56204L2.59482 1.78903L2.81181 1.61304L2.98781 1.82803L3.19281 1.64005L3.37982 1.84503L3.57681 1.64804L3.77382 1.84503L3.97081 1.64804L4.16582 1.84503L4.36281 1.64804L4.55981 1.84503L4.75682 1.64804L4.95381 1.84503L5.14882 1.64804L5.34581 1.84503L5.54282 1.64804L5.73981 1.84503L5.93481 1.64804L6.13382 1.84503V0.874023H0.986816V0.878021C1.22482 1.16202 1.51381 1.40205 1.83981 1.58005Z" fill="black"/>
</svg>
