<svg width="9" height="8" viewBox="0 0 9 8" fill="none" xmlns="http://www.w3.org/2000/svg">
<path d="M4.84812 5.32786C5.02612 5.32786 5.16812 5.18387 5.16812 5.00687C5.16812 4.82987 5.02512 4.68587 4.84812 4.68587C4.67112 4.68587 4.52612 4.82987 4.52612 5.00687C4.52612 5.18387 4.67012 5.32786 4.84812 5.32786ZM8.03112 7.64386C6.12712 7.67186 4.13612 7.30886 2.61312 6.08386C2.60312 6.07486 2.59912 6.06286 2.59912 6.04886C2.59912 6.02086 2.62212 5.99786 2.65012 5.99786L4.15212 5.99986C4.22412 5.99986 4.28512 5.93987 4.28512 5.86687C4.28512 5.81187 4.26012 5.77386 4.20112 5.74486L2.84412 5.09686C2.81912 5.08086 2.80112 5.05286 2.80112 5.02086C2.80112 4.99686 2.81112 4.97485 2.82612 4.95785C2.82612 4.95785 4.48012 3.49586 8.03112 3.52786V7.64386Z" fill="black"/>
<path d="M7.30626 0.354749C6.12926 0.367749 4.97825 0.869754 3.68725 1.92875C3.63925 1.91575 3.53326 1.88675 3.53326 1.88675C3.32826 1.88675 3.16125 2.05275 3.16125 2.25775C3.16125 2.25775 3.17626 2.32675 3.18426 2.36975C3.14426 2.40675 2.14126 3.34875 2.14126 3.34875L1.25426 4.18475C1.17126 4.26075 1.06326 4.29876 0.950255 4.29376C0.838255 4.28876 0.735255 4.23975 0.660255 4.15675C0.587255 4.07575 0.552255 3.97475 0.552255 3.87375C0.552255 3.75975 0.598255 3.64576 0.688255 3.56276C0.688255 3.56276 0.755255 3.52575 0.806255 3.49675C0.817255 3.57275 0.848255 3.80475 0.848255 3.80475L1.57226 2.88275L0.774255 3.15475C0.564255 3.22675 0.477255 3.33275 0.474255 3.33775C0.182255 3.60275 0.159255 4.06675 0.429255 4.36575C0.701255 4.66575 1.16526 4.68675 1.46526 4.41575L1.47326 4.40576L2.31425 3.60475C2.31425 3.60475 3.35326 2.62275 3.38626 2.58975C3.43626 2.60275 3.53426 2.62776 3.53426 2.62776C3.73826 2.62776 3.90425 2.46075 3.90425 2.25575C3.90425 2.25575 3.89426 2.20175 3.88726 2.16275C5.13626 1.13575 6.22826 0.647755 7.32226 0.635755C7.54726 0.633755 7.72725 0.662751 8.02225 0.725751L8.08325 0.738752V0.446759L8.04325 0.438749C7.73726 0.374749 7.53726 0.351749 7.30626 0.354749Z" fill="black"/>
</svg>
