<svg width="6" height="10" viewBox="0 0 6 10" fill="none" xmlns="http://www.w3.org/2000/svg">
<path d="M2.80568 3.60649C2.80568 3.86749 2.56868 4.14549 2.26068 4.14549V8.54748C2.26068 9.17148 1.40768 9.17148 1.40768 8.54748V4.14549C1.10768 4.14549 0.84668 3.91449 0.84668 3.56749V1.14549C0.84668 0.934491 1.15168 0.925486 1.15168 1.15349V2.94449H1.70168H1.67868V1.13949C1.67868 0.937494 1.96368 0.92949 1.96368 1.14749V2.94449H2.50868V1.13949C2.50868 0.940494 2.80568 0.93249 2.80568 1.14749V3.60649Z" fill="black"/>
<path d="M5.47646 1.70948V8.54548C5.47646 9.15648 4.62246 9.14848 4.62246 8.54548V5.83448H4.16846V1.70948C4.16846 0.750484 5.47646 0.750484 5.47646 1.70948Z" fill="black"/>
</svg>
