<svg width="6" height="8" viewBox="0 0 6 8" fill="none" xmlns="http://www.w3.org/2000/svg">
<path d="M3.02222 2.50568C3.02222 2.60068 2.94722 2.67567 2.85022 2.67567H1.05222C0.955222 2.67567 0.880223 2.60068 0.880223 2.50568V0.988678C0.880223 0.893678 0.955222 0.818665 1.05222 0.818665H2.85022C2.94722 0.818665 3.02222 0.893678 3.02222 0.988678V2.50568ZM5.11922 2.69867C4.89122 2.64867 4.80822 2.53167 4.80822 2.42467V2.03267C4.80822 2.03267 4.95922 2.06667 4.99622 2.07567C5.07022 2.09567 5.11722 2.20867 5.11922 2.30667C5.12122 2.40467 5.11922 2.69867 5.11922 2.69867ZM5.57722 5.07968C5.57722 5.07568 5.51422 4.59866 5.51422 4.59866V2.39368C5.51422 2.15768 5.43722 1.96567 5.27722 1.80467L4.25622 0.787674C4.18622 0.787674 3.99022 0.981674 3.99022 0.981674C3.99022 1.05267 4.49722 1.55566 4.49722 1.55566L4.48222 2.41167C4.48222 2.71467 4.72922 2.96167 5.03422 2.96167L5.17122 2.96367L5.12222 4.59866L5.19022 5.15967L5.49722 6.81467C5.50922 7.08367 5.26322 7.24368 5.06922 7.24368C4.88922 7.24368 4.68122 7.09569 4.68122 6.90369L4.68522 4.00467C4.68522 3.65167 4.39922 3.36566 4.04622 3.36566C4.04622 3.36566 3.43322 3.36566 3.43022 3.36566C3.47322 3.36366 3.47522 1.46667 3.47522 1.06367C3.47522 1.01667 3.47522 0.98967 3.47522 0.98967C3.47522 0.64667 3.19522 0.367676 2.85122 0.367676H1.05222C0.708222 0.367676 0.428223 0.64667 0.428223 0.98967V7.56168L3.47422 7.61166L3.47722 3.77267H4.05222C4.18422 3.77267 4.29122 3.87966 4.29122 4.01166V6.90369C4.29122 7.29169 4.65322 7.63266 5.06722 7.63266C5.45822 7.63266 5.89522 7.32069 5.89522 6.90369C5.88922 6.80569 5.57722 5.07968 5.57722 5.07968Z" fill="black"/>
</svg>
