<svg width="6" height="10" viewBox="0 0 6 10" fill="none" xmlns="http://www.w3.org/2000/svg">
<path d="M2.24073 3.39365C2.5975 3.39365 2.88673 3.10843 2.88673 2.75662C2.88673 2.40482 2.5975 2.11963 2.24073 2.11963C1.88395 2.11963 1.59473 2.40482 1.59473 2.75662C1.59473 3.10843 1.88395 3.39365 2.24073 3.39365Z" fill="black"/>
<path d="M5.51491 3.37973C5.49091 3.24173 5.37791 3.16372 5.37091 3.15872L1.57691 0.657715L1.22391 1.16873C1.15891 1.26973 1.18691 1.40272 1.28691 1.46872C1.38791 1.53472 1.52091 1.50774 1.58691 1.40674L1.79291 1.11172L4.87391 3.14471L2.34991 3.59872C2.17091 3.62872 2.04191 3.80773 2.08191 3.98273L2.63091 6.10672L0.854912 8.77173C0.748912 8.95373 0.812912 9.18672 0.996912 9.29172C1.18291 9.39672 1.41791 9.33273 1.52391 9.15073C1.52391 9.15073 3.37791 6.36373 3.38391 6.34573C3.38391 6.34573 3.47991 6.73271 3.47991 6.73471L3.20191 8.82571C3.16691 9.03371 3.30791 9.22773 3.51791 9.26373C3.72791 9.29973 3.92691 9.15972 3.96191 8.95172L4.24891 6.80173C4.25791 6.74673 4.24691 6.62572 4.23391 6.57272L3.59991 4.05371L5.24791 3.75671C5.42691 3.72571 5.54591 3.55673 5.51491 3.37973Z" fill="black"/>
</svg>
