<svg width="9" height="8" viewBox="0 0 9 8" fill="none" xmlns="http://www.w3.org/2000/svg">
<path d="M3.11749 1.23645C3.38922 1.23645 3.6095 1.01617 3.6095 0.744446C3.6095 0.472722 3.38922 0.252441 3.11749 0.252441C2.84577 0.252441 2.62549 0.472722 2.62549 0.744446C2.62549 1.01617 2.84577 1.23645 3.11749 1.23645Z" fill="black"/>
<path d="M4.14548 2.75343L2.87947 1.34941C2.86147 1.32941 2.82848 1.29841 2.80548 1.28541C2.63948 1.14841 2.39748 1.12143 2.20148 1.24043L1.03247 1.95543C0.878474 2.04943 0.788475 2.21141 0.780475 2.37941C0.776475 2.41241 0.778487 2.44542 0.786487 2.47941C0.786487 2.48141 0.788486 2.48343 0.788486 2.48543C0.792486 2.50643 0.794477 2.52842 0.804477 2.54842V2.55043C0.816477 2.59343 0.833486 2.63643 0.857486 2.67543C0.863486 2.68343 0.869476 2.68943 0.875476 2.69643L1.15848 3.29643L0.547473 4.06541C0.442473 4.19841 0.463483 4.39143 0.598483 4.49943C0.731483 4.60443 0.924475 4.58341 1.03047 4.44841L1.76049 3.53142C1.77049 3.51742 1.77448 3.50443 1.78148 3.49043C1.79348 3.47043 1.80447 3.45341 1.81047 3.43141C1.81647 3.41141 1.81848 3.39242 1.82048 3.37242C1.82248 3.35242 1.82648 3.33343 1.82448 3.31343C1.82248 3.29243 1.81447 3.27043 1.80847 3.24943V3.24742C1.97447 3.37042 2.13148 3.48742 2.20748 3.54442C2.20348 3.78942 2.18648 4.71942 2.18648 4.72142C2.18648 4.88942 2.31947 5.02641 2.48947 5.03041C2.65947 5.03241 2.80048 4.89743 2.80348 4.72743L2.82648 3.39644C2.82848 3.29644 2.78348 3.20341 2.70148 3.14241L1.97748 2.60542L2.86948 2.05641L3.78748 3.07744C3.87548 3.17744 4.02747 3.18441 4.12747 3.09541C4.22747 3.00641 4.23548 2.85143 4.14548 2.75343Z" fill="black"/>
<path d="M0.166504 7.74734C0.338504 7.74734 0.502513 7.71034 0.650513 7.64334C0.800513 7.57334 0.970515 7.53235 1.14651 7.53235C1.32451 7.53235 1.4945 7.57334 1.6445 7.64334C1.7905 7.70934 1.9575 7.74734 2.1275 7.74734C2.2995 7.74734 2.46351 7.71034 2.60951 7.64334C2.75951 7.57334 2.92951 7.53235 3.10751 7.53235C3.28551 7.53235 3.45551 7.57334 3.60551 7.64334C3.75151 7.70934 3.91851 7.74734 4.08951 7.74734C4.26051 7.74734 4.4255 7.71034 4.5715 7.64334C4.7215 7.57334 4.8915 7.53235 5.0695 7.53235C5.2475 7.53235 5.4175 7.57334 5.5675 7.64334C5.7135 7.70934 5.88051 7.74734 6.05151 7.74734C6.22151 7.74734 6.38751 7.71034 6.53351 7.64334C6.68351 7.57334 6.85351 7.53235 7.03151 7.53235C7.20951 7.53235 7.37951 7.57334 7.52951 7.64334C7.67551 7.70934 7.8425 7.74734 8.0135 7.74734V7.02234C7.8415 7.02234 7.67551 6.98533 7.52951 6.91833C7.37951 6.84934 7.20951 6.80835 7.03151 6.80835C6.85351 6.80835 6.68351 6.84934 6.53351 6.91833C6.38751 6.98433 6.22051 7.02234 6.05151 7.02234C5.87951 7.02234 5.7135 6.98533 5.5675 6.91833C5.4175 6.84934 5.2475 6.80835 5.0695 6.80835C4.8915 6.80835 4.7215 6.84934 4.5715 6.91833C4.4255 6.98433 4.26051 7.02234 4.08951 7.02234C3.91851 7.02234 3.75151 6.98533 3.60551 6.91833C3.45551 6.84934 3.28551 6.80835 3.10751 6.80835C2.92951 6.80835 2.75951 6.84934 2.60951 6.91833C2.46351 6.98433 2.2985 7.02234 2.1275 7.02234C1.9565 7.02234 1.7905 6.98533 1.6445 6.91833C1.4945 6.84934 1.32451 6.80835 1.14651 6.80835C0.970515 6.80835 0.800513 6.84934 0.650513 6.91833C0.502513 6.98433 0.337504 7.02234 0.166504 7.02234V7.74734Z" fill="black"/>
<path d="M0.166687 6.42239C0.295687 6.42239 0.422687 6.39342 0.541687 6.34042C0.730687 6.25242 0.939698 6.20541 1.1467 6.20541C1.3557 6.20541 1.56069 6.25041 1.75069 6.33841C1.86969 6.39341 2.00069 6.42239 2.12869 6.42239C2.25769 6.42239 2.38469 6.39342 2.50369 6.34042C2.69269 6.25242 2.90169 6.20541 3.10869 6.20541C3.31569 6.20541 3.52469 6.25241 3.71269 6.33841C3.83169 6.39341 3.96269 6.42239 4.09169 6.42239C4.22069 6.42239 4.34769 6.39342 4.46669 6.34042C4.58969 6.28342 4.7227 6.2444 4.8557 6.2254L4.19569 5.74841L3.24269 5.72342L2.57269 5.26041L1.31169 4.7724L0.137695 4.61841L0.145691 6.4234H0.166687V6.42239Z" fill="black"/>
<path d="M7.85849 5.22941L6.1225 4.40342C6.2295 4.38242 6.31149 4.29242 6.31149 4.17842C6.31149 4.04742 6.20649 3.94242 6.07549 3.94242C5.94449 3.94242 5.83949 4.04742 5.83949 4.17842C5.83949 4.21542 5.85149 4.25042 5.86649 4.28242L4.11249 3.44941C3.82949 3.31441 3.49749 3.42942 3.35449 3.70442L8.1375 5.97743C8.2615 5.69343 8.13949 5.36141 7.85849 5.22941ZM5.96436 4.17838C5.96436 4.11538 6.01335 4.06738 6.07535 4.06738C6.13665 4.06738 6.18636 4.11707 6.18636 4.17838C6.18636 4.23938 6.13535 4.28937 6.07535 4.28937C6.01335 4.28937 5.96436 4.23838 5.96436 4.17838Z" fill="black"/>
<path d="M3.2984 3.87354C3.2574 4.12154 3.3784 4.37553 3.6164 4.48853L7.3624 6.26953C7.6004 6.38253 7.87641 6.31654 8.04041 6.12854L3.2984 3.87354Z" fill="black"/>
</svg>
