<svg width="10" height="6" viewBox="0 0 10 6" fill="none" xmlns="http://www.w3.org/2000/svg">
<path d="M5.96953 3.15536C6.20646 3.15536 6.39853 2.96329 6.39853 2.72636C6.39853 2.48943 6.20646 2.29736 5.96953 2.29736C5.7326 2.29736 5.54053 2.48943 5.54053 2.72636C5.54053 2.96329 5.7326 3.15536 5.96953 3.15536Z" fill="black"/>
<path d="M9.34996 0.33223C9.34996 0.33223 7.89695 0.157227 4.87895 0.157227C2.65295 0.157227 0.834961 0.33223 0.834961 0.33223C0.834961 0.33223 1.58896 0.664222 1.45796 1.69322C1.45796 1.69322 2.53997 1.56423 2.99297 2.49123L5.02496 1.87523L4.89195 3.23022L4.03296 3.44122C3.95696 3.45922 3.89197 3.49623 3.83997 3.54323L1.95396 5.36322C1.84296 5.46822 1.84095 5.64623 1.94795 5.75723C2.05295 5.86723 2.23096 5.87222 2.34096 5.76622L3.75996 4.39923L5.49796 3.97322L5.48596 3.97823L5.77496 3.90422L6.04095 4.20622C6.08195 4.25122 6.14096 4.27823 6.20296 4.27823L7.13896 4.28223C7.25596 4.28223 7.35396 4.18623 7.35396 4.06723C7.35396 3.96423 7.28196 3.88323 7.18596 3.86023L6.48895 1.43323L9.39296 0.553223C9.53196 0.492223 9.51996 0.35023 9.34996 0.33223ZM6.97696 3.84923C6.76396 3.84923 6.40896 3.84723 6.30096 3.84723C6.19896 3.73223 5.79695 3.27722 5.79695 3.27722C5.79095 3.26922 5.78096 3.26723 5.77596 3.26123C5.67395 3.14223 5.51196 3.08022 5.34996 3.11823L5.09796 3.18123L5.23296 1.81223L6.29695 1.49022L6.97696 3.84923Z" fill="black"/>
</svg>
