<svg width="9" height="8" viewBox="0 0 9 8" fill="none" xmlns="http://www.w3.org/2000/svg">
<path d="M2.09528 1.6051C2.39572 1.6051 2.63928 1.36154 2.63928 1.0611C2.63928 0.760653 2.39572 0.51709 2.09528 0.51709C1.79483 0.51709 1.55127 0.760653 1.55127 1.0611C1.55127 1.36154 1.79483 1.6051 2.09528 1.6051Z" fill="black"/>
<path fill-rule="evenodd" clip-rule="evenodd" d="M6.44815 4.46118C6.44815 4.46118 6.44815 5.52219 6.44815 5.64719C6.32315 5.64719 5.17715 5.64719 5.17715 5.64719C5.17715 5.64719 5.17715 6.90718 5.17715 7.03418C5.05215 7.03418 3.95215 7.03418 3.95215 7.03418V7.48318H5.62616C5.62616 7.48318 5.62616 6.22319 5.62616 6.09619C5.75116 6.09619 6.89716 6.09619 6.89716 6.09619C6.89716 6.09619 6.89716 5.03317 6.89716 4.90817C7.02216 4.90817 8.05316 4.90817 8.05316 4.90817V4.46118H6.44815Z" fill="black"/>
<path fill-rule="evenodd" clip-rule="evenodd" d="M4.21753 4.65812C4.21753 4.65812 4.17452 4.50412 3.98752 4.34412L3.56952 4.13914L8.11453 2.33814L8.01053 2.07813L3.22751 3.97312L2.71753 3.72114L2.71551 2.75214L3.12552 3.26212C3.18452 3.34212 3.27753 3.39114 3.37753 3.38914L4.37952 3.40315C4.37952 3.40315 4.61352 3.39513 4.62952 3.13313C4.61752 2.87913 4.37952 2.86512 4.37952 2.86512L3.51452 2.87315L2.74353 1.86314C2.74353 1.86314 2.67352 1.70713 2.34852 1.70713L1.69452 1.69914C1.69452 1.69914 1.39952 1.67612 1.23552 1.90412L0.436522 2.81413C0.436522 2.81413 0.356516 2.88013 0.321516 3.14213L0.208525 4.16215C0.208525 4.16215 0.200514 4.39114 0.450514 4.43314C0.450514 4.43314 0.727519 4.48613 0.761519 4.18113L0.880522 3.21214L1.43352 2.55415L1.41551 4.07713L1.53851 4.64112L0.306517 5.12714L0.410521 5.38914L1.59852 4.91813L1.81952 5.93214L1.47153 6.83613C1.47153 6.83613 1.24252 7.26614 1.58652 7.38514C1.80352 7.45914 2.00452 7.29914 2.12752 6.98914L2.51852 5.95612C2.54952 5.87612 2.59851 5.72012 2.57751 5.58112L2.37652 4.61213L2.48952 4.56715L3.68851 5.12412C3.68851 5.12412 4.13152 6.32713 4.12952 6.31913C4.23652 6.59013 4.43253 6.59413 4.58853 6.54813C4.77653 6.47013 4.8225 6.29212 4.7485 6.08512L4.21753 4.65812Z" fill="black"/>
</svg>
