<svg width="9" height="10" viewBox="0 0 9 10" fill="none" xmlns="http://www.w3.org/2000/svg">
<path d="M3.25841 2.09006C3.57155 2.09006 3.82541 1.83619 3.82541 1.52304C3.82541 1.2099 3.57155 0.956055 3.25841 0.956055C2.94526 0.956055 2.69141 1.2099 2.69141 1.52304C2.69141 1.83619 2.94526 2.09006 3.25841 2.09006Z" fill="black"/>
<path d="M7.47394 3.72507L6.87194 3.61008L6.52194 4.30508C6.57894 4.31908 6.63694 4.32507 6.69794 4.32507C7.07194 4.32407 7.38494 4.07007 7.47394 3.72507ZM0.0859375 4.89908C0.0859375 4.43808 0.458938 4.06308 0.919938 4.06308H2.67994V2.79907C2.67994 2.48507 2.93394 2.23108 3.24794 2.23108C3.56194 2.23108 3.81594 2.48507 3.81594 2.79907V2.99408L4.65394 3.20908C4.79994 3.24208 4.89394 3.3891 4.86094 3.5351C4.82794 3.6831 4.68094 3.7751 4.53294 3.7421L3.81594 3.5741V4.06207H4.65994L6.96894 1.6731L6.90094 2.29407L8.03794 3.05008C8.22594 3.15708 8.29394 3.40007 8.18594 3.58707C8.10194 3.73707 7.93394 3.81009 7.77594 3.78009L7.68394 3.76309C7.57494 4.20509 7.17394 4.53207 6.69994 4.53207C6.60594 4.53207 6.51394 4.51809 6.42894 4.49509L5.56794 6.2551V8.66907C5.56794 8.87607 5.39794 9.04407 5.19094 9.04407C4.98394 9.04407 4.81594 8.87607 4.81594 8.66907V6.20007H2.91594L2.57594 6.78207L3.28694 8.47708C3.39094 8.65908 3.32594 8.88707 3.14594 8.98907C2.96394 9.09307 2.73594 9.02808 2.63194 8.84708L1.80194 6.89108V6.26807L1.43094 6.85208V8.66809C1.43094 8.87509 1.26294 9.04309 1.05594 9.04309C0.848938 9.04309 0.678937 8.87509 0.678937 8.66809V6.57007L0.989938 6.08408V4.43808L0.680938 4.91107V6.28107H0.0859375V4.89908Z" fill="black"/>
</svg>
