<svg width="9" height="8" viewBox="0 0 9 8" fill="none" xmlns="http://www.w3.org/2000/svg">
<path d="M8.07066 7.87921C6.16866 7.90621 4.17766 7.54324 2.65266 6.31824C2.64466 6.30824 2.63867 6.2982 2.63867 6.2832C2.63867 6.2562 2.66167 6.23224 2.69167 6.23224L4.19167 6.23419C4.26567 6.23419 4.32466 6.1752 4.32466 6.1012C4.32466 6.0462 4.29966 6.00923 4.24266 5.98023L2.88567 5.33222C2.85867 5.31622 2.84267 5.28923 2.84267 5.25623C2.84267 5.23123 2.85266 5.20924 2.86766 5.19324C2.86766 5.19324 4.52166 3.73025 8.07066 3.76325V7.87921ZM4.88766 5.56323C5.06566 5.56323 5.20967 5.41821 5.20967 5.24121C5.20967 5.06421 5.06466 4.9212 4.88766 4.9212C4.71166 4.9212 4.56767 5.06421 4.56767 5.24121C4.56767 5.41821 4.71166 5.56323 4.88766 5.56323Z" fill="black"/>
<path d="M1.56671 0.119141H0.136719V1.27917H1.56671V0.119141Z" fill="black"/>
<path d="M8.18663 0.119141H3.09863V1.26514H8.18663V0.119141Z" fill="black"/>
<path d="M2.24083 1.89117C2.11483 1.93217 2.02283 2.05315 2.02283 2.19415C2.02283 2.33515 2.11683 2.45616 2.24083 2.50116V4.48315C2.24083 4.73915 2.03684 4.94415 1.78084 4.94415C1.52684 4.94415 1.32184 4.73915 1.32184 4.48315C1.32184 4.42015 1.33383 4.36018 1.35683 4.30518L1.37683 4.32117L1.53883 4.46918L1.43683 3.56519L1.17284 4.17413C1.09284 4.36213 1.11183 4.48315 1.11183 4.48315C1.11183 4.85215 1.41083 5.15314 1.77983 5.15314C2.15083 5.15314 2.44884 4.85215 2.44884 4.48315V2.49713C2.57384 2.45213 2.66383 2.33315 2.66383 2.19415C2.66383 2.05315 2.57384 1.93215 2.44884 1.88715V0.119141H2.23984L2.24083 1.89117Z" fill="black"/>
</svg>
