<svg width="8" height="8" viewBox="0 0 8 8" fill="none" xmlns="http://www.w3.org/2000/svg">
<path d="M7.12857 1.60236C7.51186 1.60236 7.82257 1.29164 7.82257 0.908356C7.82257 0.52507 7.51186 0.214355 7.12857 0.214355C6.74528 0.214355 6.43457 0.52507 6.43457 0.908356C6.43457 1.29164 6.74528 1.60236 7.12857 1.60236Z" fill="black"/>
<path d="M5.15771 7.52438H6.95071C6.95071 7.52438 7.08671 7.53839 7.08671 7.39639V7.25439H7.35171C7.35171 7.25439 7.41271 7.7394 7.05071 7.7854H5.15771V7.52438Z" fill="black"/>
<path d="M0.683488 6.13843L1.95249 7.40643C1.95249 7.40643 2.03749 7.51041 2.13849 7.41141L2.23949 7.31042L2.42649 7.49841C2.42649 7.49841 2.12549 7.88541 1.83749 7.66241L0.500488 6.32443L0.683488 6.13843Z" fill="black"/>
<path d="M5.57955 5.69641L5.58155 6.95343C5.58155 7.18943 5.77255 7.38141 6.01055 7.38141C6.22655 7.38141 6.43755 7.13143 6.43755 6.95343V5.20441C6.43755 5.08241 6.38655 4.97243 6.30455 4.89343L5.27855 3.87042L6.63955 2.50943C6.89555 2.19043 6.76055 1.80743 6.76055 1.80743C6.61855 1.38243 6.13755 1.36841 6.13755 1.36841L2.62855 1.36743C2.44155 1.36743 2.28955 1.51842 2.28955 1.70642C2.28955 1.89442 2.44155 2.04541 2.62855 2.04541L5.05155 2.04941L4.03055 3.06543C3.88455 3.21443 3.81055 3.38242 3.81055 3.60242C3.81055 3.81342 3.89455 4.00143 4.03455 4.13943L5.57955 5.69641Z" fill="black"/>
<path d="M3.81749 4.32953C3.78549 4.29853 3.75549 4.26454 3.72849 4.22754L1.70449 6.25555C1.55149 6.37855 1.50149 6.59555 1.59349 6.77655C1.69849 6.98355 1.95349 7.06553 2.16049 6.95953C2.18849 6.94453 2.21449 6.92753 2.23849 6.90753L4.31649 4.82654L3.81749 4.32953Z" fill="black"/>
</svg>
