<svg width="9" height="10" viewBox="0 0 9 10" fill="none" xmlns="http://www.w3.org/2000/svg">
<path d="M6.04329 2.25797C6.44204 2.25797 6.76529 1.93471 6.76529 1.53596C6.76529 1.13722 6.44204 0.813965 6.04329 0.813965C5.64454 0.813965 5.32129 1.13722 5.32129 1.53596C5.32129 1.93471 5.64454 2.25797 6.04329 2.25797Z" fill="black"/>
<path d="M0.413193 6.1179C0.530829 6.1179 0.62619 6.02254 0.62619 5.90491C0.62619 5.78727 0.530829 5.69189 0.413193 5.69189C0.295556 5.69189 0.200195 5.78727 0.200195 5.90491C0.200195 6.02254 0.295556 6.1179 0.413193 6.1179Z" fill="black"/>
<path d="M0.561142 6.707C0.678779 6.707 0.774155 6.61164 0.774155 6.494C0.774155 6.37637 0.678779 6.28101 0.561142 6.28101C0.443505 6.28101 0.348145 6.37637 0.348145 6.494C0.348145 6.61164 0.443505 6.707 0.561142 6.707Z" fill="black"/>
<path d="M0.708115 7.29686C0.825751 7.29686 0.921112 7.20148 0.921112 7.08385C0.921112 6.96621 0.825751 6.87085 0.708115 6.87085C0.590478 6.87085 0.495117 6.96621 0.495117 7.08385C0.495117 7.20148 0.590478 7.29686 0.708115 7.29686Z" fill="black"/>
<path d="M0.855087 7.88596C0.972724 7.88596 1.06808 7.7906 1.06808 7.67296C1.06808 7.55532 0.972724 7.45996 0.855087 7.45996C0.737451 7.45996 0.64209 7.55532 0.64209 7.67296C0.64209 7.7906 0.737451 7.88596 0.855087 7.88596Z" fill="black"/>
<path d="M4.5641 9.17897C4.68229 9.17897 4.77811 9.08317 4.77811 8.96498C4.77811 8.84679 4.68229 8.75098 4.5641 8.75098C4.44591 8.75098 4.3501 8.84679 4.3501 8.96498C4.3501 9.08317 4.44591 9.17897 4.5641 9.17897Z" fill="black"/>
<path d="M5.17198 9.18185C5.28962 9.18185 5.38498 9.08649 5.38498 8.96886C5.38498 8.85122 5.28962 8.75586 5.17198 8.75586C5.05435 8.75586 4.95898 8.85122 4.95898 8.96886C4.95898 9.08649 5.05435 9.18185 5.17198 9.18185Z" fill="black"/>
<path d="M5.78136 9.18405C5.89899 9.18405 5.99435 9.08869 5.99435 8.97105C5.99435 8.85342 5.89899 8.75806 5.78136 8.75806C5.66372 8.75806 5.56836 8.85342 5.56836 8.97105C5.56836 9.08869 5.66372 9.18405 5.78136 9.18405Z" fill="black"/>
<path d="M6.38829 9.186C6.50593 9.186 6.60129 9.09064 6.60129 8.97301C6.60129 8.85537 6.50593 8.76001 6.38829 8.76001C6.27065 8.76001 6.17529 8.85537 6.17529 8.97301C6.17529 9.09064 6.27065 9.186 6.38829 9.186Z" fill="black"/>
<path d="M7.77194 4.01284H6.51096L5.93095 2.69985C5.92395 2.67885 5.91095 2.65085 5.90495 2.63685C5.90295 2.63285 5.90096 2.63085 5.90096 2.62885L5.88995 2.60485L5.88795 2.60685C5.78095 2.37885 5.55495 2.21584 5.28795 2.20484C5.23595 2.20284 5.18895 2.20684 5.14195 2.21784L1.97395 2.96184C1.78295 3.00684 1.66195 3.19585 1.70795 3.38885C1.75095 3.57985 1.93895 3.69885 2.13095 3.65585L4.24596 3.15284L2.63895 5.80384H0.918945L1.29996 7.30184C1.31296 7.34684 1.31295 7.35785 1.32695 7.38085C1.38095 7.46885 1.49495 7.49684 1.58095 7.44384C1.62795 7.41584 1.65795 7.36884 1.66695 7.31884L1.89494 6.62484L1.90395 6.59684C1.90395 6.59684 2.95594 6.59284 2.96394 6.59284C3.17494 6.59284 3.35595 6.53485 3.46295 6.35885L3.94995 5.55085L5.03494 6.63184L4.57495 8.44285C4.57495 8.44285 6.16095 8.44285 6.16795 8.44285C6.27095 8.44285 6.35495 8.35885 6.35495 8.25785C6.35495 8.17785 6.30494 8.12185 6.24394 8.08785L5.55595 7.70785L5.88596 6.40585C5.88596 6.40585 5.96795 6.13085 5.70795 5.87685L4.81995 4.98785C4.81995 4.98785 5.29495 4.20784 5.59795 3.70684L5.95195 4.50884C5.97895 4.57284 6.02695 4.62485 6.08295 4.66085C6.08295 4.66285 6.08694 4.66285 6.08694 4.66485C6.14294 4.70185 6.20995 4.72285 6.28195 4.72285H7.76395C7.96195 4.72485 8.12096 4.56384 8.12296 4.36884C8.12696 4.17184 7.96794 4.01484 7.77194 4.01284Z" fill="black"/>
</svg>
