<svg width="9" height="10" viewBox="0 0 9 10" fill="none" xmlns="http://www.w3.org/2000/svg">
<path d="M4.16183 8.50818C6.09983 8.50818 7.67183 6.9382 7.67183 4.9982C7.67183 3.0602 6.09983 1.4902 4.16183 1.4902C2.22283 1.4902 0.649828 3.0602 0.649828 4.9982C0.649828 6.9382 2.22183 8.50818 4.16183 8.50818ZM0.0488281 4.99921C0.0488281 2.72821 1.89083 0.888184 4.16183 0.888184C6.43283 0.888184 8.27483 2.72821 8.27483 4.99921C8.27483 7.27021 6.43283 9.11218 4.16183 9.11218C1.89083 9.11218 0.0488281 7.27021 0.0488281 4.99921Z" fill="black"/>
<path d="M3.7047 6.25635L4.5427 6.25433V5.60434C4.5427 5.42634 4.6257 5.25835 4.8447 5.11435C5.0657 4.97135 5.6807 4.67635 5.6807 3.90735C5.6807 3.13635 5.0347 2.60635 4.4927 2.49335C3.9497 2.38235 3.3607 2.45633 2.9437 2.91333C2.5687 3.32333 2.4917 3.64535 2.4917 4.36035H3.3297V4.19433C3.3297 3.81533 3.3737 3.41333 3.9167 3.30133C4.2147 3.24033 4.4927 3.33434 4.6577 3.49634C4.8467 3.68234 4.8487 4.09834 4.5467 4.30334L4.0747 4.62335C3.7997 4.80335 3.7057 5.00035 3.7057 5.28735L3.7047 6.25635Z" fill="black"/>
<path d="M4.54873 6.63525H3.69873V7.49826H4.54873V6.63525Z" fill="black"/>
</svg>
