<svg width="9" height="10" viewBox="0 0 9 10" fill="none" xmlns="http://www.w3.org/2000/svg">
<path d="M7.09227 6.00122C6.91427 6.00122 6.74427 6.04221 6.59427 6.11221C6.44627 6.17621 6.28126 6.21622 6.11026 6.21622C5.93926 6.21622 5.77427 6.17721 5.62627 6.11221C5.47627 6.04221 5.30627 6.00122 5.12827 6.00122C4.95227 6.00122 4.78226 6.04221 4.63026 6.11221C4.48426 6.17621 4.31927 6.21622 4.14827 6.21622C3.97727 6.21622 3.81026 6.17721 3.66426 6.11221C3.51426 6.04221 3.34426 6.00122 3.16626 6.00122C2.98826 6.00122 2.81826 6.04221 2.66826 6.11221C2.52026 6.17621 2.35526 6.21622 2.18526 6.21622C2.01326 6.21622 1.84926 6.17721 1.70126 6.11221C1.55126 6.04221 1.38326 6.00122 1.20526 6.00122C1.02726 6.00122 0.857261 6.04221 0.707261 6.11221C0.559261 6.17621 0.394267 6.21622 0.223267 6.21622V6.94122C0.395267 6.94122 0.559261 6.90222 0.707261 6.83722C0.857261 6.76722 1.02726 6.72623 1.20526 6.72623C1.38326 6.72623 1.55126 6.76722 1.70126 6.83722C1.82626 6.89222 1.96527 6.92323 2.10727 6.93323L1.50526 7.5332C1.31426 7.4142 1.06026 7.43523 0.894257 7.60123L0.205262 8.29022C0.0142617 8.48122 0.0142617 8.79223 0.205262 8.98523C0.398262 9.17623 0.709269 9.17623 0.900269 8.98523L1.58926 8.2962C1.74526 8.1402 1.77326 7.90521 1.67526 7.72021L2.50426 6.89221C2.56126 6.87421 2.61526 6.86122 2.66826 6.83722C2.81826 6.76722 2.98826 6.72623 3.16626 6.72623C3.34426 6.72623 3.51426 6.76722 3.66426 6.83722C3.81026 6.90122 3.97727 6.94122 4.14827 6.94122C4.31927 6.94122 4.48426 6.90222 4.63026 6.83722C4.78226 6.76722 4.95227 6.72623 5.12827 6.72623C5.30627 6.72623 5.47627 6.76722 5.62627 6.83722C5.77427 6.90122 5.93926 6.94122 6.11026 6.94122C6.28126 6.94122 6.44627 6.90222 6.59427 6.83722C6.74427 6.76722 6.91427 6.72623 7.09227 6.72623C7.27027 6.72623 7.43826 6.76722 7.59026 6.83722C7.73626 6.90122 7.90327 6.94122 8.07427 6.94122V6.21622C7.90227 6.21622 7.73626 6.17721 7.59026 6.11221C7.43726 6.04221 7.26927 6.00122 7.09227 6.00122Z" fill="black"/>
<path d="M7.42719 2.45722L8.11618 1.76822C8.30918 1.57522 8.30918 1.26422 8.11618 1.07322C7.92518 0.880217 7.61219 0.880217 7.42119 1.07322L6.73219 1.76221C6.56619 1.92821 6.54418 2.18222 6.66618 2.37122L5.80818 3.22922L4.10318 2.59821C4.05818 2.57321 4.01119 2.55122 3.95819 2.53522C3.58719 2.42422 3.19419 2.63523 3.08319 3.00623L2.56018 4.76023C2.55318 4.78123 2.55118 4.79823 2.54918 4.81623H0.221191V5.75724C0.348191 5.75724 0.479192 5.72822 0.594193 5.67722C0.783193 5.58922 0.994187 5.54221 1.20119 5.54221C1.40819 5.54221 1.61719 5.58924 1.80319 5.67524C1.92619 5.73024 2.05319 5.75724 2.18219 5.75724C2.31219 5.75724 2.43918 5.73022 2.55618 5.67722C2.74718 5.58922 2.95619 5.54221 3.16319 5.54221C3.37219 5.54221 3.57718 5.58724 3.76718 5.67524C3.88618 5.73024 4.01718 5.75724 4.14618 5.75724C4.27518 5.75724 4.40218 5.73022 4.52118 5.67722C4.71018 5.58922 4.92119 5.54221 5.12619 5.54221C5.33719 5.54221 5.54018 5.58724 5.73018 5.67524C5.85118 5.73024 5.98219 5.75724 6.10919 5.75724C6.23819 5.75724 6.36719 5.73022 6.48419 5.67722C6.67319 5.58922 6.88419 5.54221 7.09119 5.54221C7.12619 5.54221 7.27019 5.55323 7.41019 5.45923C7.66019 5.35023 7.75418 5.28723 7.97218 5.15323C8.15218 5.04323 8.30118 4.80222 7.90918 4.81522C7.80118 4.81922 4.57419 4.81522 4.57419 4.81522L5.56119 3.82822L5.69418 3.87922C5.86218 3.94022 6.04918 3.85422 6.11218 3.68622C6.15518 3.56722 6.12219 3.43821 6.04019 3.35221L6.85019 2.54023C7.03619 2.63823 7.27018 2.61322 7.42719 2.45722ZM4.22018 4.81623H4.01019L4.43219 3.41123L5.30319 3.73322L4.22018 4.81623Z" fill="black"/>
<path d="M4.21323 1.67609L4.12323 1.8671C4.06423 1.9861 3.94324 2.06808 3.80524 2.06808H3.59424C3.71524 2.24008 3.91424 2.3511 4.13924 2.3511C4.50624 2.3511 4.80524 2.0541 4.80524 1.6871V1.6521H4.24423C4.23023 1.6531 4.21723 1.66309 4.21323 1.67609Z" fill="black"/>
<path d="M3.80522 1.90109C3.87722 1.90109 3.94222 1.85808 3.97122 1.79608L4.05922 1.6051C4.09222 1.5331 4.16322 1.4841 4.24522 1.4841H4.93321C4.84321 1.1301 4.52121 0.871094 4.14021 0.871094C3.68921 0.871094 3.32422 1.23609 3.32422 1.68909C3.32422 1.76109 3.33221 1.8341 3.35121 1.9021H3.80522V1.90109Z" fill="black"/>
</svg>
