<svg width="10" height="6" viewBox="0 0 10 6" fill="none" xmlns="http://www.w3.org/2000/svg">
<path d="M0.969727 0.124023H1.45973V1.94302H2.54773V2.35503H0.969727V0.124023Z" fill="black"/>
<path d="M2.78873 1.23702C2.81373 0.822022 3.18672 0.697021 3.54872 0.697021C3.87072 0.697021 4.25774 0.768021 4.25774 1.15602V1.99702C4.25774 2.14302 4.27374 2.29102 4.31474 2.35602H3.86574C3.84974 2.30602 3.83673 2.25202 3.83473 2.20002C3.69373 2.34602 3.48673 2.40002 3.28973 2.40002C2.98473 2.40002 2.74072 2.24702 2.74072 1.91602C2.74072 1.55002 3.01573 1.46602 3.28973 1.42502C3.56273 1.38802 3.81474 1.39402 3.81474 1.21302C3.81474 1.02302 3.68373 0.994019 3.52773 0.994019C3.35973 0.994019 3.25073 1.06202 3.23473 1.23702H2.78873ZM3.81374 1.56502C3.73974 1.63102 3.58373 1.63402 3.44473 1.65902C3.30773 1.68702 3.18272 1.73402 3.18272 1.89702C3.18272 2.06202 3.31174 2.10302 3.45374 2.10302C3.80174 2.10302 3.81273 1.82802 3.81273 1.73102V1.56502H3.81374Z" fill="black"/>
<path d="M4.63281 0.74102H5.05481V1.04102H5.06281C5.14281 0.838016 5.3618 0.697021 5.5788 0.697021C5.6098 0.697021 5.6468 0.70302 5.6748 0.71302V1.12502C5.6338 1.11602 5.56982 1.10902 5.51682 1.10902C5.19081 1.10902 5.0788 1.34302 5.0788 1.62802V2.35702H4.63382V0.74102H4.63281Z" fill="black"/>
<path d="M7.43262 2.25204C7.43262 2.51804 7.33863 2.96804 6.59464 2.96804C6.27664 2.96804 5.90562 2.81904 5.88162 2.44904H6.32263C6.36363 2.61504 6.49863 2.67104 6.65463 2.67104C6.90063 2.67104 7.00961 2.50204 7.00961 2.27204V2.05904H7.00363C6.90563 2.22804 6.71262 2.30904 6.51962 2.30904C6.03562 2.30904 5.82861 1.94004 5.82861 1.49604C5.82861 1.07704 6.06861 0.696045 6.52161 0.696045C6.73461 0.696045 6.89663 0.76704 7.00363 0.95504H7.00961V0.740044H7.43161V2.25204H7.43262ZM7.01062 1.52805C7.01062 1.26505 6.92062 1.03104 6.63162 1.03104C6.38162 1.03104 6.27261 1.25004 6.27261 1.49104C6.27261 1.72104 6.36062 1.97504 6.63162 1.97504C6.88562 1.97504 7.01062 1.75905 7.01062 1.52805Z" fill="black"/>
<path d="M8.18671 1.65604C8.19871 1.93704 8.3347 2.06504 8.5827 2.06504C8.7607 2.06504 8.90471 1.95604 8.93271 1.85604H9.3237C9.1987 2.23704 8.93272 2.40004 8.56772 2.40004C8.05772 2.40004 7.7417 2.04904 7.7417 1.54904C7.7417 1.06504 8.07772 0.696045 8.56772 0.696045C9.11672 0.696045 9.38171 1.15804 9.35071 1.65504L8.18671 1.65604ZM8.90771 1.37404C8.86671 1.14904 8.77071 1.03004 8.55371 1.03004C8.27271 1.03004 8.19271 1.24904 8.18671 1.37404H8.90771Z" fill="black"/>
<path d="M1.72363 3.62402H2.72963C3.28663 3.62402 3.50064 3.97803 3.50064 4.34003C3.50064 4.70203 3.28563 5.05603 2.72963 5.05603H2.21364V5.85603H1.72363V3.62402ZM2.21463 4.67403H2.59564C2.82464 4.67403 3.02763 4.62403 3.02763 4.34003C3.02763 4.05603 2.82464 4.00603 2.59564 4.00603H2.21463V4.67403Z" fill="black"/>
<path d="M3.79297 4.24102H4.21497V4.54102H4.22095C4.30295 4.33802 4.52197 4.19702 4.73697 4.19702C4.76797 4.19702 4.80496 4.20302 4.83496 4.21302V4.62502C4.79396 4.61602 4.72796 4.60902 4.67496 4.60902C4.35096 4.60902 4.23697 4.84302 4.23697 5.12802V5.85702H3.79395L3.79297 4.24102Z" fill="black"/>
<path d="M5.49576 3.991H5.05273V3.625H5.49576V3.991ZM5.05176 4.241H5.49475V5.856H5.05176V4.241Z" fill="black"/>
<path d="M5.87695 4.24102H6.29895V4.46602H6.30896C6.42196 4.28402 6.61595 4.19702 6.80295 4.19702C7.27395 4.19702 7.39294 4.46302 7.39294 4.86202V5.85602H6.94995V4.94402C6.94995 4.67802 6.87195 4.54702 6.66495 4.54702C6.42495 4.54702 6.32095 4.68202 6.32095 5.01002V5.85702H5.87796V4.24102H5.87695Z" fill="black"/>
<path d="M8.32382 4.24106H8.64783V4.53806H8.32382V5.33806C8.32382 5.48706 8.36084 5.52605 8.51184 5.52605C8.55884 5.52605 8.60183 5.52305 8.64883 5.51305V5.86005C8.57483 5.87305 8.47684 5.87606 8.39084 5.87606C8.11784 5.87606 7.88083 5.81306 7.88083 5.49206V4.53905H7.61084V4.24206H7.88083V3.75806H8.32382V4.24106Z" fill="black"/>
</svg>
