<svg width="7" height="8" viewBox="0 0 7 8" fill="none" xmlns="http://www.w3.org/2000/svg">
<path d="M2.92629 5.30518V6.84418C2.92629 6.84418 2.97929 7.24817 2.47129 7.24817H0.4683C-0.0397 7.24817 0.0132982 6.84418 0.0132982 6.84418V5.30518H2.92629Z" fill="black"/>
<path d="M2.00214 0.939972C1.93214 0.826972 1.80714 0.751953 1.66414 0.751953L1.01813 0.753967C0.791127 0.753967 0.608139 0.937971 0.608139 1.16397C0.608139 1.24397 0.631143 1.31795 0.671143 1.38095L0.67514 1.38696C0.86614 1.65796 0.978134 1.98695 0.978134 2.34195C0.978134 2.94395 0.65614 3.47296 0.17514 3.76196L0.169128 3.76398C0.0771284 3.82298 0.0151367 3.92397 0.0151367 4.04297V4.53098H2.92813V2.73596C2.92813 2.73596 2.93214 2.56996 2.82114 2.36496L2.00214 0.939972Z" fill="black"/>
<path d="M4.32201 0.939972C4.39201 0.826972 4.51702 0.751953 4.66002 0.751953L5.30602 0.753967C5.53302 0.753967 5.71602 0.937971 5.71602 1.16397C5.71602 1.24397 5.69502 1.31795 5.65502 1.38095L5.64902 1.38696C5.46002 1.65796 5.34601 1.98695 5.34601 2.34195C5.34601 2.94395 5.66802 3.47296 6.15102 3.76196L6.15502 3.76398C6.24902 3.82298 6.31102 3.92397 6.31102 4.04297V4.53098H3.39502V2.73596C3.39502 2.73596 3.39302 2.56996 3.50402 2.36496L4.32201 0.939972Z" fill="black"/>
<path d="M6.31011 5.30518V6.84418C6.31011 6.84418 6.36311 7.24817 5.85511 7.24817H3.85111C3.34311 7.24817 3.39611 6.84418 3.39611 6.84418V5.30518H6.31011Z" fill="black"/>
<path d="M3.40816 5.06311C3.48416 5.06311 3.54715 5.0001 3.54715 4.9241C3.54715 4.8501 3.48416 4.78711 3.40816 4.78711H2.94315C2.86715 4.78711 2.80615 4.8501 2.80615 4.9241C2.80615 5.0001 2.86715 5.06311 2.94315 5.06311H3.40816Z" fill="black"/>
</svg>
