<svg width="9" height="8" viewBox="0 0 9 8" fill="none" xmlns="http://www.w3.org/2000/svg">
<path d="M0.0034647 2.12869L0.00146484 0.679688L3.41546 1.1167L3.41747 1.69568L0.0034647 2.12869Z" fill="black"/>
<path d="M8.32171 0.679688V2.12869L4.90771 1.69168V1.11368L8.32171 0.679688Z" fill="black"/>
<path d="M2.95483 0.732697C2.93483 0.742697 2.92383 0.759708 2.92383 0.781708C2.92383 0.810708 2.94683 0.834686 2.97683 0.834686H5.34583C5.37483 0.834686 5.40083 0.811708 5.40083 0.781708C5.40083 0.760708 5.38683 0.742697 5.36983 0.732697L4.16283 0.0546875L2.95483 0.732697Z" fill="black"/>
<path d="M5.99973 7.94571L5.19273 2.17572H5.39973C5.46073 2.17572 5.50873 2.12673 5.50873 2.06873C5.50873 2.00773 5.45973 1.95972 5.39973 1.95972H2.92373C2.86273 1.95972 2.81473 2.00873 2.81473 2.06873C2.81473 2.12773 2.86373 2.17572 2.92373 2.17572H3.13073L2.32373 7.94571H5.99973Z" fill="black"/>
</svg>
