<svg width="8" height="10" viewBox="0 0 8 10" fill="none" xmlns="http://www.w3.org/2000/svg">
<path d="M5.90887 2.25311C6.29271 2.25311 6.60387 1.95762 6.60387 1.59311C6.60387 1.2286 6.29271 0.933105 5.90887 0.933105C5.52503 0.933105 5.21387 1.2286 5.21387 1.59311C5.21387 1.95762 5.52503 2.25311 5.90887 2.25311Z" fill="black"/>
<path d="M2.38884 6.31519H1.88184V6.82318H2.38884V6.31519Z" fill="black"/>
<path d="M2.67132 5.64638L2.30127 5.27539L1.93029 5.64543L2.30034 6.01642L2.67132 5.64638Z" fill="black"/>
<path d="M2.3195 4.75923L1.94922 4.38989L1.58058 4.75947L1.95086 5.12881L2.3195 4.75923Z" fill="black"/>
<path d="M3.16204 9.06021L3.79004 5.72021H3.31804L2.76704 8.59421H1.55204L1.01304 5.7222H0.540039L1.15804 9.06021H3.16204Z" fill="black"/>
<path d="M3.96392 3.87903H2.91792C2.50392 3.87903 2.50392 4.39801 2.91792 4.39801L4.11292 4.39603C4.20192 4.39603 4.29392 4.35103 4.36292 4.24603L4.96392 3.34601L4.96292 8.69601C4.96292 8.90101 5.13692 9.06702 5.35292 9.06702C5.56792 9.06702 5.74292 8.90101 5.74292 8.69601V5.59201H6.10192V8.69601C6.10192 8.90101 6.27692 9.06702 6.49092 9.06702C6.70692 9.06702 6.88092 8.90101 6.88092 8.69601L6.88192 3.34601H7.23992V5.31903C7.23992 5.71503 7.78392 5.71503 7.78292 5.31903V3.30603C7.78292 2.86803 7.32592 2.43604 6.78592 2.43604H5.40392C5.09192 2.43604 4.81992 2.58801 4.66192 2.82101L3.96392 3.87903Z" fill="black"/>
</svg>
