<svg width="8" height="6" viewBox="0 0 8 6" fill="none" xmlns="http://www.w3.org/2000/svg">
<path d="M7.34833 4.13937V5.32736H7.97433V3.55237H0.963332V0.984375C0.963332 0.812375 0.825332 0.671387 0.651332 0.671387C0.479332 0.671387 0.340332 0.812375 0.340332 0.984375V5.32837H0.962332V4.14038H7.34833V4.13937Z" fill="black"/>
<path d="M1.92042 2.23441C2.23136 2.23441 2.48342 1.98235 2.48342 1.67142C2.48342 1.36048 2.23136 1.1084 1.92042 1.1084C1.60949 1.1084 1.35742 1.36048 1.35742 1.67142C1.35742 1.98235 1.60949 2.23441 1.92042 2.23441Z" fill="black"/>
<path d="M7.98316 3.08423L7.98116 2.30923C7.97916 2.06323 7.77316 1.89323 7.53216 1.86423L3.10616 1.42322C3.09716 1.42122 3.08916 1.41724 3.08216 1.41724C2.92916 1.41724 2.80516 1.54221 2.80516 1.69421V2.53021H1.64716C1.49216 2.53021 1.36816 2.65522 1.36816 2.80722C1.36816 2.96122 1.49216 3.08423 1.64716 3.08423H7.98316Z" fill="black"/>
</svg>
