<svg width="6" height="8" viewBox="0 0 6 8" fill="none" xmlns="http://www.w3.org/2000/svg">
<path d="M1.50554 7.52286L1.40154 7.99387L0.727539 7.99185L1.88154 2.78085L1.21554 2.77487V0.878845L3.16254 0.00585938L5.10954 0.878845V2.77487L4.44354 2.78085L5.59554 7.99185L4.92354 7.99387L4.81954 7.52487L3.16154 5.50385L1.50554 7.52286ZM1.77654 6.29587L2.79654 5.05386L2.20854 4.34085L1.77654 6.29587ZM3.96054 3.63385L3.77254 2.77887H2.55454L2.36654 3.63284L3.16354 4.60986L3.96054 3.63385ZM4.11654 4.34085L3.52854 5.05386L4.54854 6.29587L4.11654 4.34085ZM1.94654 1.14386V2.10086H4.37854V1.14386H1.94654Z" fill="black"/>
</svg>
