<svg width="7" height="10" viewBox="0 0 7 10" fill="none" xmlns="http://www.w3.org/2000/svg">
<path d="M2.25294 1.43569C2.25694 1.07769 1.96192 0.780708 1.60292 0.784708C1.23592 0.780708 0.938928 1.07769 0.940928 1.43569C0.938928 1.80269 1.23592 2.0967 1.60292 2.0977C1.96192 2.0967 2.25694 1.80269 2.25294 1.43569Z" fill="black"/>
<path d="M4.14305 5.03254L2.03905 2.48056C1.93005 2.31856 1.32006 2.25055 1.06206 2.45755L0.0390625 4.31955L0.291061 5.89355C0.547061 6.30455 1.05506 5.88855 0.912064 5.66455L0.740051 4.54956L1.16406 3.73456L1.14305 5.73456L0.223053 8.60756C0.041053 9.21656 0.940064 9.47056 1.11906 8.88356L2.25807 5.71055L2.24605 4.09755L1.71706 3.47155C1.69206 3.44156 1.69607 3.39556 1.72707 3.36856C1.75807 3.34356 1.80306 3.34755 1.82906 3.37755L3.57906 5.44655C3.86006 5.83155 4.42405 5.42254 4.14305 5.03254Z" fill="black"/>
<path d="M3.33881 8.57271L2.30579 6.00171L1.88379 7.1837L2.48779 8.91771C2.73079 9.48871 3.58881 9.15471 3.33881 8.57271Z" fill="black"/>
<path d="M6.07923 9.16264C6.08123 9.16464 6.08322 9.16863 6.08322 9.16863C6.12422 9.21763 6.19624 9.22264 6.24524 9.18264C6.28824 9.14564 6.29624 9.07964 6.26624 9.03364L4.31922 5.65264C4.31722 5.65064 4.31523 5.64864 4.31323 5.64564C4.27423 5.59864 4.20223 5.59164 4.15323 5.63264C4.11023 5.66964 4.10624 5.73264 4.13324 5.78164L6.07923 9.16264Z" fill="black"/>
</svg>
