<svg width="8" height="8" viewBox="0 0 8 8" fill="none" xmlns="http://www.w3.org/2000/svg">
<path d="M4.18397 1.58868C3.93897 1.58868 3.73897 1.38766 3.73897 1.14166C3.73897 0.893663 3.93897 0.694672 4.18397 0.694672C4.43197 0.694672 4.62997 0.893663 4.62997 1.14166C4.62997 1.38766 4.43197 1.58868 4.18397 1.58868ZM7.79497 5.50269L7.55697 4.01868C7.52997 3.87968 7.40897 3.77469 7.26397 3.77469C7.17597 3.77469 7.09797 3.81168 7.04097 3.87268L5.94297 4.90167C5.92497 4.91767 5.90797 4.93467 5.89197 4.95667C5.78797 5.09766 5.81797 5.29667 5.95797 5.40167C5.98497 5.42167 6.01497 5.43469 6.04397 5.44669L6.31897 5.53867C6.05297 6.28867 5.40497 6.85867 4.60797 7.01767L4.60997 2.14468C5.00097 1.97868 5.26997 1.59167 5.26997 1.14267C5.26997 0.54067 4.78397 0.0546875 4.18197 0.0546875C3.58197 0.0546875 3.09397 0.54067 3.09397 1.14267C3.09397 1.59167 3.37297 1.97868 3.76197 2.14468L3.76397 7.02567C2.94997 6.87967 2.27597 6.30267 2.00397 5.53967L2.28097 5.44766C2.30997 5.43566 2.33997 5.42268 2.36697 5.40268C2.50797 5.29768 2.53897 5.09767 2.43297 4.95767C2.41697 4.93667 2.40197 4.91868 2.38197 4.90268L1.28397 3.87369C1.22897 3.81269 1.14897 3.77567 1.06297 3.77567C0.916973 3.77567 0.792973 3.88068 0.767973 4.01968L0.529973 5.50366C0.523973 5.52666 0.521973 5.55267 0.521973 5.57767C0.521973 5.75367 0.664973 5.89569 0.839973 5.89569C0.872973 5.89569 0.903973 5.89168 0.933973 5.88168L1.19197 5.79767C1.60197 7.04367 2.77597 7.94568 4.16097 7.94568C5.54597 7.94568 6.71997 7.04368 7.12997 5.79568L7.38797 5.88168C7.41697 5.89168 7.44897 5.89569 7.48197 5.89569C7.65797 5.89569 7.79997 5.75267 7.79997 5.57767C7.80297 5.55167 7.80097 5.52669 7.79497 5.50269Z" fill="black"/>
</svg>
