<svg width="4" height="10" viewBox="0 0 4 10" fill="none" xmlns="http://www.w3.org/2000/svg">
<path d="M2.82568 1.59961C2.82568 1.96509 2.5293 2.26147 2.16357 2.26147C1.79785 2.26147 1.50146 1.96509 1.50146 1.59961C1.50146 1.23389 1.79785 0.9375 2.16357 0.9375C2.5293 0.9375 2.82568 1.23389 2.82568 1.59961Z" fill="black"/>
<path d="M1.63623 9.0625C1.43115 9.0625 1.26416 8.89551 1.26416 8.69043L1.26709 3.31543H0.953125V5.29639C0.953125 5.69141 0.431152 5.69141 0.431152 5.29639V3.25952C0.431152 2.78442 0.808105 2.39941 1.27734 2.39941L3.03711 2.40234C3.55127 2.40234 3.89209 2.83252 3.89209 3.27148V5.29639C3.89404 5.69531 3.37402 5.69531 3.37402 5.29639V3.31543H3.06494L3.06201 8.69043C3.06201 8.89551 2.89502 9.0625 2.68994 9.0625C2.48535 9.0625 2.32031 8.89551 2.32031 8.69043V5.57251H2.0083V8.69043C2.0083 8.89551 1.84131 9.0625 1.63623 9.0625Z" fill="black"/>
</svg>
