<svg width="10" height="8" viewBox="0 0 10 8" fill="none" xmlns="http://www.w3.org/2000/svg">
<path d="M9.54688 4.18107C9.54688 4.18107 8.33988 4.10006 7.80688 4.15406C7.76588 4.15406 7.60387 4.24006 7.56287 4.24006C7.07087 4.26506 6.78187 4.20809 6.33087 4.28709C5.63387 4.39209 4.93588 4.23308 4.19788 4.31208C3.54388 4.36708 2.84388 4.31206 2.14888 4.34006C1.81888 4.10006 1.23888 4.20709 0.775879 4.21809V4.90006H9.54688V4.18107Z" fill="black"/>
<path fill-rule="evenodd" clip-rule="evenodd" d="M8.30485 0.103027L4.95286 2.93402C4.95286 2.93402 4.78686 2.93402 4.49186 2.93402C4.19486 2.93402 3.76885 2.93304 3.24785 2.93304C3.16585 2.93304 3.05685 3.11504 3.05285 3.29504C3.04885 3.47504 3.15285 3.65704 3.21285 3.65704C4.23385 3.65704 5.27885 3.65704 6.06785 3.65704C6.85685 3.65704 7.38785 3.65704 7.38785 3.65704C7.45785 3.65704 7.57184 3.47504 7.57584 3.29504C7.57984 3.11504 7.47385 2.93304 7.38785 2.93304H5.85785L8.75586 0.499023C8.73586 0.444023 8.64886 0.350029 8.55286 0.267029C8.45686 0.184029 8.35485 0.113027 8.30485 0.103027Z" fill="black"/>
<path fill-rule="evenodd" clip-rule="evenodd" d="M7.73755 5.41205C7.72755 5.39905 7.71054 5.39504 7.69654 5.40304C5.68654 6.55404 3.36255 5.62603 2.91755 5.42703C2.91555 5.42603 2.91355 5.42602 2.91155 5.42602C2.90955 5.42502 2.90955 5.42403 2.90755 5.42303V5.42505C2.89355 5.42205 2.87655 5.42605 2.87055 5.43805C2.86255 5.45205 2.85855 5.46603 2.87255 5.47503C5.76355 7.39003 7.71456 5.47203 7.73356 5.45303C7.74556 5.44203 7.74755 5.42505 7.73755 5.41205Z" fill="black"/>
<path fill-rule="evenodd" clip-rule="evenodd" d="M6.95464 6.55804C6.94464 6.54504 6.92964 6.54104 6.91564 6.54904C5.52264 7.30604 4.01165 6.70502 3.72265 6.57702C3.72065 6.57602 3.72065 6.57602 3.71865 6.57602L3.71666 6.57504C3.70266 6.57104 3.68365 6.57504 3.67765 6.58804C3.66965 6.60304 3.66766 6.61804 3.68166 6.62704C5.61966 7.91904 6.93966 6.61102 6.95266 6.59802C6.96266 6.58702 6.96464 6.57004 6.95464 6.55804Z" fill="black"/>
<path fill-rule="evenodd" clip-rule="evenodd" d="M6.14944 7.57207C6.13944 7.56007 6.12444 7.55609 6.11044 7.56209C5.56944 7.81709 4.81345 7.64709 4.59445 7.58809C4.57845 7.58409 4.55545 7.59009 4.55145 7.60509C4.54545 7.62009 4.54346 7.63407 4.55746 7.64207C5.55146 8.22907 6.13945 7.61808 6.14745 7.61208C6.15745 7.60108 6.15744 7.58307 6.14944 7.57207Z" fill="black"/>
</svg>
