<svg width="10" height="6" viewBox="0 0 10 6" fill="none" xmlns="http://www.w3.org/2000/svg">
<path d="M9.37469 5.06915C9.20269 5.06915 9.03669 5.03014 8.89069 4.96414C8.74069 4.89414 8.57068 4.85315 8.39468 4.85315C8.21668 4.85315 8.04668 4.89414 7.89668 4.96414C7.74868 5.03014 7.58369 5.06915 7.41269 5.06915C7.24269 5.06915 7.07669 5.03014 6.93069 4.96414C6.78069 4.89414 6.61069 4.85315 6.43269 4.85315C6.25669 4.85315 6.08669 4.89414 5.93669 4.96414C5.78869 5.03014 5.62368 5.06915 5.45268 5.06915C5.28168 5.06915 5.11669 5.03014 4.97069 4.96414C4.82069 4.89414 4.65069 4.85315 4.47269 4.85315C4.29469 4.85315 4.12668 4.89414 3.97668 4.96414C3.82868 5.03014 3.66369 5.06915 3.49269 5.06915C3.32169 5.06915 3.15769 5.03014 3.01169 4.96414C2.85969 4.89414 2.69169 4.85315 2.51369 4.85315C2.33569 4.85315 2.16769 4.89414 2.01569 4.96414C1.86969 5.03014 1.70469 5.06915 1.53369 5.06915V4.34415C1.70569 4.34415 1.86969 4.30514 2.01569 4.23914C2.16769 4.17114 2.33569 4.13013 2.51369 4.13013C2.69169 4.13013 2.85969 4.17114 3.01169 4.23914C3.15769 4.30514 3.32169 4.34415 3.49269 4.34415C3.66369 4.34415 3.82868 4.30514 3.97668 4.23914C4.12668 4.17114 4.29469 4.13013 4.47269 4.13013C4.65069 4.13013 4.82069 4.17114 4.97069 4.23914C5.11669 4.30514 5.28168 4.34415 5.45268 4.34415C5.62368 4.34415 5.78869 4.30514 5.93669 4.23914C6.08669 4.17114 6.25669 4.13013 6.43269 4.13013C6.61069 4.13013 6.78069 4.17114 6.93069 4.23914C7.07669 4.30514 7.24369 4.34415 7.41269 4.34415C7.58469 4.34415 7.74868 4.30514 7.89668 4.23914C8.04668 4.17114 8.21668 4.13013 8.39468 4.13013C8.57068 4.13013 8.74069 4.17114 8.89069 4.23914C9.03669 4.30514 9.2037 4.34415 9.37469 4.34415V5.06915Z" fill="black"/>
<path d="M7.40186 2.0431L8.82785 2.1541L8.72086 1.42509L7.67386 1.35109C7.39086 1.33709 7.43185 1.62111 7.43185 1.62111L7.40186 2.0431Z" fill="black"/>
<path d="M4.75768 1.87714C5.01891 1.87714 5.23067 1.66537 5.23067 1.40414C5.23067 1.14291 5.01891 0.931152 4.75768 0.931152C4.49644 0.931152 4.28467 1.14291 4.28467 1.40414C4.28467 1.66537 4.49644 1.87714 4.75768 1.87714Z" fill="black"/>
<path d="M1.83881 3.69821C1.89981 3.68021 1.95782 3.6572 2.01282 3.6322C2.16482 3.5622 2.33281 3.52121 2.51081 3.52121C2.68881 3.52121 2.85681 3.5622 3.00881 3.6322C3.15481 3.6982 3.31881 3.73721 3.48981 3.73721C3.66081 3.73721 3.82582 3.6982 3.97382 3.6322C4.12382 3.5622 4.29181 3.52121 4.46981 3.52121C4.64781 3.52121 4.81781 3.5622 4.96781 3.6322C5.11381 3.6982 5.27882 3.73721 5.44982 3.73721C5.62082 3.73721 5.78581 3.6982 5.93381 3.6322C6.08381 3.5622 6.25381 3.52121 6.42981 3.52121C6.60781 3.52121 6.77782 3.5622 6.92782 3.6322C7.07382 3.6982 7.24081 3.73721 7.40981 3.73721C7.58181 3.73721 7.74582 3.6982 7.89382 3.6322C8.04382 3.5622 8.21382 3.52121 8.39182 3.52121C8.56782 3.52121 8.73782 3.5622 8.88782 3.6322C9.03382 3.6982 9.19882 3.73721 9.36982 3.73721L9.20981 2.44519L3.28182 1.94919L4.17681 1.04721L3.78382 1.01221L2.88982 1.9162L0.948812 1.7562C0.939812 2.4182 1.67881 3.51821 1.83881 3.69821Z" fill="black"/>
</svg>
