<svg width="10" height="10" viewBox="0 0 10 10" fill="none" xmlns="http://www.w3.org/2000/svg">
<path d="M5.61239 1.62766C5.50239 1.20366 5.11539 0.889648 4.65839 0.889648C4.11239 0.889648 3.67139 1.32863 3.67139 1.87363C3.67139 1.96563 3.68239 2.04965 3.70539 2.13165H4.10139C4.13039 2.19965 4.16239 2.23865 4.16239 2.23865C4.28139 2.41065 4.48039 2.52164 4.70539 2.52164C5.07039 2.52164 5.36739 2.22465 5.36739 1.85965C5.36739 1.77565 5.38839 1.69966 5.35339 1.62766H5.61239Z" fill="black"/>
<path d="M5.58429 7.51266C5.48029 7.61766 5.33729 7.69867 5.17629 7.69867L5.17529 5.55368L6.65929 5.12769L7.03129 5.85968L5.58429 7.51266Z" fill="black"/>
<path d="M4.33851 2.60669C4.24051 2.49769 4.09951 2.42871 3.94051 2.42871C3.77151 2.42871 3.62051 2.5067 3.52351 2.6297L2.34551 4.42871C2.29751 4.50871 2.27051 4.60269 2.27051 4.70169C2.27051 4.88769 2.36451 5.04971 2.50651 5.14471L4.08651 6.0217V7.5137C4.08651 7.7247 4.25751 7.8967 4.46851 7.8967C4.67851 7.8967 4.85051 7.7247 4.85051 7.5137V5.6507C4.85051 5.6507 4.90051 5.35371 4.56351 5.19171L3.57851 4.67569L4.29651 3.57971L4.67751 4.1777C4.75351 4.2987 4.85651 4.34569 4.95051 4.34369L5.92851 4.33969C6.32651 4.33969 6.32651 3.8217 5.92851 3.8237H5.13451L4.33851 2.60669Z" fill="black"/>
<path d="M8.66861 5.05176C8.68461 5.06776 8.69261 5.08676 8.69261 5.11276C8.69261 5.15976 8.65361 5.19876 8.60661 5.19876C8.59361 5.19876 8.58561 5.19876 8.57561 5.19476C8.40661 5.12276 8.29961 5.07776 8.10261 5.07776C7.97261 5.07776 7.81161 5.12277 7.62561 5.27277L7.45361 4.93277C7.66861 4.86877 7.84461 4.81177 8.02861 4.81177C8.32361 4.81177 8.47661 4.87276 8.66861 5.05176Z" fill="black"/>
<path d="M2.09822 5.31354L3.75622 6.22754L3.76022 6.59454L1.86622 5.55154C1.72922 5.48154 1.54522 5.44055 1.41422 5.44055C1.21922 5.44055 1.11022 5.48556 0.942219 5.55756C0.931219 5.56156 0.922219 5.56155 0.911219 5.56155C0.864219 5.56155 0.824219 5.52256 0.824219 5.47556C0.824219 5.45056 0.834219 5.43055 0.849219 5.41455C1.04122 5.23455 1.23722 5.17456 1.53022 5.17456C1.68122 5.17456 1.86422 5.19254 2.09822 5.31354Z" fill="black"/>
<path d="M2.25231 8.67661C2.79231 8.67661 3.23031 8.2386 3.23031 7.6976C3.23031 7.1566 2.79231 6.7186 2.25231 6.7186C1.71231 6.7186 1.27431 7.1566 1.27431 7.6976C1.27431 8.2386 1.71231 8.67661 2.25231 8.67661ZM0.841309 7.69861C0.841309 6.91961 1.47331 6.28662 2.25231 6.28662C3.03231 6.28662 3.66431 6.91961 3.66431 7.69861C3.66431 8.47761 3.03231 9.1106 2.25231 9.1106C1.47331 9.1106 0.841309 8.47761 0.841309 7.69861Z" fill="black"/>
<path d="M8.08825 8.67661C8.62825 8.67661 9.06725 8.2386 9.06725 7.6976C9.06725 7.1566 8.62925 6.7186 8.08825 6.7186C7.54725 6.7186 7.11025 7.1566 7.11025 7.6976C7.11025 8.2386 7.54825 8.67661 8.08825 8.67661ZM6.67725 7.69861C6.67725 6.91961 7.30825 6.28662 8.08825 6.28662C8.86725 6.28662 9.49925 6.91961 9.49925 7.69861C9.49925 8.47761 8.86725 9.1106 8.08825 9.1106C7.30825 9.1106 6.67725 8.47761 6.67725 7.69861Z" fill="black"/>
<path d="M7.77753 6.08478L7.09153 4.71378C7.00153 4.54978 6.82653 4.43677 6.62553 4.43677H6.17753C6.09053 4.43677 6.01953 4.50877 6.01953 4.59677C6.01953 4.68477 6.09053 4.75476 6.17753 4.75476L6.62553 4.75278C6.70053 4.75278 6.78453 4.80378 6.81653 4.87778L7.46253 6.19376L7.77753 6.08478Z" fill="black"/>
</svg>
