<svg width="9" height="4" viewBox="0 0 9 4" fill="none" xmlns="http://www.w3.org/2000/svg">
<path d="M2.02162 3.79968C0.923622 3.79968 0.0786133 3.18268 0.0786133 2.03268C0.0786133 0.869684 0.896622 0.200684 2.02162 0.200684C3.14662 0.200684 3.96461 0.869684 3.96461 2.03268C3.96461 3.18268 3.11962 3.79968 2.02162 3.79968ZM2.02162 2.89068C2.41762 2.89068 2.61362 2.55268 2.61362 2.03968C2.61362 1.63668 2.52962 1.10968 2.02162 1.10968C1.51362 1.10968 1.42963 1.63568 1.42963 2.03968C1.42963 2.55268 1.62462 2.89068 2.02162 2.89068Z" fill="black"/>
<path d="M6.84763 1.59768C6.84163 1.44868 6.78862 1.33068 6.70462 1.24668C6.62062 1.15568 6.50363 1.10968 6.35263 1.10968C5.84663 1.10968 5.76263 1.63568 5.76263 2.03968C5.76263 2.55268 5.95763 2.89068 6.35263 2.89068C6.70463 2.89068 6.84064 2.65068 6.87964 2.38368H8.24463C8.12763 3.41668 7.29562 3.79968 6.35162 3.79968C5.25362 3.79968 4.41064 3.18268 4.41064 2.03268C4.41064 0.869684 5.22862 0.200684 6.35162 0.200684C7.26162 0.200684 8.11964 0.59068 8.21664 1.59668L6.84763 1.59768Z" fill="black"/>
</svg>
