<svg width="9" height="8" viewBox="0 0 9 8" fill="none" xmlns="http://www.w3.org/2000/svg">
<path d="M8.27844 7.14297C8.09844 7.14297 7.92443 7.103 7.77243 7.034C7.61243 6.961 7.43442 6.918 7.24942 6.918C7.06442 6.918 6.88442 6.961 6.72842 7.034C6.57242 7.103 6.40043 7.14297 6.22043 7.14297C6.04043 7.14297 5.86643 7.103 5.71243 7.034C5.55443 6.961 5.37644 6.918 5.19144 6.918C5.00344 6.918 4.82643 6.961 4.66843 7.034C4.51443 7.103 4.34043 7.14297 4.16043 7.14297C3.98043 7.14297 3.80642 7.103 3.65442 7.034C3.49442 6.961 3.31644 6.918 3.13144 6.918C2.94644 6.918 2.76643 6.961 2.61043 7.034C2.45643 7.103 2.28243 7.14297 2.10243 7.14297C1.92243 7.14297 1.74844 7.103 1.59444 7.034C1.43644 6.961 1.25843 6.918 1.07343 6.918C0.888425 6.918 0.70843 6.961 0.55043 7.034C0.39643 7.103 0.224434 7.14297 0.0444336 7.14297V6.383C0.224434 6.383 0.39643 6.34198 0.55043 6.27298C0.70843 6.19998 0.888425 6.15698 1.07343 6.15698C1.25843 6.15698 1.43644 6.19998 1.59444 6.27298C1.74844 6.34198 1.92243 6.383 2.10243 6.383C2.28243 6.383 2.45643 6.34198 2.61043 6.27298C2.76643 6.19998 2.94644 6.15698 3.13144 6.15698C3.31644 6.15698 3.49442 6.19998 3.65442 6.27298C3.80642 6.34198 3.98043 6.383 4.16043 6.383C4.34043 6.383 4.51443 6.34198 4.66843 6.27298C4.82643 6.19998 5.00444 6.15698 5.19144 6.15698C5.37744 6.15698 5.55443 6.19998 5.71243 6.27298C5.86643 6.34198 6.04043 6.383 6.22043 6.383C6.40043 6.383 6.57242 6.34198 6.72842 6.27298C6.88442 6.19998 7.06442 6.15698 7.24942 6.15698C7.43442 6.15698 7.61243 6.19998 7.77243 6.27298C7.92443 6.34198 8.09844 6.383 8.27844 6.383V7.14297Z" fill="black"/>
<path d="M4.46485 3.97693L3.72083 2.20493L4.47285 1.88992L4.27982 1.42892L3.77485 1.64093C3.77485 1.64093 3.67384 1.68293 3.52784 1.74493L3.15482 0.856934L2.69384 1.04993L3.06684 1.93893C2.67284 2.10393 2.26183 2.27692 2.26183 2.27692L2.45583 2.73792L3.25984 2.39993L4.00382 4.17093C2.47282 4.81293 0.980832 5.44693 1.07183 5.44693C1.25783 5.44693 1.43484 5.48993 1.59284 5.56293C1.74684 5.63193 1.92084 5.67194 2.10084 5.67194C2.28084 5.67194 2.45483 5.63193 2.60883 5.56293C2.76483 5.48993 2.94483 5.44693 3.12983 5.44693C3.31483 5.44693 3.49284 5.48993 3.65284 5.56293C3.80484 5.63193 3.97882 5.67194 4.15882 5.67194C4.33882 5.67194 4.51285 5.63193 4.66685 5.56293C4.82485 5.48993 5.00283 5.44693 5.18983 5.44693C5.37583 5.44693 5.55282 5.48993 5.71082 5.56293C5.86482 5.63193 6.03885 5.67194 6.21885 5.67194C6.26985 5.67194 6.31883 5.66094 6.36683 5.65494C6.45883 5.63494 6.55083 5.62692 6.63783 5.59192C6.63983 5.59092 6.64184 5.58993 6.64384 5.58893C6.80584 4.67593 7.18284 2.84793 7.18284 2.84793C7.18284 2.84793 5.87285 3.38893 4.46485 3.97693Z" fill="black"/>
</svg>
