<svg width="9" height="8" viewBox="0 0 9 8" fill="none" xmlns="http://www.w3.org/2000/svg">
<path d="M4.49434 1.24164C4.8213 1.24164 5.08634 0.97658 5.08634 0.649628C5.08634 0.322675 4.8213 0.0576172 4.49434 0.0576172C4.16739 0.0576172 3.90234 0.322675 3.90234 0.649628C3.90234 0.97658 4.16739 1.24164 4.49434 1.24164Z" fill="black"/>
<path d="M3.94641 1.48159C4.06241 1.40159 4.20641 1.34658 4.36141 1.35858C4.56441 1.37658 4.73241 1.5016 4.83241 1.6556L5.43141 2.83959L6.24441 3.4006C6.31441 3.4536 6.35641 3.54158 6.34941 3.63458C6.33741 3.78058 6.20841 3.8906 6.06141 3.8786C6.01741 3.8766 5.98241 3.85859 5.93941 3.83959L5.05041 3.2286C5.02341 3.2056 5.00141 3.17959 4.98441 3.14859L4.75941 2.70559L4.49241 3.8876L5.54241 5.12759C5.56541 5.16659 5.58141 5.2096 5.59141 5.2546L5.87441 6.75259C5.87341 6.78559 5.87841 6.80759 5.87641 6.83459C5.85841 7.05559 5.66541 7.21959 5.44441 7.20159C5.26241 7.18759 5.12641 7.05158 5.08341 6.88558L4.81541 5.48159L3.96341 4.5476L3.76441 5.45758C3.75841 5.50058 3.70141 5.59059 3.68441 5.62759L2.86741 7.00659C2.78441 7.13359 2.64841 7.21359 2.49141 7.20159C2.27041 7.18359 2.10541 6.99059 2.12341 6.76959C2.12841 6.70659 2.15441 6.64259 2.17741 6.59759L2.93941 5.32058L3.57241 2.50759L3.15841 2.84359L2.93941 3.84558C2.91041 3.97258 2.79341 4.07758 2.65441 4.06658C2.50841 4.05458 2.39741 3.9276 2.40841 3.7796C2.41041 3.7676 2.41241 3.75659 2.41441 3.74459L2.67641 2.57659C2.69041 2.52359 2.71941 2.4806 2.75841 2.4476L3.94641 1.48159Z" fill="black"/>
<path d="M0.833121 5.69263H0.224121V6.17664H0.833121V5.69263Z" fill="black"/>
<path d="M2.03625 5.69263H1.42725V6.17664H2.03625V5.69263Z" fill="black"/>
<path d="M4.45812 5.69263H3.84912V6.17664H4.45812V5.69263Z" fill="black"/>
<path d="M6.89611 5.69263H6.28711V6.17664H6.89611V5.69263Z" fill="black"/>
<path d="M8.09923 5.69263H7.49023V6.17664H8.09923V5.69263Z" fill="black"/>
<path d="M0.833121 7.4585H0.224121V7.9425H0.833121V7.4585Z" fill="black"/>
<path d="M2.03625 7.4585H1.42725V7.9425H2.03625V7.4585Z" fill="black"/>
<path d="M3.255 7.4585H2.646V7.9425H3.255V7.4585Z" fill="black"/>
<path d="M5.69298 7.4585H5.08398V7.9425H5.69298V7.4585Z" fill="black"/>
<path d="M4.45812 7.4585H3.84912V7.9425H4.45812V7.4585Z" fill="black"/>
<path d="M6.89611 7.4585H6.28711V7.9425H6.89611V7.4585Z" fill="black"/>
<path d="M8.09923 7.4585H7.49023V7.9425H8.09923V7.4585Z" fill="black"/>
</svg>
