<svg width="9" height="8" viewBox="0 0 9 8" fill="none" xmlns="http://www.w3.org/2000/svg">
<path d="M2.63075 1.8118C2.99637 1.8118 3.29276 1.51542 3.29276 1.14981C3.29276 0.784198 2.99637 0.487793 2.63075 0.487793C2.26514 0.487793 1.96875 0.784198 1.96875 1.14981C1.96875 1.51542 2.26514 1.8118 2.63075 1.8118Z" fill="black"/>
<path d="M8.15305 4.92778C8.11805 4.90978 5.41904 3.5388 5.41904 3.5388L4.73305 2.65577L4.72504 2.6458C4.63104 2.5598 4.48705 2.56779 4.40105 2.66179V2.6638C4.34005 2.7338 4.32904 2.8378 4.37604 2.9218L4.88405 3.5778L4.88605 3.58378L4.46405 4.55079L3.34505 4.2718L3.29605 3.87178L4.21605 3.76079C4.25705 3.75879 4.30005 3.74678 4.33905 3.72578C4.49105 3.64578 4.55005 3.45578 4.47005 3.30378C4.40705 3.18678 4.28204 3.1238 4.15904 3.1378L3.22104 3.25078L3.13704 2.5558C3.09204 2.1948 2.76205 1.9348 2.40105 1.9778C2.03905 2.0228 1.77904 2.3528 1.82204 2.7158L2.01704 4.3228C2.04004 4.5278 2.16304 4.70579 2.32504 4.80879L0.853043 4.98478L0.394043 6.12178C0.412043 6.11378 0.431037 6.1118 0.447037 6.1038C0.636037 6.0158 0.847047 5.96879 1.05405 5.96879C1.26105 5.96879 1.47005 6.01579 1.65805 6.10179C1.77705 6.15679 1.90805 6.18379 2.03505 6.18379C2.16305 6.18379 2.29204 6.1568 2.40904 6.1038C2.59804 6.0158 2.80704 5.96879 3.01604 5.96879C3.22304 5.96879 3.43204 6.01579 3.61804 6.10179C3.73904 6.15679 3.87004 6.18379 3.99704 6.18379C4.12604 6.18379 4.25304 6.1568 4.37204 6.1038C4.56104 6.0158 4.77205 5.96879 4.97905 5.96879C5.18605 5.96879 5.39504 6.01579 5.58104 6.10179C5.62604 6.12179 5.67505 6.13479 5.72404 6.14879C6.47604 5.95179 7.80804 5.57079 8.16704 5.24879C8.27304 5.15479 8.29205 4.99678 8.15305 4.92778Z" fill="black"/>
<path d="M0.0717773 7.51199C0.243777 7.51199 0.409786 7.47298 0.555786 7.40698C0.705786 7.33698 0.875787 7.29599 1.05379 7.29599C1.23179 7.29599 1.39979 7.33698 1.55179 7.40698C1.69779 7.47298 1.86278 7.51199 2.03378 7.51199C2.20478 7.51199 2.36878 7.47298 2.51678 7.40698C2.66678 7.33698 2.83679 7.29599 3.01479 7.29599C3.19079 7.29599 3.36079 7.33698 3.51279 7.40698C3.65879 7.47298 3.82378 7.51199 3.99478 7.51199C4.16578 7.51199 4.33079 7.47298 4.47879 7.40698C4.62879 7.33698 4.79879 7.29599 4.97679 7.29599C5.15279 7.29599 5.32278 7.33698 5.47278 7.40698C5.62078 7.47298 5.78579 7.51199 5.95679 7.51199C6.12779 7.51199 6.29278 7.47298 6.43878 7.40698C6.59078 7.33698 6.76078 7.29599 6.93678 7.29599C7.11478 7.29599 7.28478 7.33698 7.43478 7.40698C7.58078 7.47298 7.74778 7.51199 7.91878 7.51199V6.78699C7.74678 6.78699 7.58078 6.74798 7.43478 6.68198C7.28478 6.61198 7.11478 6.573 6.93678 6.573C6.76078 6.573 6.59078 6.61198 6.43878 6.68198C6.29278 6.74798 6.12779 6.78699 5.95679 6.78699C5.78579 6.78699 5.62078 6.74798 5.47278 6.68198C5.32278 6.61198 5.15279 6.573 4.97679 6.573C4.79879 6.573 4.62879 6.61198 4.47879 6.68198C4.33079 6.74798 4.16578 6.78699 3.99478 6.78699C3.82378 6.78699 3.65879 6.74798 3.51279 6.68198C3.36079 6.61198 3.19079 6.573 3.01479 6.573C2.83679 6.573 2.66678 6.61198 2.51678 6.68198C2.36878 6.74798 2.20378 6.78699 2.03378 6.78699C1.86178 6.78699 1.69779 6.74798 1.55179 6.68198C1.39979 6.61198 1.23179 6.573 1.05379 6.573C0.875787 6.573 0.705786 6.61198 0.555786 6.68198C0.409786 6.74798 0.242777 6.78699 0.0717773 6.78699V7.51199Z" fill="black"/>
</svg>
