<svg width="8" height="8" viewBox="0 0 8 8" fill="none" xmlns="http://www.w3.org/2000/svg">
<path d="M4.71789 3.05322L0.587891 1.09021V0.699219L4.85389 2.7442L4.71789 3.05322Z" fill="black"/>
<path d="M3.30664 5.20909H5.11364V6.82207C5.11364 7.08607 5.32764 7.29909 5.59164 7.29909C5.85564 7.29909 6.06964 7.08607 6.06964 6.82207V5.20909C6.21364 5.20909 6.22664 5.11509 6.22664 5.00609V3.80309L4.71664 3.06508H1.50664L1.09264 2.83107C0.959638 2.75507 0.790638 2.80208 0.715638 2.93508C0.640638 3.06808 0.686638 3.23609 0.819638 3.31209L1.47364 3.68709V6.82408C1.47364 7.08808 1.68764 7.30107 1.95164 7.30107C2.21564 7.30107 2.42964 7.08808 2.42964 6.82408L2.42864 5.59508L3.29364 7.05608C3.42864 7.28308 3.72164 7.35709 3.94864 7.22209C4.17464 7.08709 4.24864 6.79209 4.11364 6.56609L3.30664 5.20909Z" fill="black"/>
<path d="M4.86279 2.73624L6.22279 3.38324V3.12924L7.32979 3.12726L7.73579 2.25424L4.86279 0.885254V2.73624Z" fill="black"/>
</svg>
