<svg width="8" height="8" viewBox="0 0 8 8" fill="none" xmlns="http://www.w3.org/2000/svg">
<path d="M1.45221 4.91026C1.89072 4.91026 2.2462 4.55477 2.2462 4.11626C2.2462 3.67774 1.89072 3.32227 1.45221 3.32227C1.0137 3.32227 0.658203 3.67774 0.658203 4.11626C0.658203 4.55477 1.0137 4.91026 1.45221 4.91026Z" fill="black"/>
<path d="M5.90429 6.27509C5.94129 6.25009 5.99029 6.25708 6.01729 6.29308L6.16329 6.49608C6.18829 6.53108 6.18128 6.58209 6.14528 6.60909L5.06728 7.39208C5.03228 7.41708 4.98129 7.41009 4.95429 7.37409L4.80829 7.17109C4.78329 7.13609 4.79028 7.08508 4.82628 7.05808L5.90429 6.27509Z" fill="black"/>
<path d="M4.68521 5.26514L4.2572 4.51514L4.0332 4.67914L4.46021 5.43314L4.68521 5.26514Z" fill="black"/>
<path d="M3.68709 3.51326L2.02408 0.593262L1.70508 0.595261L3.46008 3.67926L3.68709 3.51326Z" fill="black"/>
<path d="M5.25322 5.05815C5.34722 4.99015 5.45423 4.93715 5.57723 4.93715L7.12223 4.93915C7.42323 4.93915 7.66523 5.18316 7.66523 5.48216C7.66523 5.78316 7.42323 6.02516 7.12223 6.02516L5.83323 6.02316L4.18723 7.18515C3.60723 7.60315 3.25522 7.14415 3.25522 7.14415L1.96323 5.85115C1.74623 5.59115 1.79323 5.09716 2.05323 4.87816L3.84122 3.60515C4.01922 3.45715 4.28223 3.48016 4.43323 3.65616C4.58123 3.83416 4.55822 4.09915 4.38022 4.24815L3.23522 5.08615L4.05722 5.89915L5.25322 5.05815Z" fill="black"/>
</svg>
