<svg width="9" height="8" viewBox="0 0 9 8" fill="none" xmlns="http://www.w3.org/2000/svg">
<path d="M4.16837 4.51852C4.02537 4.37752 4.02537 4.14753 4.16837 4.00653C4.30937 3.86353 4.53937 3.86353 4.68037 4.00653L5.40537 4.72952V3.70651C5.40537 3.50751 5.56737 3.34351 5.76837 3.34351C5.96737 3.34351 6.13137 3.50751 6.13137 3.70651V4.72952L6.85437 4.00653C6.99737 3.86353 7.22537 3.86353 7.36837 4.00653C7.51137 4.14753 7.51137 4.37752 7.36837 4.51852L6.64537 5.24152L7.66837 5.24353C7.86737 5.24353 8.02937 5.40551 8.02937 5.60651C8.02937 5.80551 7.86737 5.96951 7.66837 5.96951H6.64537L7.36837 6.6925C7.51137 6.83551 7.51137 7.06351 7.36837 7.20651C7.22537 7.34751 6.99737 7.34751 6.85437 7.20651L6.13337 6.48352L6.13137 7.50452C6.13137 7.70552 5.96737 7.86752 5.76837 7.86752C5.56737 7.86752 5.40537 7.70552 5.40537 7.50452V6.48151L4.68037 7.20651C4.53937 7.34751 4.30937 7.34751 4.16837 7.20651C4.02537 7.06351 4.02537 6.83551 4.16837 6.6925L4.89137 5.96951H3.86837C3.66937 5.96951 3.50537 5.80551 3.50537 5.60651C3.50537 5.40551 3.66937 5.24353 3.86837 5.24353H4.89137L4.16837 4.51852Z" fill="black"/>
<path d="M3.7622 0.858562C3.7622 0.659562 3.6002 0.49757 3.3992 0.49757C3.1982 0.49757 3.0362 0.659562 3.0362 0.858562V2.36055L0.913195 0.239574C0.772195 0.0965742 0.542195 0.0965742 0.401195 0.239574C0.258195 0.380574 0.258195 0.610568 0.401195 0.751568L2.5222 2.87455H1.0202C0.821195 2.87455 0.659195 3.03656 0.659195 3.23756C0.659195 3.43656 0.821195 3.60057 1.0202 3.60057L3.3972 3.59855C3.4912 3.59855 3.58319 3.56357 3.65519 3.49357C3.72519 3.42357 3.7602 3.32956 3.7602 3.23756L3.7622 0.858562Z" fill="black"/>
</svg>
