<svg width="9" height="6" viewBox="0 0 9 6" fill="none" xmlns="http://www.w3.org/2000/svg">
<path d="M7.52924 5.05179L5.48524 3.00479L7.52924 0.957794V5.05179ZM1.14224 5.4408L3.19124 3.39578L3.27924 3.4798C3.76224 3.9408 4.53224 3.9408 4.99424 3.4798L5.08224 3.39178L7.14224 5.4408H1.14224ZM0.775238 0.957794L2.81724 3.00479L0.771238 5.05179L0.775238 0.957794ZM7.13624 0.56781L4.62124 3.08179C4.36424 3.33979 3.90724 3.33381 3.64424 3.07181L1.14524 0.56781H7.13624ZM0.219238 0.00878906C0.219238 0.242789 0.219238 5.75478 0.219238 5.99078C0.457238 5.99078 7.86524 5.99078 8.10424 5.99078C8.10424 5.75478 8.10424 0.242789 8.10424 0.00878906C7.86624 0.00878906 0.457238 0.00878906 0.219238 0.00878906Z" fill="black"/>
</svg>
