<svg width="8" height="6" viewBox="0 0 8 6" fill="none" xmlns="http://www.w3.org/2000/svg">
<path d="M6.57471 2.02304H7.87371V5.08606H0.449707V2.02304H1.77971L1.78171 1.36307C1.78171 1.11507 1.98071 0.914062 2.22871 0.914062H6.12371C6.36971 0.914062 6.57071 1.11507 6.57071 1.36307L6.57471 2.02304ZM6.12471 2.02304V1.29605H2.22871V2.02304H6.12471ZM5.01171 3.61105V2.48807H3.32771V3.61105H5.01171ZM1.92171 4.73004C2.54271 4.73004 3.04871 4.22604 3.04871 3.60504C3.04871 2.98204 2.54271 2.47806 1.92171 2.47806C1.29871 2.47806 0.794707 2.98204 0.794707 3.60504C0.794707 4.22604 1.29871 4.73004 1.92171 4.73004ZM6.41371 4.73004C7.03471 4.73004 7.54071 4.22604 7.54071 3.60504C7.54071 2.98204 7.03471 2.47806 6.41371 2.47806C5.79071 2.47806 5.28671 2.98204 5.28671 3.60504C5.28671 4.22604 5.79071 4.73004 6.41371 4.73004Z" fill="black"/>
</svg>
