<svg width="9" height="8" viewBox="0 0 9 8" fill="none" xmlns="http://www.w3.org/2000/svg">
<path d="M4.39338 6.79672C4.39338 6.53672 4.18338 6.32571 3.92138 6.32571C3.66338 6.32571 3.45138 6.53672 3.45138 6.79672C3.45138 7.05472 3.66338 7.26572 3.92138 7.26572C4.18338 7.26472 4.39338 7.05372 4.39338 6.79672ZM3.92138 7.88171C3.32238 7.88171 2.83838 7.39772 2.83838 6.79572C2.83838 6.19572 3.32238 5.70972 3.92138 5.70972C4.52338 5.70972 5.00838 6.19572 5.00838 6.79572C5.00838 7.39772 4.52338 7.88171 3.92138 7.88171Z" fill="black"/>
<path d="M1.62676 5.77264C1.70476 5.22564 1.92576 4.95067 2.08176 4.91367C2.99376 4.70667 4.58176 4.59764 5.22776 4.55264L3.60376 1.86865H4.09176L5.66976 4.47964L6.68576 2.82166C6.73476 2.74566 6.90676 2.55566 7.25776 2.55566H8.31076V2.97366H7.25776C7.25776 2.97366 7.14076 2.96765 7.04876 3.05365C6.99776 3.10065 6.96276 3.16864 6.87076 3.31964L6.15576 4.52066H8.14976V6.69666H5.42376C5.37476 5.90566 4.72276 5.27466 3.91776 5.27466C3.11276 5.27466 2.46076 5.90564 2.41376 6.69864H1.81376C1.65776 6.69864 1.53076 6.57165 1.53076 6.41565L1.62676 5.77264Z" fill="black"/>
<path d="M0.0136952 0.118652C0.482695 0.118652 1.9807 0.782658 2.5817 1.81766L1.9507 2.33167C1.9507 2.33167 1.2827 1.42566 0.0126953 1.18866L0.0136952 0.118652Z" fill="black"/>
<path d="M1.91357 3.83176C1.91357 4.13476 2.15757 4.38074 2.46057 4.38074C2.76357 4.38074 3.00957 4.13476 3.00957 3.83176C3.00957 3.53076 2.46057 2.27075 2.46057 2.27075C2.46057 2.27075 1.91357 3.53076 1.91357 3.83176Z" fill="black"/>
</svg>
