<svg width="8" height="8" viewBox="0 0 8 8" fill="none" xmlns="http://www.w3.org/2000/svg">
<path d="M0.32666 3.20361L0.91966 3.54559L1.07766 3.6376L0.61566 4.43658C0.57366 4.50858 0.55266 4.58861 0.55266 4.66861C0.55266 4.74661 0.57266 4.8246 0.61466 4.8956C0.61466 4.8956 1.01866 5.5986 1.34766 6.1666C1.37166 6.0866 1.40266 6.0086 1.44466 5.9346L2.34866 4.37161L2.50366 4.46161L3.09766 4.8056L2.17366 3.2056L0.32666 3.20361Z" fill="black"/>
<path d="M2.09307 5.44144C2.01207 5.58044 1.71907 6.08743 1.71907 6.08743C1.66707 6.17343 1.64307 6.26944 1.64307 6.36444C1.64307 6.45944 1.66707 6.55345 1.71707 6.63745C1.81407 6.80745 1.99607 6.91045 2.19307 6.90845C2.19307 6.90845 3.73007 6.90845 4.01707 6.90845C4.01707 6.64645 4.01707 5.70345 4.01707 5.43945C3.74107 5.44145 2.26107 5.44144 2.09307 5.44144Z" fill="black"/>
<path d="M6.94907 0.843597L6.35507 1.18561L6.19807 1.27759L5.73807 0.476593C5.69707 0.404593 5.63707 0.34561 5.56907 0.30661C5.50107 0.26561 5.42307 0.245605 5.34107 0.245605C5.34107 0.245605 4.52907 0.245605 3.87207 0.245605C3.92907 0.306605 3.98107 0.370611 4.02307 0.444611L4.92507 2.0076L4.77007 2.09961L4.17507 2.44159H6.02207L6.94907 0.843597Z" fill="black"/>
<path d="M4.12609 1.25238C4.04609 1.11338 3.75409 0.606384 3.75409 0.606384C3.70409 0.520384 3.63409 0.450398 3.55109 0.401398C3.46909 0.354398 3.37609 0.329393 3.27909 0.327393C3.08409 0.329393 2.90109 0.434384 2.80609 0.606384C2.80609 0.606384 2.03609 1.93637 1.89209 2.18637C2.12109 2.31737 2.93709 2.7884 3.16509 2.9184C3.30209 2.6794 4.04309 1.39638 4.12609 1.25238Z" fill="black"/>
<path d="M5.64273 7.75449V6.88849L6.56373 6.89047C6.64773 6.89047 6.72973 6.86948 6.79773 6.82748C6.86573 6.78848 6.92473 6.73147 6.96473 6.66147C6.96473 6.66147 7.37173 5.95847 7.69773 5.39047C7.61773 5.40847 7.53473 5.42346 7.45073 5.42346L5.64373 5.42148V5.23947L5.64573 4.55347L4.71973 6.15347L5.64273 7.75449Z" fill="black"/>
<path d="M6.69979 5.10757C6.86079 5.10757 7.44579 5.10757 7.44579 5.10757C7.54479 5.10757 7.64179 5.08257 7.72579 5.03357C7.80679 4.98657 7.87479 4.92056 7.92479 4.83456C8.02179 4.66456 8.01979 4.45557 7.92079 4.28757C7.92079 4.28757 7.15279 2.95557 7.00879 2.70557C6.78179 2.83857 5.96379 3.30958 5.73779 3.43958C5.87379 3.67758 6.61579 4.96357 6.69979 5.10757Z" fill="black"/>
</svg>
