<svg width="9" height="8" viewBox="0 0 9 8" fill="none" xmlns="http://www.w3.org/2000/svg">
<path d="M4.58796 0.702148H4.06396V7.29813H4.58796V0.702148Z" fill="black"/>
<path d="M2.1949 1.90918C2.5699 1.90918 2.8389 2.21817 2.8949 2.38617L3.3539 3.89816C3.4459 4.22216 3.0329 4.35717 2.9339 4.04117L2.5209 2.65417H2.2829L2.9749 5.11917H2.3149V7.04318C2.3149 7.37118 1.8219 7.36918 1.8219 7.04318V5.10718H1.5709V7.03915C1.5709 7.37115 1.0759 7.37115 1.0759 7.03915V5.11917H0.413898L1.0999 2.65417H0.871898L0.457898 4.04517C0.359898 4.34817 -0.0571018 4.22517 0.0378982 3.89917L0.497898 2.38718C0.546898 2.21518 0.764898 1.91016 1.1419 1.91016L2.1949 1.90918Z" fill="black"/>
<path d="M1.69616 1.79636C1.99218 1.79636 2.23216 1.55637 2.23216 1.26035C2.23216 0.964321 1.99218 0.724365 1.69616 0.724365C1.40013 0.724365 1.16016 0.964321 1.16016 1.26035C1.16016 1.55637 1.40013 1.79636 1.69616 1.79636Z" fill="black"/>
<path d="M6.90121 1.78632C7.19668 1.78632 7.43621 1.54678 7.43621 1.25131C7.43621 0.95584 7.19668 0.716309 6.90121 0.716309C6.60574 0.716309 6.36621 0.95584 6.36621 1.25131C6.36621 1.54678 6.60574 1.78632 6.90121 1.78632Z" fill="black"/>
<path d="M6.17598 6.98221C6.17598 7.14821 6.30998 7.2832 6.47598 7.2832C6.64198 7.2832 6.77698 7.14821 6.77698 6.98221V4.46219H7.02798V6.98221C7.02798 7.14821 7.16198 7.2832 7.32798 7.2832C7.49398 7.2832 7.62798 7.14821 7.62798 6.98221L7.62998 2.63821H7.87998V4.2402C7.87998 4.5622 8.29998 4.5622 8.29898 4.2402V2.60321C8.29898 2.24821 8.02298 1.90021 7.60698 1.90021L6.18598 1.89819C5.80598 1.89819 5.50098 2.2092 5.50098 2.5932V4.2392C5.50098 4.5572 5.92298 4.5572 5.92298 4.2392V2.63721H6.17698L6.17598 6.98221Z" fill="black"/>
</svg>
