<svg width="8" height="8" viewBox="0 0 8 8" fill="none" xmlns="http://www.w3.org/2000/svg">
<path d="M5.43314 5.61087L5.81813 5.93687L6.49014 5.14587L5.69914 4.47388L5.36914 4.86287L5.43314 5.61087Z" fill="black"/>
<path d="M7.6424 6.11479L6.15239 6.11279L6.15039 7.6328H7.1644L7.6424 7.11679V6.11479Z" fill="black"/>
<path d="M4.94934 7.71288L5.45334 7.56187L5.00034 6.04688L3.92433 6.36687L3.71533 7.27287L4.94934 7.71288Z" fill="black"/>
<path d="M3.91222 1.0697C2.74822 0.385702 2.13621 0.364699 1.07721 0.241699L1.03821 0.440704C2.35221 0.745704 2.68521 1.05371 3.59021 1.60271L3.71521 2.2007L0.730209 7.1187C0.701209 7.1777 0.683213 7.24171 0.681213 7.31171C0.677213 7.55571 0.87022 7.7547 1.11322 7.7587C1.27322 7.7607 1.41422 7.6767 1.49422 7.5517L4.43222 2.74471L5.62721 3.5107L6.24222 2.4967L3.91222 1.0697Z" fill="black"/>
</svg>
