<svg width="9" height="8" viewBox="0 0 9 8" fill="none" xmlns="http://www.w3.org/2000/svg">
<path d="M5.38913 2.12302C5.79119 2.12302 6.11713 1.79708 6.11713 1.39502C6.11713 0.992956 5.79119 0.666992 5.38913 0.666992C4.98707 0.666992 4.66113 0.992956 4.66113 1.39502C4.66113 1.79708 4.98707 2.12302 5.38913 2.12302Z" fill="black"/>
<path d="M8.23308 7.33307C8.06108 7.33307 7.89508 7.29406 7.74908 7.22906C7.59908 7.15906 7.42908 7.11807 7.25108 7.11807C7.07508 7.11807 6.90508 7.15906 6.75508 7.22906C6.60708 7.29307 6.44209 7.33307 6.27109 7.33307C6.10009 7.33307 5.93508 7.29406 5.78908 7.22906C5.63908 7.15906 5.46909 7.11807 5.29109 7.11807C5.11309 7.11807 4.94309 7.15906 4.79309 7.22906C4.64709 7.29307 4.48208 7.33307 4.31108 7.33307C4.14008 7.33307 3.97509 7.29406 3.82709 7.22906C3.67709 7.15906 3.50909 7.11807 3.33109 7.11807C3.15309 7.11807 2.98308 7.15906 2.83308 7.22906C2.68708 7.29307 2.52209 7.33307 2.35109 7.33307C2.18009 7.33307 2.01609 7.29406 1.86809 7.22906C1.71809 7.15906 1.54809 7.11807 1.37209 7.11807C1.19409 7.11807 1.02408 7.15906 0.874084 7.22906C0.728084 7.29307 0.56309 7.33307 0.39209 7.33307V6.60806C0.56409 6.60806 0.728084 6.57106 0.874084 6.50406C1.02408 6.43406 1.19409 6.39307 1.37209 6.39307C1.54809 6.39307 1.71809 6.43406 1.86809 6.50406C2.01609 6.57006 2.18109 6.60806 2.35109 6.60806C2.52309 6.60806 2.68708 6.57106 2.83308 6.50406C2.98308 6.43406 3.15309 6.39307 3.33109 6.39307C3.50909 6.39307 3.67709 6.43406 3.82709 6.50406C3.97509 6.57006 4.14008 6.60806 4.31108 6.60806C4.48208 6.60806 4.64709 6.57106 4.79309 6.50406C4.94309 6.43406 5.11309 6.39307 5.29109 6.39307C5.46909 6.39307 5.63908 6.43406 5.78908 6.50406C5.93508 6.57006 6.10009 6.60806 6.27109 6.60806C6.44209 6.60806 6.60708 6.57106 6.75508 6.50406C6.90508 6.43406 7.07508 6.39307 7.25108 6.39307C7.42908 6.39307 7.59908 6.43406 7.74908 6.50406C7.89508 6.57006 8.06208 6.60806 8.23308 6.60806V7.33307Z" fill="black"/>
<path d="M0.888336 5.89012C1.03434 5.82412 1.19733 5.78612 1.36833 5.78612C1.54433 5.78612 1.71433 5.82711 1.86433 5.89711C2.01233 5.96111 2.17734 6.00112 2.34734 6.00112C2.51934 6.00112 2.68333 5.96211 2.82933 5.89711C2.97933 5.82711 3.14933 5.78612 3.32733 5.78612C3.50533 5.78612 3.67333 5.82711 3.82333 5.89711C3.97133 5.96111 4.13633 6.00112 4.30733 6.00112C4.47833 6.00112 4.64332 5.96211 4.78932 5.89711C4.88532 5.85211 4.98433 5.82312 5.09033 5.80312L6.34433 4.36913H4.73132L5.39932 3.2231L6.86433 4.02413C7.34833 4.29713 7.70633 3.66711 7.21933 3.39311L5.12132 2.23311C4.35032 1.80311 4.02333 2.5161 4.02333 2.5161L2.94133 4.3441L0.090332 4.34212C0.183332 4.86512 0.652336 5.56412 0.888336 5.89012Z" fill="black"/>
<path d="M5.46924 5.80014C5.58024 5.81814 5.68823 5.85113 5.78723 5.89813C5.93323 5.96213 6.09824 6.00214 6.26924 6.00214C6.44024 6.00214 6.60524 5.96313 6.75323 5.89813C6.90323 5.82813 7.07324 5.78714 7.24924 5.78714C7.42724 5.78714 7.59724 5.82813 7.74724 5.89813C7.89324 5.96213 8.06023 6.00214 8.23123 6.00214L8.22723 4.37112L6.71524 4.36914L5.46924 5.80014Z" fill="black"/>
</svg>
