<svg width="10" height="6" viewBox="0 0 10 6" fill="none" xmlns="http://www.w3.org/2000/svg">
<path d="M3.95623 2.32208C4.03223 2.32208 4.09523 2.25907 4.09523 2.18307L4.09723 1.31009C4.09723 1.23409 4.03423 1.17108 3.95823 1.17108H1.95423C1.87823 1.17108 1.81523 1.23409 1.81523 1.31009L1.81323 2.18307C1.81323 2.25907 1.87623 2.32208 1.95223 2.32208H3.95623ZM6.82523 1.16809C6.86023 1.16809 6.88823 1.13906 6.88823 1.10406C6.88823 1.09006 6.88423 1.07908 6.87623 1.06708L6.56023 0.612091C6.54823 0.598091 6.53123 0.589081 6.50923 0.589081H5.81123C5.74823 0.589081 5.69823 0.640087 5.69823 0.702087V1.05609C5.69823 1.11909 5.74923 1.16907 5.81123 1.16907L6.82523 1.16809ZM6.61423 0.312073C6.67823 0.312073 6.73723 0.341078 6.77623 0.386078L7.38023 1.25308C7.39423 1.27408 7.40323 1.29807 7.40323 1.32507C7.40323 1.38907 7.34823 1.44406 7.28223 1.44406L6.24523 1.44208C5.88823 1.44208 5.59923 1.73107 5.59923 2.08807V3.13907H0.862227V0.969086C0.862227 0.969086 0.823227 0.309082 1.50523 0.309082L6.61423 0.312073Z" fill="black"/>
<path d="M8.0533 3.28107L6.7173 3.27908C6.5983 3.27908 6.5023 3.18309 6.5023 3.06409V2.37607C6.5023 2.25707 6.5983 2.16107 6.7153 2.16107H7.44231C7.47931 2.16107 7.5123 2.17909 7.5363 2.20609L8.1493 3.09106C8.1633 3.11106 8.1723 3.13407 8.1723 3.16107C8.1723 3.22807 8.1203 3.28107 8.0533 3.28107ZM9.21531 4.01907V3.56409C9.21531 3.38009 9.0983 3.22408 8.9363 3.16608L8.54131 3.03308L7.7543 1.89609C7.7153 1.84909 7.6563 1.82007 7.5923 1.82007H6.3443C6.1413 1.82007 5.9773 1.98407 5.9773 2.18707L5.9793 3.51907H0.862305V4.48007C0.862305 4.61907 0.975305 4.73209 1.1143 4.73209H1.7903C1.8273 4.17109 2.3903 3.72607 2.9603 3.72607C3.5303 3.72607 4.0933 4.17109 4.1323 4.73209H6.6403C6.6813 4.17509 7.2423 3.73407 7.8123 3.73407C8.3803 3.73407 8.94131 4.17509 8.98231 4.73209H9.2073C9.3483 4.73209 9.4613 4.61907 9.4613 4.48007V4.01907H9.21531Z" fill="black"/>
<path d="M7.80718 5.25403C7.99318 5.25403 8.14318 5.10403 8.14318 4.91803C8.14318 4.73203 7.99318 4.582 7.80718 4.582C7.62118 4.582 7.47218 4.73203 7.47218 4.91803C7.47218 5.10403 7.62218 5.25403 7.80718 5.25403ZM7.03418 4.91803C7.03418 4.49003 7.38118 4.14502 7.80718 4.14502C8.23318 4.14502 8.58118 4.49103 8.58118 4.91803C8.58118 5.34503 8.23318 5.69101 7.80718 5.69101C7.38118 5.69101 7.03418 5.34603 7.03418 4.91803Z" fill="black"/>
<path d="M2.96006 5.24011C3.14606 5.24011 3.29606 5.09011 3.29606 4.90411C3.29606 4.71811 3.14606 4.56812 2.96006 4.56812C2.77406 4.56812 2.62406 4.71811 2.62406 4.90411C2.62406 5.09011 2.77406 5.24011 2.96006 5.24011ZM2.18506 4.90411C2.18506 4.47611 2.53306 4.1311 2.95906 4.1311C3.38506 4.1311 3.73206 4.47711 3.73206 4.90411C3.73206 5.33111 3.38506 5.67709 2.95906 5.67709C2.53306 5.67709 2.18506 5.33211 2.18506 4.90411Z" fill="black"/>
</svg>
