<svg width="9" height="10" viewBox="0 0 9 10" fill="none" xmlns="http://www.w3.org/2000/svg">
<path d="M8.08221 9.2403C7.91121 9.2403 7.74621 9.20125 7.60021 9.13525C7.45021 9.06525 7.28021 9.02429 7.10221 9.02429C6.92521 9.02429 6.75521 9.06525 6.60521 9.13525C6.45821 9.20125 6.29321 9.2403 6.12221 9.2403C5.95121 9.2403 5.78621 9.20125 5.64021 9.13525C5.48921 9.06525 5.32021 9.02429 5.14221 9.02429C4.96521 9.02429 4.79521 9.06525 4.64521 9.13525C4.49821 9.20125 4.33221 9.2403 4.16221 9.2403C3.99021 9.2403 3.82621 9.20125 3.67921 9.13525C3.52921 9.06525 3.35921 9.02429 3.18221 9.02429C3.00421 9.02429 2.83421 9.06525 2.68421 9.13525C2.53821 9.20125 2.37221 9.2403 2.20121 9.2403C2.03021 9.2403 1.86521 9.20125 1.71821 9.13525C1.56821 9.06525 1.39821 9.02429 1.22121 9.02429C1.04421 9.02429 0.874211 9.06525 0.724211 9.13525C0.577211 9.20125 0.412211 9.2403 0.241211 9.2403V8.51526C0.413211 8.51526 0.577211 8.47628 0.724211 8.41028C0.874211 8.34228 1.04421 8.30127 1.22121 8.30127C1.39821 8.30127 1.56821 8.34228 1.71821 8.41028C1.86521 8.47628 2.03121 8.51526 2.20121 8.51526C2.37321 8.51526 2.53821 8.47628 2.68421 8.41028C2.83421 8.34228 3.00421 8.30127 3.18221 8.30127C3.35921 8.30127 3.52921 8.34228 3.67921 8.41028C3.82621 8.47628 3.99121 8.51526 4.16221 8.51526C4.33321 8.51526 4.49821 8.47628 4.64521 8.41028C4.79521 8.34228 4.96521 8.30127 5.14221 8.30127C5.32021 8.30127 5.48921 8.34228 5.64021 8.41028C5.78621 8.47628 5.95221 8.51526 6.12221 8.51526C6.29421 8.51526 6.45821 8.47628 6.60521 8.41028C6.75521 8.34228 6.92521 8.30127 7.10221 8.30127C7.28021 8.30127 7.45021 8.34228 7.60021 8.41028C7.74621 8.47628 7.91221 8.51526 8.08221 8.51526V9.2403Z" fill="black"/>
<path d="M4.93328 0.759277V6.21228H0.467285L4.93328 0.759277Z" fill="black"/>
<path d="M5.35742 2.01733C6.67142 2.62833 8.23242 4.25734 8.02842 6.21234H5.35742V2.01733Z" fill="black"/>
<path d="M7.46246 6.60718H1.52246V7.68518C1.58846 7.70318 1.65546 7.72222 1.71546 7.75122C1.86246 7.81522 2.02846 7.85522 2.19846 7.85522C2.37046 7.85522 2.53546 7.81622 2.68146 7.75122C2.83146 7.68122 3.00146 7.6402 3.17946 7.6402C3.35646 7.6402 3.52646 7.68122 3.67646 7.75122C3.82346 7.81522 3.98846 7.85522 4.15946 7.85522C4.33046 7.85522 4.49546 7.81622 4.64246 7.75122C4.79246 7.68122 4.96246 7.6402 5.13946 7.6402C5.31746 7.6402 5.48646 7.68122 5.63746 7.75122C5.78346 7.81522 5.94946 7.85522 6.11946 7.85522C6.15246 7.85522 6.18246 7.8472 6.21546 7.8432C6.21846 7.8432 6.21946 7.84723 6.22246 7.84723C6.24346 7.84723 6.25946 7.83722 6.28146 7.83722C6.32046 7.83122 6.36046 7.8272 6.39946 7.8172C6.75046 7.7452 6.97646 7.47119 6.97646 7.47119L7.66046 6.6062L7.46246 6.60718Z" fill="black"/>
</svg>
