<svg width="10" height="8" viewBox="0 0 10 8" fill="none" xmlns="http://www.w3.org/2000/svg">
<path d="M5.1115 1.99301C5.2555 1.99301 5.3705 1.87602 5.3705 1.73102V1.30099C5.3705 1.15599 5.2555 1.04102 5.1115 1.04102H3.1615C3.0175 1.04102 2.9025 1.15599 2.9025 1.30099V1.73102C2.9025 1.87602 3.0175 1.99301 3.1615 1.99301H5.1115ZM7.6855 1.991C7.8295 1.991 7.9455 1.874 7.9455 1.729V1.30099C7.9455 1.15599 7.8295 1.04102 7.6855 1.04102H6.7855C6.6425 1.04102 6.5275 1.15599 6.5275 1.30099V1.729C6.5275 1.874 6.6425 1.991 6.7855 1.991H7.6855ZM4.2385 4.04602H2.8645C2.3535 4.04602 1.9395 3.632 1.9395 3.12L1.9375 1.505C1.9375 0.812005 2.4995 0.249023 3.1925 0.249023H7.4615C8.1545 0.249023 8.7165 0.812005 8.7165 1.505L8.7185 3.78601H9.1945C9.3365 3.78601 9.4505 3.90102 9.4505 4.04602H6.4135C6.3805 3.52602 5.8535 3.11401 5.3255 3.11401C4.7985 3.11401 4.2715 3.52602 4.2385 4.04602Z" fill="black"/>
<path d="M5.34665 4.52591C5.51865 4.52591 5.65765 4.38692 5.65765 4.21692C5.65765 4.04492 5.51865 3.90591 5.34665 3.90591C5.17565 3.90591 5.03665 4.04492 5.03665 4.21692C5.03765 4.38792 5.17665 4.52591 5.34665 4.52591ZM9.45465 4.91492L9.45165 7.41891C9.45165 7.60091 9.30365 7.75092 9.11965 7.75092H1.20065C1.01665 7.75092 0.868652 7.60091 0.868652 7.41891L0.869652 4.92093H2.61565V5.34293L1.43465 5.34491C1.37465 5.34491 1.32665 5.38792 1.31665 5.44492V7.1069C1.31665 7.2339 1.41865 7.33392 1.54365 7.33392H5.03065C5.15565 7.33392 5.25265 7.2339 5.25265 7.1069L5.25365 5.46393C5.25365 5.39793 5.19965 5.34491 5.13365 5.34491L3.81765 5.34293V4.91492H5.19665C4.87565 4.84492 4.63365 4.55993 4.63365 4.21793C4.63365 3.82293 4.95365 3.50293 5.34865 3.50293C5.74465 3.50293 6.06365 3.82293 6.06365 4.21793C6.06365 4.55993 5.82365 4.84492 5.50065 4.91492H9.45465Z" fill="black"/>
<path d="M3.06468 4.42993H3.36468V6.04492H3.70968C3.70968 6.04492 3.82068 6.06791 3.78468 6.18991L3.31268 6.76593C3.31268 6.76593 3.28068 6.81491 3.22068 6.81491C3.16168 6.81491 3.12868 6.76593 3.12868 6.76593L2.64568 6.18991C2.60868 6.06891 2.72068 6.04492 2.72068 6.04492H3.06468V4.42993Z" fill="black"/>
</svg>
