<svg width="8" height="10" viewBox="0 0 8 10" fill="none" xmlns="http://www.w3.org/2000/svg">
<path d="M1.55988 5.90833C2.0619 5.90833 2.46887 5.50136 2.46887 4.99933C2.46887 4.4973 2.0619 4.09033 1.55988 4.09033C1.05785 4.09033 0.650879 4.4973 0.650879 4.99933C0.650879 5.50136 1.05785 5.90833 1.55988 5.90833Z" fill="black"/>
<path d="M3.06299 4.72452V5.27451L7.67198 5.61551V4.38452L3.06299 4.72452Z" fill="black"/>
<path d="M2.07568 3.5614L2.54968 3.8374L4.43068 1.26538L3.36668 0.650391L2.07568 3.5614Z" fill="black"/>
<path d="M2.72607 4.01233L2.99907 4.48834L6.41309 2.90634L5.79807 1.84033L2.72607 4.01233Z" fill="black"/>
<path d="M2.07568 6.43738L2.54968 6.16138L4.43068 8.73438L3.36668 9.34937L2.07568 6.43738Z" fill="black"/>
<path d="M2.72607 5.98749L2.99907 5.51147L6.41309 7.09348L5.79807 8.15848L2.72607 5.98749Z" fill="black"/>
</svg>
