<svg width="9" height="8" viewBox="0 0 9 8" fill="none" xmlns="http://www.w3.org/2000/svg">
<path d="M0.254395 0.788086L1.49439 2.05609L1.97039 1.62805L1.53939 0.792053L0.254395 0.788086Z" fill="black"/>
<path d="M5.8435 4.33905C6.0775 4.40305 6.3295 4.27104 6.3965 4.03204C6.4605 3.79804 6.3245 3.55205 6.0885 3.48505L5.9045 3.43408L5.6665 4.28607L5.8435 4.33905Z" fill="black"/>
<path d="M5.69976 3.38013L4.21676 2.9621C4.11876 2.9371 4.02076 2.99514 3.99276 3.09314L3.85376 3.58911C3.82676 3.68711 3.87876 3.7861 3.97876 3.8161L5.46276 4.23011L5.69976 3.38013Z" fill="black"/>
<path d="M5.9337 4.78996C5.8207 4.68296 5.6797 4.59699 5.5157 4.55199L3.7167 4.04796L2.6117 2.08696C2.5527 1.98496 2.4597 1.905 2.3387 1.872C2.0967 1.804 1.8447 1.94597 1.7777 2.18797C1.7447 2.30297 1.7597 2.42001 1.8127 2.52001L3.1957 4.94597C3.1957 4.94597 3.3087 5.128 3.5937 5.22099L6.1077 5.92601L7.2737 7.10997C7.3127 7.15097 7.3637 7.182 7.4237 7.2C7.5997 7.249 7.7827 7.14296 7.8337 6.96996C7.8667 6.84696 7.8277 6.71799 7.7397 6.63799L5.9337 4.78996Z" fill="black"/>
<path d="M7.27674 5.28009L7.53774 5.62207L8.06874 5.04206L7.62074 4.79206C7.66374 4.47806 7.46874 4.17309 7.15574 4.08509C6.81174 3.98909 6.45474 4.18905 6.35874 4.53205C6.26074 4.87805 6.46274 5.23304 6.80574 5.32904C6.96974 5.37604 7.13574 5.35109 7.27674 5.28009Z" fill="black"/>
</svg>
