<svg width="10" height="6" viewBox="0 0 10 6" fill="none" xmlns="http://www.w3.org/2000/svg">
<path d="M9.07026 5.87311C8.89826 5.87311 8.73226 5.8341 8.58626 5.7691C8.43626 5.6991 8.26626 5.65811 8.08826 5.65811C7.91026 5.65811 7.74026 5.6991 7.59026 5.7691C7.44426 5.8331 7.27726 5.87311 7.10626 5.87311C6.93626 5.87311 6.77026 5.8341 6.62426 5.7691C6.47226 5.6991 6.30226 5.65811 6.12626 5.65811C5.94826 5.65811 5.77826 5.6991 5.62826 5.7691C5.48026 5.8331 5.31526 5.87311 5.14426 5.87311C4.97326 5.87311 4.80626 5.8341 4.66026 5.7691C4.51026 5.6991 4.34026 5.65811 4.16226 5.65811C3.98426 5.65811 3.81426 5.6991 3.66426 5.7691C3.51826 5.8331 3.35126 5.87311 3.18026 5.87311C3.00926 5.87311 2.84426 5.8341 2.69826 5.7691C2.54626 5.6991 2.37626 5.65811 2.20026 5.65811C2.02226 5.65811 1.85226 5.6991 1.70226 5.7691C1.55426 5.8331 1.38926 5.87311 1.21826 5.87311V5.1481C1.39026 5.1481 1.55426 5.1091 1.70226 5.0441C1.85226 4.9741 2.02226 4.93311 2.20026 4.93311C2.37626 4.93311 2.54626 4.9741 2.69826 5.0441C2.84426 5.1081 3.00926 5.1481 3.18026 5.1481C3.35126 5.1481 3.51826 5.1091 3.66426 5.0441C3.81426 4.9741 3.98426 4.93311 4.16226 4.93311C4.34026 4.93311 4.51026 4.9741 4.66026 5.0441C4.80626 5.1081 4.97326 5.1481 5.14426 5.1481C5.31526 5.1481 5.48026 5.1091 5.62826 5.0441C5.77826 4.9741 5.94826 4.93311 6.12626 4.93311C6.30226 4.93311 6.47226 4.9741 6.62426 5.0441C6.77026 5.1081 6.93726 5.1481 7.10626 5.1481C7.27826 5.1481 7.44426 5.1091 7.59026 5.0441C7.74026 4.9741 7.91026 4.93311 8.08826 4.93311C8.26626 4.93311 8.43626 4.9741 8.58626 5.0441C8.73226 5.1081 8.89926 5.1481 9.07026 5.1481V5.87311Z" fill="black"/>
<path d="M9.32707 3.83021L7.30907 3.83222L7.01807 3.0532C7.25007 3.0162 7.68807 2.94621 7.94007 2.87321C8.04907 2.84621 8.16107 2.73222 8.19207 2.66822L8.79407 1.75221V2.8982C8.79407 3.0272 8.98507 3.0272 8.98507 2.8982V1.71421H9.06707C9.29707 1.71421 9.29707 1.3682 9.06707 1.3682H8.98607V0.223215C8.98607 0.0942148 8.79507 0.0942148 8.79507 0.223215V1.3682H8.73807C8.53307 1.3482 7.57007 1.24521 7.38407 1.14921C7.19607 1.05121 7.00107 0.940201 6.81807 0.846201C6.65007 0.762201 6.55207 0.768204 6.37107 0.799204C6.26707 0.819204 5.66207 0.932209 5.07407 1.08021C4.34907 1.26421 3.45507 1.68522 3.45507 1.68522L2.43207 1.68922C2.19807 1.62122 2.10607 1.18321 2.00407 0.990213L1.74607 0.470224C1.72607 0.427224 1.68007 0.413203 1.63507 0.411203L0.983066 0.372202C0.885066 0.366202 0.922066 0.448218 0.936066 0.495218L1.38307 2.24922C1.43007 2.44422 1.70107 2.63222 1.89307 2.65122L4.52607 3.05522H4.55907L4.27007 3.83421L2.20007 3.83622C2.14907 3.83622 2.10807 3.86321 2.10807 3.91221C2.10807 3.91221 2.10807 3.98821 2.10807 4.04521C2.10807 4.10021 2.14107 4.13721 2.20007 4.15421C2.37007 4.20521 2.88207 4.34521 3.49107 4.49421C3.51207 4.48621 3.53407 4.48221 3.55507 4.47321C3.74807 4.38321 3.95107 4.3382 4.16007 4.3382C4.36907 4.3382 4.57407 4.3832 4.76407 4.4712C4.88307 4.5262 5.01407 4.5532 5.14307 4.5532C5.27207 4.5532 5.39907 4.52621 5.51807 4.47321C5.70707 4.38521 5.91807 4.3382 6.12507 4.3382C6.33007 4.3382 6.54107 4.3852 6.72707 4.4712C6.84807 4.5262 6.97907 4.5532 7.10607 4.5532C7.23507 4.5532 7.36607 4.52621 7.48107 4.47321C7.67207 4.38521 7.88107 4.3382 8.08807 4.3382C8.28307 4.3382 8.48107 4.38121 8.66007 4.45921C9.16407 4.29321 9.34207 4.1562 9.34207 4.1562C9.38107 4.1252 9.40607 4.09221 9.40607 4.04121V3.90421C9.40507 3.85821 9.37807 3.83021 9.32707 3.83021ZM4.49907 3.83821L4.78807 3.05921H6.79007L7.07907 3.83421L4.49907 3.83821ZM6.07907 1.0612L6.31907 1.77223C5.59007 1.77223 4.60207 1.77223 4.53807 1.77223C4.49907 1.77223 4.45807 1.74921 4.45807 1.68821C4.45807 1.62721 4.45807 1.6272 4.45807 1.5922C4.45807 1.5392 4.47907 1.50821 4.52607 1.48521C4.58107 1.46021 4.90307 1.33122 5.09807 1.28022C5.45007 1.19222 5.82007 1.1122 6.07907 1.0612ZM7.30407 1.45121C7.28107 1.49021 7.15007 1.71522 7.15007 1.71522C7.15007 1.71522 7.12307 1.77223 7.03307 1.77223C6.95107 1.77223 6.78907 1.77223 6.58607 1.77223L6.33007 1.01222C6.35007 1.00822 6.37107 1.00421 6.38507 1.00221C6.54507 0.973207 6.60007 0.973212 6.71907 1.03321C6.71907 1.03321 7.22907 1.2972 7.26407 1.3162C7.30607 1.3382 7.33307 1.40121 7.30407 1.45121Z" fill="black"/>
</svg>
