<svg width="8" height="8" viewBox="0 0 8 8" fill="none" xmlns="http://www.w3.org/2000/svg">
<path d="M6.71664 1.91948V3.76149C6.71664 4.21249 6.58164 4.63049 6.34564 4.98049C6.39264 5.03949 6.43764 5.10948 6.47664 5.19948C6.59164 5.46148 6.53364 5.7545 6.35164 5.9515L5.41064 6.92849C5.39464 6.94949 5.37165 6.96949 5.34465 6.98149C5.26465 7.01649 5.17265 6.97948 5.13965 6.90148C5.12365 6.86648 5.12165 6.8295 5.13165 6.7965L5.32864 5.8005C5.08064 5.8965 4.81065 5.94851 4.52965 5.94851L2.41464 5.94649C2.98064 6.33349 2.98065 7.0855 2.97865 7.0985C2.97465 7.1515 2.96864 7.19051 2.95364 7.23751C2.93264 7.29851 2.89265 7.36448 2.80365 7.33748L1.51764 6.32549C0.927639 5.90349 0.423645 5.20449 0.671645 4.48549C0.843645 3.99549 1.33164 3.7905 1.80864 3.7065L4.48964 3.1675L5.65764 1.06749C5.80064 0.819493 6.17564 0.63949 6.42564 0.65749C6.67764 0.67549 6.85965 0.74348 7.03665 0.89748L7.61464 1.0205C7.67564 1.0245 7.71964 1.07549 7.71664 1.13549L7.65265 1.3695C7.63165 1.4225 7.60764 1.4615 7.55864 1.4945L6.71664 1.91948Z" fill="black"/>
</svg>
