<svg width="9" height="10" viewBox="0 0 9 10" fill="none" xmlns="http://www.w3.org/2000/svg">
<path d="M2.05279 3.08069C2.36483 3.08069 2.61779 2.82773 2.61779 2.51569C2.61779 2.20365 2.36483 1.95068 2.05279 1.95068C1.74075 1.95068 1.48779 2.20365 1.48779 2.51569C1.48779 2.82773 1.74075 3.08069 2.05279 3.08069Z" fill="black"/>
<path d="M1.18265 3.19885C1.20365 3.11085 1.15165 3.0249 1.06565 3.0039L0.594647 2.88885C0.506647 2.87085 0.418648 2.92188 0.399648 3.00988L0.00464743 4.6469C-0.0163526 4.73091 0.0356474 4.8189 0.123647 4.8399L0.594647 4.95287C0.680647 4.97387 0.766648 4.92186 0.787648 4.83386L1.18265 3.19885Z" fill="black"/>
<path d="M0.11884 8.68082C0.11484 8.70782 0.11084 8.73578 0.11084 8.76078C0.11084 8.97978 0.28884 9.15677 0.50684 9.15677C0.68884 9.15677 0.83884 9.03782 0.88784 8.87382L1.57184 6.04978L2.21984 8.8588C2.26284 9.0308 2.42084 9.15781 2.60484 9.15781C2.82584 9.15781 3.00284 8.97982 3.00284 8.76182C3.00284 8.73282 2.99884 8.70282 2.99284 8.67582L2.09984 4.94382L2.17584 4.61777L2.23284 4.87577C2.28784 5.04377 2.44184 5.0618 2.44184 5.0618L3.36184 5.29581C3.37984 5.29981 3.39684 5.29978 3.41684 5.29978C3.56484 5.29978 3.68784 5.17878 3.68784 5.02878C3.68784 4.90178 3.59784 4.79281 3.47884 4.76481L2.68184 4.56577L2.46284 3.67679C2.35884 3.18279 1.88684 3.1948 1.88684 3.1948C1.42584 3.1828 1.31084 3.66581 1.31084 3.66581L0.11884 8.68082Z" fill="black"/>
<path d="M7.65967 8.87274C7.65967 8.68874 7.80567 8.54077 7.99167 8.54077C8.17367 8.54077 8.32367 8.68874 8.32367 8.87274C8.32367 9.05474 8.17367 9.20276 7.99167 9.20276C7.80467 9.20276 7.65967 9.05374 7.65967 8.87274Z" fill="black"/>
<path d="M7.99167 7.98181C7.80467 7.98181 7.65967 7.83379 7.65967 7.65179C7.65967 7.46779 7.80567 7.31982 7.99167 7.31982C8.17367 7.31982 8.32367 7.46779 8.32367 7.65179C8.32367 7.83379 8.17367 7.98181 7.99167 7.98181Z" fill="black"/>
<path d="M7.99069 6.76086C7.80369 6.76086 7.65869 6.61291 7.65869 6.43091C7.65869 6.24491 7.80469 6.09888 7.99069 6.09888C8.17269 6.09888 8.32169 6.24491 8.32169 6.43091C8.32169 6.61291 8.17269 6.76086 7.99069 6.76086Z" fill="black"/>
<path d="M7.99069 5.54089C7.80369 5.54089 7.65869 5.39288 7.65869 5.21088C7.65869 5.02488 7.80469 4.87891 7.99069 4.87891C8.17269 4.87891 8.32169 5.02488 8.32169 5.21088C8.32169 5.39188 8.17269 5.54089 7.99069 5.54089Z" fill="black"/>
<path d="M7.99069 4.3197C7.80369 4.3197 7.65869 4.17168 7.65869 3.98969C7.65869 3.80368 7.80469 3.65771 7.99069 3.65771C8.17269 3.65771 8.32069 3.80368 8.32069 3.98969C8.32069 4.17168 8.17269 4.3197 7.99069 4.3197Z" fill="black"/>
<path d="M7.98971 3.09875C7.80271 3.09875 7.65771 2.95074 7.65771 2.76874C7.65771 2.58074 7.80371 2.43677 7.98971 2.43677C8.17171 2.43677 8.32071 2.58174 8.32071 2.76874C8.32071 2.95074 8.17171 3.09875 7.98971 3.09875Z" fill="black"/>
<path d="M7.65771 1.54785C7.65771 1.35985 7.80371 1.21582 7.98971 1.21582C8.17171 1.21582 8.31971 1.36085 8.31971 1.54785C8.31971 1.72985 8.17171 1.87781 7.98971 1.87781C7.80371 1.87881 7.65771 1.72985 7.65771 1.54785Z" fill="black"/>
<path d="M5.5488 1.21387C5.7338 1.21387 5.8788 1.35991 5.8788 1.54791C5.8788 1.72791 5.7328 1.87787 5.5488 1.87787C5.3648 1.87787 5.2168 1.72791 5.2168 1.54791C5.2168 1.36091 5.3648 1.21387 5.5488 1.21387Z" fill="black"/>
<path d="M6.76852 1.21289C6.95352 1.21289 7.09852 1.36088 7.09852 1.54688C7.09852 1.72688 6.95252 1.87689 6.76852 1.87689C6.58452 1.87689 6.43652 1.72688 6.43652 1.54688C6.43652 1.36088 6.58552 1.21289 6.76852 1.21289Z" fill="black"/>
<path d="M5.54877 9.20081C5.73158 9.20081 5.87977 9.05262 5.87977 8.86981C5.87977 8.68701 5.73158 8.53882 5.54877 8.53882C5.36597 8.53882 5.21777 8.68701 5.21777 8.86981C5.21777 9.05262 5.36597 9.20081 5.54877 9.20081Z" fill="black"/>
<path d="M6.77045 9.20081C6.95326 9.20081 7.10145 9.05262 7.10145 8.86981C7.10145 8.68701 6.95326 8.53882 6.77045 8.53882C6.58765 8.53882 6.43945 8.68701 6.43945 8.86981C6.43945 9.05262 6.58765 9.20081 6.77045 9.20081Z" fill="black"/>
<path d="M4.75464 0.796875V2.30591L3.45264 1.54987L4.75464 0.796875Z" fill="black"/>
<path d="M4.50886 9.13584C4.50886 9.13584 4.50886 6.74085 4.50886 6.49485C4.67486 6.32885 5.78786 5.21586 5.78786 5.21586C5.85086 5.15286 5.88186 5.06985 5.88186 4.98685C5.88186 4.90285 5.85086 4.82085 5.78786 4.75785C5.66086 4.63085 5.45586 4.63085 5.32886 4.75785L3.85986 6.22483V9.13486L4.50886 9.13584Z" fill="black"/>
</svg>
