<svg width="9" height="8" viewBox="0 0 9 8" fill="none" xmlns="http://www.w3.org/2000/svg">
<path d="M1.04423 7.74283H8.06223V7.01382H1.77323V3.85583L8.06223 1.01382V0.256836L0.26123 3.77983V4.53783L1.04423 4.18584V7.74283Z" fill="black"/>
<path d="M4.64022 5.25984H5.74422V6.24585C5.74422 6.40785 5.87522 6.53885 6.03722 6.53885C6.19922 6.53885 6.32822 6.40785 6.32822 6.24585V5.25984C6.41622 5.25984 6.42622 5.20284 6.42622 5.13684V4.40084L5.50222 3.94984H3.53822L3.28622 3.80584C3.20422 3.75984 3.10022 3.78885 3.05622 3.86885C3.00922 3.95085 3.03822 4.05484 3.12022 4.09884L3.51822 4.32785V6.24585C3.51822 6.40785 3.64922 6.53885 3.81122 6.53885C3.97122 6.53885 4.10222 6.40785 4.10222 6.24585V5.49385L4.62922 6.38884C4.71322 6.52784 4.89322 6.57284 5.02922 6.49084C5.16822 6.40684 5.21322 6.22885 5.13122 6.09085L4.64022 5.25984Z" fill="black"/>
<path d="M5.59131 3.74892L6.42331 4.14493V3.98892H7.09931L7.34731 3.45392L5.59131 2.61792V3.74892Z" fill="black"/>
</svg>
