<svg width="8" height="10" viewBox="0 0 8 10" fill="none" xmlns="http://www.w3.org/2000/svg">
<path d="M5.79327 2.34444L5.55327 2.10245L5.32127 2.33844L5.09127 2.10645L4.86127 2.33844L4.63227 2.10645L4.33127 2.40944L3.94827 2.41344C3.78427 2.70444 3.47327 2.90344 3.11627 2.90344C2.58527 2.90344 2.15527 2.47344 2.15527 1.94244C2.15527 1.41144 2.58527 0.981445 3.11627 0.981445C3.47027 0.981445 3.77427 1.17644 3.94227 1.46144L5.87627 1.46544L6.20027 1.79344C6.25127 1.84444 6.24727 1.88745 6.20227 1.93445L5.80027 2.34244M2.69527 2.18645C2.83827 2.18645 2.95327 2.06944 2.95327 1.92644C2.95327 1.78544 2.83827 1.66844 2.69527 1.66844C2.55227 1.66844 2.43727 1.78544 2.43727 1.92644C2.43827 2.06844 2.55327 2.18645 2.69527 2.18645Z" fill="black"/>
<path d="M7.64318 3.44067V9.01868H0.680176V3.44067H7.64318ZM1.26518 4.02567V8.43367H7.05718V4.02567H1.26518Z" fill="black"/>
<path d="M2.85619 7.56049H2.58619C2.40019 7.56049 2.22119 7.42249 2.22119 7.18449C2.22119 7.18449 2.22119 5.48249 2.22119 5.47849C2.22119 5.26549 2.39719 5.10449 2.58619 5.10449H2.85719L2.85619 7.56049Z" fill="black"/>
<path d="M5.46729 7.56049H5.73829C5.92329 7.56049 6.10329 7.42249 6.10329 7.18449C6.10329 7.18449 6.10329 5.48249 6.10329 5.47849C6.10329 5.26549 5.92729 5.10449 5.73829 5.10449H5.46729V7.56049Z" fill="black"/>
<path d="M4.67027 5.10847V4.76447C4.67027 4.63547 4.55627 4.55347 4.42027 4.55347H3.89727C3.76127 4.55347 3.64727 4.63547 3.64727 4.76447V5.10847H3.15527V7.56348H5.16427V5.10847H4.67027ZM4.48227 5.10847H3.82527V4.75447H4.48227V5.10847Z" fill="black"/>
</svg>
