<svg width="9" height="10" viewBox="0 0 9 10" fill="none" xmlns="http://www.w3.org/2000/svg">
<path d="M6.65465 2.26193C7.01971 2.26193 7.31565 1.96598 7.31565 1.60092C7.31565 1.23586 7.01971 0.939941 6.65465 0.939941C6.28959 0.939941 5.99365 1.23586 5.99365 1.60092C5.99365 1.96598 6.28959 2.26193 6.65465 2.26193Z" fill="black"/>
<path d="M4.83864 3.84808H3.84264C3.44764 3.84808 3.44764 4.36807 3.84264 4.36807L4.98164 4.36609C5.06564 4.36609 5.15364 4.32109 5.21964 4.21609L5.79164 3.31409L5.78964 8.67709C5.78964 8.88209 5.95564 9.0481 6.16064 9.0481C6.36564 9.0481 6.53164 8.88209 6.53164 8.67709V5.56607H6.78164L6.77964 8.67709C6.77964 8.88209 6.94564 9.0481 7.15064 9.0481C7.35564 9.0481 7.52164 8.88209 7.52164 8.67709V3.31409H7.76764V5.29108C7.76764 5.68908 8.28764 5.68908 8.28564 5.29108V3.27307C8.28564 2.83407 7.94564 2.4021 7.43064 2.4021H6.20964C5.91264 2.4021 5.65464 2.55408 5.50264 2.78708L4.83864 3.84808Z" fill="black"/>
<path d="M0.865489 7.16815C1.46149 7.16815 1.94349 7.65016 1.94349 8.24615L1.93349 8.97815H3.20349L4.35149 5.73816L4.35749 4.64014L0.502488 4.64215L0.500488 7.16513L0.865489 7.16815Z" fill="black"/>
<path d="M0.0375977 8.24612C0.0375977 7.79712 0.402597 7.43213 0.851597 7.43213C1.3006 7.43213 1.6656 7.79712 1.6656 8.24612C1.6656 8.69512 1.3006 9.06012 0.851597 9.06012C0.402597 9.06012 0.0375977 8.69512 0.0375977 8.24612ZM0.852598 8.60013C1.0476 8.60013 1.2066 8.44212 1.2066 8.24612C1.2066 8.05012 1.0486 7.89212 0.852598 7.89212C0.656598 7.89212 0.498598 8.05012 0.498598 8.24612C0.498598 8.44212 0.656598 8.60013 0.852598 8.60013Z" fill="black"/>
<path d="M3.64773 2.98206L3.49573 3.05606L3.42373 2.90607L3.27373 2.97806L3.20173 2.82806L3.05173 2.90005L2.97773 2.75006H2.97973L2.82773 2.82407L2.75573 2.67206V2.67404L2.60573 2.74606L2.53373 2.59204L2.07673 3.89505C2.03973 4.00005 2.09673 4.11805 2.20173 4.15305L2.93973 4.40906C3.04473 4.44606 3.16073 4.38906 3.19773 4.28406L3.64773 2.98206Z" fill="black"/>
<path d="M3.00032 1.66653L2.78711 1.48657L0.281278 4.4555L0.49449 4.63545L3.00032 1.66653Z" fill="black"/>
</svg>
