<svg width="9" height="8" viewBox="0 0 9 8" fill="none" xmlns="http://www.w3.org/2000/svg">
<path d="M2.57444 2.21286C2.82131 2.21286 3.02144 2.01271 3.02144 1.76584C3.02144 1.51897 2.82131 1.31885 2.57444 1.31885C2.32757 1.31885 2.12744 1.51897 2.12744 1.76584C2.12744 2.01271 2.32757 2.21286 2.57444 2.21286Z" fill="black"/>
<path d="M8.28662 0.631561V0.352539L0.0366211 3.47354V3.75256L8.28662 0.631561Z" fill="black"/>
<path d="M3.65552 1.73657C3.90294 1.73657 4.10352 1.536 4.10352 1.28857C4.10352 1.04115 3.90294 0.840576 3.65552 0.840576C3.4081 0.840576 3.20752 1.04115 3.20752 1.28857C3.20752 1.536 3.4081 1.73657 3.65552 1.73657Z" fill="black"/>
<path d="M6.43556 4.0636H4.43556V2.44263L4.15656 2.55362V4.0636H2.13856C1.98056 4.0636 1.85156 4.19262 1.85156 4.35062V7.36063C1.85156 7.51863 1.98056 7.64761 2.13856 7.64761H6.43556C6.59356 7.64761 6.72256 7.51863 6.72256 7.36063V4.35062C6.72256 4.19262 6.59356 4.0636 6.43556 4.0636ZM3.38456 5.6976C3.38456 5.7836 3.31656 5.85361 3.23056 5.85361H2.28456C2.19856 5.85361 2.12856 5.7836 2.12856 5.6976V4.75461C2.12856 4.66861 2.19856 4.5986 2.28456 4.5986H3.22956C3.31556 4.5986 3.38356 4.66861 3.38356 4.75461V5.6976H3.38456ZM4.92156 5.68661C4.92156 5.77261 4.85156 5.84061 4.76556 5.84061H3.82156C3.73556 5.84061 3.66556 5.77261 3.66556 5.68661V4.74161C3.66556 4.65561 3.73556 4.58762 3.82156 4.58762H4.76456C4.85056 4.58762 4.92056 4.65561 4.92056 4.74161V5.68661H4.92156ZM6.44656 5.68661C6.44656 5.77261 6.37856 5.84061 6.29256 5.84061H5.34756C5.26156 5.84061 5.19156 5.77261 5.19156 5.68661V4.74161C5.19156 4.65561 5.26156 4.58762 5.34756 4.58762H6.29256C6.37856 4.58762 6.44656 4.65561 6.44656 4.74161V5.68661Z" fill="black"/>
<path d="M4.72683 1.33649C4.97481 1.33649 5.17583 1.13546 5.17583 0.887482C5.17583 0.639506 4.97481 0.438477 4.72683 0.438477C4.47886 0.438477 4.27783 0.639506 4.27783 0.887482C4.27783 1.13546 4.47886 1.33649 4.72683 1.33649Z" fill="black"/>
</svg>
