<svg width="8" height="8" viewBox="0 0 8 8" fill="none" xmlns="http://www.w3.org/2000/svg">
<path d="M4.13092 2.46008C4.7307 2.46008 5.21692 1.97387 5.21692 1.37408C5.21692 0.774303 4.7307 0.288086 4.13092 0.288086C3.53114 0.288086 3.04492 0.774303 3.04492 1.37408C3.04492 1.97387 3.53114 2.46008 4.13092 2.46008Z" fill="black"/>
<path d="M5.18475 2.72412C5.68075 2.74212 5.88975 3.13911 5.88975 3.13911L7.49275 5.33612C7.55875 5.43512 7.59775 5.55311 7.59775 5.68211C7.59775 6.02411 7.32075 6.30112 6.97875 6.30112C6.89675 6.30112 6.82175 6.28312 6.75075 6.25612L5.78375 5.98712V6.95212H2.42775V5.98712L1.46075 6.25612C1.39275 6.28312 1.31475 6.30112 1.23275 6.30112C0.890746 6.30112 0.614746 6.02411 0.614746 5.68211C0.614746 5.55311 0.652746 5.43512 0.721746 5.33612L2.32275 3.13911C2.32275 3.13911 2.53275 2.74212 3.02675 2.72412H5.18475ZM4.10675 6.27812L5.35875 5.86311L5.33175 5.85712C4.46775 5.60312 4.80275 4.46112 5.66675 4.71512L5.78475 4.75612V3.46712L4.10675 4.01512L2.42775 3.46712V4.75612L2.54575 4.71512C3.40975 4.46012 3.74675 5.60312 2.88175 5.85712L2.85375 5.86311L4.10675 6.27812Z" fill="black"/>
<path d="M7.55495 7.71207C7.64095 7.71207 7.70895 7.64406 7.70895 7.55806C7.70895 7.47206 7.64095 7.40405 7.55495 7.40405H0.780953C0.696953 7.40405 0.626953 7.47206 0.626953 7.55806C0.626953 7.64406 0.696953 7.71207 0.780953 7.71207H7.55495Z" fill="black"/>
</svg>
