<svg width="9" height="8" viewBox="0 0 9 8" fill="none" xmlns="http://www.w3.org/2000/svg">
<path d="M5.54443 2.45483L4.30029 1.30884L5.0791 0.466797L7.73145 2.91382C7.16748 3.54272 6.6333 3.96289 5.78613 4.04688L5.54443 2.45483Z" fill="black"/>
<path d="M5.87646 6.44409C5.88428 6.5769 5.91748 6.71191 5.97656 6.84009C6.23633 7.40601 6.9043 7.65601 7.4707 7.39697C7.72998 7.27808 7.92285 7.07324 8.03076 6.83154C8.15771 6.54614 8.1665 6.20947 8.02734 5.90308C7.86523 5.54907 7.54346 5.31909 7.18555 5.26001L7.00146 6.37109L5.87646 6.44409Z" fill="black"/>
<path d="M6.01514 5.18994L6.74902 6.18994L5.51709 6.04688C5.55811 5.69189 5.74707 5.38696 6.01514 5.18994Z" fill="black"/>
<path d="M3.55225 3.12671L3.73633 2.40186L4.28955 1.7998L5.12939 2.57471L1.54932 6.44189C1.43994 6.55884 1.34082 6.68506 1.25342 6.81934C1.11133 7.0376 1 7.27759 0.92627 7.53369L0.194336 7.30371C0.342285 6.79785 0.604492 6.34082 0.952148 5.95776L3.55225 3.12671Z" fill="black"/>
<path d="M5.29834 7.44385C5.29834 7.04688 5.10986 6.69189 4.81934 6.46484L4.05811 7.44385H5.29834Z" fill="black"/>
</svg>
