<svg width="8" height="8" viewBox="0 0 8 8" fill="none" xmlns="http://www.w3.org/2000/svg">
<path d="M0.864102 3.49484C0.794102 3.03784 1.4501 2.89884 1.5551 3.36584L1.7351 4.25883L2.4031 4.26083C2.5981 4.26083 2.7001 4.41484 2.7001 4.56184V5.77484C2.7001 6.06984 2.2801 6.06784 2.2801 5.76884C2.2801 5.49184 2.2801 4.82583 2.2801 4.82583H1.4261C1.2271 4.82583 1.1021 4.68883 1.0711 4.53283L0.864102 3.49484Z" fill="black"/>
<path d="M7.8071 0.303711H0.579102V0.7397L7.8051 3.14371L7.8071 0.303711Z" fill="black"/>
<path d="M1.1772 3.00383C1.3948 3.00383 1.5712 2.82743 1.5712 2.60983C1.5712 2.39223 1.3948 2.21582 1.1772 2.21582C0.959603 2.21582 0.783203 2.39223 0.783203 2.60983C0.783203 2.82743 0.959603 3.00383 1.1772 3.00383Z" fill="black"/>
<path d="M0.424954 3.96769C0.377954 3.71369 0.709954 3.6537 0.756954 3.9067L0.902954 4.70169C0.935954 4.86769 1.05695 5.00869 1.23095 5.06069C1.28395 5.07669 1.33795 5.0787 1.39095 5.0817L1.87295 5.0837C2.12895 5.0817 2.12895 5.4197 1.87095 5.4197L1.36295 5.4177C1.28495 5.4177 1.20695 5.40569 1.12895 5.38269C0.829954 5.29269 0.620954 5.04669 0.565954 4.75969L0.424954 3.96769Z" fill="black"/>
<path d="M3.46615 4.34481C3.39615 3.88981 4.05215 3.7508 4.15915 4.2178L4.33715 5.11081H5.00515C5.20015 5.11081 5.30215 5.2668 5.30215 5.4118V6.62481C5.30215 6.91981 4.88215 6.9198 4.88215 6.6208C4.88215 6.3438 4.88215 5.67581 4.88215 5.67581H4.02815C3.83115 5.67581 3.70615 5.53881 3.67415 5.38281L3.46615 4.34481Z" fill="black"/>
<path d="M3.77974 3.85271C3.99734 3.85271 4.17374 3.67631 4.17374 3.45871C4.17374 3.24111 3.99734 3.0647 3.77974 3.0647C3.56214 3.0647 3.38574 3.24111 3.38574 3.45871C3.38574 3.67631 3.56214 3.85271 3.77974 3.85271Z" fill="black"/>
<path d="M3.026 4.81961C2.979 4.56561 3.313 4.5056 3.358 4.7566L3.506 5.55362C3.539 5.71762 3.66 5.86061 3.832 5.91061C3.887 5.92661 3.941 5.92861 3.994 5.93161L4.476 5.9356C4.732 5.9336 4.73 6.2716 4.472 6.2696L3.964 6.26761C3.888 6.26761 3.81 6.25762 3.732 6.23462C3.431 6.14462 3.222 5.89662 3.168 5.60962L3.026 4.81961Z" fill="black"/>
<path d="M6.06897 5.19664C5.99697 4.73964 6.65497 4.60264 6.75997 5.06764L6.93997 5.96065L7.60797 5.96264C7.80097 5.96264 7.90297 6.11864 7.90297 6.26364V7.47664C7.90297 7.77164 7.48297 7.76964 7.48297 7.47064C7.48297 7.19364 7.48297 6.52765 7.48297 6.52765H6.63197C6.43297 6.52765 6.30797 6.39065 6.27697 6.23465L6.06897 5.19664Z" fill="black"/>
<path d="M6.38179 4.70474C6.59939 4.70474 6.77579 4.52835 6.77579 4.31075C6.77579 4.09315 6.59939 3.91675 6.38179 3.91675C6.16419 3.91675 5.98779 4.09315 5.98779 4.31075C5.98779 4.52835 6.16419 4.70474 6.38179 4.70474Z" fill="black"/>
<path d="M5.6282 5.66862C5.5832 5.41462 5.91521 5.35462 5.96221 5.60762L6.10821 6.40263C6.14121 6.56863 6.26221 6.71163 6.43621 6.76163C6.48921 6.77763 6.54321 6.77962 6.59621 6.78262L7.07821 6.78462C7.33421 6.78262 7.33221 7.12062 7.07421 7.12062L6.56821 7.11662C6.49021 7.11662 6.41221 7.10663 6.33421 7.08363C6.03521 6.99563 5.82621 6.74763 5.77121 6.46063L5.6282 5.66862Z" fill="black"/>
</svg>
