<svg width="6" height="8" viewBox="0 0 6 8" fill="none" xmlns="http://www.w3.org/2000/svg">
<path d="M5.65925 0.380859C5.79825 0.380859 5.90925 0.49186 5.90925 0.62886V1.47986H0.427246V0.630859C0.427246 0.493859 0.538246 0.382858 0.675246 0.382858L5.65925 0.380859ZM2.04025 1.20786C2.19025 1.20786 2.31225 1.08286 2.31225 0.932861C2.31225 0.782861 2.19025 0.659866 2.04025 0.659866C1.89025 0.659866 1.76825 0.782861 1.76825 0.932861C1.76825 1.08286 1.89025 1.20786 2.04025 1.20786ZM1.23825 1.20786C1.39025 1.20786 1.51025 1.08286 1.51025 0.932861C1.51025 0.782861 1.39025 0.659866 1.23825 0.659866C1.08825 0.659866 0.966246 0.782861 0.966246 0.932861C0.966246 1.08286 1.08725 1.20786 1.23825 1.20786Z" fill="black"/>
<path d="M0.413574 7.617V2.11299C0.413574 1.97599 0.524574 1.86499 0.661574 1.86499H5.64757C5.78457 1.86499 5.89557 1.97599 5.89557 2.11299V7.619L0.413574 7.617ZM3.12657 6.36499C4.10257 6.36499 4.89257 5.574 4.89257 4.599C4.89257 3.624 4.10257 2.83299 3.12657 2.83299C2.15057 2.83299 1.36057 3.624 1.36057 4.599C1.36157 5.575 2.15157 6.36499 3.12657 6.36499Z" fill="black"/>
<path d="M4.55751 4.14697C4.59351 4.27597 4.61351 4.41096 4.61351 4.55296C4.61351 5.37096 3.94751 6.03497 3.12951 6.03497C2.30951 6.03497 1.64551 5.37096 1.64551 4.55296C1.64551 4.39996 1.66851 4.25397 1.70951 4.11597V4.11797C1.80451 4.22097 1.93851 4.28497 2.09151 4.28497C2.22351 4.28497 2.34151 4.23796 2.43351 4.15596H2.43051C2.52351 4.23796 2.64351 4.28497 2.77451 4.28497C2.91051 4.28497 3.03451 4.23297 3.12751 4.14497V4.14697C3.21951 4.23297 3.34251 4.28497 3.48051 4.28497C3.62051 4.28497 3.74951 4.22896 3.84051 4.13896V4.14096C3.93351 4.23096 4.06051 4.28497 4.19951 4.28497C4.33651 4.28497 4.46351 4.23096 4.55551 4.14296L4.55751 4.14697Z" fill="black"/>
</svg>
