<svg width="7" height="8" viewBox="0 0 7 8" fill="none" xmlns="http://www.w3.org/2000/svg">
<path d="M4.83474 1.97638L4.11174 1.41338V0.255371C3.81674 0.403371 3.30874 0.890366 3.44174 1.56937C3.45574 1.77037 3.61174 2.28637 3.54574 2.56737C3.45574 2.94237 3.42274 2.95038 2.88374 3.62238L0.180738 6.91937C-0.00126241 7.12437 0.0187378 7.43938 0.223738 7.62038C0.428738 7.80138 0.741738 7.78238 0.922738 7.57738L4.30574 3.42137C4.51874 3.15537 4.91074 2.92138 5.25074 2.82938C5.83474 2.65138 6.26674 2.11037 6.26674 1.46837C6.26674 0.950369 5.96774 0.460371 5.57574 0.255371L5.57374 1.39638L4.83474 1.97638Z" fill="black"/>
</svg>
