<svg width="9" height="6" viewBox="0 0 9 6" fill="none" xmlns="http://www.w3.org/2000/svg">
<path d="M8.08365 5.61359C7.91365 5.61359 7.74765 5.57458 7.60165 5.50958C7.45165 5.43958 7.28165 5.39658 7.10365 5.39658C6.92765 5.39658 6.75765 5.43958 6.60765 5.50958C6.45965 5.57358 6.29465 5.61359 6.12365 5.61359C5.95265 5.61359 5.78765 5.57458 5.64165 5.50958C5.49165 5.43958 5.32165 5.39658 5.14365 5.39658C4.96765 5.39658 4.79765 5.43958 4.64765 5.50958C4.49965 5.57358 4.33465 5.61359 4.16365 5.61359C3.99265 5.61359 3.82765 5.57458 3.68165 5.50958C3.53165 5.43958 3.36165 5.39658 3.18365 5.39658C3.00565 5.39658 2.83565 5.43958 2.68565 5.50958C2.53965 5.57358 2.37465 5.61359 2.20365 5.61359C2.03265 5.61359 1.86765 5.57458 1.72165 5.50958C1.56965 5.43958 1.39965 5.39658 1.22365 5.39658C1.04565 5.39658 0.875653 5.43958 0.725653 5.50958C0.579653 5.57358 0.414652 5.61359 0.243652 5.61359V4.88858C0.415652 4.88858 0.579653 4.85158 0.725653 4.78458C0.875653 4.71458 1.04565 4.67358 1.22365 4.67358C1.39965 4.67358 1.56965 4.71458 1.72165 4.78458C1.86765 4.85058 2.03265 4.88858 2.20365 4.88858C2.37465 4.88858 2.53965 4.85158 2.68565 4.78458C2.83565 4.71458 3.00565 4.67358 3.18365 4.67358C3.36165 4.67358 3.53165 4.71458 3.68165 4.78458C3.82765 4.85058 3.99265 4.88858 4.16365 4.88858C4.33465 4.88858 4.49965 4.85158 4.64765 4.78458C4.79765 4.71458 4.96765 4.67358 5.14365 4.67358C5.32165 4.67358 5.49165 4.71458 5.64165 4.78458C5.78765 4.85058 5.95265 4.88858 6.12365 4.88858C6.29465 4.88858 6.45965 4.85158 6.60765 4.78458C6.75765 4.71458 6.92765 4.67358 7.10365 4.67358C7.28165 4.67358 7.45165 4.71458 7.60165 4.78458C7.74765 4.85058 7.91465 4.88858 8.08365 4.88858V5.61359Z" fill="black"/>
<path d="M7.12626 2.83774C7.20826 2.79874 7.26526 2.71671 7.26526 2.61871V2.37674H7.51126V1.58572C7.51126 1.41372 7.39426 1.26972 7.23626 1.22672L6.95526 0.554718C6.91426 0.454718 6.81626 0.386719 6.70326 0.386719H5.25826C5.14526 0.386719 5.04726 0.454718 5.00626 0.554718L4.72526 1.22672C4.56726 1.26972 4.45026 1.41472 4.45026 1.58572V2.37674H4.69626V2.61871C4.69626 2.71671 4.75326 2.79874 4.83526 2.83774H3.50526C3.58726 2.79874 3.64626 2.71671 3.64626 2.61871L3.64426 2.37674H3.89026V1.58572C3.89026 1.41372 3.77326 1.26972 3.61526 1.22672L3.33426 0.554718C3.29326 0.454718 3.19526 0.386719 3.08226 0.386719H1.63426C1.52126 0.386719 1.42326 0.454718 1.38226 0.554718L1.10026 1.22574C0.942258 1.26874 0.825258 1.41372 0.825258 1.58472V2.37573H1.07126V2.61774C1.07126 2.71574 1.12826 2.79773 1.21026 2.83673H0.239258V3.45071H0.903258L1.44426 4.08173C1.54026 4.10173 1.63226 4.13272 1.71726 4.17172C1.86326 4.23772 2.02826 4.27573 2.19926 4.27573C2.37026 4.27573 2.53526 4.23872 2.68126 4.17172C2.83126 4.10172 3.00126 4.06073 3.17926 4.06073C3.35726 4.06073 3.52726 4.10172 3.67726 4.17172C3.82326 4.23772 3.98826 4.27573 4.15926 4.27573C4.33026 4.27573 4.49526 4.23872 4.64326 4.17172C4.79326 4.10172 4.96326 4.06073 5.13926 4.06073C5.31726 4.06073 5.48726 4.10172 5.63726 4.17172C5.78326 4.23772 5.94826 4.27573 6.11926 4.27573C6.29026 4.27573 6.45526 4.23872 6.60326 4.17172C6.70726 4.12272 6.82026 4.08972 6.93926 4.07172L7.46626 3.44272H8.08126V2.83673H7.12626V2.83774ZM1.41326 2.83774C1.49526 2.79874 1.55426 2.71671 1.55426 2.61871L1.55226 2.37674H3.16126V2.61871C3.16126 2.71671 3.21826 2.79874 3.30026 2.83774H1.41326ZM5.03626 2.83774C5.11826 2.79874 5.17526 2.71671 5.17526 2.61871V2.37674H6.78426V2.61871C6.78426 2.71671 6.84126 2.79874 6.92326 2.83774H5.03626ZM1.11126 1.72672C1.11126 1.59172 1.22126 1.48373 1.35526 1.48373C1.48926 1.48373 1.59926 1.59172 1.59926 1.72672C1.59926 1.86172 1.48926 1.96973 1.35526 1.96973C1.22126 1.96973 1.11126 1.86172 1.11126 1.72672ZM3.35726 1.97073C3.22226 1.97073 3.11326 1.86272 3.11326 1.72772C3.11326 1.59272 3.22226 1.48474 3.35726 1.48474C3.49126 1.48474 3.60326 1.59272 3.60326 1.72772C3.60326 1.86272 3.49126 1.97073 3.35726 1.97073ZM1.34326 1.21274L1.58526 0.632721C1.59526 0.603721 1.62226 0.581726 1.65526 0.581726H3.05726C3.09026 0.581726 3.11826 0.602721 3.12926 0.632721L3.37126 1.21274H1.34326ZM4.73426 1.72672C4.73426 1.59172 4.84426 1.48373 4.97826 1.48373C5.11226 1.48373 5.22226 1.59172 5.22226 1.72672C5.22226 1.86172 5.11226 1.96973 4.97826 1.96973C4.84426 1.96973 4.73426 1.86172 4.73426 1.72672ZM6.98026 1.97073C6.84626 1.97073 6.73626 1.86272 6.73626 1.72772C6.73626 1.59272 6.84626 1.48474 6.98026 1.48474C7.11426 1.48474 7.22426 1.59272 7.22426 1.72772C7.22426 1.86272 7.11426 1.97073 6.98026 1.97073ZM4.96626 1.21274L5.20826 0.632721C5.21826 0.603721 5.24526 0.581726 5.27826 0.581726H6.68026C6.71326 0.581726 6.74126 0.602721 6.75026 0.632721L6.99226 1.21274H4.96626Z" fill="black"/>
</svg>
