<svg width="9" height="10" viewBox="0 0 9 10" fill="none" xmlns="http://www.w3.org/2000/svg">
<path d="M4.60016 5.45105C5.14251 5.45105 5.58216 5.0114 5.58216 4.46906C5.58216 3.92671 5.14251 3.48706 4.60016 3.48706C4.05782 3.48706 3.61816 3.92671 3.61816 4.46906C3.61816 5.0114 4.05782 5.45105 4.60016 5.45105Z" fill="black"/>
<path d="M3.67425 7.84016C3.67425 7.94516 3.75925 8.08418 3.86525 8.08418L3.86625 8.08216H4.31825L4.31925 8.08418C4.42525 8.08418 4.56325 7.94717 4.56325 7.84217V7.00617C4.56325 6.90117 4.42525 6.76612 4.31925 6.76612H3.86625C3.76625 6.76612 3.68525 6.89314 3.67525 6.98914C4.32825 6.98914 4.32425 7.84016 3.67425 7.84016ZM3.26225 5.76612C3.36725 5.66412 3.51025 5.60413 3.66625 5.60413H5.60425L7.55425 3.64918C7.97125 3.22918 8.51825 3.77416 8.10025 4.19416L5.96225 6.33912L5.96325 9.26716H3.39925V7.84516H2.24025C1.99925 7.84516 1.80225 7.65017 1.80225 7.40717C1.80225 7.30317 1.83725 7.21016 1.89725 7.13416L3.26225 5.76612Z" fill="black"/>
<path d="M0.164242 1.94989L0.402242 2.18787L1.55224 1.0119L1.31424 0.773926L0.793242 0.970886L0.553242 0.73291L0.0732422 1.21088L0.311242 1.4519L0.164242 1.94989Z" fill="black"/>
<path d="M1.93519 5.68596C1.91319 5.83096 2.01219 5.96094 2.15419 5.98094C2.29719 6.00394 2.43119 5.90095 2.44919 5.76195C2.47019 5.61695 2.37319 5.48697 2.22919 5.46697C2.08719 5.44597 1.95419 5.54296 1.93519 5.68596Z" fill="black"/>
<path d="M2.16112 5.09206C2.18112 4.95506 2.08812 4.83006 1.95212 4.81106C1.81612 4.79206 1.69112 4.88504 1.67212 5.02004C1.65212 5.15904 1.74612 5.28003 1.88112 5.29903C2.01512 5.32103 2.14212 5.22506 2.16112 5.09206Z" fill="black"/>
<path d="M1.64123 4.62207C1.77046 4.62207 1.87523 4.5173 1.87523 4.38806C1.87523 4.25883 1.77046 4.15405 1.64123 4.15405C1.51199 4.15405 1.40723 4.25883 1.40723 4.38806C1.40723 4.5173 1.51199 4.62207 1.64123 4.62207Z" fill="black"/>
<path d="M1.36507 3.94202C1.48767 3.94202 1.58707 3.84264 1.58707 3.72003C1.58707 3.59742 1.48767 3.49805 1.36507 3.49805C1.24246 3.49805 1.14307 3.59742 1.14307 3.72003C1.14307 3.84264 1.24246 3.94202 1.36507 3.94202Z" fill="black"/>
<path d="M1.08937 3.26105C1.2048 3.26105 1.29837 3.16743 1.29837 3.052C1.29837 2.93657 1.2048 2.84302 1.08937 2.84302C0.973943 2.84302 0.880371 2.93657 0.880371 3.052C0.880371 3.16743 0.973943 3.26105 1.08937 3.26105Z" fill="black"/>
<path d="M0.814188 2.58099C0.922988 2.58099 1.01119 2.49283 1.01119 2.38403C1.01119 2.27523 0.922988 2.18701 0.814188 2.18701C0.705387 2.18701 0.617188 2.27523 0.617188 2.38403C0.617188 2.49283 0.705387 2.58099 0.814188 2.58099Z" fill="black"/>
<path d="M2.9052 4.74101C2.9122 4.60001 3.0332 4.48899 3.1752 4.49699C3.3182 4.50499 3.4262 4.62398 3.4192 4.76798C3.4142 4.91098 3.2922 5.01799 3.1492 5.00999C3.0072 5.00599 2.8972 4.88501 2.9052 4.74101Z" fill="black"/>
<path d="M2.75525 4.46094C2.89056 4.46094 3.00025 4.35125 3.00025 4.21594C3.00025 4.08063 2.89056 3.97095 2.75525 3.97095C2.61994 3.97095 2.51025 4.08063 2.51025 4.21594C2.51025 4.35125 2.61994 4.46094 2.75525 4.46094Z" fill="black"/>
<path d="M2.34919 3.91101C2.47732 3.91101 2.58119 3.80715 2.58119 3.67902C2.58119 3.55089 2.47732 3.44702 2.34919 3.44702C2.22106 3.44702 2.11719 3.55089 2.11719 3.67902C2.11719 3.80715 2.22106 3.91101 2.34919 3.91101Z" fill="black"/>
<path d="M1.94217 3.36188C2.06367 3.36188 2.16217 3.26341 2.16217 3.14191C2.16217 3.0204 2.06367 2.92188 1.94217 2.92188C1.82067 2.92188 1.72217 3.0204 1.72217 3.14191C1.72217 3.26341 1.82067 3.36188 1.94217 3.36188Z" fill="black"/>
<path d="M1.53612 2.81293C1.651 2.81293 1.74412 2.71986 1.74412 2.60498C1.74412 2.49011 1.651 2.39697 1.53612 2.39697C1.42125 2.39697 1.32812 2.49011 1.32812 2.60498C1.32812 2.71986 1.42125 2.81293 1.53612 2.81293Z" fill="black"/>
<path d="M1.12911 2.2641C1.23735 2.2641 1.32511 2.1763 1.32511 2.06805C1.32511 1.95981 1.23735 1.87207 1.12911 1.87207C1.02086 1.87207 0.933105 1.95981 0.933105 2.06805C0.933105 2.1763 1.02086 2.2641 1.12911 2.2641Z" fill="black"/>
<path d="M3.60929 3.63488C3.46629 3.64288 3.34229 3.53286 3.33829 3.39086C3.33029 3.24586 3.44229 3.12487 3.58529 3.11987C3.72529 3.11387 3.84729 3.22191 3.85329 3.36791C3.86129 3.50591 3.75229 3.62888 3.60929 3.63488Z" fill="black"/>
<path d="M3.29919 2.96093C3.30619 3.09193 3.20419 3.20493 3.07019 3.21093C2.93619 3.21693 2.82119 3.11493 2.81519 2.98193C2.80919 2.84693 2.91319 2.73596 3.04619 2.72796C3.17919 2.72296 3.29319 2.82493 3.29919 2.96093Z" fill="black"/>
<path d="M2.74721 2.55514C2.75321 2.67814 2.65721 2.78415 2.53221 2.78915C2.40721 2.79415 2.29921 2.69913 2.29421 2.57613C2.28821 2.44913 2.38621 2.34416 2.51121 2.33816C2.63321 2.33216 2.74021 2.42814 2.74721 2.55514Z" fill="black"/>
<path d="M1.98297 2.37C2.0995 2.37 2.19397 2.27553 2.19397 2.159C2.19397 2.04246 2.0995 1.948 1.98297 1.948C1.86644 1.948 1.77197 2.04246 1.77197 2.159C1.77197 2.27553 1.86644 2.37 1.98297 2.37Z" fill="black"/>
<path d="M1.446 1.94812C1.55425 1.94812 1.642 1.86038 1.642 1.75214C1.642 1.64389 1.55425 1.55615 1.446 1.55615C1.33775 1.55615 1.25 1.64389 1.25 1.75214C1.25 1.86038 1.33775 1.94812 1.446 1.94812Z" fill="black"/>
<path d="M1.76241 1.63104C1.87065 1.63104 1.95841 1.54325 1.95841 1.435C1.95841 1.32675 1.87065 1.23901 1.76241 1.23901C1.65416 1.23901 1.56641 1.32675 1.56641 1.435C1.56641 1.54325 1.65416 1.63104 1.76241 1.63104Z" fill="black"/>
<path d="M2.45702 1.93213C2.5719 1.93213 2.66502 1.839 2.66502 1.72412C2.66502 1.60925 2.5719 1.51611 2.45702 1.51611C2.34215 1.51611 2.24902 1.60925 2.24902 1.72412C2.24902 1.839 2.34215 1.93213 2.45702 1.93213Z" fill="black"/>
<path d="M3.15113 2.23004C3.27208 2.23004 3.37013 2.132 3.37013 2.01105C3.37013 1.8901 3.27208 1.79199 3.15113 1.79199C3.03018 1.79199 2.93213 1.8901 2.93213 2.01105C2.93213 2.132 3.03018 2.23004 3.15113 2.23004Z" fill="black"/>
<path d="M3.84616 2.52704C3.97208 2.52704 4.07416 2.42493 4.07416 2.29901C4.07416 2.17309 3.97208 2.07104 3.84616 2.07104C3.72024 2.07104 3.61816 2.17309 3.61816 2.29901C3.61816 2.42493 3.72024 2.52704 3.84616 2.52704Z" fill="black"/>
<path d="M4.54125 2.82715C4.67324 2.82715 4.78025 2.72013 4.78025 2.58813C4.78025 2.45614 4.67324 2.34912 4.54125 2.34912C4.40925 2.34912 4.30225 2.45614 4.30225 2.58813C4.30225 2.72013 4.40925 2.82715 4.54125 2.82715Z" fill="black"/>
<path d="M5.23535 3.12598C5.37342 3.12598 5.48535 3.01405 5.48535 2.87598C5.48535 2.73791 5.37342 2.62598 5.23535 2.62598C5.09728 2.62598 4.98535 2.73791 4.98535 2.87598C4.98535 3.01405 5.09728 3.12598 5.23535 3.12598Z" fill="black"/>
<path d="M5.92899 3.42493C6.07369 3.42493 6.19099 3.3076 6.19099 3.1629C6.19099 3.0182 6.07369 2.90088 5.92899 2.90088C5.78429 2.90088 5.66699 3.0182 5.66699 3.1629C5.66699 3.3076 5.78429 3.42493 5.92899 3.42493Z" fill="black"/>
</svg>
