<svg width="9" height="8" viewBox="0 0 9 8" fill="none" xmlns="http://www.w3.org/2000/svg">
<path fill-rule="evenodd" clip-rule="evenodd" d="M5.99796 6.91522C5.94296 6.98922 5.91794 7.00523 5.84995 7.10123C5.73695 7.24723 5.88095 7.47023 5.95395 7.43523C6.03795 7.40423 6.09296 7.23621 6.18396 7.18121C6.23096 7.15621 6.35596 6.97221 6.47296 6.84721C6.55896 6.74921 6.62094 6.70622 6.70294 6.60522C6.84194 6.43322 6.87094 6.30222 6.99194 6.11922C7.06594 6.02322 7.11895 5.99421 7.18695 5.87721C7.54795 5.19321 7.44294 4.88722 7.78894 4.39822C7.89394 4.25322 8.01395 4.21822 8.18195 4.13222C8.33795 2.99322 7.82095 2.35722 7.82495 2.35522C7.38895 2.60922 7.15495 2.71222 6.70395 2.68922C6.53395 2.68722 6.44394 2.61522 6.27594 2.63022C6.11994 2.63622 6.03993 2.69422 5.88293 2.74722C5.64293 2.82122 5.51195 2.88822 5.25995 2.96622C5.09995 3.01122 4.99794 3.01322 4.83194 3.07022C4.68894 3.13122 4.75796 3.08222 4.65796 3.19722C4.52896 3.34022 4.55993 3.45122 4.43893 3.69522C4.28893 4.01522 4.30594 4.05821 4.39194 4.09721C4.33494 4.26121 4.32196 4.37022 4.33496 4.54822C4.35096 4.68322 4.29393 4.77722 4.43893 4.88422C4.63593 5.03022 5.04994 5.37422 5.15594 5.38022C5.31394 5.37422 5.77495 5.39222 6.00995 5.23022C6.06295 5.19722 6.07796 5.16422 6.03296 5.28922C6.02296 5.30521 5.44893 5.75221 5.38693 5.75021C4.65693 5.77321 4.90096 5.81423 4.85596 5.79723C4.81896 5.79723 4.46694 5.36722 4.25394 5.52022C4.17394 5.56922 4.13696 5.61622 4.10596 5.70422C4.13296 5.76122 4.26195 5.85022 4.38095 5.92522C4.55295 6.03422 4.56896 6.15022 4.73996 6.19122C4.94896 6.23822 5.17196 6.20721 5.30396 6.22421C5.35496 6.23821 5.81594 6.10322 6.10294 5.94922C6.36894 5.81222 5.73795 6.21322 5.58295 6.41022C5.11795 6.55622 5.24895 6.56222 5.02795 6.60722C4.82295 6.65422 4.83296 6.64223 4.69196 6.68723C4.54696 6.72223 4.42794 6.91922 4.56494 7.02322C4.64694 7.09122 4.90294 6.99622 5.15494 6.98822C5.26594 6.98622 5.72095 6.77721 5.82495 6.72221C6.08295 6.58321 6.27196 6.39222 6.42496 6.28322C6.63596 6.13422 6.18696 6.68422 5.99796 6.91522ZM4.58896 4.10822C4.74296 4.23122 4.82094 4.59822 4.81894 4.59422C5.10194 4.68422 5.28195 4.87122 5.28195 4.87122C5.71795 4.62922 5.72696 4.73822 5.91696 4.59422C6.07296 4.48722 6.06494 4.45321 6.14694 4.16621C6.22294 3.93421 5.95396 3.95522 5.73096 3.53122C5.34396 3.67722 5.13494 3.61121 5.00394 3.59921C4.94694 3.59321 4.95696 3.82922 4.58896 4.10822Z" fill="black"/>
<path fill-rule="evenodd" clip-rule="evenodd" d="M2.32573 1.09527C2.38073 1.01727 2.40574 1.00128 2.47574 0.909284C2.58474 0.759284 2.44273 0.536276 2.37173 0.563276C2.28573 0.602276 2.23073 0.770282 2.12773 0.829282C2.09073 0.850282 1.96574 1.03428 1.85074 1.16328C1.76474 1.25728 1.70273 1.30029 1.62073 1.40729C1.47973 1.57329 1.45273 1.70428 1.33173 1.88028C1.25773 1.98528 1.20273 2.01327 1.13673 2.13427C0.775734 2.81428 0.878729 3.12029 0.534729 3.60129C0.429729 3.75529 0.309739 3.78928 0.141739 3.87828C-0.0142609 5.01528 0.500734 5.64928 0.498734 5.64628C0.934734 5.39828 1.16674 5.29429 1.61974 5.31029C1.78974 5.32029 1.87973 5.39228 2.04773 5.38028C2.20373 5.37028 2.28374 5.31227 2.44074 5.26527C2.68074 5.18527 2.81173 5.11928 3.05173 5.04428C3.22373 4.99528 3.32472 4.99327 3.49072 4.92927C3.63372 4.87627 3.56473 4.92528 3.66473 4.81428C3.79173 4.66828 3.76273 4.55628 3.87173 4.31828C4.03373 3.99228 4.01673 3.94927 3.93073 3.91427C3.98573 3.74627 4.00073 3.63929 3.98773 3.46328C3.96973 3.32628 4.02873 3.23129 3.88373 3.12929C3.68673 2.97729 3.27273 2.63328 3.16873 2.63128C3.00873 2.63328 2.54774 2.61528 2.31374 2.77028C2.26074 2.81128 2.24573 2.84428 2.29073 2.72528C2.30073 2.70428 2.87474 2.25627 2.93674 2.25027C3.66674 2.23427 3.42274 2.19328 3.46774 2.21528C3.50474 2.21128 3.85673 2.64128 4.06973 2.49228C4.14773 2.43928 4.18673 2.39227 4.21973 2.30827C4.19073 2.24727 4.06172 2.15828 3.94272 2.08928C3.77072 1.97428 3.75374 1.85927 3.58374 1.82127C3.37474 1.77027 3.14974 1.80127 3.01975 1.77627C2.96875 1.77027 2.50773 1.90528 2.22273 2.05328C1.95273 2.19628 2.58574 1.79528 2.74274 1.59028C3.20574 1.45128 3.07273 1.44528 3.29773 1.39528C3.50073 1.35428 3.49074 1.36628 3.63174 1.32528C3.77474 1.28628 3.89573 1.09128 3.75873 0.979276C3.67473 0.916276 3.42075 1.01228 3.17075 1.01428C3.05775 1.02228 2.60273 1.23127 2.49873 1.28927C2.24073 1.42427 2.05173 1.61528 1.89873 1.71728C1.68473 1.87228 2.13573 1.32327 2.32573 1.09527ZM3.73373 3.90127C3.57973 3.77427 3.50172 3.40727 3.50372 3.40527C3.22072 3.32127 3.04074 3.13428 3.04074 3.13928C2.60474 3.37528 2.59373 3.26627 2.40573 3.40527C2.24773 3.51827 2.25774 3.55328 2.17574 3.83128C2.09974 4.07328 2.36674 4.05027 2.59174 4.46827C2.97874 4.32727 3.18773 4.39428 3.31873 4.40928C3.37573 4.41328 3.36673 4.17727 3.73373 3.90127Z" fill="black"/>
</svg>
