<svg width="7" height="10" viewBox="0 0 7 10" fill="none" xmlns="http://www.w3.org/2000/svg">
<path d="M2.09422 9.28584C2.23174 9.28584 2.34322 9.17435 2.34322 9.03683C2.34322 8.89932 2.23174 8.78784 2.09422 8.78784C1.9567 8.78784 1.84521 8.89932 1.84521 9.03683C1.84521 9.17435 1.9567 9.28584 2.09422 9.28584Z" fill="black"/>
<path d="M4.10742 9.27979C4.24549 9.27979 4.35742 9.16786 4.35742 9.02979C4.35742 8.89171 4.24549 8.77979 4.10742 8.77979C3.96935 8.77979 3.85742 8.89171 3.85742 9.02979C3.85742 9.16786 3.96935 9.27979 4.10742 9.27979Z" fill="black"/>
<path d="M1.60254 8.54387C1.60254 8.54387 1.45654 8.53586 1.45654 8.38586V8.37187C1.45654 8.22387 1.60254 8.21387 1.60254 8.21387H4.59055C4.59055 8.21387 4.73654 8.22787 4.73654 8.37187V8.38586C4.73654 8.53086 4.59055 8.54387 4.59055 8.54387H1.60254Z" fill="black"/>
<path d="M3.67809 2.03587C4.04315 2.03587 4.33908 1.73994 4.33908 1.37488C4.33908 1.00982 4.04315 0.713867 3.67809 0.713867C3.31302 0.713867 3.01709 1.00982 3.01709 1.37488C3.01709 1.73994 3.31302 2.03587 3.67809 2.03587Z" fill="black"/>
<path d="M0.0870819 7.82088C0.0560819 7.87988 0.0380859 7.94587 0.0380859 8.01787C0.0380859 8.24987 0.227082 8.43987 0.462082 8.43987C0.630082 8.43987 0.775079 8.34187 0.843079 8.20187L2.28708 5.71986L1.68709 5.11987L0.0870819 7.82088Z" fill="black"/>
<path d="M3.21751 7.70984C3.14951 7.85084 3.0045 7.94785 2.8365 7.94785C2.6045 7.94785 2.41451 7.75883 2.41451 7.52583C2.41451 7.45383 2.43252 7.38684 2.46352 7.32884L3.09251 6.22385L1.86551 5.00484C1.39451 4.53184 1.73051 4.02084 1.73051 4.02084L2.3905 2.85484L0.639511 2.85684C0.446511 2.85684 0.291504 2.70083 0.291504 2.50883C0.291504 2.31983 0.445511 2.16284 0.639511 2.16284H5.93951C6.13051 2.16284 6.28551 2.31883 6.28551 2.51083C6.28551 2.70283 6.13151 2.85684 5.93951 2.85684H3.9185L2.95351 4.54584L3.93552 5.51685C4.27952 5.84685 4.0565 6.21783 4.0565 6.21783L3.21751 7.70984Z" fill="black"/>
</svg>
