<svg width="9" height="10" viewBox="0 0 9 10" fill="none" xmlns="http://www.w3.org/2000/svg">
<path d="M5.90123 2.13501C6.26629 2.13501 6.56223 1.83906 6.56223 1.474C6.56223 1.10894 6.26629 0.812988 5.90123 0.812988C5.53617 0.812988 5.24023 1.10894 5.24023 1.474C5.24023 1.83906 5.53617 2.13501 5.90123 2.13501Z" fill="black"/>
<path d="M3.09516 4.81689L5.47416 3.27991C5.78516 3.08291 5.87816 2.67288 5.68116 2.36188C5.48616 2.05088 5.07416 1.95791 4.76316 2.15491L3.00916 3.2879C2.90916 3.3519 2.83116 3.43587 2.78016 3.53387L0.955163 7.1319C0.848163 7.3449 0.932167 7.6029 1.14317 7.7099C1.35417 7.8169 1.61417 7.73291 1.72117 7.52191L3.09516 4.81689Z" fill="black"/>
<path d="M7.72729 4.56494C8.0413 4.36794 8.13929 3.95392 7.94229 3.63892L7.7123 3.77997C7.8313 3.96897 7.7733 4.21796 7.5833 4.33496L0.279297 8.95795L0.424286 9.18695L7.72729 4.56494Z" fill="black"/>
</svg>
