<svg width="9" height="8" viewBox="0 0 9 8" fill="none" xmlns="http://www.w3.org/2000/svg">
<path d="M7.22871 5.39612C7.65894 5.39612 8.00771 5.04736 8.00771 4.61713C8.00771 4.1869 7.65894 3.83813 7.22871 3.83813C6.79848 3.83813 6.44971 4.1869 6.44971 4.61713C6.44971 5.04736 6.79848 5.39612 7.22871 5.39612Z" fill="black"/>
<path d="M7.78694 7.1391C7.82094 7.1511 7.85794 7.1571 7.89694 7.1571C8.09594 7.1571 8.25794 6.99514 8.25794 6.79614C8.25794 6.64614 8.16494 6.5151 8.03294 6.4621L6.95494 6.04211L6.17094 4.64709C6.17094 4.64709 6.10694 4.49312 5.87894 4.40912L3.30594 3.37811L1.77594 0.786133C1.68694 0.638133 1.52394 0.536133 1.33694 0.536133C1.05394 0.536133 0.824941 0.76611 0.824941 1.05011C0.824941 1.14011 0.847942 1.2241 0.888942 1.2981L2.78794 4.5191L1.58394 4.03912L1.28094 4.22113L6.09194 6.11414L6.28794 6.42712C6.28794 6.42712 6.36594 6.59513 6.59994 6.68713L7.19694 6.91913C6.80794 7.30813 6.26294 7.14014 6.26294 7.14014L0.388942 4.78113L0.0649414 4.97412L6.19894 7.40015C6.91194 7.66015 7.49494 7.03711 7.49494 7.03711V7.03912L7.78694 7.1391Z" fill="black"/>
</svg>
