<svg width="9" height="8" viewBox="0 0 9 8" fill="none" xmlns="http://www.w3.org/2000/svg">
<path d="M3.0323 5.64102C3.3333 5.64102 3.5773 5.39702 3.5773 5.09602C3.5773 4.79503 3.3333 4.55103 3.0323 4.55103C2.73131 4.55103 2.4873 4.79503 2.4873 5.09602C2.4873 5.39702 2.73131 5.64102 3.0323 5.64102Z" fill="black"/>
<path d="M7.62422 4.86401C7.86222 4.86401 8.05622 5.05501 8.05822 5.29401L8.06022 6.43902H4.67822V4.86401H7.62422Z" fill="black"/>
<path d="M1.04423 7.54303H8.06223V6.81503H1.77223V4.05503L8.06223 1.21303V0.457031L0.26123 3.97903V4.73703L1.04423 4.38503V7.54303Z" fill="black"/>
<path d="M3.84515 5.90098H2.86714C2.71914 5.90098 2.59814 6.02198 2.59814 6.16998C2.59814 6.31798 2.71814 6.43898 2.86714 6.43898H4.11115C4.25915 6.43898 4.38015 6.31798 4.38015 6.16998V5.09298C4.38015 4.94498 4.26015 4.82397 4.11115 4.82397C3.96415 4.82397 3.84314 4.94398 3.84314 5.09298L3.84515 5.90098Z" fill="black"/>
</svg>
