<svg width="9" height="8" viewBox="0 0 9 8" fill="none" xmlns="http://www.w3.org/2000/svg">
<path d="M3.07014 1.5329C3.42305 1.5329 3.70915 1.2468 3.70915 0.89389C3.70915 0.54098 3.42305 0.254883 3.07014 0.254883C2.71723 0.254883 2.43115 0.54098 2.43115 0.89389C2.43115 1.2468 2.71723 1.5329 3.07014 1.5329Z" fill="black"/>
<path d="M4.87718 3.04295L4.63517 1.54896L6.11417 0.68397C6.18418 0.64497 6.23919 0.581963 6.26219 0.501963C6.30919 0.339963 6.21718 0.169951 6.05518 0.120951C5.96918 0.095951 5.87917 0.108971 5.80717 0.153971L3.70017 1.39195C3.62617 1.43095 3.56118 1.48597 3.50718 1.54997L2.61817 2.74296L1.39317 2.59696C1.31517 2.62396 1.24817 2.68295 1.21317 2.76295C1.14517 2.91895 1.21716 3.09896 1.37116 3.16496C1.43516 3.19396 1.50617 3.19795 1.57017 3.18095L2.81617 3.32197C2.86117 3.30397 2.90216 3.27697 2.93516 3.23997L3.44117 2.60496L3.68318 3.97596C3.72818 4.16896 3.85717 4.33895 4.04017 4.43095L5.12617 4.75495L5.28617 6.00297C5.30617 6.14397 5.40318 6.26895 5.54618 6.31895C5.75318 6.39295 5.98016 6.28394 6.05216 6.07694C6.07516 6.01394 6.07917 5.94595 6.07017 5.88395L5.87516 4.35694C5.85216 4.24594 5.78117 4.14595 5.67817 4.08695L5.00218 3.88395L6.12116 3.20594L7.48817 3.81095C7.49817 3.81495 7.50616 3.81895 7.51316 3.82295C7.72016 3.89495 7.94717 3.78794 8.01917 3.58094C8.08717 3.38594 7.99617 3.17497 7.81217 3.08897L6.25318 2.39396C6.24518 2.39196 6.23916 2.38797 6.23216 2.38597C6.12116 2.34697 6.00217 2.36094 5.90617 2.41294L4.87718 3.04295Z" fill="black"/>
<path fill-rule="evenodd" clip-rule="evenodd" d="M0.28125 3.6001V4.04709C0.28125 4.04709 1.41826 4.04709 1.54326 4.04709C1.54326 4.17409 1.54326 5.31812 1.54326 5.31812C1.54326 5.31812 2.72725 5.31812 2.85425 5.31812C2.85425 5.44312 2.85425 6.50409 2.85425 6.50409C2.85425 6.50409 3.99924 6.50409 4.12524 6.50409C4.12524 6.63309 4.12524 7.89111 4.12524 7.89111H5.79724V7.44409C5.79724 7.44409 4.69927 7.44409 4.57227 7.44409C4.57227 7.31509 4.57227 6.0571 4.57227 6.0571C4.57227 6.0571 3.42724 6.0571 3.30124 6.0571C3.30124 5.9321 3.30124 4.87109 3.30124 4.87109C3.30124 4.87109 2.11925 4.87109 1.99225 4.87109C1.99225 4.74409 1.99225 3.6001 1.99225 3.6001H0.28125Z" fill="black"/>
</svg>
