<svg width="9" height="8" viewBox="0 0 9 8" fill="none" xmlns="http://www.w3.org/2000/svg">
<path d="M3.08479 1.54605C3.4377 1.54605 3.7238 1.25995 3.7238 0.907043C3.7238 0.554134 3.4377 0.268066 3.08479 0.268066C2.73188 0.268066 2.4458 0.554134 2.4458 0.907043C2.4458 1.25995 2.73188 1.54605 3.08479 1.54605Z" fill="black"/>
<path d="M4.89182 3.05914L4.64982 1.56516L6.12882 0.698151C6.19882 0.661151 6.25383 0.596144 6.27683 0.516144C6.32383 0.354144 6.23183 0.184163 6.06983 0.135163C5.98383 0.110163 5.89382 0.125152 5.82182 0.168152L3.71482 1.40616C3.64082 1.44716 3.57583 1.50015 3.52183 1.56415L2.63282 2.75714L1.40781 2.61115C1.32981 2.63815 1.26282 2.69714 1.22782 2.77915C1.15982 2.93315 1.23181 3.11315 1.38581 3.18115C1.44981 3.20815 1.52082 3.21216 1.58482 3.19516L2.83082 3.33615C2.87582 3.32015 2.91681 3.29115 2.94981 3.25415L3.45582 2.61914L3.69782 3.99216C3.74282 4.18516 3.87182 4.35316 4.05482 4.44516L5.14082 4.76913L5.30082 6.01715C5.32082 6.16015 5.41783 6.28514 5.56083 6.33514C5.76783 6.40714 5.99481 6.30014 6.06681 6.09314C6.08981 6.02914 6.09382 5.96215 6.08482 5.90015L5.88981 4.37314C5.86681 4.26014 5.79582 4.16015 5.69282 4.10315L5.01682 3.90015L6.13581 3.22214L7.50282 3.82715C7.51282 3.83115 7.52081 3.83516 7.52781 3.83716C7.73481 3.90916 7.96182 3.80215 8.03382 3.59515C8.10182 3.40215 8.01082 3.18916 7.82682 3.10516L6.26783 2.40814C6.25983 2.40614 6.2538 2.40415 6.2468 2.40015C6.1358 2.36115 6.01682 2.37514 5.92082 2.42914L4.89182 3.05914Z" fill="black"/>
<path fill-rule="evenodd" clip-rule="evenodd" d="M0.266602 7.87704L6.62158 7.87305L0.27359 3.37305L0.266602 7.87704Z" fill="black"/>
</svg>
