<svg width="8" height="6" viewBox="0 0 8 6" fill="none" xmlns="http://www.w3.org/2000/svg">
<path d="M6.61711 4.76782H0.537109V5.84387H6.61711V4.76782Z" fill="black"/>
<path d="M7.21081 4.77197H6.90381V5.84399H7.21081V4.77197Z" fill="black"/>
<path d="M7.78503 4.77197H7.47803V5.84399H7.78503V4.77197Z" fill="black"/>
<path d="M5.35309 3.35779C4.89009 3.35779 4.51309 2.98278 4.51309 2.51978C4.51309 2.43178 4.52709 2.34776 4.55209 2.26776C3.97809 2.25776 3.51709 1.78877 3.51709 1.21277C3.51709 0.632769 3.98209 0.163762 4.56009 0.155762V0.460815C4.15009 0.466815 3.82009 0.800769 3.82009 1.21277C3.82009 1.62677 4.15809 1.96478 4.57209 1.96478C4.62509 1.96478 4.67409 1.95879 4.72209 1.94879C4.73609 1.94479 4.75109 1.94281 4.76509 1.94281C4.86309 1.94281 4.94309 2.02279 4.94309 2.12079C4.94309 2.15779 4.93109 2.19076 4.91209 2.22076C4.85509 2.30676 4.82009 2.40878 4.82009 2.51978C4.82009 2.81278 5.05809 3.0528 5.35309 3.0528H6.45509C6.87309 3.0528 7.20909 3.39076 7.20909 3.80676L7.21109 4.40881H6.90409V3.8078C6.90409 3.5598 6.70309 3.35876 6.45509 3.35876L5.35309 3.35779Z" fill="black"/>
<path d="M5.59784 2.19177C5.71084 2.04577 5.77784 1.86379 5.77784 1.66479C5.77784 1.18479 5.38884 0.795776 4.90884 0.795776H4.83984V0.48877H4.90784C5.55584 0.48877 6.08384 1.01579 6.08384 1.66479C6.08384 1.83879 6.04484 2.00477 5.97684 2.15277L6.19184 2.15082C7.07284 2.15082 7.78584 2.86581 7.78584 3.74481V4.40881H7.47884V3.74481C7.47884 3.03381 6.90284 2.45776 6.19184 2.45776H5.74284C5.64884 2.45776 5.57084 2.37981 5.57084 2.28381C5.56984 2.24881 5.58184 2.21977 5.59784 2.19177Z" fill="black"/>
</svg>
