<svg width="9" height="8" viewBox="0 0 9 8" fill="none" xmlns="http://www.w3.org/2000/svg">
<path d="M8.09677 2.37134L7.44777 7.47339H5.26077L4.61377 2.37134H7.28577L7.81577 0.526367L8.11377 0.610352L7.60877 2.36938L8.09677 2.37134Z" fill="black"/>
<path d="M4.30585 5.34235C4.30585 5.34235 4.38785 4.60034 3.25285 4.60034H1.44485C0.31185 4.60034 0.39185 5.34235 0.39185 5.34235H4.30585Z" fill="black"/>
<path d="M0.39185 6.72949C0.39185 6.72949 0.31185 7.47351 1.44485 7.47351H3.25385C4.38885 7.47351 4.30685 6.72949 4.30685 6.72949H0.39185Z" fill="black"/>
<path d="M4.13547 6.36926C4.32147 6.36926 4.47147 6.21926 4.47147 6.03326C4.47147 5.84926 4.32147 5.69922 4.13547 5.69922H0.545473C0.359473 5.69922 0.209473 5.84926 0.209473 6.03326C0.209473 6.21926 0.359473 6.36926 0.545473 6.36926H4.13547Z" fill="black"/>
</svg>
