<svg width="9" height="10" viewBox="0 0 9 10" fill="none" xmlns="http://www.w3.org/2000/svg">
<path d="M6.49208 2.60724C6.85769 2.60724 7.15408 2.3108 7.15408 1.94519C7.15408 1.57958 6.85769 1.2832 6.49208 1.2832C6.12647 1.2832 5.83008 1.57958 5.83008 1.94519C5.83008 2.3108 6.12647 2.60724 6.49208 2.60724Z" fill="black"/>
<path d="M4.87351 4.39022L6.27952 3.69723L7.58651 4.90023C7.64551 4.95723 7.72352 4.99221 7.81152 4.99221C7.98752 4.99021 8.12751 4.84727 8.12551 4.67227C8.12551 4.57827 8.08252 4.49426 8.01852 4.43826L6.15351 2.72323C6.09051 2.66223 6.01852 2.61421 5.93852 2.57821L4.48551 2.06027L3.82551 1.10324C3.77451 1.03524 3.69652 0.98627 3.60452 0.97427C3.43052 0.95427 3.27451 1.07926 3.25251 1.25326C3.24451 1.32726 3.26251 1.39826 3.29951 1.45626L3.97352 2.43124C4.00452 2.47224 4.04351 2.50323 4.09051 2.52523L4.87151 2.83425L3.58651 3.49026C3.40851 3.59426 3.27952 3.77127 3.24452 3.98227L3.25251 5.15622L2.06552 5.69125C1.93052 5.75425 1.83551 5.88823 1.82951 6.04623C1.81951 6.27323 1.99551 6.46427 2.22251 6.47427C2.29251 6.47627 2.36152 6.46024 2.41952 6.43124L3.87351 5.77523C3.97751 5.71823 4.05551 5.61927 4.08051 5.50027L4.07652 4.77023L5.08651 5.67025L4.90051 7.21127C4.90051 7.21927 4.89851 7.22925 4.89851 7.23825C4.88851 7.46525 5.06451 7.65623 5.29151 7.66623C5.50451 7.67623 5.68751 7.52022 5.71551 7.31222L5.93252 5.55624C5.93452 5.54824 5.93452 5.54023 5.93452 5.53323C5.94052 5.41023 5.89152 5.29727 5.80752 5.21926L4.87351 4.39022Z" fill="black"/>
<path d="M0.481475 5.52514C0.263475 5.59814 0.146466 5.83518 0.219466 6.05218C0.340466 6.41218 0.614467 6.69717 0.967467 6.83117L6.52447 8.94415C6.87947 9.08015 7.27247 9.04914 7.59947 8.86114C7.79847 8.74714 7.86747 8.49312 7.75247 8.29412C7.63747 8.09512 7.38447 8.02617 7.18547 8.14117C7.07547 8.20417 6.94148 8.21417 6.82048 8.16717L1.26347 6.05413C1.14347 6.00813 1.04947 5.91013 1.00847 5.78613C0.935468 5.56913 0.699475 5.45214 0.481475 5.52514Z" fill="black"/>
</svg>
