<svg width="10" height="8" viewBox="0 0 10 8" fill="none" xmlns="http://www.w3.org/2000/svg">
<path d="M4.36608 1.74487C4.73114 1.74487 5.02708 1.44892 5.02708 1.08386C5.02708 0.718802 4.73114 0.422852 4.36608 0.422852C4.00102 0.422852 3.70508 0.718802 3.70508 1.08386C3.70508 1.44892 4.00102 1.74487 4.36608 1.74487Z" fill="black"/>
<path d="M5.14486 7.08478H8.28986C8.28986 7.08478 8.49286 7.09874 8.89686 6.77374L9.58486 6.24878V6.84277L8.88286 7.36774C8.88286 7.36774 8.67386 7.53778 8.32186 7.57678H4.88086L5.14486 7.08478Z" fill="black"/>
<path d="M3.90928 7.57697L4.17228 7.08496H1.00028L0.738281 7.57697H3.90928Z" fill="black"/>
<path d="M4.70624 2.54968C4.70624 2.18468 4.41024 1.8877 4.04424 1.8877C3.67924 1.8877 3.38224 2.18468 3.38224 2.54968V4.1687C3.38224 4.3737 3.48324 4.56471 3.63024 4.68671H2.14924L1.34824 6.13971C1.33024 6.17271 1.32324 6.20972 1.32324 6.24872C1.32324 6.38172 1.43124 6.49072 1.56424 6.49072H7.02624C7.02624 6.49072 7.26024 6.52767 7.61424 6.25067L9.03124 5.2077L8.49624 4.27167C8.49624 4.27167 8.37624 4.04468 7.92224 3.97668L6.85324 3.79669L6.27924 2.83771L6.27224 2.8277C6.18924 2.7317 6.04424 2.72269 5.94924 2.80469L5.94824 2.8067C5.88124 2.8697 5.85524 2.97067 5.89224 3.06067L6.31924 3.77167V3.77771L5.78324 4.68671L4.70624 4.27667V3.87469H5.55724C5.59824 3.87669 5.64124 3.8707 5.68224 3.8537C5.84324 3.7927 5.92324 3.61172 5.86224 3.45172C5.81524 3.32672 5.69824 3.25267 5.57424 3.25067L4.70624 3.24872V2.54968Z" fill="black"/>
</svg>
