<svg width="8" height="10" viewBox="0 0 8 10" fill="none" xmlns="http://www.w3.org/2000/svg">
<path d="M5.82216 2.21613C6.18777 2.21613 6.48415 1.91975 6.48415 1.55414C6.48415 1.18853 6.18777 0.89209 5.82216 0.89209C5.45655 0.89209 5.16016 1.18853 5.16016 1.55414C5.16016 1.91975 5.45655 2.21613 5.82216 2.21613Z" fill="black"/>
<path d="M7.59698 4.74226C7.48199 5.00826 7.23598 4.92823 7.23598 4.92823L6.20099 4.53724C6.09699 4.50024 6.01699 4.41424 5.98999 4.30824L5.75598 3.62422L5.39099 4.63026L6.47298 5.75721C6.60798 5.99321 6.59598 6.16725 6.59598 6.16725V7.72224C6.97898 7.72224 7.28899 8.03323 7.28899 8.41523C7.28899 8.79723 6.97798 9.10822 6.59598 9.10822C6.54098 9.10822 6.48699 9.10227 6.43399 9.08827L4.15898 8.58222V8.24623L5.86598 7.86726V6.45124L4.71799 5.30525L4.54198 6.50624C4.51298 6.65824 4.40299 6.80123 4.34099 6.87123L3.54399 7.79524C3.53199 7.78524 3.51699 7.78524 3.50099 7.78724L3.54399 7.79524C3.75099 7.95724 3.85799 8.22925 3.79399 8.50025C3.70599 8.87325 3.33099 9.10424 2.95999 9.01624C2.90499 9.00224 2.85498 8.98525 2.80598 8.96125L0.708984 7.94123L0.786987 7.61524L2.70999 7.64222L3.62398 6.58522L3.90698 4.50721L4.50099 2.93525L3.67899 3.40821L3.18898 4.36921C3.04098 4.67421 2.77298 4.51423 2.77298 4.51423C2.53098 4.37523 2.62498 4.14125 2.62498 4.14125L3.12698 3.12525C3.26198 2.86725 3.36899 2.82826 3.36899 2.82826L4.54298 2.18525C4.79898 2.00925 5.09598 2.14625 5.09598 2.14625L5.77199 2.40223C6.10999 2.52323 6.12398 2.71327 6.12398 2.71327L6.54198 4.05122L7.44199 4.36921C7.43899 4.37121 7.68098 4.47426 7.59698 4.74226ZM6.54298 8.79524C6.56098 8.79724 6.57798 8.79927 6.59598 8.79927C6.80698 8.79927 6.97899 8.62727 6.97899 8.41627C6.97899 8.20527 6.80698 8.03321 6.59598 8.03321V8.11323C6.59598 8.31423 6.43199 8.47822 6.23099 8.47822C6.05299 8.47822 5.91298 8.34922 5.87898 8.18122L4.81598 8.41523L6.54298 8.79524ZM2.97998 8.69923C2.99598 8.70723 3.01099 8.71122 3.02899 8.71522C3.23599 8.76422 3.44099 8.63726 3.48999 8.43226C3.52699 8.27626 3.46298 8.11924 3.33998 8.03224L3.18399 8.21424C3.05099 8.36624 2.82098 8.38423 2.66798 8.25123C2.57798 8.17323 2.54298 8.06222 2.54898 7.95222L1.38599 7.93226L2.97998 8.69923Z" fill="black"/>
</svg>
