<svg width="6" height="10" viewBox="0 0 6 10" fill="none" xmlns="http://www.w3.org/2000/svg">
<path d="M3.33705 8.62561V5.61761H4.96907C4.96907 7.05462 4.96907 8.32361 4.96907 8.62561C4.76407 8.62561 4.06805 8.62561 3.33705 8.62561ZM1.35406 5.61761H2.97307V8.62561C2.24607 8.62561 1.55806 8.62561 1.35406 8.62561C1.35406 8.32361 1.35406 7.05462 1.35406 5.61761ZM2.97404 3.3736V5.25461H1.35506C1.35506 4.62761 1.35506 3.5146 1.35506 3.3736C1.55806 3.3736 2.24704 3.3736 2.97404 3.3736ZM4.96907 5.25461H3.33705V3.3736C4.06805 3.3736 4.76407 3.3736 4.96907 3.3736C4.96907 3.5146 4.96907 4.62761 4.96907 5.25461ZM5.24107 2.82761H4.15907L5.03004 2.47659C5.12304 2.43859 5.16806 2.3326 5.13106 2.2406C5.09406 2.1486 4.98707 2.10259 4.89507 2.13959C4.89507 2.13959 4.40206 2.33861 3.91606 2.53461C4.31206 2.14261 4.71706 1.7406 4.71706 1.7406C4.75206 1.7046 4.77107 1.6576 4.77107 1.6116C4.77107 1.5656 4.75306 1.51861 4.71706 1.48361C4.64706 1.41261 4.53107 1.41161 4.46007 1.4826L3.33305 2.60159L3.33806 1.0116C3.33906 0.911597 3.25706 0.82959 3.15706 0.82959H3.15605C3.05505 0.82959 2.97504 0.91059 2.97404 1.01059C2.97404 1.01059 2.97106 2.06159 2.96806 2.60059C2.60606 2.23559 1.95705 1.5816 1.95705 1.5816C1.88705 1.5106 1.77106 1.5096 1.70006 1.5816C1.62906 1.6516 1.62907 1.76759 1.69907 1.83859L2.40306 2.54761L1.39006 2.14362C1.29606 2.10562 1.19105 2.15161 1.15405 2.24561C1.11705 2.33961 1.16206 2.4446 1.25606 2.4816L2.12706 2.82861H1.08206C0.932062 2.82861 0.810059 2.95059 0.810059 3.10059V8.89859C0.810059 9.04859 0.932062 9.17059 1.08206 9.17059H5.24107C5.39207 9.17059 5.51305 9.04859 5.51305 8.89859V3.10059C5.51405 2.94959 5.39207 2.82761 5.24107 2.82761Z" fill="black"/>
</svg>
