<svg width="9" height="10" viewBox="0 0 9 10" fill="none" xmlns="http://www.w3.org/2000/svg">
<path d="M7.47423 4.49689L7.08723 4.42487L6.86223 4.86987C6.89923 4.87787 6.93623 4.88184 6.97523 4.88184C7.21623 4.88184 7.41823 4.71889 7.47423 4.49689ZM5.67023 4.71387L7.14923 3.18286L7.10523 3.58087L7.83323 4.06683C7.95523 4.13283 7.99823 4.28983 7.92923 4.41083C7.87623 4.50683 7.76823 4.55387 7.66623 4.53387L7.60723 4.52185C7.53723 4.80485 7.28123 5.01385 6.97623 5.01385C6.91523 5.01385 6.85923 5.00584 6.80423 4.99084L6.25123 6.11987L6.24923 7.66486C6.24923 7.79986 6.14223 7.90686 6.00923 7.90686C5.87623 7.90686 5.76923 7.79986 5.76923 7.66486V6.08289H4.55123L4.33423 6.45587L4.78823 7.54388C4.85323 7.65888 4.81423 7.80589 4.69823 7.87189C4.58323 7.93589 4.43623 7.89686 4.37123 7.78186L3.83923 6.52588V6.12988L3.60123 6.50287V7.66486C3.60123 7.79986 3.49423 7.90686 3.35923 7.90686C3.22623 7.90686 3.11923 7.79986 3.11923 7.66486V6.32288L3.31823 6.01184V4.95483L3.11923 5.25787V6.13684H2.74023V5.24786C2.74023 4.95286 2.97823 4.71283 3.27423 4.71283H5.67023V4.71387Z" fill="black"/>
<path d="M1.04325 4.28168L0.260254 4.58069V3.82068L8.06325 0.847656V1.60565L1.77025 4.0047L1.77225 8.42468H8.06325V9.15265H1.04325V4.28168Z" fill="black"/>
</svg>
