<svg width="9" height="8" viewBox="0 0 9 8" fill="none" xmlns="http://www.w3.org/2000/svg">
<path d="M3.08479 1.53876C3.4377 1.53876 3.7238 1.25266 3.7238 0.89975C3.7238 0.54684 3.4377 0.260742 3.08479 0.260742C2.73188 0.260742 2.4458 0.54684 2.4458 0.89975C2.4458 1.25266 2.73188 1.53876 3.08479 1.53876Z" fill="black"/>
<path d="M4.89182 3.04882L4.64982 1.5548L6.12882 0.6888C6.19882 0.6508 6.25383 0.587793 6.27683 0.506793C6.32383 0.344793 6.23183 0.174818 6.06983 0.126818C5.98383 0.101818 5.89382 0.114808 5.82182 0.159808L3.71482 1.39781C3.64082 1.43681 3.57583 1.4908 3.52183 1.5548L2.63282 2.7488L1.40781 2.6028C1.32981 2.6298 1.26282 2.68782 1.22782 2.76882C1.15982 2.92382 1.23181 3.10479 1.38581 3.17079C1.44981 3.19979 1.52082 3.20382 1.58482 3.18682L2.83082 3.32781C2.87582 3.30981 2.91681 3.28281 2.94981 3.24581L3.45582 2.6108L3.69782 3.9818C3.74282 4.1748 3.87182 4.34381 4.05482 4.43581L5.14082 4.76079L5.30082 6.00881C5.32082 6.14981 5.41783 6.27482 5.56083 6.32482C5.76783 6.39782 5.99481 6.28981 6.06681 6.08281C6.08981 6.01981 6.09382 5.95182 6.08482 5.88982L5.88981 4.36281C5.86681 4.25181 5.79582 4.15079 5.69282 4.09279L5.01682 3.88982L6.13581 3.21181L7.50282 3.81679C7.51282 3.82079 7.52081 3.82481 7.52781 3.82781C7.73481 3.90081 7.96182 3.79281 8.03382 3.58681C8.10182 3.39181 8.01082 3.17981 7.82682 3.09481L6.26783 2.3998C6.25983 2.3978 6.2538 2.3938 6.2468 2.3918C6.1358 2.3528 6.01682 2.36681 5.92082 2.41881L4.89182 3.04882Z" fill="black"/>
<path d="M0.266602 7.86972L0.274597 4.10571L4.1246 5.56873L4.48361 7.88571C4.48361 7.88571 2.2936 7.86972 0.266602 7.86972Z" fill="black"/>
</svg>
