<svg width="9" height="10" viewBox="0 0 9 10" fill="none" xmlns="http://www.w3.org/2000/svg">
<path d="M4.51487 2.10449C4.84238 2.10449 5.10787 1.83898 5.10787 1.51147C5.10787 1.18397 4.84238 0.918457 4.51487 0.918457C4.18737 0.918457 3.92188 1.18397 3.92188 1.51147C3.92188 1.83898 4.18737 2.10449 4.51487 2.10449Z" fill="black"/>
<path d="M3.96696 2.34661C4.08396 2.26461 4.22696 2.20961 4.38096 2.22161C4.58596 2.23961 4.75396 2.36461 4.85396 2.51861L5.45196 3.70458L6.26696 4.26562C6.33596 4.31862 6.37796 4.40661 6.37096 4.49761C6.35896 4.64561 6.22996 4.75559 6.08296 4.74359C6.03896 4.73959 6.00396 4.72358 5.96096 4.70458L5.07196 4.09161C5.04496 4.07061 5.02096 4.0426 5.00596 4.0136L4.78096 3.57061L4.51296 4.75262L5.56396 5.99261C5.58596 6.03161 5.60296 6.07462 5.61196 6.11962L5.89596 7.61962C5.89396 7.65262 5.89996 7.67259 5.89796 7.70159C5.87996 7.92259 5.68696 8.0866 5.46596 8.0686C5.28396 8.0546 5.14796 7.91862 5.10496 7.75262L4.83596 6.34863L3.98296 5.41259L3.78396 6.32263C3.77796 6.36563 3.72096 6.45561 3.70396 6.49261L2.88596 7.87359C2.80396 8.00059 2.66696 8.0806 2.51096 8.0686C2.28996 8.0506 2.12396 7.85759 2.14196 7.63659C2.14696 7.57359 2.17296 7.50959 2.19696 7.46459L2.95896 6.1856L3.59196 3.37261L3.17796 3.7066L2.95896 4.71063C2.92996 4.83763 2.81296 4.94257 2.67396 4.93157C2.52696 4.91957 2.41596 4.79259 2.42796 4.64459C2.42996 4.63259 2.43096 4.62161 2.43396 4.60961L2.69596 3.43963C2.70996 3.38863 2.73896 3.3436 2.77796 3.3106L3.96696 2.34661Z" fill="black"/>
<path d="M8.14292 8.27448C8.09692 8.28848 8.17992 8.28852 8.14292 8.28852C8.10492 8.26552 8.17992 8.24146 8.14292 8.24146C7.65792 8.19246 7.04592 8.1675 6.56192 8.2165C6.52492 8.2165 6.37592 8.2945 6.33892 8.2945C5.89192 8.3175 5.62992 8.26547 5.21992 8.33747C4.58592 8.43347 3.95192 8.28848 3.28092 8.36048C2.68492 8.40948 2.05092 8.36051 1.41792 8.38551C1.11892 8.16651 0.590922 8.26448 0.169922 8.27448V9.08149H8.14392L8.14292 8.27448Z" fill="black"/>
</svg>
