<svg width="9" height="8" viewBox="0 0 9 8" fill="none" xmlns="http://www.w3.org/2000/svg">
<path d="M3.06956 2.19388C3.4893 2.19388 3.82957 1.85764 3.82957 1.44287C3.82957 1.02811 3.4893 0.691895 3.06956 0.691895C2.64983 0.691895 2.30957 1.02811 2.30957 1.44287C2.30957 1.85764 2.64983 2.19388 3.06956 2.19388Z" fill="black"/>
<path d="M7.89537 3.45895L5.68635 2.77094L4.70036 3.30194L4.28236 2.95795L5.66136 1.56894L5.65336 1.56195C5.74936 1.48195 5.81135 1.36194 5.81135 1.22794C5.81135 0.986936 5.61234 0.790955 5.37034 0.790955C5.22934 0.790955 5.10636 0.854956 5.02436 0.954956L3.41734 2.44293L2.41136 2.32394L1.59735 0.282959L1.59335 0.283936C1.53035 0.118936 1.36835 0.00195312 1.18135 0.00195312C0.937345 0.00195312 0.714351 0.196958 0.740351 0.437958C0.748351 0.514958 0.767354 0.541956 0.777354 0.579956L1.70335 3.16693L6.60334 6.45795C6.70134 6.52595 6.78735 6.57495 6.90235 6.57495C7.14635 6.57495 7.34336 6.37995 7.34336 6.13895C7.34336 5.99295 7.27136 5.86594 7.16136 5.78494H7.15934C7.15134 5.77894 7.14336 5.77294 7.13636 5.76694L4.94334 4.30994L5.81034 3.69495L7.64634 4.26495C7.72834 4.29595 7.77336 4.31394 7.87336 4.32794C8.11336 4.36494 8.31434 4.13294 8.31434 3.89194C8.31334 3.66094 8.13037 3.50995 7.89537 3.45895Z" fill="black"/>
<path d="M0.00927734 7.99405V4.22803L3.44128 5.96805L4.14429 7.99704C4.14429 7.99704 1.81128 7.99405 0.00927734 7.99405Z" fill="black"/>
<path fill-rule="evenodd" clip-rule="evenodd" d="M6.3335 7.201C4.7045 5.478 4.3125 6.36098 4.3125 6.36098C4.3125 6.36098 5.15449 6.31399 5.14249 7.10899C5.13249 7.73399 4.70449 7.949 4.40649 7.998L7.9595 7.99599C7.5565 7.89099 7.1305 8.043 6.3335 7.201Z" fill="black"/>
</svg>
