<svg width="8" height="8" viewBox="0 0 8 8" fill="none" xmlns="http://www.w3.org/2000/svg">
<path d="M7.33024 3.02612C7.33024 3.02612 7.24824 4.64513 5.82924 4.51013C5.82924 4.51013 5.67124 3.15512 7.33024 3.02612Z" fill="black"/>
<path d="M6.20036 5.138C6.38636 4.954 6.64036 4.84302 6.92236 4.84302C7.49136 4.84302 7.95436 5.30396 7.95436 5.87396C7.95436 5.89496 7.95436 5.913 7.95336 5.935H7.95136C7.93336 6.158 7.86236 6.43499 7.69436 6.77899C7.69436 6.77899 7.40536 7.332 7.17336 7.586L7.15236 7.60602C7.04036 7.71902 6.88236 7.78998 6.71136 7.78998C6.50136 7.78998 6.31536 7.68797 6.20236 7.52997H6.19836C6.08536 7.68797 5.89936 7.78998 5.68936 7.78998C5.51636 7.78998 5.36036 7.72002 5.24736 7.60602L5.22636 7.586C4.99636 7.332 4.70536 6.77899 4.70536 6.77899C4.53736 6.43499 4.46636 6.156 4.45036 5.935H4.44636C4.44336 5.914 4.44336 5.89596 4.44336 5.87396C4.44336 5.30396 4.90636 4.84302 5.47736 4.84302C5.75936 4.84302 6.01336 4.954 6.20036 5.138Z" fill="black"/>
<path d="M2.81211 0.209961H1.55811V0.677002H2.81211V0.209961Z" fill="black"/>
<path d="M0.663141 3.57503C0.663141 3.72703 0.874141 3.89503 1.04414 3.70003L1.50714 3.09602C1.52814 3.06902 1.55614 3.01203 1.55614 2.95003V1.50301C1.55614 1.09901 1.17914 1.43298 1.03614 1.57698L0.716141 1.98299C0.663141 2.05099 0.663141 2.07703 0.663141 2.11403V3.57503ZM0.369141 2.09303C0.369141 2.00503 0.39514 1.92501 0.44014 1.85701L1.00314 1.14803C1.16514 0.949025 1.33514 0.972 1.33514 0.972H2.78514C3.68414 1.06 3.68514 1.91499 3.68514 1.91499V7.46602C3.68514 7.61202 3.56614 7.73201 3.41914 7.73201H0.639141C0.492141 7.73201 0.372141 7.61302 0.372141 7.46602L0.369141 2.09303Z" fill="black"/>
</svg>
