<svg width="9" height="8" viewBox="0 0 9 8" fill="none" xmlns="http://www.w3.org/2000/svg">
<path d="M2.54947 3.88008L1.74547 4.51808L0.719474 5.30507C0.426474 5.53407 0.186474 5.2571 0.186474 5.2571C-0.0415262 4.9581 0.220474 4.76308 0.220474 4.76308L1.50047 3.7621C1.50047 3.7621 1.64047 3.61609 2.00847 3.72109L2.54947 3.88008Z" fill="black"/>
<path d="M4.04929 2.60297C4.45135 2.60297 4.77729 2.277 4.77729 1.87494C4.77729 1.47288 4.45135 1.14697 4.04929 1.14697C3.64723 1.14697 3.32129 1.47288 3.32129 1.87494C3.32129 2.277 3.64723 2.60297 4.04929 2.60297Z" fill="black"/>
<path d="M1.38535 5.81799C1.33535 5.67999 1.31435 5.52999 1.34835 5.37799C1.38935 5.20799 1.48235 5.06498 1.60635 4.95898L6.98835 0.674988C7.11935 0.578988 7.28035 0.520996 7.45535 0.520996C7.88535 0.520996 8.23035 0.867021 8.23035 1.29602C8.23035 1.54602 8.11635 1.76901 7.93535 1.91101C7.87135 1.96701 7.77735 1.96002 7.72335 1.89502C7.66635 1.83102 7.67535 1.73198 7.74035 1.67798C7.85635 1.59198 7.92935 1.45198 7.92935 1.29498C7.92935 1.03298 7.71635 0.820007 7.45435 0.820007C7.34435 0.820007 7.24535 0.856992 7.16635 0.916992L5.60235 2.16302L4.78435 4.53101L5.28035 5.71002C5.33935 5.69702 5.40035 5.68701 5.46335 5.68701C5.95935 5.68701 6.35935 6.08801 6.35935 6.58301C6.35935 7.08001 5.95935 7.479 5.46335 7.479C4.96935 7.479 4.56735 7.08001 4.56735 6.58301C4.56735 6.26401 4.73435 5.98101 4.98835 5.82501L4.63235 4.97101L4.60235 5.06201C4.49335 5.39701 4.13135 5.58002 3.79635 5.46802L2.13535 4.91998L1.81135 5.17999C1.73435 5.24299 1.67635 5.33199 1.65035 5.43799C1.62935 5.53499 1.64435 5.62702 1.67635 5.71002C1.73435 5.69902 1.79835 5.68701 1.86135 5.68701C2.35535 5.68701 2.75735 6.08801 2.75735 6.58301C2.75735 7.08001 2.35635 7.479 1.86135 7.479C1.36635 7.479 0.96535 7.08001 0.96535 6.58301C0.96335 6.25801 1.12735 5.97499 1.38535 5.81799ZM5.85135 6.58301C5.85135 6.36801 5.67735 6.19403 5.46235 6.19403C5.24735 6.19403 5.07335 6.36801 5.07335 6.58301C5.07335 6.79801 5.24735 6.97302 5.46235 6.97302C5.67735 6.97302 5.85135 6.79701 5.85135 6.58301ZM2.24835 6.58301C2.24835 6.36801 2.07435 6.19403 1.85935 6.19403C1.64435 6.19403 1.47135 6.36801 1.47135 6.58301C1.47135 6.79801 1.64535 6.97302 1.86035 6.97302C2.07535 6.97302 2.24835 6.79701 2.24835 6.58301Z" fill="black"/>
</svg>
