<svg width="9" height="10" viewBox="0 0 9 10" fill="none" xmlns="http://www.w3.org/2000/svg">
<path d="M3.979 0.866211H4.35001V2.27722H3.979V0.866211Z" fill="black"/>
<path d="M3.95703 7.72412H4.32803V9.13412H3.95703V7.72412Z" fill="black"/>
<path d="M6.89941 5.09827V4.72827H8.30942V5.09827H6.89941Z" fill="black"/>
<path d="M0.0141602 5.07608V4.70508H1.42416V5.07608H0.0141602Z" fill="black"/>
<path d="M0.55127 2.97415L0.731262 2.65015L1.96327 3.33316L1.78326 3.65717L0.55127 2.97415Z" fill="black"/>
<path d="M2.0293 1.46628L2.3443 1.26929L3.0923 2.46527L2.7773 2.66129L2.0293 1.46628Z" fill="black"/>
<path d="M5.3833 7.41324L5.70331 7.22925L6.40833 8.44925L6.08832 8.63525L5.3833 7.41324Z" fill="black"/>
<path d="M6.46094 6.42728L6.64096 6.10327L7.87494 6.78629L7.69296 7.11127L6.46094 6.42728Z" fill="black"/>
<path d="M2.26199 8.65207L1.93799 8.47208L2.62099 7.23706L2.94499 7.41705L2.26199 8.65207Z" fill="black"/>
<path d="M0.62323 7.08517L0.428223 6.77118L1.62323 6.02319L1.81822 6.33719L0.62323 7.08517Z" fill="black"/>
<path d="M6.59421 3.77628L6.4082 3.45428L7.62918 2.74927L7.81519 3.07028L6.59421 3.77628Z" fill="black"/>
<path d="M5.65018 2.71915L5.32617 2.53815L6.01016 1.30615L6.33417 1.48615L5.65018 2.71915Z" fill="black"/>
<path d="M4.16499 7.28632C5.42973 7.28632 6.455 6.26104 6.455 4.99631C6.455 3.73158 5.42973 2.7063 4.16499 2.7063C2.90026 2.7063 1.875 3.73158 1.875 4.99631C1.875 6.26104 2.90026 7.28632 4.16499 7.28632Z" fill="black"/>
</svg>
