<svg width="9" height="10" viewBox="0 0 9 10" fill="none" xmlns="http://www.w3.org/2000/svg">
<path d="M1.47078 6.79812C3.78778 7.77312 5.54778 8.34112 8.02678 9.12212C8.07778 9.13012 8.12477 9.09513 8.13177 9.04213C8.13977 8.99113 8.10477 8.94212 8.05377 8.93312C4.14977 7.70412 1.08376 6.34312 0.384763 6.02712C0.312763 5.99812 0.228772 6.03112 0.200772 6.10112C0.171772 6.17312 0.202763 6.25113 0.272763 6.27913C0.446763 6.35713 0.618772 6.43312 0.784772 6.50612L0.233762 6.92614C0.170762 7.01814 0.198769 7.13513 0.290769 7.19713C0.358769 7.24413 0.456763 7.23812 0.522763 7.19512L1.47078 6.79812Z" fill="black"/>
<path d="M6.10292 2.68604C6.46853 2.68604 6.76492 2.38966 6.76492 2.02405C6.76492 1.65844 6.46853 1.36206 6.10292 1.36206C5.73731 1.36206 5.44092 1.65844 5.44092 2.02405C5.44092 2.38966 5.73731 2.68604 6.10292 2.68604Z" fill="black"/>
<path d="M4.72404 4.29104L6.13004 3.60003L7.43504 4.80105C7.49404 4.85805 7.57404 4.89303 7.66004 4.89303C7.83604 4.89103 7.97604 4.74804 7.97404 4.57504C7.97404 4.48104 7.93104 4.39705 7.86704 4.33905L6.00204 2.62603C5.93904 2.56503 5.86704 2.51704 5.78704 2.48104L4.33604 1.96304L3.67603 1.00805C3.62503 0.938053 3.54704 0.891055 3.45504 0.879055C3.28304 0.859055 3.12504 0.984047 3.10504 1.15805C3.09704 1.23005 3.11503 1.30104 3.15003 1.35904L3.82404 2.33606C3.85504 2.37506 3.89403 2.40805 3.94103 2.43005L4.72204 2.73706L3.43904 3.39303C3.25904 3.49503 3.13204 3.67405 3.09704 3.88305L3.10304 5.05703L1.91604 5.59204C1.78304 5.65604 1.68705 5.78905 1.68205 5.94705C1.67205 6.17405 1.84804 6.36304 2.07504 6.37304C2.14504 6.37704 2.21404 6.36106 2.27204 6.33206L3.72404 5.67605C3.82804 5.62105 3.90604 5.52206 3.93104 5.40106L3.92904 4.67105L4.93704 5.57306L4.75105 7.11004C4.75105 7.12004 4.74905 7.13003 4.74905 7.13903C4.73905 7.36603 4.91504 7.55704 5.14204 7.56704C5.35504 7.57504 5.53703 7.42103 5.56603 7.21203L5.78304 5.45803C5.78304 5.45003 5.78504 5.44205 5.78504 5.43505C5.78904 5.31205 5.74004 5.20104 5.65804 5.12204L4.72404 4.29104Z" fill="black"/>
</svg>
