<svg width="9" height="6" viewBox="0 0 9 6" fill="none" xmlns="http://www.w3.org/2000/svg">
<path d="M8.08272 5.80109C7.91072 5.80109 7.74672 5.76211 7.60072 5.69611C7.45072 5.62811 7.28072 5.5871 7.10272 5.5871C6.92472 5.5871 6.75472 5.62811 6.60472 5.69611C6.45872 5.76211 6.29372 5.80109 6.12272 5.80109C5.95172 5.80109 5.78672 5.76211 5.64072 5.69611C5.48872 5.62811 5.31872 5.5871 5.14272 5.5871C4.96472 5.5871 4.79472 5.62811 4.64472 5.69611C4.49872 5.76211 4.33172 5.80109 4.16272 5.80109C3.99072 5.80109 3.82672 5.76211 3.67872 5.69611C3.52872 5.62811 3.35872 5.5871 3.18272 5.5871C3.00472 5.5871 2.83472 5.62811 2.68472 5.69611C2.53872 5.76211 2.37172 5.80109 2.20072 5.80109C2.03072 5.80109 1.86472 5.76211 1.71872 5.69611C1.56872 5.62811 1.39872 5.5871 1.22072 5.5871C1.04472 5.5871 0.874723 5.62811 0.724723 5.69611C0.576723 5.76211 0.411723 5.80109 0.240723 5.80109V5.07611C0.412723 5.07611 0.576723 5.03711 0.724723 4.97211C0.874723 4.90211 1.04472 4.86108 1.22072 4.86108C1.39872 4.86108 1.56872 4.90211 1.71872 4.97211C1.86472 5.03611 2.03172 5.07611 2.20072 5.07611C2.37272 5.07611 2.53872 5.03711 2.68472 4.97211C2.83472 4.90211 3.00472 4.86108 3.18272 4.86108C3.35872 4.86108 3.52872 4.90211 3.67872 4.97211C3.82672 5.03611 3.99172 5.07611 4.16272 5.07611C4.33272 5.07611 4.49872 5.03711 4.64472 4.97211C4.79472 4.90211 4.96472 4.86108 5.14272 4.86108C5.31872 4.86108 5.48872 4.90211 5.64072 4.97211C5.78672 5.03611 5.95172 5.07611 6.12272 5.07611C6.29372 5.07611 6.45872 5.03711 6.60472 4.97211C6.75472 4.90211 6.92472 4.86108 7.10272 4.86108C7.28072 4.86108 7.45072 4.90211 7.60072 4.97211C7.74672 5.03611 7.91172 5.07611 8.08272 5.07611V5.80109Z" fill="black"/>
<path d="M6.9467 3.75214C7.4627 3.75214 7.8807 3.3321 7.8807 2.8161C7.8807 2.3001 7.4627 1.88208 6.9467 1.88208C6.4307 1.88208 6.0127 2.3001 6.0127 2.8161C6.0127 3.3321 6.3937 3.75214 6.9467 3.75214Z" fill="black"/>
<path d="M1.51025 4.27826C1.58225 4.29626 1.65125 4.32122 1.71525 4.35022C1.86125 4.41622 2.02825 4.45526 2.19725 4.45526C2.36925 4.45526 2.53525 4.41622 2.68125 4.35022C2.83125 4.28222 3.00125 4.23926 3.17925 4.23926C3.35525 4.23926 3.52525 4.28222 3.67525 4.35022C3.82325 4.41622 3.98825 4.45526 4.15925 4.45526C4.32925 4.45526 4.49525 4.41622 4.64125 4.35022C4.79125 4.28222 4.96125 4.23926 5.13925 4.23926C5.31525 4.23926 5.48525 4.28222 5.63725 4.35022C5.78325 4.41622 5.94825 4.45526 6.11925 4.45526C6.24425 4.45526 6.36525 4.43425 6.47825 4.39825L4.92125 1.58722L6.73225 1.2572C6.99825 1.2062 7.19125 0.997225 7.19125 0.730225C7.19125 0.435225 6.95125 0.199219 6.65825 0.199219C6.63725 0.199219 6.61725 0.199233 6.59725 0.201233L3.80025 0.711243C3.60325 0.756243 3.34325 1.04322 3.49125 1.39722C3.49925 1.41722 3.50725 1.43422 3.51425 1.45422L4.24425 2.77222L1.51025 4.27826Z" fill="black"/>
</svg>
