<svg width="8" height="10" viewBox="0 0 8 10" fill="none" xmlns="http://www.w3.org/2000/svg">
<path d="M4.26456 6.4669C4.18056 6.4979 4.08656 6.51589 3.99156 6.51589C3.88756 6.51589 3.78655 6.50389 3.69255 6.47689L2.62957 8.9179C2.53256 9.1429 2.26556 9.2189 2.03256 9.0879C1.79956 8.9569 1.69056 8.6699 1.79056 8.44489L3.09256 5.4589H4.75257V5.1799L5.59256 4.78889C5.81356 4.68189 6.09856 4.86489 6.15656 5.09789L6.56856 6.7499C6.62756 6.9839 6.48455 7.22089 6.25055 7.27889C6.01655 7.33689 5.77756 7.1949 5.71956 6.9609L5.45755 5.90789L4.26456 6.4669Z" fill="black"/>
<path d="M5.03076 4.75586C6.84876 3.85386 7.55376 0.763859 7.55376 0.505859H7.30376C7.20976 1.15086 6.42876 3.72885 5.03076 4.47685V4.75586Z" fill="black"/>
<path d="M1.6745 4.07984C1.7705 4.22784 1.9615 4.29485 2.1315 4.22485L3.09349 3.84785V5.18185H4.7535V3.63685L6.2415 1.25585C6.3505 1.08185 6.3005 0.851848 6.1245 0.739848C5.9505 0.630848 5.7205 0.680856 5.6225 0.850856L4.35849 2.87385L3.5965 2.87585C3.5475 2.87585 3.4985 2.88386 3.4505 2.90286L2.1355 3.41885L1.45749 2.39186C1.34649 2.21986 1.1155 2.16885 0.9415 2.28085C0.7675 2.39285 0.716493 2.62485 0.828493 2.79885L1.6745 4.07984Z" fill="black"/>
<path d="M3.80992 2.73972C4.17498 2.73972 4.47092 2.44378 4.47092 2.07872C4.47092 1.71366 4.17498 1.41772 3.80992 1.41772C3.44486 1.41772 3.14893 1.71366 3.14893 2.07872C3.14893 2.44378 3.44486 2.73972 3.80992 2.73972Z" fill="black"/>
<path d="M4.75363 9.49388V6.51489L4.47363 6.64589V9.49388H4.75363Z" fill="black"/>
</svg>
