<svg width="4" height="10" viewBox="0 0 4 10" fill="none" xmlns="http://www.w3.org/2000/svg">
<path d="M2.42468 0.761719C2.02668 0.804719 0.576683 1.4687 0.533683 4.8847C0.488683 8.4847 2.02568 9.24174 2.42868 9.23474V6.85773C2.09668 6.85773 2.03068 6.49673 1.95368 5.75073C1.90468 5.25673 1.88968 4.64673 1.95368 4.03973C2.00068 3.61373 2.07868 3.19775 2.42668 3.19775L2.42468 0.761719Z" fill="black"/>
<path d="M3.52459 9.23871C3.67859 9.23871 3.78859 9.11372 3.78859 8.97272L3.79059 8.9707C3.79059 8.9707 3.78859 7.11876 3.78859 7.11676C3.78859 6.97076 3.66959 6.85474 3.52459 6.85474H2.85059V9.23773C2.85059 9.23773 3.52259 9.23973 3.52259 9.23773L3.52459 9.23871Z" fill="black"/>
<path d="M3.52459 3.19775C3.67859 3.19775 3.78859 3.0727 3.78859 2.9317H3.79059C3.79059 2.9317 3.78859 1.02574 3.78859 1.02374C3.78859 0.877743 3.66959 0.761719 3.52459 0.761719H2.85059V3.19775L3.52259 3.19971L3.52459 3.19775Z" fill="black"/>
</svg>
