<svg width="8" height="8" viewBox="0 0 8 8" fill="none" xmlns="http://www.w3.org/2000/svg">
<path d="M5.47607 1.68164V2.13864C5.47607 2.26664 5.5801 2.37065 5.7081 2.37065H7.06509C7.19409 2.37065 7.29709 2.26664 7.29709 2.13864V1.68164H5.47607Z" fill="black"/>
<path d="M7.29602 3.16162H6.60101C6.49701 3.16162 6.41504 3.24462 6.41504 3.34662V3.85562C6.41504 3.95862 6.49701 4.04062 6.60101 4.04062H7.29602C7.40002 4.04062 7.48203 3.95862 7.48203 3.85562V3.34662C7.48203 3.24462 7.40002 3.16162 7.29602 3.16162Z" fill="black"/>
<path d="M7.29602 5.78564H6.60101C6.49701 5.78564 6.41504 5.86765 6.41504 5.97165V6.47964C6.41504 6.58165 6.49701 6.66565 6.60101 6.66565H7.29602C7.40002 6.66565 7.48203 6.58165 7.48203 6.47964V5.97165C7.48203 5.86765 7.40002 5.78564 7.29602 5.78564Z" fill="black"/>
<path d="M6.55644 7.02563H1.73044C1.62844 7.02563 1.54443 7.10763 1.54443 7.20963V7.71964C1.54443 7.82164 1.62844 7.90363 1.73044 7.90363H6.55644C6.65844 7.90363 6.74043 7.82164 6.74043 7.71964V7.20963C6.74043 7.10763 6.65844 7.02563 6.55644 7.02563Z" fill="black"/>
<path d="M1.90831 6.47867V5.97066C1.90831 5.86666 1.82432 5.78467 1.72232 5.78467H1.02531C0.923314 5.78467 0.841309 5.86666 0.841309 5.97066V6.47867C0.841309 6.58067 0.923314 6.66466 1.02531 6.66466H1.72232C1.82432 6.66466 1.90831 6.58067 1.90831 6.47867Z" fill="black"/>
<path d="M1.02531 4.03964H1.72232C1.82432 4.03964 1.90831 3.95764 1.90831 3.85464V3.34564C1.90831 3.24364 1.82432 3.16064 1.72232 3.16064H1.02531C0.923314 3.16064 0.841309 3.24364 0.841309 3.34564V3.85464C0.841309 3.95764 0.923314 4.03964 1.02531 4.03964Z" fill="black"/>
<path d="M1.18124 2.37065H2.53824C2.66724 2.37065 2.77023 2.26664 2.77023 2.13864V1.68164H0.948242V2.13864C0.949242 2.26664 1.05224 2.37065 1.18124 2.37065Z" fill="black"/>
<path d="M5.90445 3.16162H5.20746C5.10546 3.16162 5.02344 3.24462 5.02344 3.34662V3.85562C5.02344 3.95862 5.10546 4.04062 5.20746 4.04062H5.90445C6.00645 4.04062 6.08844 3.95862 6.08844 3.85562V3.34662C6.08744 3.24462 6.00545 3.16162 5.90445 3.16162Z" fill="black"/>
<path d="M6.79208 5.17252V4.66451C6.79208 4.5625 6.70808 4.47852 6.60608 4.47852H5.90909C5.80709 4.47852 5.7251 4.5625 5.7251 4.66451V5.17252C5.7251 5.27652 5.80709 5.35851 5.90909 5.35851H6.60608C6.70808 5.35751 6.79208 5.27552 6.79208 5.17252Z" fill="black"/>
<path d="M5.20645 6.66466H5.90344C6.00544 6.66466 6.08746 6.58067 6.08746 6.47867V5.97066C6.08746 5.86666 6.00544 5.78467 5.90344 5.78467H5.20645C5.10445 5.78467 5.02246 5.86666 5.02246 5.97066V6.47867C5.02346 6.58067 5.10545 6.66466 5.20645 6.66466Z" fill="black"/>
<path d="M5.39804 5.17252V4.66451C5.39804 4.5625 5.31605 4.47852 5.21405 4.47852H4.51706C4.41506 4.47852 4.33105 4.5625 4.33105 4.66451V5.17252C4.33105 5.27652 4.41506 5.35851 4.51706 5.35851H5.21405C5.31605 5.35751 5.39804 5.27552 5.39804 5.17252Z" fill="black"/>
<path d="M3.81442 6.66466H4.50943C4.61143 6.66466 4.69543 6.58067 4.69543 6.47867V5.97066C4.69543 5.86666 4.61143 5.78467 4.50943 5.78467H3.81442C3.71042 5.78467 3.62842 5.86666 3.62842 5.97066V6.47867C3.62842 6.58067 3.71042 6.66466 3.81442 6.66466Z" fill="black"/>
<path d="M4.50943 4.03964C4.61143 4.03964 4.69543 3.95764 4.69543 3.85464V3.34564C4.69543 3.24364 4.61143 3.16064 4.50943 3.16064H3.81442C3.71042 3.16064 3.62842 3.24364 3.62842 3.34564V3.85464C3.62842 3.95764 3.71042 4.03964 3.81442 4.03964H4.50943Z" fill="black"/>
<path d="M4.00549 5.17252V4.66451C4.00549 4.5625 3.92149 4.47852 3.81949 4.47852H3.12247C3.02047 4.47852 2.93848 4.5625 2.93848 4.66451V5.17252C2.93848 5.27652 3.02047 5.35851 3.12247 5.35851H3.81949C3.92149 5.35751 4.00549 5.27552 4.00549 5.17252Z" fill="black"/>
<path d="M2.42912 6.66466H3.12613C3.22813 6.66466 3.3121 6.58067 3.3121 6.47867V5.97066C3.3121 5.86666 3.22813 5.78467 3.12613 5.78467H2.42912C2.32712 5.78467 2.24512 5.86666 2.24512 5.97066V6.47867C2.24612 6.58067 2.32812 6.66466 2.42912 6.66466Z" fill="black"/>
<path d="M3.11734 4.03964C3.21934 4.03964 3.30133 3.95764 3.30133 3.85464V3.34564C3.30133 3.24364 3.21934 3.16064 3.11734 3.16064H2.42033C2.31833 3.16064 2.23633 3.24364 2.23633 3.34564V3.85464C2.23633 3.95764 2.31833 4.03964 2.42033 4.03964H3.11734Z" fill="black"/>
<path d="M1.54443 4.66451V5.17252C1.54443 5.27652 1.62844 5.35851 1.73044 5.35851H2.42743C2.52943 5.35851 2.61143 5.27652 2.61143 5.17252V4.66451C2.61143 4.5625 2.52943 4.47852 2.42743 4.47852H1.73044C1.62844 4.47852 1.54443 4.5625 1.54443 4.66451Z" fill="black"/>
<path d="M2.77122 1.49968C2.77122 1.36768 2.88223 1.14067 4.12523 1.13667C5.36523 1.13267 5.47722 1.36768 5.47722 1.49968C5.47722 1.51368 5.47722 1.52367 5.47722 1.53767H7.29921C7.29921 1.53767 7.29921 1.50367 7.29921 1.48967C7.29921 1.25267 6.87123 0.0966797 4.12523 0.0966797C1.37723 0.0966797 0.949219 1.25167 0.949219 1.48967C0.949219 1.50367 0.949219 1.53767 0.949219 1.53767H2.77122C2.77122 1.52467 2.77122 1.51368 2.77122 1.49968Z" fill="black"/>
</svg>
