<svg width="9" height="8" viewBox="0 0 9 8" fill="none" xmlns="http://www.w3.org/2000/svg">
<path d="M1.08403 4.46056C1.2464 4.46056 1.37804 4.32894 1.37804 4.16656C1.37804 4.00419 1.2464 3.87256 1.08403 3.87256C0.921658 3.87256 0.790039 4.00419 0.790039 4.16656C0.790039 4.32894 0.921658 4.46056 1.08403 4.46056Z" fill="black"/>
<path d="M5.17271 1.41769C5.52618 1.41769 5.81271 1.13116 5.81271 0.777695C5.81271 0.424232 5.52618 0.137695 5.17271 0.137695C4.81925 0.137695 4.53271 0.424232 4.53271 0.777695C4.53271 1.13116 4.81925 1.41769 5.17271 1.41769Z" fill="black"/>
<path d="M7.92104 7.11465L6.88203 5.88764C6.88203 5.88764 6.55803 3.99265 6.55803 3.98965C6.55803 3.98765 6.50903 3.77465 6.50903 3.77465C6.51103 3.77665 6.37804 3.17664 6.27704 2.70864C6.43904 2.80264 6.58603 2.88665 6.59303 2.89065C6.60103 2.90865 7.14404 3.94164 7.14404 3.94164C7.18504 4.01764 7.25304 4.07465 7.33504 4.09965C7.41904 4.12465 7.50704 4.11765 7.58304 4.07665C7.65904 4.03765 7.71604 3.96964 7.74104 3.88564C7.76804 3.80364 7.76103 3.71564 7.72003 3.63964L7.12404 2.50465C7.12404 2.50465 7.10103 2.46364 7.06903 2.43264C7.02603 2.38964 6.93204 2.33665 6.93204 2.33665L5.77603 1.67864C5.63003 1.60464 5.46704 1.57865 5.30504 1.61465C5.23904 1.62865 5.17603 1.65365 5.10603 1.69265C5.09803 1.69465 4.84203 1.80765 4.69403 2.15565L4.10004 3.35064C4.10004 3.35064 3.19603 3.52665 3.16403 3.53265C3.15603 3.53465 3.14804 3.53664 3.14304 3.54064L2.29803 2.94265C2.10903 2.80965 2.08504 2.41165 2.08304 2.39565C2.06004 2.12265 1.90303 1.86464 1.65303 1.68664C1.42603 1.52664 1.15303 1.45765 0.90303 1.49865C0.70803 1.53165 0.542035 1.63364 0.436035 1.78164C0.354035 1.89664 0.311035 2.03565 0.311035 2.18365L0.323044 2.31264C0.366044 2.56464 0.52004 2.79864 0.74704 2.96064C0.97604 3.12264 1.24704 3.19064 1.49704 3.14864L1.55603 3.13665C1.56203 3.13265 1.93704 3.01765 2.12004 3.14265C2.12004 3.14265 2.75204 3.58964 2.92004 3.70864C2.90204 3.73564 2.87103 3.79665 2.87303 3.85865C2.87303 3.87865 2.87504 3.89764 2.87904 3.91764C2.91204 4.09364 3.08404 4.21065 3.26004 4.17565L4.38104 3.95664C4.38104 3.95664 4.47704 3.92765 4.51804 3.89765C4.57104 3.86065 4.61003 3.78265 4.61003 3.78265L4.90503 3.18865C4.90503 3.18865 5.10803 4.14764 5.11203 4.16564C5.08903 4.18864 4.19203 5.14065 4.19203 5.14065L4.17604 5.16065C4.08804 5.24065 4.03903 5.34665 4.03903 5.45765V7.47364C4.03903 7.68864 4.21504 7.86265 4.43004 7.86265C4.64304 7.86265 4.81903 7.68864 4.81903 7.47364C4.81903 7.47364 4.81903 5.81765 4.81903 5.78965C4.90103 5.70365 5.58903 4.97865 5.77203 4.78765C5.79203 4.90065 5.96904 5.92265 5.96904 5.92265C5.98504 6.01265 6.02804 6.09465 6.09204 6.16065L7.32603 7.61965C7.39403 7.69765 7.48804 7.74664 7.59204 7.75664C7.69604 7.76464 7.79503 7.73165 7.87503 7.66465C7.96503 7.58865 8.01204 7.47665 8.01204 7.36765C8.01204 7.27665 7.98304 7.18865 7.92104 7.11465ZM1.76004 2.72065C1.69204 2.81665 1.58603 2.87864 1.45503 2.90264C1.27103 2.93364 1.06604 2.88164 0.894043 2.75664C0.720043 2.63364 0.603037 2.45765 0.572037 2.27465L0.564041 2.18264C0.564041 2.08664 0.589044 2.00064 0.642044 1.92664C0.812044 1.68864 1.20103 1.67264 1.50903 1.89164C1.81603 2.10864 1.92904 2.48165 1.76004 2.72065Z" fill="black"/>
</svg>
