<svg width="6" height="10" viewBox="0 0 6 10" fill="none" xmlns="http://www.w3.org/2000/svg">
<path d="M2.99694 2.11688C3.362 2.11688 3.65794 1.82099 3.65794 1.45593C3.65794 1.09087 3.362 0.794922 2.99694 0.794922C2.63188 0.794922 2.33594 1.09087 2.33594 1.45593C2.33594 1.82099 2.63188 2.11688 2.99694 2.11688Z" fill="black"/>
<path d="M1.87972 2.22578C1.90472 2.12378 1.84072 2.02278 1.74072 1.99678L1.18972 1.86378C1.08572 1.84078 0.984724 1.90082 0.960724 2.00282L0.497724 3.91877C0.472724 4.02077 0.534724 4.12178 0.636724 4.14778L1.18972 4.28077C1.28972 4.30577 1.39272 4.24379 1.41672 4.14179L1.87972 2.22578Z" fill="black"/>
<path d="M4.42192 9.04089C4.42192 9.04489 4.41992 9.0489 4.41992 9.0509C4.41992 9.1349 4.48792 9.20288 4.57192 9.20288C4.64792 9.20288 4.71292 9.14389 4.72192 9.06989L5.83092 3.05188C5.83092 3.04788 5.83092 3.04392 5.83092 3.03992C5.83092 2.95792 5.76492 2.88989 5.68092 2.88989C5.60492 2.88989 5.54592 2.94889 5.53092 3.02289L4.42192 9.04089Z" fill="black"/>
<path d="M0.731633 8.64576C0.725633 8.67676 0.723633 8.70876 0.723633 8.73976C0.723633 8.99776 0.930633 9.20472 1.18863 9.20472C1.39963 9.20472 1.57763 9.06375 1.63363 8.87275L2.43263 5.56575L3.19463 8.85273C3.24363 9.05573 3.42663 9.20472 3.64363 9.20472C3.90163 9.20472 4.10863 8.99776 4.10863 8.73976C4.10863 8.70476 4.10463 8.67177 4.09863 8.63777L3.05363 4.27076L3.14163 3.88575L3.20963 4.18873C3.27263 4.38573 3.45163 4.40571 3.45163 4.40571L4.52763 4.67872C4.54863 4.68272 4.57063 4.68476 4.59163 4.68476C4.76763 4.68476 4.90963 4.54372 4.90963 4.36872C4.90963 4.21872 4.80563 4.09175 4.66563 4.05775L3.73363 3.82374L3.47963 2.78474C3.35863 2.20474 2.80363 2.21876 2.80363 2.21876C2.26463 2.20476 2.12963 2.77174 2.12963 2.77174L0.731633 8.64576Z" fill="black"/>
</svg>
