<svg width="10" height="6" viewBox="0 0 10 6" fill="none" xmlns="http://www.w3.org/2000/svg">
<path d="M3.59575 4.63907H1.99575C1.44075 4.63907 0.991746 4.19006 0.991746 3.63506L0.989746 1.88107C0.989746 1.12807 1.59875 0.518066 2.35075 0.518066H6.98375C7.73575 0.518066 8.34575 1.12807 8.34575 1.88107L8.34775 4.35807H9.05675C9.20975 4.35807 9.33375 4.48507 9.33375 4.63707H5.73775C5.70275 4.07407 5.23875 3.62807 4.66675 3.62807C4.09475 3.62807 3.63075 4.07507 3.59575 4.63907ZM7.22775 2.40907C7.38375 2.40907 7.50875 2.28207 7.50875 2.12807V1.66106C7.50875 1.50706 7.38375 1.38007 7.22775 1.38007H6.25075C6.09575 1.38007 5.96975 1.50706 5.96975 1.66106V2.12807C5.96975 2.28207 6.09575 2.40907 6.25075 2.40907H7.22775ZM4.43375 2.41106C4.58875 2.41106 4.71475 2.28407 4.71475 2.13007V1.66106C4.71475 1.50706 4.58875 1.38007 4.43375 1.38007H2.31775C2.16275 1.38007 2.03675 1.50706 2.03675 1.66106V2.13007C2.03675 2.28407 2.16275 2.41106 2.31775 2.41106H4.43375Z" fill="black"/>
<path d="M3.89258 4.70808C3.89258 4.28008 4.23858 3.93408 4.66558 3.93408C5.09258 3.93408 5.43858 4.28008 5.43858 4.70808C5.43858 5.13508 5.09258 5.48208 4.66558 5.48208C4.23858 5.48208 3.89258 5.13508 3.89258 4.70808ZM4.66658 5.04308C4.85258 5.04308 5.00258 4.89408 5.00258 4.70808C5.00258 4.52208 4.85258 4.37209 4.66658 4.37209C4.48158 4.37209 4.33158 4.52208 4.33158 4.70808C4.33158 4.89408 4.48158 5.04308 4.66658 5.04308Z" fill="black"/>
</svg>
