<svg width="7" height="8" viewBox="0 0 7 8" fill="none" xmlns="http://www.w3.org/2000/svg">
<path d="M4.75701 2.42603C5.08701 2.42603 5.35901 2.68204 5.38601 3.00604L5.46601 4.20105L6.26101 4.68103L6.25901 6.70105H5.90401L5.90601 7.36108C5.90601 7.64608 5.67601 7.87506 5.39001 7.87506C5.10701 7.87506 4.87601 7.64608 4.87601 7.36108V6.70105H1.44501L1.44701 7.36108C1.44701 7.64608 1.21701 7.87506 0.931012 7.87506C0.648012 7.87506 0.417012 7.64608 0.417012 7.36108V6.70105H0.0640116L0.0620117 4.68103L0.857012 4.20105L0.937012 3.00604C0.962012 2.68204 1.23401 2.42603 1.56601 2.42603H4.75701ZM0.919012 5.80804C1.15501 5.80804 1.34901 5.61705 1.34901 5.37805C1.34901 5.13905 1.15601 4.94604 0.919012 4.94604C0.681012 4.94604 0.487012 5.13905 0.487012 5.37805C0.487012 5.61705 0.681012 5.80804 0.919012 5.80804ZM4.57601 6.02502V4.93707C4.57601 4.83007 4.48801 4.74207 4.38101 4.74207H1.93501C1.83001 4.74207 1.74201 4.83007 1.74201 4.93707V6.02502H4.57601ZM5.83301 5.37903C5.83301 5.14103 5.64201 4.94708 5.40301 4.94708C5.16401 4.94708 4.97101 5.14003 4.97101 5.37903C4.97101 5.61803 5.16401 5.80908 5.40301 5.80908C5.64201 5.80908 5.83301 5.61703 5.83301 5.37903ZM5.16101 4.18903L5.08301 3.02905C5.06901 2.86105 4.92901 2.73004 4.75701 2.73004H1.56601C1.39401 2.73004 1.25301 2.86105 1.23801 3.02905L1.16201 4.18903H5.16101Z" fill="black"/>
<path d="M5.69099 0.125C6.00499 0.125 6.25899 0.378979 6.25899 0.690979V4.35498L5.73599 4.03497L5.66799 2.96497C5.62099 2.50397 5.22999 2.14301 4.75799 2.14301H1.56599C1.09099 2.14301 0.702988 2.50397 0.655988 2.96497L0.587988 4.03497L0.0629883 4.35498L0.0649886 0.690979C0.0649886 0.377979 0.318989 0.125 0.630989 0.125H5.69099Z" fill="black"/>
</svg>
