<svg width="8" height="8" viewBox="0 0 8 8" fill="none" xmlns="http://www.w3.org/2000/svg">
<path d="M3.11572 5.3028V3.98077C3.11572 3.44377 3.55172 3.00781 4.09072 3.00781C4.62772 3.00781 5.06372 3.44377 5.06372 3.98077V5.3028H3.11572Z" fill="black"/>
<path d="M4.16056 0.901733C5.57456 0.901733 6.72156 2.04771 6.72156 3.46271V6.76373H7.45056L7.44856 3.46271C7.44856 1.64871 5.97556 0.177734 4.16156 0.177734C2.34756 0.177734 0.874558 1.64871 0.874558 3.46271L0.872559 6.76575L1.60156 6.76373V3.46271C1.59956 2.04871 2.74656 0.901733 4.16056 0.901733Z" fill="black"/>
<path d="M4.2878 5.58569H3.8908L3.8418 5.86267H4.3378L4.2878 5.58569Z" fill="black"/>
<path d="M4.41075 6.28882H3.77175L3.69775 6.70483H4.48075L4.41075 6.28882Z" fill="black"/>
<path d="M4.57681 7.26587H3.60181L3.50781 7.82184H4.67381L4.57681 7.26587Z" fill="black"/>
</svg>
