<svg width="9" height="8" viewBox="0 0 9 8" fill="none" xmlns="http://www.w3.org/2000/svg">
<path d="M6.05499 2.31C6.4079 2.31 6.694 2.0239 6.694 1.67099C6.694 1.31808 6.4079 1.03198 6.05499 1.03198C5.70208 1.03198 5.41602 1.31808 5.41602 1.67099C5.41602 2.0239 5.70208 2.31 6.05499 2.31Z" fill="black"/>
<path d="M4.16766 3.75499L5.62066 3.33098L6.65967 4.69399C6.70467 4.75799 6.77467 4.80499 6.85867 4.81899C7.02467 4.84599 7.18066 4.73497 7.21066 4.56697C7.22466 4.47897 7.19867 4.39098 7.14767 4.32698L5.66165 2.38399C5.61265 2.31599 5.55266 2.25696 5.48166 2.21196L4.18866 1.47597L4.18466 0.24199C4.14766 0.16799 4.08267 0.10897 3.99667 0.0839699C3.83467 0.0349699 3.66466 0.126987 3.61566 0.288987C3.59566 0.356987 3.60167 0.427976 3.62567 0.489976L3.63968 1.74397C3.66068 1.78697 3.69465 1.82398 3.73565 1.85298L4.42666 2.27696L3.09466 2.68498C2.90866 2.75098 2.75666 2.89997 2.68866 3.09297L2.49766 4.20998L1.27867 4.52098C1.14167 4.55998 1.02866 4.66896 0.995664 4.81996C0.948664 5.03296 1.08366 5.24397 1.29866 5.29097C1.36466 5.30697 1.43167 5.30299 1.49167 5.28499L2.98367 4.90398C3.09067 4.86898 3.18266 4.78699 3.22766 4.67699L3.34668 3.98198L4.15567 5.00899L3.71966 6.44096C3.71766 6.45096 3.71365 6.45897 3.71365 6.46797C3.66465 6.68097 3.80168 6.89198 4.01468 6.93898C4.21568 6.98398 4.41466 6.86699 4.47766 6.67299L4.97766 5.04198C4.97966 5.03398 4.98167 5.02598 4.98367 5.02098C5.00867 4.90398 4.97968 4.78897 4.91568 4.70097L4.16766 3.75499Z" fill="black"/>
<path fill-rule="evenodd" clip-rule="evenodd" d="M0.207031 7.92892H8.11603V7.02194L6.58203 7.30594L5.24805 6.97192L4.28403 7.33093L3.04904 6.99692L1.71303 7.35394L0.207031 6.97192V7.92892Z" fill="black"/>
</svg>
