<svg width="8" height="8" viewBox="0 0 8 8" fill="none" xmlns="http://www.w3.org/2000/svg">
<path d="M0.776367 0.621826H3.64137V0.898865H3.36437V1.20587L0.776367 1.43085V0.621826Z" fill="black"/>
<path d="M4.84459 1.44989C5.20965 1.44989 5.50559 1.15394 5.50559 0.788879C5.50559 0.423819 5.20965 0.12793 4.84459 0.12793C4.47953 0.12793 4.18359 0.423819 4.18359 0.788879C4.18359 1.15394 4.47953 1.44989 4.84459 1.44989Z" fill="black"/>
<path d="M5.34444 1.41273C5.53344 1.22473 5.83844 1.22473 6.02844 1.41273L7.45844 2.84071C7.51344 2.89571 7.54644 2.97172 7.54644 3.05372V7.33875C7.54644 7.63375 7.30844 7.87171 7.01344 7.87171C6.71844 7.87171 6.47644 7.63375 6.47644 7.33875V3.80372L5.14444 2.46974L4.61144 3.00276C4.55044 3.07476 4.46144 3.12171 4.35744 3.12171C4.26144 3.12171 4.17544 3.08072 4.11544 3.01472L3.19744 2.09474C3.08044 1.95574 3.09044 1.74476 3.22844 1.62776C3.36644 1.51076 3.57444 1.52971 3.69144 1.66871L4.38844 2.36976L5.34444 1.41273Z" fill="black"/>
<path d="M2.56536 1.61591C2.55136 1.55191 2.49536 1.50488 2.42836 1.50488C2.36036 1.50488 2.30336 1.55393 2.29136 1.61993L2.06836 2.8949V7.83789H3.95536V7.1369H2.79836L2.79036 2.8949L2.56536 1.61591Z" fill="black"/>
</svg>
