<svg width="7" height="10" viewBox="0 0 7 10" fill="none" xmlns="http://www.w3.org/2000/svg">
<path d="M1.9209 4.2518H2.40891C2.5479 4.2518 2.65891 4.1418 2.65891 4.0038V2.54881C2.65891 2.41081 2.5479 2.2998 2.40891 2.2998H1.9209V4.2518Z" fill="black"/>
<path d="M1.9209 7.15088H2.40891C2.5479 7.15088 2.65891 7.26188 2.65891 7.39988V8.85488C2.65891 8.99188 2.5479 9.10288 2.40891 9.10288H1.9209V7.15088Z" fill="black"/>
<path d="M1.33711 5.70178C1.33311 4.37178 1.58312 4.25278 1.72612 4.25278C1.74212 4.25278 1.75111 4.25278 1.76711 4.25278V2.30078C1.76711 2.30078 1.73011 2.30078 1.71611 2.30078C1.46211 2.30078 0.224121 2.75878 0.224121 5.70178C0.224121 8.64478 1.46211 9.10278 1.71611 9.10278C1.73011 9.10278 1.76711 9.10278 1.76711 9.10278V7.15078C1.75111 7.15078 1.74212 7.15078 1.72612 7.15078C1.58312 7.15078 1.34111 7.03078 1.33711 5.70178Z" fill="black"/>
<path d="M3.01514 2.85883C3.09914 2.95983 3.14413 3.08683 3.14413 3.21684C3.14413 3.34684 3.09914 3.47484 3.01514 3.57484L3.29013 3.80183C3.42513 3.63783 3.49915 3.42984 3.49915 3.21684C3.49915 3.00383 3.42513 2.79584 3.29013 2.63184L3.01514 2.85883Z" fill="black"/>
<path d="M3.8999 4.45593C4.2009 4.12693 4.36688 3.69993 4.36688 3.25393C4.36688 2.80993 4.20289 2.38293 3.90189 2.05493L3.63388 2.28793C3.87588 2.55193 4.01089 2.89393 4.01089 3.25393C4.01089 3.61393 3.87588 3.95793 3.62988 4.22293L3.8999 4.45593Z" fill="black"/>
<path d="M4.50906 5.1088C4.97606 4.6158 5.23407 3.9688 5.23407 3.2908C5.23407 2.6138 4.97808 1.96981 4.51508 1.47681L4.25107 1.7168C4.65307 2.1438 4.87607 2.7028 4.87607 3.2908C4.87607 3.8808 4.65307 4.4408 4.24707 4.8688L4.50906 5.1088Z" fill="black"/>
<path d="M5.11984 5.76197C5.75084 5.10397 6.09882 4.23897 6.09882 3.32597C6.09882 2.41697 5.75282 1.55497 5.12582 0.896973L4.86783 1.14297C5.43183 1.73397 5.74283 2.50897 5.74283 3.32597C5.74283 4.14597 5.42982 4.92397 4.86182 5.51397L5.11984 5.76197Z" fill="black"/>
</svg>
