<svg width="9" height="10" viewBox="0 0 9 10" fill="none" xmlns="http://www.w3.org/2000/svg">
<path d="M4.14914 2.40961C4.59152 2.40961 4.95015 2.05099 4.95015 1.60861C4.95015 1.16623 4.59152 0.807617 4.14914 0.807617C3.70676 0.807617 3.34814 1.16623 3.34814 1.60861C3.34814 2.05099 3.70676 2.40961 4.14914 2.40961Z" fill="black"/>
<path d="M8.08119 9.19266C7.91119 9.19266 7.7472 9.15568 7.5992 9.08868C7.4492 9.01868 7.2792 8.97766 7.1012 8.97766C6.9252 8.97766 6.75519 9.01868 6.60519 9.08868C6.45919 9.15468 6.29219 9.19266 6.12119 9.19266C5.95119 9.19266 5.78519 9.15568 5.63919 9.08868C5.48919 9.01868 5.31919 8.97766 5.14119 8.97766C4.96519 8.97766 4.79519 9.01868 4.64519 9.08868C4.49719 9.15468 4.33219 9.19266 4.16119 9.19266C3.99119 9.19266 3.8252 9.15568 3.6792 9.08868C3.5292 9.01868 3.3592 8.97766 3.1812 8.97766C3.0052 8.97766 2.8352 9.01868 2.6832 9.08868C2.5372 9.15468 2.37219 9.19266 2.20219 9.19266C2.03019 9.19266 1.8662 9.15568 1.7202 9.08868C1.5702 9.01868 1.4002 8.97766 1.2222 8.97766C1.0442 8.97766 0.874197 9.01868 0.724197 9.08868C0.578197 9.15468 0.413188 9.19266 0.242188 9.19266V8.46967C0.414188 8.46967 0.578197 8.43065 0.724197 8.36465C0.874197 8.29465 1.0442 8.25366 1.2222 8.25366C1.4002 8.25366 1.5702 8.29465 1.7202 8.36465C1.8662 8.43065 2.03119 8.46967 2.20219 8.46967C2.37319 8.46967 2.5372 8.43065 2.6832 8.36465C2.8352 8.29465 3.0052 8.25366 3.1812 8.25366C3.3592 8.25366 3.5292 8.29465 3.6792 8.36465C3.8252 8.43065 3.99219 8.46967 4.16119 8.46967C4.33319 8.46967 4.49719 8.43065 4.64519 8.36465C4.79519 8.29465 4.96519 8.25366 5.14119 8.25366C5.31919 8.25366 5.48919 8.29465 5.63919 8.36465C5.78519 8.43065 5.95219 8.46967 6.12119 8.46967C6.29319 8.46967 6.45919 8.43065 6.60519 8.36465C6.75519 8.29465 6.9252 8.25366 7.1012 8.25366C7.2792 8.25366 7.4492 8.29465 7.5992 8.36465C7.7472 8.43065 7.91219 8.46967 8.08119 8.46967V9.19266Z" fill="black"/>
<path d="M5.01413 7.78259C4.88313 7.79659 4.75813 7.8356 4.64313 7.8876C4.53213 7.9366 4.41113 7.96961 4.28613 7.98361V6.00662L5.01514 5.52661V7.78259H5.01413Z" fill="black"/>
<path d="M4.01422 7.98749C3.89522 7.97149 3.78222 7.93448 3.67622 7.88748C3.55122 7.82848 3.41622 7.79149 3.27222 7.78049L3.27422 7.15347H2.25822L2.04022 6.1745C2.03622 6.1415 2.03223 6.11347 2.03223 6.08047C2.03223 5.76447 2.23322 5.49248 2.51122 5.38748L2.51323 3.40149C2.51323 2.92449 2.89022 2.54248 3.35722 2.54248L4.92322 2.54449C5.43722 2.54449 5.77823 2.97448 5.77823 3.41348V5.55847C5.78023 5.95647 5.26022 5.95647 5.26022 5.55847V3.56848H5.01422L5.01222 4.95349H3.28223V3.56848H3.03423V5.39249C3.08923 5.41249 3.13922 5.43748 3.18622 5.46848L4.01422 6.00748V7.98749ZM2.31122 6.08148H3.23523C3.23523 5.91348 3.14722 5.76849 3.01222 5.68649C2.92622 5.91149 2.61722 5.91148 2.53322 5.68448C2.40122 5.76548 2.31122 5.91348 2.31122 6.08148Z" fill="black"/>
</svg>
