<svg width="9" height="10" viewBox="0 0 9 10" fill="none" xmlns="http://www.w3.org/2000/svg">
<path d="M4.38458 1.80774C4.6679 1.80774 4.89758 1.57806 4.89758 1.29474C4.89758 1.01142 4.6679 0.781738 4.38458 0.781738C4.10126 0.781738 3.87158 1.01142 3.87158 1.29474C3.87158 1.57806 4.10126 1.80774 4.38458 1.80774Z" fill="black"/>
<path d="M3.90979 2.01682C4.01179 1.94682 4.13479 1.89978 4.27079 1.91178C4.44679 1.92578 4.59079 2.03482 4.67879 2.16782L5.19679 3.1948L5.90379 3.68082C5.96479 3.72782 6.00179 3.80183 5.99379 3.88383C5.98379 4.01083 5.87279 4.10683 5.74579 4.09483C5.70679 4.09283 5.67579 4.07681 5.64079 4.06181L4.86979 3.5308C4.84679 3.5108 4.82679 3.48781 4.81079 3.46281L4.61779 3.0778L4.38579 4.10081L5.29579 5.1768C5.31679 5.2098 5.33079 5.24882 5.33879 5.28782L5.58479 6.58683C5.58279 6.61583 5.58679 6.63378 5.58479 6.65678C5.57079 6.84978 5.40279 6.99078 5.21179 6.97678C5.05379 6.96278 4.93679 6.84582 4.89879 6.70182L4.66679 5.48478L3.92679 4.6738L3.75479 5.46281C3.74879 5.49981 3.69979 5.5778 3.68679 5.6088L2.97579 6.80582C2.90579 6.91482 2.78679 6.98579 2.65179 6.97379C2.45879 6.95979 2.31579 6.79181 2.33179 6.60081C2.33579 6.54581 2.35879 6.48978 2.37879 6.45078L3.03879 5.34379L3.58979 2.90482L3.23079 3.19578L3.03979 4.0648C3.01479 4.1758 2.91279 4.26779 2.79379 4.25779C2.66479 4.24779 2.57079 4.13679 2.58079 4.00779C2.58079 3.99779 2.58279 3.98778 2.58479 3.97678L2.81179 2.96281C2.82579 2.91981 2.84879 2.88078 2.88179 2.85178L3.90979 2.01682Z" fill="black"/>
<path d="M2.17386 8.27295H1.50586V9.21796H2.17386V8.27295Z" fill="black"/>
<path d="M6.814 8.27295H6.146V9.21796H6.814V8.27295Z" fill="black"/>
<path d="M0.897985 7.43286H0.0839844V7.88391H0.897985V7.43286Z" fill="black"/>
<path d="M7.16898 7.43286H6.35498V7.88391H7.16898V7.43286Z" fill="black"/>
<path d="M8.2388 7.43286H7.4248V7.88391H8.2388V7.43286Z" fill="black"/>
<path d="M6.12406 7.43286H5.31006V7.88391H6.12406V7.43286Z" fill="black"/>
<path d="M5.07865 7.43286H4.26465V7.88391H5.07865V7.43286Z" fill="black"/>
<path d="M4.03273 7.43286H3.21973V7.88391H4.03273V7.43286Z" fill="black"/>
<path d="M2.9878 7.43286H2.1748V7.88391H2.9878V7.43286Z" fill="black"/>
<path d="M1.94386 7.43286H1.13086V7.88391H1.94386V7.43286Z" fill="black"/>
</svg>
