<svg width="8" height="10" viewBox="0 0 8 10" fill="none" xmlns="http://www.w3.org/2000/svg">
<path d="M2.9453 5.5412C3.14025 5.5412 3.29829 5.38316 3.29829 5.1882C3.29829 4.99325 3.14025 4.83521 2.9453 4.83521C2.75034 4.83521 2.59229 4.99325 2.59229 5.1882C2.59229 5.38316 2.75034 5.5412 2.9453 5.5412Z" fill="black"/>
<path d="M3.27208 5.68407C3.20208 5.63607 3.11606 5.60407 3.02406 5.61107C2.90306 5.62107 2.80307 5.69604 2.74307 5.78804L2.38808 6.49306L1.90209 6.82704C1.86109 6.85904 1.83808 6.91005 1.84108 6.96605C1.84708 7.05405 1.92308 7.11904 2.01108 7.11204C2.03808 7.11004 2.05808 7.10006 2.08508 7.08906L2.61408 6.72404C2.63008 6.71104 2.64308 6.69605 2.65308 6.67705L2.78607 6.41304L2.94608 7.11604L2.31908 7.85505C2.30708 7.87706 2.29609 7.90407 2.29209 7.93007L2.12409 8.82405C2.12409 8.84305 2.12007 8.85505 2.12207 8.87205C2.13207 9.00405 2.24708 9.10105 2.37808 9.09205C2.48708 9.08305 2.56708 9.00206 2.59308 8.90306L2.75308 8.06706L3.26106 7.51005L3.38008 8.05205C3.38408 8.07705 3.41708 8.13107 3.42708 8.15407L3.91307 8.97505C3.96407 9.05005 4.04408 9.09905 4.13808 9.09105C4.26908 9.08005 4.36807 8.96606 4.35707 8.83406C4.35507 8.79706 4.33907 8.75906 4.32607 8.73106L3.87306 7.96904L3.49608 6.29506L3.74208 6.49406L3.87306 7.09205C3.89106 7.16805 3.95908 7.23107 4.04308 7.22307C4.12908 7.21707 4.19507 7.14005 4.18907 7.05305C4.18707 7.04505 4.18708 7.03806 4.18508 7.03206L4.02907 6.33507C4.02107 6.30607 4.00409 6.27805 3.98009 6.25905L3.27208 5.68407Z" fill="black"/>
<path fill-rule="evenodd" clip-rule="evenodd" d="M1.33243 4.69409C1.20743 5.01409 1.15443 5.11609 1.04543 5.31909C0.916425 5.55409 0.83243 5.8661 0.69043 6.0921C0.72743 5.9481 0.823426 5.20609 0.864426 5.04309C0.883426 4.96309 1.03443 5.10709 1.33243 4.69409Z" fill="black"/>
<path fill-rule="evenodd" clip-rule="evenodd" d="M1.82919 4.17414C1.65319 4.21114 1.4932 3.76915 1.5072 3.90415C1.5232 4.04315 1.8492 4.81015 1.9232 4.96415C1.9162 4.87315 1.81519 4.50814 1.82919 4.17414Z" fill="black"/>
<path fill-rule="evenodd" clip-rule="evenodd" d="M1.06929 5.83521C1.04029 6.0092 0.866295 6.2052 0.889295 6.3382C0.905295 6.4392 1.07329 6.97618 1.11029 7.13718C1.11229 7.04718 1.10629 6.19021 1.06929 5.83521Z" fill="black"/>
<path d="M7.6245 0.907227C6.8235 1.40723 6.70051 1.06022 6.21251 1.38022C5.94151 1.55722 5.58751 1.60224 5.26751 1.64124C4.70851 1.71024 4.8765 1.98123 4.2065 2.02023C3.6265 2.05423 3.4385 1.94223 2.8315 2.34323C2.3905 2.63523 2.4835 2.71322 1.9545 2.78122C1.2435 2.83822 0.77051 2.95322 0.84151 3.72522C0.86151 3.95322 0.958505 4.14021 0.892505 4.64621C0.851505 4.96721 1.13051 4.86323 1.17551 4.34323C1.21851 3.85123 1.24751 3.75723 1.47251 3.71823C1.66151 3.70423 1.82951 4.09324 1.86151 3.91724C1.96551 3.61724 2.31851 3.61222 2.54351 3.67322C2.75051 3.73022 2.80551 3.45221 3.10051 3.38321L5.94051 5.47922V9.06223H7.6025C7.6005 9.06323 7.6535 0.907227 7.6245 0.907227ZM5.93251 4.59921L3.96352 3.13721L5.93251 2.45322V4.59921Z" fill="black"/>
</svg>
