<svg width="9" height="6" viewBox="0 0 9 6" fill="none" xmlns="http://www.w3.org/2000/svg">
<path d="M0.988708 3.89177L0.475723 3.54576C0.475723 3.54576 2.60372 2.91075 3.91072 2.91075C4.80672 2.91075 5.58073 2.65877 5.28273 2.13677C4.98373 1.61476 4.98373 0.15875 6.17873 0.23375C6.17873 0.23375 7.00072 0.23377 7.07472 1.01677C7.07472 1.01677 7.00973 1.30575 8.09273 1.53075C8.09273 1.53075 8.2787 1.64177 7.9427 1.79277C7.9427 1.79277 6.29973 1.67977 6.45073 2.09078C6.45073 2.09078 6.41373 2.44678 6.96373 2.65978C7.90573 3.02378 8.84972 6.03877 4.91972 5.74977C4.91972 5.74977 3.37971 5.68475 2.14871 4.97475C2.14871 4.97475 0.738711 4.33175 0.178711 4.18175L0.988708 3.89177Z" fill="black"/>
</svg>
