<svg width="9" height="8" viewBox="0 0 9 8" fill="none" xmlns="http://www.w3.org/2000/svg">
<path d="M4.92183 7.06995C4.97883 7.05995 5.03483 7.05597 5.09383 7.05597C5.27183 7.05597 5.44183 7.09696 5.59183 7.16696C5.73783 7.23096 5.90282 7.27097 6.07382 7.27097C6.24482 7.27097 6.41183 7.23196 6.55783 7.16696C6.70783 7.09696 6.87783 7.05597 7.05383 7.05597C7.23183 7.05597 7.40183 7.09696 7.55183 7.16696C7.69783 7.23096 7.86483 7.27097 8.03383 7.27097V7.99597C7.86383 7.99597 7.69783 7.95696 7.55183 7.89096C7.40183 7.82296 7.23183 7.78195 7.05383 7.78195C6.87783 7.78195 6.70783 7.82296 6.55783 7.89096C6.41183 7.95696 6.24482 7.99597 6.07382 7.99597C5.90282 7.99597 5.73783 7.95696 5.59183 7.89096C5.44183 7.82296 5.27183 7.78195 5.09383 7.78195C4.91783 7.78195 4.74783 7.82296 4.59583 7.89096C4.44983 7.95696 4.28483 7.99597 4.11383 7.99597C3.94283 7.99597 3.77782 7.95696 3.63182 7.89096C3.48182 7.82296 3.31183 7.78195 3.13383 7.78195C2.95583 7.78195 2.78583 7.82296 2.63583 7.89096C2.48983 7.95696 2.32483 7.99597 2.15483 7.99597C1.98283 7.99597 1.81882 7.95696 1.67282 7.89096C1.52082 7.82296 1.35084 7.78195 1.17484 7.78195C0.996835 7.78195 0.826834 7.82296 0.676834 7.89096C0.530834 7.95696 0.365824 7.99597 0.194824 7.99597V7.27097C0.366824 7.27097 0.530834 7.23196 0.676834 7.16696C0.826834 7.09696 0.996835 7.05597 1.17484 7.05597C1.35084 7.05597 1.52082 7.09696 1.67282 7.16696C1.81882 7.23096 1.98383 7.27097 2.15483 7.27097C2.32583 7.27097 2.48983 7.23196 2.63583 7.16696C2.72183 7.12796 2.81182 7.09695 2.90582 7.07895L7.47583 6.26495C7.62383 6.22995 7.82583 6.12597 7.89583 5.94897C7.90983 5.91597 7.95883 5.90596 7.99983 5.90796C8.07383 5.91196 8.12883 5.97596 8.12883 6.05096C8.12883 6.16796 8.03883 6.49596 7.53883 6.59796L4.92183 7.06995Z" fill="black"/>
<path d="M0.955917 1.3259C1.32098 1.3259 1.61691 1.02995 1.61691 0.664886C1.61691 0.299826 1.32098 0.00390625 0.955917 0.00390625C0.590857 0.00390625 0.294922 0.299826 0.294922 0.664886C0.294922 1.02995 0.590857 1.3259 0.955917 1.3259Z" fill="black"/>
<path d="M2.87924 6.66992C2.91224 6.81592 3.09023 6.95694 3.27523 6.95694L3.27323 6.95892C3.50523 6.95892 3.69523 6.77093 3.69523 6.53693L3.68724 6.46893L3.18324 4.30692C3.14024 4.16792 3.00923 4.03694 2.87423 3.98294L2.13324 3.53793L1.79524 2.08093L3.87823 2.07693C4.04823 2.07693 4.18524 1.93993 4.18524 1.76993C4.18524 1.59993 4.04823 1.46094 3.87823 1.46094H0.871242C0.570242 1.46094 0.432235 1.67592 0.467235 1.86292L0.89323 3.79492C0.92623 3.97692 1.04523 4.12892 1.20623 4.20892L1.21624 4.21292L2.45524 4.94193L2.87924 6.66992Z" fill="black"/>
<path d="M8.04477 1.84888H4.36377V2.07886H8.04477V1.84888Z" fill="black"/>
</svg>
