<svg width="9" height="10" viewBox="0 0 9 10" fill="none" xmlns="http://www.w3.org/2000/svg">
<path d="M8.08221 9.06693C7.91021 9.06693 7.7462 9.02794 7.6002 8.96194C7.4482 8.89194 7.2782 8.85095 7.1022 8.85095C6.9242 8.85095 6.7542 8.89194 6.6042 8.96194C6.4582 9.02794 6.29121 9.06693 6.12221 9.06693C5.95021 9.06693 5.78421 9.02794 5.63821 8.96194C5.48821 8.89194 5.31821 8.85095 5.14021 8.85095C4.96421 8.85095 4.79421 8.89194 4.64421 8.96194C4.49821 9.02794 4.3312 9.06693 4.1602 9.06693C3.9892 9.06693 3.82421 9.02794 3.67821 8.96194C3.52821 8.89194 3.35821 8.85095 3.18021 8.85095C3.00421 8.85095 2.83421 8.89194 2.68221 8.96194C2.53621 9.02794 2.3712 9.06693 2.2012 9.06693C2.0292 9.06693 1.86521 9.02794 1.71921 8.96194C1.56921 8.89194 1.39921 8.85095 1.22121 8.85095C1.04521 8.85095 0.875206 8.89194 0.723206 8.96194C0.577206 9.02794 0.412211 9.06693 0.241211 9.06693V8.34195C0.413211 8.34195 0.577206 8.30294 0.723206 8.23694C0.875206 8.16894 1.04521 8.12793 1.22121 8.12793C1.39921 8.12793 1.56921 8.16894 1.71921 8.23694C1.86521 8.30294 2.0302 8.34195 2.2012 8.34195C2.3722 8.34195 2.53621 8.30294 2.68221 8.23694C2.83421 8.16894 3.00421 8.12793 3.18021 8.12793C3.35821 8.12793 3.52821 8.16894 3.67821 8.23694C3.82421 8.30294 3.9892 8.34195 4.1602 8.34195C4.3312 8.34195 4.49821 8.30294 4.64421 8.23694C4.79421 8.16894 4.96421 8.12793 5.14021 8.12793C5.31821 8.12793 5.48821 8.16894 5.63821 8.23694C5.78421 8.30294 5.95121 8.34195 6.12221 8.34195C6.29221 8.34195 6.4582 8.30294 6.6042 8.23694C6.7542 8.16894 6.9242 8.12793 7.1022 8.12793C7.2782 8.12793 7.4482 8.16894 7.6002 8.23694C7.7462 8.30294 7.91121 8.34195 8.08221 8.34195V9.06693Z" fill="black"/>
<path d="M4.91451 7.57096C4.98851 7.55496 5.0625 7.54798 5.1395 7.54798C5.3175 7.54798 5.4875 7.58898 5.6375 7.65698C5.7835 7.72298 5.9505 7.76196 6.1215 7.76196C6.2915 7.76196 6.45751 7.72298 6.60351 7.65698C6.70751 7.60998 6.81851 7.57298 6.93751 7.55698C6.87351 5.61398 4.8455 3.87897 4.7495 3.78897C4.6495 3.69897 4.55851 3.50198 4.62251 3.26898L5.1065 1.66696C5.1925 1.41896 5.14951 1.08697 5.03051 0.986971C4.96251 0.931971 4.81751 0.892976 4.71951 1.00498L3.4085 2.49097C3.1215 2.79597 3.36151 3.12197 3.35551 3.11997C2.91051 2.95997 2.38651 3.06697 2.06951 3.19797L0.98751 3.74698C0.88051 3.79198 0.833503 3.92896 0.889503 4.01996C1.0695 4.30696 1.6645 4.30898 2.9065 4.17398C4.9145 3.96198 4.91651 7.17496 4.91451 7.57096Z" fill="black"/>
</svg>
