<svg width="7" height="8" viewBox="0 0 7 8" fill="none" xmlns="http://www.w3.org/2000/svg">
<path d="M2.22498 1.55886C2.59059 1.55886 2.88699 1.26248 2.88699 0.896866C2.88699 0.531253 2.59059 0.234863 2.22498 0.234863C1.85936 0.234863 1.56299 0.531253 1.56299 0.896866C1.56299 1.26248 1.85936 1.55886 2.22498 1.55886Z" fill="black"/>
<path d="M5.44561 6.48689C5.55061 6.65889 5.79361 6.72889 5.97661 6.61988C6.15861 6.51088 6.21261 6.28189 6.10961 6.09089L4.98061 4.14189C4.91061 4.02489 4.7876 3.95788 4.6606 3.95388H3.0046L2.98861 3.45388H4.19161C4.35561 3.44388 4.49062 3.31889 4.49062 3.15089C4.49062 2.98489 4.35961 2.85589 4.19161 2.84989H2.9536L2.9106 2.28189C2.8876 1.93389 2.58862 1.66089 2.23662 1.67989C1.88262 1.69989 1.6156 2.00389 1.6326 2.35589L1.74761 4.36589C1.77661 4.71789 2.07162 4.96989 2.42162 4.96789H4.56762L5.44561 6.48689Z" fill="black"/>
<path d="M2.6506 7.24285C1.5646 7.24285 0.683624 6.36385 0.683624 5.27585C0.683624 4.67985 0.95362 4.14885 1.37262 3.78785L1.33762 3.17285C0.634616 3.61185 0.161621 4.38585 0.161621 5.27685C0.161621 6.64985 1.27463 7.76485 2.64963 7.76485C3.66163 7.76485 4.52662 7.15585 4.91562 6.28785L4.56561 5.68285C4.37861 6.57085 3.5956 7.24285 2.6506 7.24285Z" fill="black"/>
</svg>
