<svg width="8" height="8" viewBox="0 0 8 8" fill="none" xmlns="http://www.w3.org/2000/svg">
<path d="M3.56456 0.752441H2.30957V1.65044H3.56456V0.752441Z" fill="black"/>
<path d="M4.98013 4.62762C4.86113 4.62762 4.76514 4.53161 4.76514 4.41261V1.93262H6.66113L7.46014 5.31761L7.45613 5.53662V7.03262C7.45613 7.14762 7.36213 7.24162 7.24713 7.24162H5.40314C5.28814 7.24162 5.19414 7.14762 5.19414 7.03262V4.62862H4.99513" fill="black"/>
<path d="M3.34328 4.63353C3.46228 4.63353 3.55827 4.53753 3.55827 4.41853V1.93652H1.66428L0.863281 5.32153L0.867279 5.54253V7.03853C0.867279 7.15353 0.961279 7.24753 1.07628 7.24753H2.91928C3.03628 7.24753 3.13028 7.15353 3.13028 7.03853V4.63452H3.32727" fill="black"/>
<path d="M4.48544 1.93652H3.83545V4.24153H4.48544V1.93652Z" fill="black"/>
<path d="M6.02113 0.752441H4.76514V1.65044H6.02113V0.752441Z" fill="black"/>
</svg>
