<svg width="9" height="10" viewBox="0 0 9 10" fill="none" xmlns="http://www.w3.org/2000/svg">
<path d="M8.08221 9.15967C7.91121 9.15967 7.74621 9.12069 7.59921 9.05469C7.44921 8.98469 7.27921 8.94366 7.10221 8.94366C6.92521 8.94366 6.75521 8.98469 6.60521 9.05469C6.45821 9.12069 6.29321 9.15967 6.12221 9.15967C5.95121 9.15967 5.78521 9.12069 5.63921 9.05469C5.48921 8.98469 5.31921 8.94366 5.14121 8.94366C4.96521 8.94366 4.79521 8.98469 4.64421 9.05469C4.49821 9.12069 4.33221 9.15967 4.16121 9.15967C3.99021 9.15967 3.82521 9.12069 3.67921 9.05469C3.52821 8.98469 3.35921 8.94366 3.18121 8.94366C3.00421 8.94366 2.83521 8.98469 2.68421 9.05469C2.53721 9.12069 2.37221 9.15967 2.20121 9.15967C2.03021 9.15967 1.86521 9.12069 1.71821 9.05469C1.56821 8.98469 1.39821 8.94366 1.22121 8.94366C1.04321 8.94366 0.874211 8.98469 0.724211 9.05469C0.577211 9.12069 0.412211 9.15967 0.241211 9.15967V8.43469C0.413211 8.43469 0.577211 8.39571 0.724211 8.32971C0.874211 8.26171 1.04321 8.2207 1.22121 8.2207C1.39821 8.2207 1.56821 8.26171 1.71821 8.32971C1.86521 8.39571 2.03021 8.43469 2.20121 8.43469C2.37221 8.43469 2.53721 8.39571 2.68421 8.32971C2.83521 8.26171 3.00421 8.2207 3.18121 8.2207C3.35921 8.2207 3.52821 8.26171 3.67921 8.32971C3.82521 8.39571 3.99121 8.43469 4.16121 8.43469C4.33321 8.43469 4.49821 8.39571 4.64421 8.32971C4.79521 8.26171 4.96521 8.2207 5.14121 8.2207C5.31921 8.2207 5.48921 8.26171 5.63921 8.32971C5.78521 8.39571 5.95121 8.43469 6.12221 8.43469C6.29321 8.43469 6.45821 8.39571 6.60521 8.32971C6.75521 8.26171 6.92521 8.2207 7.10221 8.2207C7.27921 8.2207 7.44921 8.26171 7.59921 8.32971C7.74621 8.39571 7.91221 8.43469 8.08221 8.43469V9.15967Z" fill="black"/>
<path d="M1.07949 4.96881C1.34183 4.96881 1.55449 4.75617 1.55449 4.49384C1.55449 4.2315 1.34183 4.0188 1.07949 4.0188C0.817157 4.0188 0.604492 4.2315 0.604492 4.49384C0.604492 4.75617 0.817157 4.96881 1.07949 4.96881Z" fill="black"/>
<path d="M3.16836 7.1228H1.80936C1.60936 7.1228 1.43536 7.00379 1.35736 6.83179L0.854355 5.68579C0.844355 5.64679 0.839355 5.60783 0.839355 5.56683C0.839355 5.29183 1.06236 5.06879 1.33636 5.06879L2.44036 5.06683L3.19836 4.72284C3.21036 4.71484 3.24136 4.70679 3.27436 4.70679C3.40436 4.70679 3.51036 4.81381 3.51036 4.94281C3.51036 5.02281 3.46936 5.09482 3.40836 5.13782L2.58436 5.50879C2.52936 5.55179 2.42636 5.5578 2.42636 5.5578H1.93136L2.34736 6.48181H3.26636C3.35736 6.48181 3.42036 6.51283 3.47636 6.56183L4.37636 7.41681C4.50236 7.53381 4.50936 7.73079 4.39236 7.85779C4.27436 7.98279 4.07736 7.99078 3.95136 7.87378L3.16836 7.1228Z" fill="black"/>
<path d="M7.40532 5.56982C7.42332 5.59882 7.46532 5.61078 7.50432 5.61078C7.58032 5.61078 7.64332 5.54779 7.64332 5.46979C7.64332 5.43279 7.62532 5.3998 7.60932 5.3678C6.75932 3.7468 4.46532 4.22884 4.18432 4.33484C4.13732 4.35284 4.11032 4.40482 4.11032 4.45782C4.11032 4.53382 4.17332 4.5968 4.24932 4.5968C4.27232 4.5968 4.28432 4.59481 4.30532 4.58881C6.55232 4.08381 7.28532 5.36482 7.40532 5.56982ZM7.79532 5.71582L4.91832 7.52979L2.29932 0.84082C4.64332 1.15182 7.62332 2.97182 7.79532 5.71582Z" fill="black"/>
</svg>
