<svg width="5" height="10" viewBox="0 0 5 10" fill="none" xmlns="http://www.w3.org/2000/svg">
<path d="M2.77889 2.40576C3.24289 2.40576 3.57589 2.78776 3.64589 2.99576L4.21389 4.86576C4.32689 5.26676 3.81489 5.43376 3.69389 5.04276L3.18089 3.32676H2.88689L3.74389 6.37676H2.92789V8.75676C2.92789 9.16276 2.31689 9.16076 2.31689 8.75676V6.36176H2.00689V8.75176C2.00689 9.16276 1.39389 9.16276 1.39389 8.75176V6.37676H0.574891L1.42289 3.32676H1.14289L0.630891 5.04776C0.509891 5.42176 -0.00810899 5.26976 0.110891 4.86576L0.677891 2.99576C0.738891 2.78276 1.00889 2.40576 1.47589 2.40576H2.77889Z" fill="black"/>
<path d="M2.16154 2.26595C2.5277 2.26595 2.82454 1.96911 2.82454 1.60294C2.82454 1.23678 2.5277 0.939941 2.16154 0.939941C1.79537 0.939941 1.49854 1.23678 1.49854 1.60294C1.49854 1.96911 1.79537 2.26595 2.16154 2.26595Z" fill="black"/>
</svg>
