<svg width="8" height="10" viewBox="0 0 8 10" fill="none" xmlns="http://www.w3.org/2000/svg">
<path d="M2.94439 2.23938C3.31387 2.23938 3.61339 1.93985 3.61339 1.57037C3.61339 1.2009 3.31387 0.901367 2.94439 0.901367C2.57491 0.901367 2.27539 1.2009 2.27539 1.57037C2.27539 1.93985 2.57491 2.23938 2.94439 2.23938Z" fill="black"/>
<path d="M5.98139 3.5694C5.98139 3.5694 5.11439 3.5694 4.93839 3.5694C4.82539 3.4564 4.16539 2.79842 4.00039 2.63342C3.99039 2.62142 3.93639 2.57042 3.92239 2.56342C3.77739 2.44842 3.59439 2.37744 3.39539 2.37744H2.16139C1.64139 2.37744 1.29639 2.81341 1.29639 3.25641V5.29944C1.29439 5.70144 1.81939 5.70144 1.81939 5.29944V3.29944H2.06739L2.06939 8.72345C2.06939 8.93045 2.23739 9.09845 2.44439 9.09845C2.65139 9.09845 2.81939 8.93045 2.81939 8.72345V5.57843H3.06939V8.72345C3.06939 8.93045 3.23739 9.09845 3.44439 9.09845C3.65139 9.09845 3.81939 8.93045 3.81939 8.72345V3.18042L4.64939 4.01044C4.69639 4.05944 4.76239 4.08441 4.83139 4.08441H5.98139C6.12439 4.08441 6.24139 3.96943 6.24139 3.82843C6.24139 3.68443 6.12439 3.5694 5.98139 3.5694Z" fill="black"/>
<path d="M2.08121 4.41431L0.431211 6.06427C0.386211 6.10927 0.386211 6.18132 0.431211 6.22632C0.476211 6.27132 0.550211 6.27332 0.595211 6.22632L0.968211 5.85327V6.25128L0.534211 6.6853C0.507211 6.7123 0.507211 6.75533 0.534211 6.78333C0.561211 6.81133 0.606211 6.81033 0.634211 6.78333L0.968211 6.44733L0.970211 7.45728C0.970211 7.49028 0.997211 7.51831 1.03121 7.51831C1.06621 7.51831 1.09421 7.49128 1.09421 7.45728L1.09221 6.94531L1.35421 7.20728C1.37221 7.22528 1.40121 7.22528 1.41821 7.20728C1.43521 7.18928 1.43621 7.16031 1.41821 7.14331L1.15421 6.87732V5.67029L2.24621 4.57629L2.08121 4.41431Z" fill="black"/>
<path d="M7.90516 3.19446C7.93216 3.16546 7.93216 3.12045 7.90516 3.09045C7.87616 3.06145 7.83116 3.06145 7.80116 3.09045L7.36916 3.52246V3.08447C7.36916 3.05547 7.34416 3.02948 7.31416 3.02948C7.28316 3.02948 7.25916 3.05447 7.25916 3.08447V3.52747L6.24916 4.53748H5.39416C5.39416 4.53748 6.28516 3.64647 6.33716 3.59247C6.39217 3.53947 6.39416 3.45349 6.39416 3.45349V2.97449L7.12816 2.39246H7.63616C7.66516 2.39246 7.68916 2.37149 7.68916 2.34149C7.68916 2.31449 7.66616 2.2865 7.63616 2.2865H7.14616L7.61516 1.90149C7.64216 1.87449 7.64616 1.83348 7.61916 1.80548C7.59216 1.77748 7.54716 1.77848 7.51916 1.80548L6.78716 2.39148V1.56348C6.78716 1.52648 6.76016 1.49951 6.72316 1.49951C6.68616 1.49951 6.65716 1.52648 6.65716 1.56348V2.4895L6.30216 2.79047V2.25549C6.30216 2.20649 6.26316 2.16351 6.21416 2.16351C6.16316 2.16351 6.12216 2.20649 6.12216 2.25549V3.34546L4.36816 5.1015L4.60016 5.33148L5.12116 4.81049H7.27916C7.33816 4.81049 7.38416 4.76351 7.38416 4.70551C7.38416 4.64751 7.33716 4.59851 7.27916 4.59851L6.49416 4.60248L6.89016 4.20648H7.61316C7.65816 4.20648 7.69516 4.17146 7.69516 4.12646C7.69516 4.07946 7.66016 4.04448 7.61316 4.04248H7.05416L7.90516 3.19446Z" fill="black"/>
</svg>
